<svg xmlns="http://www.w3.org/2000/svg" width="25" height="29.516" viewBox="0 0 25 29.516"><defs><style>.cls-1,.cls-3,.cls-4{fill:none}.cls-2{fill:#ffc52e}.cls-3,.cls-4{stroke:#ffc52e}.cls-4{stroke-linecap:round}</style></defs><g id="Group_1457" transform="translate(0 .054)"><g id="Union_10" transform="translate(0 7.141)"><path id="Path_753" d="M5.357 30.32a.892.892 0 01-.893-.893V24.07H2.678A2.678 2.678 0 010 21.392V10.678A2.678 2.678 0 012.678 8H22.32A2.678 2.678 0 0125 10.678v10.714a2.678 2.678 0 01-2.68 2.678h-1.786v5.357a.892.892 0 01-.893.893z" class="cls-1" transform="translate(0 -7.999)"/><path id="Path_754" d="M19.641 29.427v-6.25h2.679a1.789 1.789 0 001.787-1.786V10.679a1.789 1.789 0 00-1.787-1.787H2.679a1.789 1.789 0 00-1.786 1.787v10.712a1.788 1.788 0 001.786 1.786h2.676v6.25h14.286m0 .893H5.356a.893.893 0 01-.894-.893V24.07H2.679A2.68 2.68 0 010 21.391V10.679A2.68 2.68 0 012.679 8H22.32A2.68 2.68 0 0125 10.679v10.712a2.68 2.68 0 01-2.68 2.679h-1.787v5.357a.893.893 0 01-.892.893z" class="cls-2" transform="translate(0 -7.999)"/></g><g id="Rectangle_486" transform="translate(2.678 7.142)"><rect id="Rectangle_492" width="19.641" height="8.928" class="cls-1" rx="1"/><rect id="Rectangle_493" width="18.749" height="8.035" class="cls-3" rx=".5" transform="translate(.446 .446)"/></g><g id="Rectangle_487" transform="translate(4.464)"><rect id="Rectangle_494" width="16.07" height="8.035" class="cls-1" rx="1"/><rect id="Rectangle_495" width="15.177" height="7.142" class="cls-3" rx=".5" transform="translate(.446 .446)"/></g><circle id="Ellipse_246" cx=".893" cy=".893" r=".893" class="cls-2" transform="translate(18.749 12.499)"/><path id="Path_722" d="M5.5 24.925V20.26l15.2-.02v4.323" class="cls-3" transform="translate(-.59 -2.17)"/><path id="Line_192" d="M0 0h7.142" class="cls-4" transform="translate(7.589 20.088)"/><path id="Line_193" d="M0 0h7.142" class="cls-4" transform="translate(7.589 21.873)"/><path id="Line_194" d="M0 0h7.142" class="cls-4" transform="translate(7.589 23.659)"/><path id="Path_723" d="M5.294 20.241H3.582v1.734h1.712" class="cls-3" transform="translate(-.384 -2.17)"/><path id="Path_724" d="M22.574 21.975h1.712v-1.734h-1.712" class="cls-3" transform="translate(-2.42 -2.17)"/></g></svg>