<svg width="100" height="101" viewBox="0 0 100 101" fill="none" xmlns="http://www.w3.org/2000/svg"><g clip-path="url(#clip0_18_5519)"><path d="M50.003 100.477c27.616 0 50.003-22.387 50.003-50.003S77.619.47 50.003.47 0 22.858 0 50.474s22.387 50.003 50.003 50.003z" fill="#FAEFD2"/><path d="M24.063 32.8v-4.762h9.726v.543c-.025.876.783 1.604 1.8 1.622 1.018.018 1.87-.672 1.894-1.542v-.623h25.002v.518c-.025.876.783 1.604 1.8 1.622 1.018.019 1.869-.672 1.894-1.541v-.599h10.114V32.8h3.694v-7.943H66.179v-2.689c.024-.876-.784-1.603-1.801-1.622-1.018-.018-1.869.672-1.894 1.542v2.77H37.483v-2.665c.025-.876-.783-1.604-1.8-1.622-1.019-.018-1.87.672-1.894 1.542v2.744h-13.42V32.8h3.694zm1.092 3.082v6.784h-5.55v-6.784h5.55zM28.24 32.8H16.521v12.95H28.24V32.8z" fill="#FEC52E"/><path d="M39.087 35.882v6.784h-5.55v-6.784h5.55zm3.084-3.083H30.453v12.95h11.718V32.8zm10.848 3.083v6.784h-5.55v-6.784h5.55zm3.083-3.083H44.385v12.95h11.717V32.8zm24.78 3.083v6.784h-5.55v-6.784h5.55zm3.084-3.083H72.248v12.95h11.718V32.8zM66.95 35.882v6.784H61.4v-6.784h5.55zm3.084-3.083H58.316v12.95h11.718V32.8zM25.155 51.097v6.784h-5.55v-6.784h5.55zm3.084-3.083H16.521v12.95H28.24v-12.95zm10.848 3.083v6.784h-5.55v-6.784h5.55zm3.084-3.083H30.453v12.95h11.718v-12.95zm10.848 3.083v6.784h-5.55v-6.784h5.55zm3.083-3.083H44.385v12.95h11.717v-12.95zm24.78 3.083v6.784h-5.55v-6.784h5.55zm3.084-3.083H72.248v12.95h11.718v-12.95zM66.95 51.097v6.784H61.4v-6.784h5.55zm3.084-3.083H58.316v12.95h11.718v-12.95zM25.155 66.31v6.784h-5.55V66.31h5.55zm3.084-3.083H16.521v12.95H28.24v-12.95zm10.848 3.083v6.784h-5.55V66.31h5.55zm3.084-3.083H30.453v12.95h11.718v-12.95zm10.848 3.083v6.784h-5.55V66.31h5.55zm3.083-3.083H44.385v12.95h11.717v-12.95zm24.78 3.083v6.784h-5.55V66.31h5.55zm3.084-3.083H72.248v12.95h11.718v-12.95zM66.95 66.31v6.784H61.4V66.31h5.55zm3.084-3.083H58.316v12.95h11.718v-12.95z" fill="#FEC52E"/></g><defs><clipPath id="clip0_18_5519"><path fill="#fff" transform="translate(0 .47)" d="M0 0h100v100H0z"/></clipPath></defs></svg>