<svg xmlns="http://www.w3.org/2000/svg" width="23.507" height="23.506" viewBox="0 0 23.507 23.506">
    <g>
        <path fill="#fff" d="M-9231.19-30.312a1.5 1.5 0 0 1 0-2.122l20.507-20.507a1.5 1.5 0 0 1 2.122 0 1.5 1.5 0 0 1 0 2.122l-9.193 9.194 9.19 9.193a1.486 1.486 0 0 1 .44 1.059 1.5 1.5 0 0 1-.44 1.061 1.484 1.484 0 0 1-1.059.438 1.49 1.49 0 0 1-1.061-.438l-9.192-9.192-9.192 9.192a1.5 1.5 0 0 1-1.062.44 1.5 1.5 0 0 1-1.06-.44zm0-20.5a1.493 1.493 0 0 1-.438-1.061 1.486 1.486 0 0 1 .438-1.061 1.483 1.483 0 0 1 1.061-.44 1.483 1.483 0 0 1 1.062.44l8.192 8.192-2.122 2.12z" transform="translate(-275.621 -23.622) translate(9507.251 77)"/>
    </g>
</svg>
