<svg width="268" height="330" viewBox="0 0 268 330" fill="none" xmlns="http://www.w3.org/2000/svg"><path d="M85.895 11.322c.792 0 1.362-.189 1.71-.567.348-.378.522-.906.522-1.584 0-.3-.045-.573-.135-.819a1.604 1.604 0 00-.414-.63 1.766 1.766 0 00-.693-.414 3.024 3.024 0 00-.99-.144h-1.584v4.158h1.584zm0-6.435c.924 0 1.716.111 2.376.333.666.216 1.212.516 1.638.9.432.384.75.837.954 1.359.204.522.306 1.086.306 1.692 0 .654-.105 1.254-.315 1.8a3.612 3.612 0 01-.963 1.404c-.432.39-.981.696-1.647.918-.66.216-1.443.324-2.349.324h-1.584V18h-3.042V4.887h4.626zm11.045 9.315a9.263 9.263 0 00-1.377.144c-.36.072-.645.162-.855.27-.21.108-.357.231-.441.369a.9.9 0 00-.117.45c0 .318.087.543.26.675.175.126.43.189.766.189.36 0 .675-.063.945-.189.27-.126.543-.33.819-.612v-1.296zm-5.022-4.239a5.62 5.62 0 011.872-1.107 6.544 6.544 0 012.214-.369 3.95 3.95 0 011.52.279c.457.18.84.435 1.153.765.318.324.56.711.729 1.161.168.45.252.942.252 1.476V18H98.38c-.264 0-.465-.036-.603-.108-.132-.072-.243-.222-.333-.45l-.198-.513a8.994 8.994 0 01-.675.522c-.216.15-.441.279-.675.387a3.203 3.203 0 01-.738.225 4.23 4.23 0 01-.864.081c-.426 0-.813-.054-1.161-.162a2.52 2.52 0 01-.891-.495 2.189 2.189 0 01-.558-.801 2.94 2.94 0 01-.198-1.116c0-.336.084-.675.252-1.017.168-.348.459-.663.873-.945.414-.288.972-.528 1.674-.72.702-.192 1.587-.3 2.655-.324v-.396c0-.546-.114-.939-.342-1.179-.222-.246-.54-.369-.954-.369-.33 0-.6.036-.81.108-.21.072-.4.153-.567.243-.162.09-.321.171-.477.243a1.323 1.323 0 01-.558.108.804.804 0 01-.486-.144 1.252 1.252 0 01-.324-.342l-.504-.873zM111.389 18h-2.79v-7.407h-3.906v4.635c0 .216.051.396.153.54a.549.549 0 00.459.207.98.98 0 00.252-.027c.072-.024.132-.048.18-.072.054-.03.102-.054.144-.072a.357.357 0 01.162-.036.29.29 0 01.198.063.608.608 0 01.162.18l.846 1.323c-.36.27-.765.474-1.215.612a4.93 4.93 0 01-1.395.198c-.444 0-.837-.063-1.179-.189a2.467 2.467 0 01-.855-.549 2.416 2.416 0 01-.522-.864 3.327 3.327 0 01-.18-1.125v-4.824h-.792a.538.538 0 01-.369-.135c-.102-.096-.153-.234-.153-.414V8.955l1.485-.297.549-2.268c.072-.288.276-.432.612-.432h1.458v2.727h6.696V18zm.387-11.898c0 .222-.045.432-.135.63-.09.198-.213.372-.369.522a1.77 1.77 0 01-.549.342 1.708 1.708 0 01-.657.126c-.228 0-.441-.042-.639-.126a1.83 1.83 0 01-.531-.342c-.15-.15-.27-.324-.36-.522a1.596 1.596 0 01-.126-.63 1.596 1.596 0 01.486-1.152c.156-.15.333-.267.531-.351.198-.09.411-.135.639-.135.234 0 .453.045.657.135a1.687 1.687 0 01.918.873c.09.198.135.408.135.63zm7.37 6.111c0-.222-.03-.438-.09-.648a1.439 1.439 0 00-.279-.558 1.358 1.358 0 00-.504-.405 1.739 1.739 0 00-.765-.153c-.528 0-.942.153-1.242.459-.3.3-.498.735-.594 1.305h3.474zm-3.51 1.62c.09.78.327 1.347.711 1.701.384.348.879.522 1.485.522.324 0 .603-.039.837-.117a4.03 4.03 0 00.621-.261l.504-.261c.156-.078.318-.117.486-.117.222 0 .39.081.504.243l.81.999c-.288.33-.6.6-.936.81a5 5 0 01-1.026.486 5.431 5.431 0 01-1.053.234 7.318 7.318 0 01-.999.072 5.345 5.345 0 01-1.845-.315 4.337 4.337 0 01-1.503-.954 4.566 4.566 0 01-1.017-1.566c-.246-.624-.369-1.35-.369-2.178 0-.624.105-1.215.315-1.773a4.463 4.463 0 01.918-1.467c.402-.42.885-.753 1.449-.999.57-.246 1.212-.369 1.926-.369.618 0 1.182.096 1.692.288.516.192.957.471 1.323.837.372.366.66.816.864 1.35.21.528.315 1.128.315 1.8 0 .21-.009.381-.027.513a.812.812 0 01-.099.315.375.375 0 01-.198.162.867.867 0 01-.306.045h-5.382zm9.983-4.158c.18-.168.366-.324.558-.468a3.407 3.407 0 011.323-.594c.258-.06.537-.09.837-.09.51 0 .96.09 1.35.27.396.174.729.42.999.738.27.312.474.687.612 1.125.138.432.207.903.207 1.413V18h-2.79v-5.931c0-.456-.105-.81-.315-1.062-.21-.258-.519-.387-.927-.387-.306 0-.594.066-.864.198-.264.126-.522.3-.774.522V18h-2.79V8.667h1.728c.348 0 .576.156.684.468l.162.54zm10.907 8.469c-.444 0-.837-.063-1.179-.189a2.467 2.467 0 01-.855-.549 2.416 2.416 0 01-.522-.864 3.327 3.327 0 01-.18-1.125v-4.824h-.792a.538.538 0 01-.369-.135c-.102-.096-.153-.234-.153-.414V8.955l1.485-.288.549-2.277c.072-.288.276-.432.612-.432h1.458v2.727h2.313v1.908h-2.313v4.635c0 .216.051.396.153.54a.549.549 0 00.459.207.98.98 0 00.252-.027c.072-.024.132-.048.18-.072.054-.03.102-.054.144-.072a.357.357 0 01.162-.036.29.29 0 01.198.063.608.608 0 01.162.18l.846 1.323c-.36.27-.765.474-1.215.612a4.93 4.93 0 01-1.395.198zm16.249-2.16V18h-7.47v-2.016h2.52V9.369a14.12 14.12 0 01.036-1.026l-1.494 1.242a.922.922 0 01-.396.189 1.206 1.206 0 01-.36 0 .984.984 0 01-.306-.117.738.738 0 01-.198-.18l-.882-1.17 4.086-3.429h2.304v11.106h2.16zM81.17 30.595a4.695 4.695 0 01.486-1.557c.24-.456.543-.837.909-1.143a3.894 3.894 0 011.269-.693 4.81 4.81 0 011.548-.243 4.7 4.7 0 011.512.234c.462.156.858.378 1.188.666.336.288.597.636.783 1.044.186.408.279.861.279 1.359 0 .408-.054.774-.162 1.098a2.5 2.5 0 01-.45.837c-.192.24-.426.444-.702.612a4.218 4.218 0 01-.927.414c.84.216 1.47.588 1.89 1.116.426.522.639 1.176.639 1.962a3.65 3.65 0 01-1.26 2.817c-.39.33-.846.585-1.368.765a5.178 5.178 0 01-1.665.261c-.684 0-1.269-.084-1.755-.252a3.698 3.698 0 01-1.233-.711 3.784 3.784 0 01-.828-1.062 8.144 8.144 0 01-.549-1.341l.693-.288a.845.845 0 01.522-.063c.174.036.3.135.378.297.078.168.174.369.288.603.12.234.282.459.486.675.204.216.462.399.774.549.318.15.72.225 1.206.225.45 0 .843-.072 1.179-.216.342-.15.624-.342.846-.576a2.36 2.36 0 00.513-.783 2.31 2.31 0 00.171-.855c0-.348-.045-.666-.135-.954a1.597 1.597 0 00-.504-.747c-.246-.21-.585-.375-1.017-.495-.426-.12-.975-.18-1.647-.18v-1.161c.552-.006 1.02-.066 1.404-.18.39-.114.705-.27.945-.468.246-.198.423-.435.531-.711.114-.276.171-.582.171-.918 0-.372-.06-.696-.18-.972a1.824 1.824 0 00-.477-.684 2.01 2.01 0 00-.729-.405 2.888 2.888 0 00-.9-.135c-.324 0-.627.048-.909.144a2.447 2.447 0 00-.738.405c-.21.168-.387.369-.531.603a2.429 2.429 0 00-.306.774c-.078.21-.177.351-.297.423-.114.066-.282.084-.504.054l-.837-.144zm12.53 1.377a8.9 8.9 0 011.853-.216c.672 0 1.266.099 1.782.297.516.198.945.471 1.287.819.348.348.61.759.783 1.233.18.474.27.99.27 1.548 0 .684-.12 1.302-.36 1.854a4.161 4.161 0 01-2.448 2.322 5.195 5.195 0 01-1.827.315c-.378 0-.74-.039-1.089-.117a5.494 5.494 0 01-.98-.297 5.79 5.79 0 01-.838-.432 4.84 4.84 0 01-.684-.513l.495-.684a.494.494 0 01.423-.234c.12 0 .255.048.405.144.15.09.333.192.55.306.215.114.467.219.755.315.294.09.642.135 1.044.135.45 0 .855-.072 1.215-.216a2.66 2.66 0 00.927-.612 2.77 2.77 0 00.594-.963c.138-.372.207-.789.207-1.251 0-.402-.06-.765-.18-1.089a2.072 2.072 0 00-.53-.828 2.392 2.392 0 00-.883-.531 3.703 3.703 0 00-1.242-.189 6.75 6.75 0 00-2.088.342l-1.008-.297 1.035-6.03h6.111v.702a.786.786 0 01-.216.567c-.138.144-.378.216-.72.216h-4.05l-.594 3.384zm20.466-1.089l-5.085 11.808a.809.809 0 01-.207.288c-.078.072-.201.108-.369.108h-1.188l1.665-3.618-3.762-8.586h1.386a.46.46 0 01.324.108.503.503 0 01.171.225l2.439 5.742c.096.252.177.516.243.792.084-.282.174-.549.27-.801l2.367-5.733a.495.495 0 01.18-.234.491.491 0 01.297-.099h1.269zm7.271 3.564c0-.372-.054-.711-.162-1.017a2.156 2.156 0 00-.459-.801 1.937 1.937 0 00-.729-.522 2.425 2.425 0 00-.981-.189c-.768 0-1.377.225-1.827.675-.444.444-.72 1.062-.828 1.854h4.986zm1.296 4.275a3.13 3.13 0 01-.711.63 4.533 4.533 0 01-.891.432 5.255 5.255 0 01-.972.252c-.336.06-.669.09-.999.09a4.73 4.73 0 01-1.746-.315 3.954 3.954 0 01-1.377-.936 4.378 4.378 0 01-.9-1.53c-.216-.606-.324-1.302-.324-2.088 0-.636.096-1.23.288-1.782.198-.552.48-1.029.846-1.431a3.797 3.797 0 011.341-.954c.528-.234 1.122-.351 1.782-.351.546 0 1.05.093 1.512.279a3.3 3.3 0 011.206.792c.342.342.609.768.801 1.278.192.504.288 1.08.288 1.728 0 .252-.027.42-.081.504-.054.084-.156.126-.306.126h-6.093c.018.576.096 1.077.234 1.503.144.426.342.783.594 1.071.252.282.552.495.9.639a3.15 3.15 0 001.17.207c.402 0 .747-.045 1.035-.135a5.184 5.184 0 001.278-.603c.144-.096.267-.144.369-.144.132 0 .234.051.306.153l.45.585zm7.053-2.826c-.738.024-1.368.084-1.89.18-.516.09-.939.21-1.269.36-.324.15-.561.327-.711.531a1.158 1.158 0 00-.216.684c0 .24.039.447.117.621.078.174.183.318.315.432.138.108.297.189.477.243.186.048.384.072.594.072.282 0 .54-.027.774-.081a2.98 2.98 0 00.657-.252c.21-.108.408-.237.594-.387a4.91 4.91 0 00.558-.513v-1.89zm-5.175-3.726a5.206 5.206 0 011.629-1.089 5.03 5.03 0 011.935-.36c.51 0 .963.084 1.359.252.396.168.729.402.999.702.27.3.474.663.612 1.089.138.426.207.894.207 1.404V40h-.711a.735.735 0 01-.36-.072c-.084-.054-.15-.156-.198-.306l-.18-.864c-.24.222-.474.42-.702.594a4.402 4.402 0 01-.72.432 3.877 3.877 0 01-.81.261 4.155 4.155 0 01-.945.099 3.38 3.38 0 01-.999-.144 2.414 2.414 0 01-.819-.45 2.179 2.179 0 01-.549-.747 2.711 2.711 0 01-.198-1.08c0-.36.099-.705.297-1.035.198-.336.519-.633.963-.891.444-.258 1.023-.468 1.737-.63.714-.168 1.59-.264 2.628-.288v-.711c0-.708-.153-1.242-.459-1.602-.306-.366-.753-.549-1.341-.549-.396 0-.729.051-.999.153a3.546 3.546 0 00-.693.333c-.192.12-.36.231-.504.333a.721.721 0 01-.414.144.478.478 0 01-.279-.081.85.85 0 01-.198-.216l-.288-.513zm10.702.54c.288-.624.642-1.11 1.062-1.458.42-.354.933-.531 1.539-.531.192 0 .375.021.549.063.18.042.339.108.477.198l-.117 1.197c-.036.15-.126.225-.27.225-.084 0-.207-.018-.369-.054a2.54 2.54 0 00-.549-.054c-.288 0-.546.042-.774.126-.222.084-.423.21-.603.378a2.674 2.674 0 00-.477.612c-.138.24-.264.516-.378.828V40h-1.611v-9.117h.918c.174 0 .294.033.36.099s.111.18.135.342l.108 1.386zm10.293-.324a.355.355 0 01-.333.198.627.627 0 01-.306-.099 5.385 5.385 0 00-.423-.216 3.227 3.227 0 00-.585-.225 2.702 2.702 0 00-.81-.108c-.27 0-.513.036-.729.108a1.739 1.739 0 00-.558.279c-.15.12-.267.261-.351.423a1.13 1.13 0 00-.117.513c0 .234.066.429.198.585.138.156.318.291.54.405.222.114.474.216.756.306.282.084.57.177.864.279.3.096.591.204.873.324.282.12.534.27.756.45.222.18.399.402.531.666.138.258.207.57.207.936 0 .42-.075.81-.225 1.17-.15.354-.372.663-.666.927a3.255 3.255 0 01-1.08.612c-.426.15-.918.225-1.476.225a4.664 4.664 0 01-1.728-.306 4.45 4.45 0 01-1.314-.801l.378-.612a.55.55 0 01.171-.18.462.462 0 01.252-.063c.108 0 .222.042.342.126.12.084.264.177.432.279.174.102.384.195.63.279.246.084.552.126.918.126.312 0 .585-.039.819-.117.234-.084.429-.195.585-.333.156-.138.27-.297.342-.477.078-.18.117-.372.117-.576a.924.924 0 00-.207-.621 1.579 1.579 0 00-.531-.423 3.91 3.91 0 00-.765-.306l-.873-.279a11.76 11.76 0 01-.873-.324 3.205 3.205 0 01-.756-.468 2.168 2.168 0 01-.54-.684c-.132-.276-.198-.609-.198-.999 0-.348.072-.681.216-.999.144-.324.354-.606.63-.846a3.058 3.058 0 011.017-.585 4.07 4.07 0 011.377-.216c.6 0 1.137.096 1.611.288.48.186.894.444 1.242.774l-.36.585zm10.926-1.647c.666 0 1.266.111 1.8.333.534.222.99.537 1.368.945.378.408.666.903.864 1.485.204.576.306 1.221.306 1.935 0 .72-.102 1.368-.306 1.944a4.102 4.102 0 01-.864 1.476 3.857 3.857 0 01-1.368.945c-.534.216-1.134.324-1.8.324-.672 0-1.278-.108-1.818-.324a3.857 3.857 0 01-1.368-.945 4.208 4.208 0 01-.873-1.476c-.198-.576-.297-1.224-.297-1.944 0-.714.099-1.359.297-1.935a4.195 4.195 0 01.873-1.485 3.857 3.857 0 011.368-.945c.54-.222 1.146-.333 1.818-.333zm0 8.136c.9 0 1.572-.3 2.016-.9.444-.606.666-1.449.666-2.529 0-1.086-.222-1.932-.666-2.538-.444-.606-1.116-.909-2.016-.909-.456 0-.855.078-1.197.234a2.261 2.261 0 00-.846.675c-.222.294-.39.657-.504 1.089a5.912 5.912 0 00-.162 1.449c0 1.08.222 1.923.666 2.529.45.6 1.131.9 2.043.9zm8.026-12.132V40h-1.602V26.743h1.602zm8.538 6.309c-.3-.402-.624-.681-.972-.837a2.74 2.74 0 00-1.17-.243c-.846 0-1.497.303-1.953.909-.456.606-.684 1.47-.684 2.592 0 .594.051 1.104.153 1.53.102.42.252.768.45 1.044.198.27.441.468.729.594.288.126.615.189.981.189.528 0 .987-.12 1.377-.36.396-.24.759-.579 1.089-1.017v-4.401zm1.602-6.309V40h-.954c-.228 0-.372-.111-.432-.333l-.144-1.107c-.39.468-.834.846-1.332 1.134-.498.288-1.074.432-1.728.432-.522 0-.996-.099-1.422-.297a2.991 2.991 0 01-1.089-.891c-.3-.39-.531-.876-.693-1.458-.162-.582-.243-1.251-.243-2.007 0-.672.09-1.296.27-1.872.18-.582.438-1.086.774-1.512a3.558 3.558 0 011.233-.999 3.651 3.651 0 011.656-.369c.558 0 1.035.096 1.431.288a3.4 3.4 0 011.071.783v-5.049h1.602z" fill="#103B71"/><g clip-path="url(#clip0_5_51936)"><path d="M160.835 110.789c-9.985 0-20.214-.49-20.214-.49l.657-5.965c7.833-1.378 13.798-8.206 13.798-16.439 0-9.224-7.485-16.71-16.71-16.71-9.224 0-16.709 7.486-16.709 16.71 0 8.04 5.681 14.739 13.244 16.336v3.62l-3.633 3.93-15.422 1.507-6.184 4.393-3.375 6.88v48.325s-1.275 6.571 3.375 6.815c4.664.245 9.289 1.057 9.289 1.057l-.979 64.455s3.659 5.81 9.74 5.346c6.094-.476 11.633-3.143 11.633-3.143s1.804 2.705 10.423 3.169c8.619.477 9.611-5.617 9.611-5.617v-66.542s4.38 2.409 6.339 2.319c1.958-.09 6.093-3.466 6.093-3.466v-51.674s-.979-14.855-10.963-14.855l-.013.039z" fill="#EBFBFA"/><mask id="a" style="mask-type:luminance" maskUnits="userSpaceOnUse" x="103" y="66" width="73" height="188"><path d="M157.343 107.914h-11.092c11.131-3.981 16.916-16.22 12.948-27.351-3.981-11.131-16.22-16.916-27.352-12.948-11.131 3.981-16.915 16.22-12.947 27.351a21.374 21.374 0 0012.947 12.948H121.36c-9.881 0-17.894 8.026-17.907 17.908v49.742h.038a9.131 9.131 0 0012.085 8.001v60.912c0 5.14 5.797 9.16 13.205 9.16a15.979 15.979 0 0010.191-3.273 15.976 15.976 0 0010.19 3.273c7.408 0 13.206-4.02 13.206-9.16v-60.912c4.767 1.636 9.972-.902 11.608-5.669a9.45 9.45 0 00.502-2.938l.786-42.166v-6.983c0-9.882-8.026-17.895-17.908-17.908l-.013.013zM123.86 87.79c0-8.387 6.789-15.19 15.176-15.19s15.19 6.79 15.19 15.177-6.79 15.19-15.177 15.19c-8.374 0-15.163-6.803-15.176-15.177h-.013zm45.181 44.95l-.785 42.167a2.95 2.95 0 01-2.951 2.95 2.941 2.941 0 01-2.95-2.95v-31.938a3.107 3.107 0 00-3.04-3.169 3.107 3.107 0 00-3.17 3.04v101.65c0 1.017-2.718 2.95-6.995 2.95-4.278 0-6.996-1.933-6.996-2.95h-.18v-50.761a3.11 3.11 0 00-3.118-3.104c-1.714 0-3.092 1.391-3.105 3.104v50.761c0 1.017-2.718 2.95-6.996 2.95-4.277 0-6.995-1.933-6.995-2.95V142.969a3.108 3.108 0 00-3.041-3.169 3.107 3.107 0 00-3.169 3.04v32.067a2.947 2.947 0 01-2.937 2.95 2.947 2.947 0 01-2.951-2.937v-49.098c0-6.455 5.244-11.685 11.698-11.698h35.983c6.455 0 11.686 5.243 11.698 11.698v6.918z" fill="#fff"/></mask><g mask="url(#a)" fill="#4DC4BC"><path d="M139.345 114.124h-29.683v133.303h29.683V114.124zm29.683 0h-29.683v133.303h29.683V114.124zm-29.683-41.522H123.86v30.365h15.485V72.602zm14.881 0h-14.881v30.365h14.881V72.602z"/><path d="M139.358 63.648h-35.905v190.105h35.905V63.648z"/><path d="M175.251 63.648h-35.906v190.105h35.906V63.648z"/></g><path d="M103.453 253.998H82.17V65.116h21.283v2.577H84.746V251.42h18.707v2.577zM13.746 142.196v13.141H10.68v-5.552H5.347v5.552H2.28v-13.141h3.067v5.489h5.333v-5.489h3.066zm4.239 8.967c.09.786.322 1.353.709 1.701.386.348.876.528 1.494.528.322 0 .606-.038.838-.116.231-.077.438-.167.63-.257.181-.104.349-.181.503-.258.155-.077.31-.116.477-.116.219 0 .386.077.502.245l.812 1.005a4.509 4.509 0 01-.928.811 4.19 4.19 0 01-1.03.49 6.299 6.299 0 01-2.062.309 5.082 5.082 0 01-1.842-.322 4.29 4.29 0 01-1.507-.953 4.494 4.494 0 01-1.018-1.572c-.245-.631-.374-1.353-.374-2.177 0-.632.103-1.224.322-1.778a4.551 4.551 0 01.915-1.469c.4-.425.89-.76 1.456-1.005.567-.245 1.211-.374 1.932-.374.619 0 1.186.104 1.701.284a3.83 3.83 0 011.327.837c.374.374.657.812.863 1.353a5 5 0 01.31 1.804c0 .206 0 .386-.026.515a.788.788 0 01-.104.322.488.488 0 01-.193.168.984.984 0 01-.309.051h-5.398v-.026zm3.517-1.623c0-.219-.026-.438-.09-.644a1.571 1.571 0 00-.284-.567 1.356 1.356 0 00-.515-.399 1.74 1.74 0 00-.76-.155c-.528 0-.94.155-1.25.451-.309.296-.502.747-.592 1.314h3.491zm7.06-6.119c0 .219-.051.425-.142.631a1.66 1.66 0 01-.373.515 1.687 1.687 0 01-.541.348 1.62 1.62 0 01-.657.129 1.56 1.56 0 01-.645-.129 2.075 2.075 0 01-.528-.348 1.622 1.622 0 01-.36-.515c-.09-.193-.13-.4-.13-.631 0-.232.04-.438.13-.645a1.84 1.84 0 01.36-.528 1.59 1.59 0 01.529-.348c.193-.09.412-.129.644-.129.232 0 .45.039.657.129.206.091.386.206.54.348.155.155.284.322.375.528.09.207.141.413.141.645zm-.296 2.563v9.354H25.47v-9.354h2.796zm10.448.297v1.017c0 .155-.038.284-.128.374-.09.09-.232.155-.451.206l-.683.155c.038.129.064.27.09.399.026.129.026.284.026.438 0 .464-.103.889-.297 1.263a2.859 2.859 0 01-.798.953 3.882 3.882 0 01-1.198.606 5.047 5.047 0 01-1.482.219c-.142 0-.283 0-.425-.013a4.463 4.463 0 01-.413-.052c-.206.129-.309.271-.309.425 0 .155.078.271.258.335.18.065.386.116.67.142.27.026.593.052.94.052.348 0 .709.025 1.082.064.374.039.722.09 1.083.167.348.078.67.207.94.374.27.168.503.412.67.696.168.296.258.657.258 1.121 0 .425-.103.837-.31 1.236-.206.4-.502.761-.901 1.07-.4.309-.89.567-1.456.747-.58.193-1.237.283-1.984.283-.747 0-1.366-.064-1.894-.206-.528-.141-.979-.322-1.327-.541a2.4 2.4 0 01-.786-.786 1.729 1.729 0 01-.257-.914c0-.413.115-.761.36-1.031.245-.271.58-.503 1.005-.67a1.639 1.639 0 01-.54-.528c-.13-.219-.194-.503-.194-.838 0-.141.026-.283.077-.438.052-.154.129-.309.232-.451.103-.141.232-.283.387-.425.154-.141.347-.245.553-.348a3.186 3.186 0 01-1.159-1.017c-.283-.426-.425-.915-.425-1.482 0-.464.103-.889.296-1.263.194-.373.477-.695.812-.953a3.86 3.86 0 011.224-.605 5.216 5.216 0 011.52-.207c.799 0 1.495.155 2.113.451H38.7l.013-.025zm-2.757 9.404a.495.495 0 00-.296-.476c-.193-.103-.464-.168-.773-.219-.322-.039-.67-.065-1.07-.078-.399 0-.785-.038-1.172-.064a1.828 1.828 0 00-.425.399.767.767 0 00-.167.503.7.7 0 00.386.644c.142.077.335.142.58.18.245.052.554.065.927.065.4 0 .735-.026.992-.078a2.46 2.46 0 00.619-.193.724.724 0 00.322-.296.78.78 0 00.09-.387h-.013zm-2.164-5.514c.464 0 .799-.116 1.005-.347.206-.232.309-.529.309-.902 0-.374-.103-.683-.31-.889-.205-.206-.54-.322-1.004-.322-.464 0-.799.103-1.005.322-.206.219-.31.515-.31.889 0 .18.027.348.078.489a.864.864 0 00.245.387c.103.116.245.193.412.257.168.065.36.091.593.091l-.013.025zm8.889-3.362a4.642 4.642 0 011.096-.696c.399-.18.863-.27 1.417-.27.515 0 .966.09 1.352.27.387.181.722.425.992.735.271.309.477.695.619 1.133.142.438.206.915.206 1.417v5.94h-2.796v-5.94c0-.45-.103-.811-.322-1.069-.206-.258-.515-.386-.927-.386-.31 0-.593.064-.864.193-.27.129-.528.309-.785.528v6.674h-2.796v-13.502h2.796v4.973h.012zm10.706 8.67c-.45 0-.837-.064-1.172-.193a2.315 2.315 0 01-.863-.554 2.264 2.264 0 01-.528-.863 3.434 3.434 0 01-.18-1.134v-4.831h-.8a.562.562 0 01-.373-.142c-.103-.09-.155-.232-.155-.412v-1.095l1.495-.284.554-2.28c.077-.283.27-.438.618-.438h1.456v2.731h2.319v1.907h-2.32v4.638c0 .219.052.399.155.541.104.142.258.206.451.206.103 0 .194 0 .258-.026.065-.025.129-.051.18-.077.052-.026.104-.051.142-.077.052-.026.103-.026.155-.026.09 0 .154.026.206.064a.744.744 0 01.155.181l.85 1.327a3.7 3.7 0 01-1.211.605 4.602 4.602 0 01-1.392.206v.026zm-24.555 18.836c-.116.141-.22.283-.335.425a7.88 7.88 0 00-.296.399 4.046 4.046 0 011.004-.489c.361-.116.76-.168 1.199-.168a4.3 4.3 0 011.481.258c.464.167.863.425 1.211.747.348.322.619.734.825 1.211.206.477.309 1.018.309 1.636a4.161 4.161 0 01-1.224 3.002c-.386.387-.85.683-1.391.889-.541.219-1.147.322-1.804.322a4.79 4.79 0 01-1.765-.309 3.755 3.755 0 01-1.353-.889 3.82 3.82 0 01-.85-1.392c-.206-.541-.31-1.146-.31-1.829 0-.567.13-1.172.374-1.804.245-.631.645-1.327 1.199-2.048l3.285-4.406c.09-.103.206-.193.348-.271a1.09 1.09 0 01.515-.116h1.43l-3.826 4.845-.026-.013zm.94 6.892c.438 0 .825-.064 1.173-.206.348-.142.657-.335.902-.58a2.726 2.726 0 00.785-1.971c0-.425-.064-.799-.193-1.134a2.344 2.344 0 00-.567-.863 2.34 2.34 0 00-.876-.541 3.076 3.076 0 00-1.108-.193 3.06 3.06 0 00-1.172.219 2.69 2.69 0 00-.889.593 2.536 2.536 0 00-.554.863c-.129.322-.193.67-.193 1.018 0 .412.064.798.18 1.133.116.348.297.632.528.889.232.258.516.438.85.58.336.129.71.206 1.134.206v-.013zm7.627-12.599c.258.425.425.876.516 1.352.09.477.103.941.026 1.405-.078.463-.22.901-.452 1.339a3.846 3.846 0 01-.914 1.134l-.49-.322c-.09-.051-.129-.129-.116-.219 0-.09.039-.154.09-.206a2.57 2.57 0 00.4-.696c.116-.27.18-.567.219-.889a3.154 3.154 0 00-.052-.979 3.261 3.261 0 00-.373-.979c-.078-.129-.103-.245-.065-.335a.406.406 0 01.22-.219l.991-.399v.013zm11.428 9.121v.915c0 .103-.026.18-.09.245-.052.064-.142.103-.271.103h-1.61v3.401h-1.405v-3.401H39.72a.527.527 0 01-.309-.103.436.436 0 01-.167-.258l-.168-.825 6.287-8.348h1.495v8.258h1.958l.013.013zm-3.376 0v-5.334c0-.154 0-.322.013-.515 0-.18.026-.374.052-.567l-4.703 6.416h4.638zm6.262-9.121c.257.425.425.876.515 1.352.09.477.103.941.026 1.405a4.335 4.335 0 01-.451 1.339 3.846 3.846 0 01-.915 1.134l-.49-.322c-.09-.051-.128-.129-.116-.219 0-.09.04-.154.09-.206.155-.193.284-.425.4-.696.116-.27.18-.567.22-.889a3.151 3.151 0 00-.052-.979 3.261 3.261 0 00-.374-.979c-.077-.129-.103-.245-.064-.335a.369.369 0 01.219-.219l.992-.399v.013zm2.744 0c.257.425.425.876.515 1.352.09.477.103.941.026 1.405a4.335 4.335 0 01-.451 1.339 3.846 3.846 0 01-.915 1.134l-.49-.322c-.09-.051-.128-.129-.115-.219a.28.28 0 01.09-.206c.154-.193.283-.425.4-.696.115-.27.18-.567.218-.889a3.154 3.154 0 00-.051-.979 3.258 3.258 0 00-.374-.979c-.077-.129-.103-.245-.064-.335a.37.37 0 01.219-.219l.992-.399v.013z" fill="#565A5C"/><path d="M135.429 169.974a2.661 2.661 0 002.01-2.345 2.912 2.912 0 00-3.028-2.757 3.38 3.38 0 00-.953.09s-3.698.58-3.929 6.146c-.142 3.504 1.455 5.037 2.654 5.694.36.219.773.374 1.185.451h.077c.155.026.309.039.464.052a2.945 2.945 0 003.246-2.513 2.624 2.624 0 00-1.636-2.422c.181-.309.284-.657.297-1.017a2.297 2.297 0 00-.387-1.353" fill="#103B71"/><mask id="b" style="mask-type:luminance" maskUnits="userSpaceOnUse" x="129" y="164" width="9" height="14"><path d="M135.429 169.975a2.661 2.661 0 002.01-2.345 2.912 2.912 0 00-3.028-2.757 3.38 3.38 0 00-.953.09s-3.697.58-3.929 6.146c-.142 3.504 1.456 5.037 2.654 5.694.36.219.773.374 1.185.451h.077c.155.026.309.039.464.052a2.946 2.946 0 003.247-2.513 2.623 2.623 0 00-1.637-2.422c.181-.309.284-.657.297-1.017a2.297 2.297 0 00-.387-1.353" fill="#fff"/></mask><g mask="url(#b)" fill="#103B71"><path d="M133.471 164.81h-3.955v12.677h3.955V164.81z"/><path d="M137.426 164.81h-3.955v12.677h3.955V164.81z"/></g><path d="M143.855 169.974a2.661 2.661 0 01-2.01-2.345 2.924 2.924 0 013.04-2.757c.323-.013.645.013.954.09 0 0 3.697.58 3.929 6.146.142 3.504-1.456 5.037-2.654 5.694-.36.219-.773.374-1.185.451h-.077c-.155.026-.31.039-.464.052a2.946 2.946 0 01-3.247-2.513c0-1.069.657-2.022 1.636-2.422a2.175 2.175 0 01-.296-1.017 2.297 2.297 0 01.387-1.353" fill="#103B71"/><mask id="c" style="mask-type:luminance" maskUnits="userSpaceOnUse" x="141" y="164" width="9" height="14"><path d="M143.855 169.975a2.661 2.661 0 01-2.01-2.345 2.924 2.924 0 013.04-2.757 3.39 3.39 0 01.954.09s3.697.58 3.929 6.146c.142 3.504-1.456 5.037-2.654 5.694a3.58 3.58 0 01-1.185.451h-.077c-.155.026-.31.039-.464.052a2.946 2.946 0 01-3.247-2.513c0-1.069.657-2.022 1.636-2.422a2.175 2.175 0 01-.296-1.017 2.297 2.297 0 01.387-1.353" fill="#fff"/></mask><g mask="url(#c)" fill="#103B71"><path d="M145.8 164.81h-3.955v12.677h3.955V164.81zm3.968 0h-3.955v12.677h3.955V164.81zm.129 0h-.129v12.677h.129V164.81z"/></g></g><path d="M96.011 268.887V282h-2.682v-7.542c0-.174.003-.363.009-.567.012-.204.03-.411.054-.621l-3.483 6.741c-.108.21-.255.369-.441.477-.18.108-.387.162-.621.162h-.414c-.234 0-.444-.054-.63-.162a1.155 1.155 0 01-.432-.477l-3.483-6.759c.018.216.033.429.045.639.012.204.018.393.018.567V282h-2.682v-13.113h2.322c.132 0 .246.003.342.009a.898.898 0 01.27.054.54.54 0 01.207.144c.066.06.129.147.189.261l3.375 6.651c.12.228.234.465.342.711.114.246.222.498.324.756.102-.264.207-.522.315-.774.114-.252.234-.492.36-.72l3.366-6.624c.06-.114.12-.201.18-.261a.62.62 0 01.216-.144.876.876 0 01.261-.054 6.05 6.05 0 01.351-.009h2.322zm6.835 9.315a9.263 9.263 0 00-1.377.144c-.36.072-.645.162-.855.27-.21.108-.357.231-.441.369a.9.9 0 00-.117.45c0 .318.087.543.261.675.174.126.429.189.765.189.36 0 .675-.063.945-.189.27-.126.543-.33.819-.612v-1.296zm-5.022-4.239a5.62 5.62 0 011.872-1.107 6.545 6.545 0 012.214-.369 3.95 3.95 0 011.521.279c.456.18.84.435 1.152.765.318.324.561.711.729 1.161.168.45.252.942.252 1.476V282h-1.278c-.264 0-.465-.036-.603-.108-.132-.072-.243-.222-.333-.45l-.198-.513a8.994 8.994 0 01-.675.522c-.216.15-.441.279-.675.387a3.203 3.203 0 01-.738.225 4.23 4.23 0 01-.864.081c-.426 0-.813-.054-1.161-.162a2.52 2.52 0 01-.891-.495 2.189 2.189 0 01-.558-.801 2.94 2.94 0 01-.198-1.116c0-.336.084-.675.252-1.017.168-.348.459-.663.873-.945.414-.288.972-.528 1.674-.72.702-.192 1.587-.3 2.655-.324v-.396c0-.546-.114-.939-.342-1.179-.222-.246-.54-.369-.954-.369-.33 0-.6.036-.81.108-.21.072-.399.153-.567.243-.162.09-.321.171-.477.243a1.323 1.323 0 01-.558.108.804.804 0 01-.486-.144 1.252 1.252 0 01-.324-.342l-.504-.873zm18.09-1.296l-4.986 11.754a.962.962 0 01-.306.405c-.12.09-.312.135-.576.135h-2.088l1.8-3.78-3.726-8.514h2.466c.216 0 .381.048.495.144.12.096.207.21.261.342l1.53 4.023c.144.366.261.741.351 1.125l.198-.576c.066-.192.135-.381.207-.567l1.386-4.005a.717.717 0 01.288-.342.772.772 0 01.45-.144h2.25zm7.103 1.008c.18-.168.366-.324.558-.468a3.407 3.407 0 011.323-.594c.258-.06.537-.09.837-.09.51 0 .96.09 1.35.27.396.174.729.42.999.738.27.312.474.687.612 1.125.138.432.207.903.207 1.413V282h-2.79v-5.931c0-.456-.105-.81-.315-1.062-.21-.258-.519-.387-.927-.387-.306 0-.594.066-.864.198-.264.126-.522.3-.774.522V282h-2.79v-9.333h1.728c.348 0 .576.156.684.468l.162.54zm11.994-1.152a5.39 5.39 0 011.935.333c.582.222 1.08.54 1.494.954.42.414.744.918.972 1.512.234.588.351 1.251.351 1.989 0 .744-.117 1.416-.351 2.016a4.298 4.298 0 01-.972 1.521 4.303 4.303 0 01-1.494.963 5.39 5.39 0 01-1.935.333 5.49 5.49 0 01-1.953-.333 4.495 4.495 0 01-1.512-.963 4.402 4.402 0 01-.981-1.521c-.228-.6-.342-1.272-.342-2.016 0-.738.114-1.401.342-1.989a4.309 4.309 0 01.981-1.512c.426-.414.93-.732 1.512-.954a5.49 5.49 0 011.953-.333zm0 7.551c.642 0 1.113-.225 1.413-.675.306-.456.459-1.146.459-2.07 0-.924-.153-1.611-.459-2.061-.3-.45-.771-.675-1.413-.675-.66 0-1.143.225-1.449.675-.306.45-.459 1.137-.459 2.061 0 .924.153 1.614.459 2.07.306.45.789.675 1.449.675zm9.302 2.07c-.444 0-.837-.063-1.179-.189a2.467 2.467 0 01-.855-.549 2.416 2.416 0 01-.522-.864 3.327 3.327 0 01-.18-1.125v-4.824h-.792a.538.538 0 01-.369-.135c-.102-.096-.153-.234-.153-.414v-1.089l1.485-.288.549-2.277c.072-.288.276-.432.612-.432h1.458v2.727h2.313v1.908h-2.313v4.635c0 .216.051.396.153.54a.549.549 0 00.459.207.98.98 0 00.252-.027c.072-.024.132-.048.18-.072.054-.03.102-.054.144-.072a.357.357 0 01.162-.036.29.29 0 01.198.063.608.608 0 01.162.18l.846 1.323c-.36.27-.765.474-1.215.612a4.93 4.93 0 01-1.395.198zm10.526-2.682c.21.228.438.39.684.486.246.096.495.144.747.144.264 0 .507-.048.729-.144a1.41 1.41 0 00.567-.486c.162-.228.288-.525.378-.891.09-.372.135-.828.135-1.368 0-.468-.036-.864-.108-1.188-.066-.33-.168-.597-.306-.801-.132-.21-.3-.36-.504-.45a1.55 1.55 0 00-.684-.144 1.71 1.71 0 00-.891.225c-.252.15-.501.369-.747.657v3.96zm0-5.805c.36-.342.753-.615 1.179-.819a3.25 3.25 0 011.44-.315c.528 0 1.008.108 1.44.324a3.15 3.15 0 011.107.927c.306.396.54.876.702 1.44a6.61 6.61 0 01.252 1.89c0 .756-.096 1.443-.288 2.061a4.819 4.819 0 01-.819 1.593c-.348.438-.765.78-1.251 1.026-.486.24-1.023.36-1.611.36a3.21 3.21 0 01-.756-.081 2.742 2.742 0 01-.612-.225 2.812 2.812 0 01-.513-.36 6.279 6.279 0 01-.441-.45l-.099.468c-.048.192-.126.324-.234.396a.768.768 0 01-.432.108h-1.854v-13.473h2.79v5.13zm13.35 2.556c0-.222-.03-.438-.09-.648a1.439 1.439 0 00-.279-.558 1.358 1.358 0 00-.504-.405 1.739 1.739 0 00-.765-.153c-.528 0-.942.153-1.242.459-.3.3-.498.735-.594 1.305h3.474zm-3.51 1.62c.09.78.327 1.347.711 1.701.384.348.879.522 1.485.522.324 0 .603-.039.837-.117a4.03 4.03 0 00.621-.261l.504-.261c.156-.078.318-.117.486-.117.222 0 .39.081.504.243l.81.999c-.288.33-.6.6-.936.81a5 5 0 01-1.026.486 5.431 5.431 0 01-1.053.234 7.318 7.318 0 01-.999.072 5.345 5.345 0 01-1.845-.315 4.337 4.337 0 01-1.503-.954 4.566 4.566 0 01-1.017-1.566c-.246-.624-.369-1.35-.369-2.178 0-.624.105-1.215.315-1.773a4.463 4.463 0 01.918-1.467c.402-.42.885-.753 1.449-.999.57-.246 1.212-.369 1.926-.369.618 0 1.182.096 1.692.288.516.192.957.471 1.323.837.372.366.66.816.864 1.35.21.528.315 1.128.315 1.8 0 .21-.009.381-.027.513a.812.812 0 01-.099.315.375.375 0 01-.198.162.867.867 0 01-.306.045h-5.382zm16.39.369a9.263 9.263 0 00-1.377.144c-.36.072-.645.162-.855.27-.21.108-.357.231-.441.369a.9.9 0 00-.117.45c0 .318.087.543.261.675.174.126.429.189.765.189.36 0 .675-.063.945-.189.27-.126.543-.33.819-.612v-1.296zm-5.022-4.239a5.62 5.62 0 011.872-1.107 6.544 6.544 0 012.214-.369 3.95 3.95 0 011.521.279c.456.18.84.435 1.152.765.318.324.561.711.729 1.161.168.45.252.942.252 1.476V282h-1.278c-.264 0-.465-.036-.603-.108-.132-.072-.243-.222-.333-.45l-.198-.513a8.994 8.994 0 01-.675.522c-.216.15-.441.279-.675.387a3.203 3.203 0 01-.738.225 4.23 4.23 0 01-.864.081c-.426 0-.813-.054-1.161-.162a2.52 2.52 0 01-.891-.495 2.189 2.189 0 01-.558-.801 2.94 2.94 0 01-.198-1.116c0-.336.084-.675.252-1.017.168-.348.459-.663.873-.945.414-.288.972-.528 1.674-.72.702-.192 1.587-.3 2.655-.324v-.396c0-.546-.114-.939-.342-1.179-.222-.246-.54-.369-.954-.369-.33 0-.6.036-.81.108-.21.072-.399.153-.567.243-.162.09-.321.171-.477.243a1.323 1.323 0 01-.558.108.804.804 0 01-.486-.144 1.252 1.252 0 01-.324-.342l-.504-.873zm12.721 8.181c-.444 0-.837-.063-1.179-.189a2.467 2.467 0 01-.855-.549 2.416 2.416 0 01-.522-.864 3.327 3.327 0 01-.18-1.125v-4.824h-.792a.538.538 0 01-.369-.135c-.102-.096-.153-.234-.153-.414v-1.089l1.485-.288.549-2.277c.072-.288.276-.432.612-.432h1.458v2.727h2.313v1.908h-2.313v4.635c0 .216.051.396.153.54a.549.549 0 00.459.207.98.98 0 00.252-.027c.072-.024.132-.048.18-.072.054-.03.102-.054.144-.072a.357.357 0 01.162-.036.29.29 0 01.198.063.608.608 0 01.162.18l.846 1.323c-.36.27-.765.474-1.215.612a4.93 4.93 0 01-1.395.198zm10.346-8.037c.288-.504.618-.9.99-1.188.378-.288.81-.432 1.296-.432.42 0 .762.099 1.026.297l-.18 2.052c-.03.132-.081.222-.153.27a.468.468 0 01-.279.072c-.048 0-.111-.003-.189-.009a44.637 44.637 0 00-.243-.018 3.485 3.485 0 00-.261-.027 1.662 1.662 0 00-.234-.018c-.408 0-.735.108-.981.324-.24.216-.444.516-.612.9V282h-2.79v-9.333h1.656c.138 0 .252.012.342.036a.538.538 0 01.234.117.407.407 0 01.144.198c.036.084.066.186.09.306l.144.783zm7.116-1.44V282h-2.79v-9.333h2.79zm.288-2.556c0 .222-.045.432-.135.63-.09.192-.213.363-.369.513a1.911 1.911 0 01-.549.351 1.708 1.708 0 01-.657.126c-.228 0-.441-.042-.639-.126a1.993 1.993 0 01-.531-.351c-.15-.15-.27-.321-.36-.513a1.596 1.596 0 01-.126-.63c0-.228.042-.441.126-.639.09-.198.21-.372.36-.522.156-.15.333-.267.531-.351.198-.084.411-.126.639-.126.234 0 .453.042.657.126a1.687 1.687 0 01.918.873c.09.198.135.411.135.639zm7.588 4.599a.702.702 0 01-.234.243.578.578 0 01-.306.072c-.132 0-.264-.027-.396-.081-.132-.06-.276-.123-.432-.189a3.9 3.9 0 00-.513-.18 2.202 2.202 0 00-.657-.09c-.354 0-.627.069-.819.207a.644.644 0 00-.279.558c0 .174.06.318.18.432.126.114.291.216.495.306.204.084.435.165.693.243.258.078.522.165.792.261s.534.21.792.342c.258.126.489.285.693.477.204.186.366.414.486.684.126.27.189.594.189.972 0 .462-.084.888-.252 1.278-.168.39-.42.726-.756 1.008-.33.282-.741.501-1.233.657-.486.156-1.047.234-1.683.234-.318 0-.636-.03-.954-.09a6.782 6.782 0 01-.927-.243 5.358 5.358 0 01-.819-.36 3.736 3.736 0 01-.648-.459l.648-1.026a.804.804 0 01.27-.279.795.795 0 01.432-.108c.162 0 .306.036.432.108l.423.234c.15.084.324.162.522.234.204.072.459.108.765.108.216 0 .399-.021.549-.063.15-.048.27-.111.36-.189a.737.737 0 00.261-.558.606.606 0 00-.189-.459 1.583 1.583 0 00-.495-.306 5.015 5.015 0 00-.702-.243 17.375 17.375 0 01-.792-.261 7.136 7.136 0 01-.801-.342 2.925 2.925 0 01-.693-.513 2.44 2.44 0 01-.495-.765c-.126-.3-.189-.663-.189-1.089 0-.396.075-.771.225-1.125a2.66 2.66 0 01.693-.945c.306-.27.69-.483 1.152-.639.462-.162 1.002-.243 1.62-.243a5.137 5.137 0 011.863.342c.276.108.528.237.756.387.228.144.429.303.603.477l-.63.981zm4.875-6.183v7.551h.414c.174 0 .306-.024.396-.072a.991.991 0 00.27-.261l1.764-2.628c.108-.15.231-.261.369-.333a1.07 1.07 0 01.531-.117h2.556l-2.412 3.321a2.96 2.96 0 01-.81.738c.138.102.264.222.378.36.114.132.222.282.324.45l2.628 4.464h-2.52c-.21 0-.39-.033-.54-.099a.89.89 0 01-.378-.369l-1.764-3.303c-.084-.15-.171-.246-.261-.288-.09-.048-.225-.072-.405-.072h-.54V282h-2.79v-13.473h2.79zM81.638 304v-7.416l-.612-.126a1.304 1.304 0 01-.513-.225c-.126-.102-.189-.252-.189-.45v-1.098h1.314v-.531c0-.534.084-1.017.252-1.449.174-.432.42-.801.738-1.107a3.369 3.369 0 011.179-.711c.462-.168.987-.252 1.575-.252.228 0 .438.015.63.045.192.024.393.066.603.126l-.054 1.359a.504.504 0 01-.072.243.53.53 0 01-.171.153.846.846 0 01-.216.081 1.038 1.038 0 01-.234.027c-.246 0-.465.024-.657.072a1.062 1.062 0 00-.486.261 1.14 1.14 0 00-.288.486 2.43 2.43 0 00-.099.756v.441h2.187v1.908h-2.097V304h-2.79zm10.007-9.477a5.39 5.39 0 011.935.333c.582.222 1.08.54 1.494.954.42.414.744.918.972 1.512.234.588.351 1.251.351 1.989 0 .744-.117 1.416-.35 2.016a4.298 4.298 0 01-.973 1.521 4.303 4.303 0 01-1.494.963 5.39 5.39 0 01-1.935.333 5.49 5.49 0 01-1.953-.333 4.495 4.495 0 01-1.512-.963 4.402 4.402 0 01-.98-1.521c-.229-.6-.343-1.272-.343-2.016 0-.738.114-1.401.342-1.989a4.309 4.309 0 01.981-1.512c.426-.414.93-.732 1.512-.954a5.49 5.49 0 011.953-.333zm0 7.551c.642 0 1.113-.225 1.413-.675.306-.456.46-1.146.46-2.07 0-.924-.154-1.611-.46-2.061-.3-.45-.77-.675-1.413-.675-.66 0-1.143.225-1.449.675-.306.45-.459 1.137-.459 2.061 0 .924.153 1.614.46 2.07.305.45.788.675 1.448.675zm8.767-5.967c.288-.504.618-.9.99-1.188.378-.288.81-.432 1.296-.432.42 0 .762.099 1.026.297l-.18 2.052c-.03.132-.081.222-.153.27a.468.468 0 01-.279.072c-.048 0-.111-.003-.189-.009a44.637 44.637 0 00-.243-.018 3.485 3.485 0 00-.261-.027 1.662 1.662 0 00-.234-.018c-.408 0-.735.108-.981.324-.24.216-.444.516-.612.9V304h-2.79v-9.333h1.656c.138 0 .252.012.342.036a.534.534 0 01.234.117.407.407 0 01.144.198c.036.084.066.186.09.306l.144.783zm8.753 7.893v-7.416l-.612-.126a1.304 1.304 0 01-.513-.225c-.126-.102-.189-.252-.189-.45v-1.098h1.314v-.531c0-.534.084-1.017.252-1.449.174-.432.42-.801.738-1.107a3.369 3.369 0 011.179-.711c.462-.168.987-.252 1.575-.252.228 0 .438.015.63.045.192.024.393.066.603.126l-.054 1.359a.504.504 0 01-.072.243.53.53 0 01-.171.153.846.846 0 01-.216.081 1.038 1.038 0 01-.234.027c-.246 0-.465.024-.657.072a1.062 1.062 0 00-.486.261 1.14 1.14 0 00-.288.486 2.43 2.43 0 00-.099.756v.441h2.187v1.908h-2.097V304h-2.79zm10.714-3.798a9.263 9.263 0 00-1.377.144c-.36.072-.645.162-.855.27-.21.108-.357.231-.441.369a.9.9 0 00-.117.45c0 .318.087.543.261.675.174.126.429.189.765.189.36 0 .675-.063.945-.189.27-.126.543-.33.819-.612v-1.296zm-5.022-4.239a5.62 5.62 0 011.872-1.107 6.544 6.544 0 012.214-.369 3.95 3.95 0 011.521.279c.456.18.84.435 1.152.765.318.324.561.711.729 1.161.168.45.252.942.252 1.476V304h-1.278c-.264 0-.465-.036-.603-.108-.132-.072-.243-.222-.333-.45l-.198-.513a8.994 8.994 0 01-.675.522c-.216.15-.441.279-.675.387a3.203 3.203 0 01-.738.225 4.23 4.23 0 01-.864.081c-.426 0-.813-.054-1.161-.162a2.52 2.52 0 01-.891-.495 2.189 2.189 0 01-.558-.801 2.94 2.94 0 01-.198-1.116c0-.336.084-.675.252-1.017.168-.348.459-.663.873-.945.414-.288.972-.528 1.674-.72.702-.192 1.587-.3 2.655-.324v-.396c0-.546-.114-.939-.342-1.179-.222-.246-.54-.369-.954-.369-.33 0-.6.036-.81.108-.21.072-.399.153-.567.243-.162.09-.321.171-.477.243a1.323 1.323 0 01-.558.108.804.804 0 01-.486-.144 1.252 1.252 0 01-.324-.342l-.504-.873zm15.455.747a.702.702 0 01-.234.243.578.578 0 01-.306.072c-.132 0-.264-.027-.396-.081-.132-.06-.276-.123-.432-.189a3.9 3.9 0 00-.513-.18 2.202 2.202 0 00-.657-.09c-.354 0-.627.069-.819.207a.644.644 0 00-.279.558c0 .174.06.318.18.432.126.114.291.216.495.306.204.084.435.165.693.243.258.078.522.165.792.261s.534.21.792.342c.258.126.489.285.693.477.204.186.366.414.486.684.126.27.189.594.189.972 0 .462-.084.888-.252 1.278-.168.39-.42.726-.756 1.008-.33.282-.741.501-1.233.657-.486.156-1.047.234-1.683.234-.318 0-.636-.03-.954-.09a6.782 6.782 0 01-.927-.243 5.358 5.358 0 01-.819-.36 3.736 3.736 0 01-.648-.459l.648-1.026a.804.804 0 01.27-.279.795.795 0 01.432-.108c.162 0 .306.036.432.108l.423.234c.15.084.324.162.522.234.204.072.459.108.765.108.216 0 .399-.021.549-.063.15-.048.27-.111.36-.189a.737.737 0 00.261-.558.606.606 0 00-.189-.459 1.583 1.583 0 00-.495-.306 5.015 5.015 0 00-.702-.243 17.375 17.375 0 01-.792-.261 7.136 7.136 0 01-.801-.342 2.925 2.925 0 01-.693-.513 2.44 2.44 0 01-.495-.765c-.126-.3-.189-.663-.189-1.089 0-.396.075-.771.225-1.125a2.66 2.66 0 01.693-.945c.306-.27.69-.483 1.152-.639.462-.162 1.002-.243 1.62-.243a5.137 5.137 0 011.863.342c.276.108.528.237.756.387.228.144.429.303.603.477l-.63.981zm5.423 7.434c-.444 0-.837-.063-1.179-.189a2.467 2.467 0 01-.855-.549 2.416 2.416 0 01-.522-.864 3.327 3.327 0 01-.18-1.125v-4.824h-.792a.538.538 0 01-.369-.135c-.102-.096-.153-.234-.153-.414v-1.089l1.485-.288.549-2.277c.072-.288.276-.432.612-.432h1.458v2.727h2.313v1.908h-2.313v4.635c0 .216.051.396.153.54a.549.549 0 00.459.207.98.98 0 00.252-.027c.072-.024.132-.048.18-.072.054-.03.102-.054.144-.072a.357.357 0 01.162-.036.29.29 0 01.198.063.608.608 0 01.162.18l.846 1.323c-.36.27-.765.474-1.215.612a4.93 4.93 0 01-1.395.198zm9.286-5.931c0-.222-.03-.438-.09-.648a1.439 1.439 0 00-.279-.558 1.358 1.358 0 00-.504-.405 1.739 1.739 0 00-.765-.153c-.528 0-.942.153-1.242.459-.3.3-.498.735-.594 1.305h3.474zm-3.51 1.62c.09.78.327 1.347.711 1.701.384.348.879.522 1.485.522.324 0 .603-.039.837-.117a4.03 4.03 0 00.621-.261l.504-.261c.156-.078.318-.117.486-.117.222 0 .39.081.504.243l.81.999c-.288.33-.6.6-.936.81a5 5 0 01-1.026.486 5.431 5.431 0 01-1.053.234 7.318 7.318 0 01-.999.072 5.345 5.345 0 01-1.845-.315 4.337 4.337 0 01-1.503-.954 4.566 4.566 0 01-1.017-1.566c-.246-.624-.369-1.35-.369-2.178 0-.624.105-1.215.315-1.773a4.463 4.463 0 01.918-1.467c.402-.42.885-.753 1.449-.999.57-.246 1.212-.369 1.926-.369.618 0 1.182.096 1.692.288.516.192.957.471 1.323.837.372.366.66.816.864 1.35.21.528.315 1.128.315 1.8 0 .21-.009.381-.027.513a.812.812 0 01-.099.315.375.375 0 01-.198.162.867.867 0 01-.306.045h-5.382zm10.019-3.726c.288-.504.618-.9.99-1.188.378-.288.81-.432 1.296-.432.42 0 .762.099 1.026.297l-.18 2.052c-.03.132-.081.222-.153.27a.468.468 0 01-.279.072c-.048 0-.111-.003-.189-.009a44.637 44.637 0 00-.243-.018 3.485 3.485 0 00-.261-.027 1.662 1.662 0 00-.234-.018c-.408 0-.735.108-.981.324-.24.216-.444.516-.612.9V304h-2.79v-9.333h1.656c.138 0 .252.012.342.036a.538.538 0 01.234.117.407.407 0 01.144.198c.036.084.066.186.09.306l.144.783zm13.721 1.062a1.72 1.72 0 00-.684-.486 2.11 2.11 0 00-.774-.144c-.258 0-.495.051-.711.153a1.47 1.47 0 00-.567.495c-.156.222-.279.513-.369.873-.09.36-.135.795-.135 1.305 0 .492.036.906.108 1.242.072.336.171.609.297.819.132.204.288.351.468.441.18.09.381.135.603.135.204 0 .387-.018.549-.054.168-.042.321-.099.459-.171.138-.072.267-.162.387-.27.126-.114.249-.243.369-.387v-3.951zm2.79-6.642V304h-1.728c-.348 0-.576-.156-.684-.468l-.216-.711a5.471 5.471 0 01-.585.54 3.8 3.8 0 01-.666.423 3.378 3.378 0 01-.765.261 3.71 3.71 0 01-.882.099c-.486 0-.936-.108-1.35-.324a3.11 3.11 0 01-1.071-.936c-.3-.408-.537-.906-.711-1.494-.168-.594-.252-1.269-.252-2.025 0-.696.096-1.341.288-1.935.192-.6.462-1.116.81-1.548.354-.438.777-.78 1.269-1.026a3.591 3.591 0 011.629-.369c.486 0 .894.069 1.224.207.33.138.63.324.9.558v-4.725h2.79zm4.737 4.14V304h-2.79v-9.333h2.79zm.288-2.556c0 .222-.045.432-.135.63-.09.192-.213.363-.369.513a1.911 1.911 0 01-.549.351 1.708 1.708 0 01-.657.126c-.228 0-.441-.042-.639-.126a1.993 1.993 0 01-.531-.351c-.15-.15-.27-.321-.36-.513a1.596 1.596 0 01-.126-.63c0-.228.042-.441.126-.639.09-.198.21-.372.36-.522.156-.15.333-.267.531-.351.198-.084.411-.126.639-.126.234 0 .453.042.657.126a1.687 1.687 0 01.918.873c.09.198.135.411.135.639zm7.589 4.599a.702.702 0 01-.234.243.578.578 0 01-.306.072c-.132 0-.264-.027-.396-.081-.132-.06-.276-.123-.432-.189a3.9 3.9 0 00-.513-.18 2.202 2.202 0 00-.657-.09c-.354 0-.627.069-.819.207a.644.644 0 00-.279.558c0 .174.06.318.18.432.126.114.291.216.495.306.204.084.435.165.693.243.258.078.522.165.792.261s.534.21.792.342c.258.126.489.285.693.477.204.186.366.414.486.684.126.27.189.594.189.972 0 .462-.084.888-.252 1.278-.168.39-.42.726-.756 1.008-.33.282-.741.501-1.233.657-.486.156-1.047.234-1.683.234-.318 0-.636-.03-.954-.09a6.782 6.782 0 01-.927-.243 5.358 5.358 0 01-.819-.36 3.736 3.736 0 01-.648-.459l.648-1.026a.804.804 0 01.27-.279.795.795 0 01.432-.108c.162 0 .306.036.432.108l.423.234c.15.084.324.162.522.234.204.072.459.108.765.108.216 0 .399-.021.549-.063.15-.048.27-.111.36-.189a.737.737 0 00.261-.558.606.606 0 00-.189-.459 1.583 1.583 0 00-.495-.306 5.015 5.015 0 00-.702-.243 17.375 17.375 0 01-.792-.261 7.136 7.136 0 01-.801-.342 2.925 2.925 0 01-.693-.513 2.44 2.44 0 01-.495-.765c-.126-.3-.189-.663-.189-1.089 0-.396.075-.771.225-1.125a2.66 2.66 0 01.693-.945c.306-.27.69-.483 1.152-.639.462-.162 1.002-.243 1.62-.243a5.137 5.137 0 011.863.342c.276.108.528.237.756.387.228.144.429.303.603.477l-.63.981zm7.89 1.503c0-.222-.03-.438-.09-.648a1.439 1.439 0 00-.279-.558 1.358 1.358 0 00-.504-.405 1.739 1.739 0 00-.765-.153c-.528 0-.942.153-1.242.459-.3.3-.498.735-.594 1.305h3.474zm-3.51 1.62c.09.78.327 1.347.711 1.701.384.348.879.522 1.485.522.324 0 .603-.039.837-.117a4.03 4.03 0 00.621-.261l.504-.261c.156-.078.318-.117.486-.117.222 0 .39.081.504.243l.81.999c-.288.33-.6.6-.936.81a5 5 0 01-1.026.486 5.431 5.431 0 01-1.053.234 7.318 7.318 0 01-.999.072 5.345 5.345 0 01-1.845-.315 4.337 4.337 0 01-1.503-.954 4.566 4.566 0 01-1.017-1.566c-.246-.624-.369-1.35-.369-2.178 0-.624.105-1.215.315-1.773a4.463 4.463 0 01.918-1.467c.402-.42.885-.753 1.449-.999.57-.246 1.212-.369 1.926-.369.618 0 1.182.096 1.692.288.516.192.957.471 1.323.837.372.366.66.816.864 1.35.21.528.315 1.128.315 1.8 0 .21-.009.381-.027.513a.812.812 0 01-.099.315.375.375 0 01-.198.162.867.867 0 01-.306.045h-5.382zm12.223.369a9.263 9.263 0 00-1.377.144c-.36.072-.645.162-.855.27-.21.108-.357.231-.441.369a.9.9 0 00-.117.45c0 .318.087.543.261.675.174.126.429.189.765.189.36 0 .675-.063.945-.189.27-.126.543-.33.819-.612v-1.296zm-5.022-4.239a5.62 5.62 0 011.872-1.107 6.544 6.544 0 012.214-.369 3.95 3.95 0 011.521.279c.456.18.84.435 1.152.765.318.324.561.711.729 1.161.168.45.252.942.252 1.476V304h-1.278c-.264 0-.465-.036-.603-.108-.132-.072-.243-.222-.333-.45l-.198-.513a8.994 8.994 0 01-.675.522c-.216.15-.441.279-.675.387a3.203 3.203 0 01-.738.225 4.23 4.23 0 01-.864.081c-.426 0-.813-.054-1.161-.162a2.52 2.52 0 01-.891-.495 2.189 2.189 0 01-.558-.801 2.94 2.94 0 01-.198-1.116c0-.336.084-.675.252-1.017.168-.348.459-.663.873-.945.414-.288.972-.528 1.674-.72.702-.192 1.587-.3 2.655-.324v-.396c0-.546-.114-.939-.342-1.179-.222-.246-.54-.369-.954-.369-.33 0-.6.036-.81.108-.21.072-.399.153-.567.243-.162.09-.321.171-.477.243a1.323 1.323 0 01-.558.108.804.804 0 01-.486-.144 1.252 1.252 0 01-.324-.342l-.504-.873zm15.454.747a.702.702 0 01-.234.243.578.578 0 01-.306.072c-.132 0-.264-.027-.396-.081-.132-.06-.276-.123-.432-.189a3.9 3.9 0 00-.513-.18 2.202 2.202 0 00-.657-.09c-.354 0-.627.069-.819.207a.644.644 0 00-.279.558c0 .174.06.318.18.432.126.114.291.216.495.306.204.084.435.165.693.243.258.078.522.165.792.261s.534.21.792.342c.258.126.489.285.693.477.204.186.366.414.486.684.126.27.189.594.189.972 0 .462-.084.888-.252 1.278-.168.39-.42.726-.756 1.008-.33.282-.741.501-1.233.657-.486.156-1.047.234-1.683.234-.318 0-.636-.03-.954-.09a6.782 6.782 0 01-.927-.243 5.358 5.358 0 01-.819-.36 3.736 3.736 0 01-.648-.459l.648-1.026a.804.804 0 01.27-.279.795.795 0 01.432-.108c.162 0 .306.036.432.108l.423.234c.15.084.324.162.522.234.204.072.459.108.765.108.216 0 .399-.021.549-.063.15-.048.27-.111.36-.189a.737.737 0 00.261-.558.606.606 0 00-.189-.459 1.583 1.583 0 00-.495-.306 5.015 5.015 0 00-.702-.243 17.375 17.375 0 01-.792-.261 7.136 7.136 0 01-.801-.342 2.925 2.925 0 01-.693-.513 2.44 2.44 0 01-.495-.765c-.126-.3-.189-.663-.189-1.089 0-.396.075-.771.225-1.125a2.66 2.66 0 01.693-.945c.306-.27.69-.483 1.152-.639.462-.162 1.002-.243 1.62-.243a5.137 5.137 0 011.863.342c.276.108.528.237.756.387.228.144.429.303.603.477l-.63.981zm7.89 1.503c0-.222-.03-.438-.09-.648a1.439 1.439 0 00-.279-.558 1.358 1.358 0 00-.504-.405 1.739 1.739 0 00-.765-.153c-.528 0-.942.153-1.242.459-.3.3-.498.735-.594 1.305h3.474zm-3.51 1.62c.09.78.327 1.347.711 1.701.384.348.879.522 1.485.522.324 0 .603-.039.837-.117a4.03 4.03 0 00.621-.261l.504-.261c.156-.078.318-.117.486-.117.222 0 .39.081.504.243l.81.999c-.288.33-.6.6-.936.81a5 5 0 01-1.026.486 5.431 5.431 0 01-1.053.234 7.318 7.318 0 01-.999.072 5.345 5.345 0 01-1.845-.315 4.337 4.337 0 01-1.503-.954 4.566 4.566 0 01-1.017-1.566c-.246-.624-.369-1.35-.369-2.178 0-.624.105-1.215.315-1.773a4.463 4.463 0 01.918-1.467c.402-.42.885-.753 1.449-.999.57-.246 1.212-.369 1.926-.369.618 0 1.182.096 1.692.288.516.192.957.471 1.323.837.372.366.66.816.864 1.35.21.528.315 1.128.315 1.8 0 .21-.009.381-.027.513a.812.812 0 01-.099.315.375.375 0 01-.198.162.867.867 0 01-.306.045h-5.382zM83.735 323.462c.21.228.438.39.684.486.246.096.504.144.774.144.258 0 .495-.051.711-.153.216-.102.402-.264.558-.486.162-.228.288-.522.378-.882.09-.36.135-.798.135-1.314 0-.492-.036-.906-.108-1.242-.072-.336-.174-.606-.306-.81a1.135 1.135 0 00-.459-.45 1.33 1.33 0 00-.603-.135c-.408 0-.744.075-1.008.225-.264.15-.516.369-.756.657v3.96zm-.171-5.643c.366-.39.78-.708 1.242-.954.468-.252 1.023-.378 1.665-.378.486 0 .936.108 1.35.324a3.11 3.11 0 011.071.936c.3.408.534.909.702 1.503.174.588.261 1.257.261 2.007 0 .702-.099 1.35-.297 1.944a4.767 4.767 0 01-.819 1.548c-.348.438-.768.78-1.26 1.026a3.535 3.535 0 01-1.62.369c-.486 0-.894-.069-1.224-.207a3.323 3.323 0 01-.9-.558v3.582h-2.79v-12.294h1.728c.348 0 .576.156.684.468l.207.684zm10.345.288c.287-.504.617-.9.99-1.188a2.08 2.08 0 011.296-.432c.42 0 .762.099 1.026.297l-.18 2.052c-.03.132-.081.222-.153.27a.468.468 0 01-.28.072c-.047 0-.11-.003-.189-.009a44.637 44.637 0 00-.242-.018 3.485 3.485 0 00-.262-.027 1.662 1.662 0 00-.234-.018c-.407 0-.734.108-.98.324-.24.216-.444.516-.612.9V326h-2.79v-9.333h1.655c.139 0 .253.012.343.036a.538.538 0 01.234.117.407.407 0 01.143.198c.036.084.066.186.09.306l.145.783zm8.406-1.584a5.39 5.39 0 011.935.333c.582.222 1.08.54 1.494.954.42.414.744.918.972 1.512.234.588.351 1.251.351 1.989 0 .744-.117 1.416-.351 2.016a4.298 4.298 0 01-.972 1.521 4.303 4.303 0 01-1.494.963 5.39 5.39 0 01-1.935.333 5.49 5.49 0 01-1.953-.333 4.497 4.497 0 01-1.512-.963 4.402 4.402 0 01-.98-1.521c-.229-.6-.343-1.272-.343-2.016 0-.738.114-1.401.342-1.989a4.309 4.309 0 01.981-1.512c.426-.414.93-.732 1.512-.954a5.49 5.49 0 011.953-.333zm0 7.551c.642 0 1.113-.225 1.413-.675.306-.456.459-1.146.459-2.07 0-.924-.153-1.611-.459-2.061-.3-.45-.771-.675-1.413-.675-.66 0-1.143.225-1.449.675-.306.45-.459 1.137-.459 2.061 0 .924.153 1.614.459 2.07.306.45.789.675 1.449.675zm9.624-3.231c.462 0 .795-.114.999-.342.21-.234.315-.534.315-.9 0-.378-.105-.675-.315-.891-.204-.216-.537-.324-.999-.324-.462 0-.798.108-1.008.324-.204.216-.306.513-.306.891 0 .18.024.345.072.495.054.15.135.282.243.396.108.108.243.195.405.261.168.06.366.09.594.09zm2.16 5.499a.492.492 0 00-.297-.477 2.387 2.387 0 00-.774-.216 9.315 9.315 0 00-1.071-.072c-.39-.012-.78-.036-1.17-.072-.174.12-.318.255-.432.405a.803.803 0 00-.162.495c0 .132.027.252.081.36.06.108.162.201.306.279.144.078.336.138.576.18.246.048.555.072.927.072.402 0 .732-.024.99-.072.258-.048.462-.114.612-.198a.732.732 0 00.324-.306c.06-.114.09-.24.09-.378zm2.754-9.387v1.017a.499.499 0 01-.135.369c-.084.09-.231.159-.441.207l-.675.153c.036.132.063.267.081.405.024.138.036.282.036.432 0 .468-.099.888-.297 1.26a2.84 2.84 0 01-.801.954 3.803 3.803 0 01-1.197.603 5.165 5.165 0 01-1.485.207 9.74 9.74 0 01-.423-.009 4.388 4.388 0 01-.405-.054c-.204.126-.306.267-.306.423 0 .156.084.27.252.342.168.066.39.114.666.144.276.024.588.042.936.054.354.006.714.027 1.08.063.366.03.723.084 1.071.162.354.078.669.204.945.378.276.174.498.408.666.702.168.288.252.657.252 1.107 0 .42-.102.831-.306 1.233a3.22 3.22 0 01-.9 1.071c-.396.312-.882.561-1.458.747-.576.192-1.236.288-1.98.288-.732 0-1.365-.069-1.899-.207-.528-.138-.969-.321-1.323-.549-.348-.222-.606-.48-.774-.774a1.825 1.825 0 01-.252-.918c0-.414.12-.759.36-1.035.24-.276.576-.498 1.008-.666a1.578 1.578 0 01-.54-.531c-.132-.216-.198-.495-.198-.837a1.582 1.582 0 01.297-.882c.108-.15.24-.291.396-.423.156-.132.342-.249.558-.351a3.116 3.116 0 01-1.152-1.017c-.282-.426-.423-.921-.423-1.485 0-.468.099-.888.297-1.26a2.82 2.82 0 01.81-.954 3.765 3.765 0 011.224-.603 5.149 5.149 0 011.521-.216c.792 0 1.494.15 2.106.45h2.808zm3.774 1.152c.288-.504.618-.9.99-1.188.378-.288.81-.432 1.296-.432.42 0 .762.099 1.026.297l-.18 2.052c-.03.132-.081.222-.153.27a.468.468 0 01-.279.072c-.048 0-.111-.003-.189-.009a44.637 44.637 0 00-.243-.018 3.485 3.485 0 00-.261-.027 1.662 1.662 0 00-.234-.018c-.408 0-.735.108-.981.324-.24.216-.444.516-.612.9V326h-2.79v-9.333h1.656c.138 0 .252.012.342.036a.538.538 0 01.234.117.407.407 0 01.144.198c.036.084.066.186.09.306l.144.783zm9.91 2.106c0-.222-.03-.438-.09-.648a1.439 1.439 0 00-.279-.558 1.358 1.358 0 00-.504-.405 1.739 1.739 0 00-.765-.153c-.528 0-.942.153-1.242.459-.3.3-.498.735-.594 1.305h3.474zm-3.51 1.62c.09.78.327 1.347.711 1.701.384.348.879.522 1.485.522.324 0 .603-.039.837-.117a4.03 4.03 0 00.621-.261l.504-.261c.156-.078.318-.117.486-.117.222 0 .39.081.504.243l.81.999c-.288.33-.6.6-.936.81a5 5 0 01-1.026.486 5.431 5.431 0 01-1.053.234 7.318 7.318 0 01-.999.072 5.345 5.345 0 01-1.845-.315 4.337 4.337 0 01-1.503-.954 4.566 4.566 0 01-1.017-1.566c-.246-.624-.369-1.35-.369-2.178 0-.624.105-1.215.315-1.773a4.463 4.463 0 01.918-1.467c.402-.42.885-.753 1.449-.999.57-.246 1.212-.369 1.926-.369.618 0 1.182.096 1.692.288.516.192.957.471 1.323.837.372.366.66.816.864 1.35.21.528.315 1.128.315 1.8 0 .21-.009.381-.027.513a.812.812 0 01-.099.315.375.375 0 01-.198.162.867.867 0 01-.306.045h-5.382zm13.339-3.123a.702.702 0 01-.234.243.578.578 0 01-.306.072c-.132 0-.264-.027-.396-.081-.132-.06-.276-.123-.432-.189a3.9 3.9 0 00-.513-.18 2.202 2.202 0 00-.657-.09c-.354 0-.627.069-.819.207a.644.644 0 00-.279.558c0 .174.06.318.18.432.126.114.291.216.495.306.204.084.435.165.693.243.258.078.522.165.792.261s.534.21.792.342c.258.126.489.285.693.477.204.186.366.414.486.684.126.27.189.594.189.972 0 .462-.084.888-.252 1.278-.168.39-.42.726-.756 1.008-.33.282-.741.501-1.233.657-.486.156-1.047.234-1.683.234-.318 0-.636-.03-.954-.09a6.782 6.782 0 01-.927-.243 5.358 5.358 0 01-.819-.36 3.736 3.736 0 01-.648-.459l.648-1.026a.804.804 0 01.27-.279.795.795 0 01.432-.108c.162 0 .306.036.432.108l.423.234c.15.084.324.162.522.234.204.072.459.108.765.108.216 0 .399-.021.549-.063.15-.048.27-.111.36-.189a.737.737 0 00.261-.558.606.606 0 00-.189-.459 1.583 1.583 0 00-.495-.306 5.015 5.015 0 00-.702-.243 17.375 17.375 0 01-.792-.261 7.136 7.136 0 01-.801-.342 2.925 2.925 0 01-.693-.513 2.44 2.44 0 01-.495-.765c-.126-.3-.189-.663-.189-1.089 0-.396.075-.771.225-1.125a2.66 2.66 0 01.693-.945c.306-.27.69-.483 1.152-.639.462-.162 1.002-.243 1.62-.243a5.137 5.137 0 011.863.342c.276.108.528.237.756.387.228.144.429.303.603.477l-.63.981zm8.016 0a.702.702 0 01-.234.243.578.578 0 01-.306.072c-.132 0-.264-.027-.396-.081-.132-.06-.276-.123-.432-.189a3.9 3.9 0 00-.513-.18 2.202 2.202 0 00-.657-.09c-.354 0-.627.069-.819.207a.644.644 0 00-.279.558c0 .174.06.318.18.432.126.114.291.216.495.306.204.084.435.165.693.243.258.078.522.165.792.261s.534.21.792.342c.258.126.489.285.693.477.204.186.366.414.486.684.126.27.189.594.189.972 0 .462-.084.888-.252 1.278-.168.39-.42.726-.756 1.008-.33.282-.741.501-1.233.657-.486.156-1.047.234-1.683.234-.318 0-.636-.03-.954-.09a6.782 6.782 0 01-.927-.243 5.358 5.358 0 01-.819-.36 3.736 3.736 0 01-.648-.459l.648-1.026a.804.804 0 01.27-.279.795.795 0 01.432-.108c.162 0 .306.036.432.108l.423.234c.15.084.324.162.522.234.204.072.459.108.765.108.216 0 .399-.021.549-.063.15-.048.27-.111.36-.189a.737.737 0 00.261-.558.606.606 0 00-.189-.459 1.583 1.583 0 00-.495-.306 5.015 5.015 0 00-.702-.243 17.375 17.375 0 01-.792-.261 7.136 7.136 0 01-.801-.342 2.925 2.925 0 01-.693-.513 2.44 2.44 0 01-.495-.765c-.126-.3-.189-.663-.189-1.089 0-.396.075-.771.225-1.125a2.66 2.66 0 01.693-.945c.306-.27.69-.483 1.152-.639.462-.162 1.002-.243 1.62-.243a5.137 5.137 0 011.863.342c.276.108.528.237.756.387.228.144.429.303.603.477l-.63.981zm4.937-2.043V326h-2.79v-9.333h2.79zm.288-2.556c0 .222-.045.432-.135.63-.09.192-.213.363-.369.513a1.911 1.911 0 01-.549.351 1.708 1.708 0 01-.657.126c-.228 0-.441-.042-.639-.126a1.993 1.993 0 01-.531-.351c-.15-.15-.27-.321-.36-.513a1.596 1.596 0 01-.126-.63c0-.228.042-.441.126-.639.09-.198.21-.372.36-.522.156-.15.333-.267.531-.351.198-.084.411-.126.639-.126.234 0 .453.042.657.126a1.687 1.687 0 01.918.873c.09.198.135.411.135.639zm5.96 2.412a5.39 5.39 0 011.935.333c.582.222 1.08.54 1.494.954.42.414.744.918.972 1.512.234.588.351 1.251.351 1.989 0 .744-.117 1.416-.351 2.016a4.298 4.298 0 01-.972 1.521 4.303 4.303 0 01-1.494.963 5.39 5.39 0 01-1.935.333 5.49 5.49 0 01-1.953-.333 4.495 4.495 0 01-1.512-.963 4.402 4.402 0 01-.981-1.521c-.228-.6-.342-1.272-.342-2.016 0-.738.114-1.401.342-1.989a4.309 4.309 0 01.981-1.512c.426-.414.93-.732 1.512-.954a5.49 5.49 0 011.953-.333zm0 7.551c.642 0 1.113-.225 1.413-.675.306-.456.459-1.146.459-2.07 0-.924-.153-1.611-.459-2.061-.3-.45-.771-.675-1.413-.675-.66 0-1.143.225-1.449.675-.306.45-.459 1.137-.459 2.061 0 .924.153 1.614.459 2.07.306.45.789.675 1.449.675zm8.731-6.399c.18-.168.366-.324.558-.468a3.407 3.407 0 011.323-.594c.258-.06.537-.09.837-.09.51 0 .96.09 1.35.27.396.174.729.42.999.738.27.312.474.687.612 1.125.138.432.207.903.207 1.413V326h-2.79v-5.931c0-.456-.105-.81-.315-1.062-.21-.258-.519-.387-.927-.387-.306 0-.594.066-.864.198-.264.126-.522.3-.774.522V326h-2.79v-9.333h1.728c.348 0 .576.156.684.468l.162.54z" fill="#103B71"/><defs><clipPath id="clip0_5_51936"><path fill="#fff" transform="translate(0 54)" d="M0 0h177.532v200H0z"/></clipPath></defs></svg>