<svg xmlns="http://www.w3.org/2000/svg" width="25.41" height="51.24" viewBox="0 0 25.41 51.24"><path fill="#103a71" d="M-.001 5.04a21.094 21.094 0 012.4-1.925 17.9 17.9 0 012.87-1.61 17.452 17.452 0 013.36-1.1 17.9 17.9 0 013.9-.4 15.8 15.8 0 015.128.805 12.267 12.267 0 014.078 2.275 10.474 10.474 0 012.695 3.57 11.042 11.042 0 01.98 4.725 12.081 12.081 0 01-.787 4.585 12.849 12.849 0 01-1.996 3.372 15.694 15.694 0 01-2.625 2.52l-2.675 2.013a16.911 16.911 0 00-2.152 1.89 3.658 3.658 0 00-1.033 2.1l-.63 5.355h-4.27l-.42-5.81a4.314 4.314 0 01.595-2.748 9.9 9.9 0 011.925-2.205 31.009 31.009 0 012.625-2.03 20.354 20.354 0 002.678-2.222 11.647 11.647 0 002.082-2.785 7.749 7.749 0 00.84-3.728 6.166 6.166 0 00-.595-2.73 6.289 6.289 0 00-1.61-2.083 7.116 7.116 0 00-2.4-1.312 9.4 9.4 0 00-2.957-.455 11.27 11.27 0 00-3.657.525 13.714 13.714 0 00-2.573 1.155 14.978 14.978 0 00-1.7 1.155 1.894 1.894 0 01-1.068.525 1.523 1.523 0 01-1.365-.805zm6.828 41.825a4.448 4.448 0 01.332-1.715 4.4 4.4 0 01.91-1.4 4.36 4.36 0 014.813-.945 4.434 4.434 0 012.345 2.345 4.42 4.42 0 010 3.447 4.549 4.549 0 01-.945 1.382 4.253 4.253 0 01-1.4.927 4.589 4.589 0 01-3.43 0 4.062 4.062 0 01-1.383-.927 4.384 4.384 0 01-1.242-3.114z"/></svg>