<svg xmlns="http://www.w3.org/2000/svg" width="18.15" height="36.6" viewBox="0 0 18.15 36.6"><path fill="#103a71" d="M0 3.6a15.067 15.067 0 011.712-1.375 12.787 12.787 0 012.05-1.15 12.466 12.466 0 012.4-.787A12.782 12.782 0 018.95.001a11.287 11.287 0 013.662.575 8.762 8.762 0 012.913 1.625 7.482 7.482 0 011.925 2.55 7.887 7.887 0 01.7 3.375 8.629 8.629 0 01-.562 3.275 9.178 9.178 0 01-1.425 2.412 11.21 11.21 0 01-1.875 1.8l-1.913 1.437a12.079 12.079 0 00-1.537 1.35 2.613 2.613 0 00-.738 1.5l-.45 3.825H6.6l-.3-4.15a3.081 3.081 0 01.425-1.962A7.068 7.068 0 018.1 16.038a22.148 22.148 0 011.875-1.45A14.538 14.538 0 0011.888 13a8.319 8.319 0 001.487-1.987 5.535 5.535 0 00.6-2.663 4.4 4.4 0 00-.425-1.95 4.492 4.492 0 00-1.15-1.488 5.083 5.083 0 00-1.713-.937 6.716 6.716 0 00-2.113-.325 8.05 8.05 0 00-2.612.375 9.8 9.8 0 00-1.838.825 10.7 10.7 0 00-1.213.825 1.353 1.353 0 01-.763.375 1.088 1.088 0 01-.973-.575zm4.875 29.875a3.177 3.177 0 01.238-1.225 3.141 3.141 0 01.65-1 3.114 3.114 0 013.438-.675 3.167 3.167 0 011.674 1.675 3.157 3.157 0 010 2.462 3.249 3.249 0 01-.675.987 3.038 3.038 0 01-1 .663 3.278 3.278 0 01-2.45 0 2.9 2.9 0 01-.988-.663 3.131 3.131 0 01-.887-2.224z"/></svg>