<svg width="268" height="305" viewBox="0 0 268 305" fill="none" xmlns="http://www.w3.org/2000/svg"><g clip-path="url(#clip0_5_51959)"><path d="M268.148.307H42.642v271.278h225.506V.307z" fill="#fff"/><path d="M169.905-.08H41.429v224.916l225.719-104.479V-.079h-97.243z" fill="#F9BEA0"/><path d="M267.869 120.349L41.651 224.852v15.138l226.316-55.469-.09-64.172h-.008z" fill="#BFD0E3"/><path d="M268.139 184.645l-226.488 55.51v31.43h226.488v-86.948.008z" fill="#8BAACD"/><path d="M268.172 271.085l-226.75-.074.081-270.68" stroke="#fff" stroke-width="2.459"/><path d="M2 188.424v3.131h8.917v2.221H2v3.13H.213v-8.474H2v-.008zm1.196-2.722c0-.574.09-1.09.27-1.558a3.43 3.43 0 01.78-1.204c.335-.336.745-.59 1.229-.779a4.638 4.638 0 011.63-.27c.607 0 1.148.09 1.632.27.483.18.893.443 1.237.779.344.336.598.737.779 1.204.18.468.27.984.27 1.558 0 .573-.09 1.098-.27 1.565-.18.467-.443.869-.779 1.205-.336.336-.754.59-1.237.778-.484.189-1.033.279-1.631.279-.599 0-1.148-.09-1.631-.279a3.386 3.386 0 01-1.23-.778 3.436 3.436 0 01-.778-1.205 4.327 4.327 0 01-.27-1.565zm6.311 0c0-.582-.205-1.008-.598-1.295-.402-.279-1-.418-1.787-.418-.787 0-1.377.139-1.778.418-.402.278-.599.713-.599 1.295s.197 1.032.599 1.311c.401.279.991.418 1.778.418s1.385-.139 1.787-.418c.401-.279.598-.721.598-1.311zm1.533-7.573c0 .344-.05.647-.148.918a1.797 1.797 0 01-.434.672c-.189.18-.41.32-.68.41a2.58 2.58 0 01-.902.139H4.778v.713a.397.397 0 01-.107.279c-.073.082-.172.115-.311.115h-.795l-.221-1.213-1.967-.41c-.222-.058-.328-.205-.328-.451v-1.065h2.32v-1.959h1.417v1.959h3.967c.213 0 .377-.05.5-.148.123-.098.18-.246.18-.434a.79.79 0 00-.106-.427c-.025-.049-.05-.098-.074-.139a.286.286 0 01.008-.279.346.346 0 01.14-.114l.975-.615c.221.279.385.598.5.951.114.352.172.721.172 1.098h-.008zm-6.672-2.769a4.571 4.571 0 01-.901-1.484 5.111 5.111 0 01-.295-1.753c0-.451.073-.853.22-1.213.148-.361.353-.656.616-.91.262-.254.573-.443.942-.574a3.527 3.527 0 011.197-.197h4.778v.927c0 .188-.025.336-.082.442-.057.099-.164.18-.336.246l-.484.164c.164.188.312.377.443.557.131.181.238.369.32.558.09.188.147.393.196.614.041.222.066.459.066.73 0 .336-.041.639-.131.918-.09.278-.222.508-.394.713a1.736 1.736 0 01-.655.459 2.37 2.37 0 01-.902.163 1.91 1.91 0 01-.844-.213c-.287-.139-.533-.385-.762-.737-.23-.353-.418-.812-.566-1.385-.147-.582-.238-1.303-.254-2.172h-.393c-.476 0-.828.098-1.05.303-.22.205-.335.492-.335.869 0 .278.032.516.098.705.066.188.14.352.213.491.074.14.148.271.213.394a.884.884 0 01.098.426.59.59 0 01-.106.361.991.991 0 01-.254.237l-.648.361h-.008zm3.369-4.147c.024.5.065.91.13 1.237.066.328.14.591.238.787.099.197.214.336.336.41a.729.729 0 00.41.123c.295 0 .5-.082.623-.246.123-.164.18-.393.18-.688 0-.336-.057-.631-.18-.886a2.79 2.79 0 00-.565-.737h-1.18.008zm-7.819-5.622h10.999v2.032H-.082v-2.032zm4.712-7.697v-.434c0-.361-.114-.623-.336-.787l-3.622-2.705a1.118 1.118 0 01-.36-.418 1.41 1.41 0 01-.099-.557v-1.918l4.385 3.41c.287.221.491.45.614.688.066-.172.156-.328.27-.467.116-.139.255-.271.443-.402l4.992-3.499v1.967c0 .131-.009.237-.033.327a.883.883 0 01-.082.238.456.456 0 01-.131.172c-.05.049-.115.099-.18.14l-3.853 2.753a.807.807 0 00-.286.336c-.058.132-.082.312-.082.541v.623h4.638v2.213H.213v-2.213H4.63v-.008zm-3.474-10.097c.172 0 .336.033.475.106.14.074.279.164.393.279.115.115.205.254.263.41a1.264 1.264 0 010 .975 1.435 1.435 0 01-.263.394 1.316 1.316 0 01-.393.27 1.168 1.168 0 01-.475.098 1.207 1.207 0 01-.877-.368 1.143 1.143 0 01-.263-.394 1.264 1.264 0 010-.975 1.52 1.52 0 01.263-.41 1.49 1.49 0 01.393-.279 1.2 1.2 0 01.484-.106zm2.155.238h7.606v2.032H3.31v-2.032zm-3.393-8.473h10.999v1.253c0 .263-.115.427-.353.5l-.664.173a5.1 5.1 0 01.46.483c.139.172.253.352.36.549.098.197.18.41.23.631.057.23.081.476.081.738 0 .41-.082.778-.254 1.123a2.58 2.58 0 01-.754.885 3.854 3.854 0 01-1.22.582c-.484.139-1.034.205-1.656.205a5.19 5.19 0 01-1.582-.23 4.004 4.004 0 01-1.262-.656 3.179 3.179 0 01-.836-1.032 2.923 2.923 0 01-.304-1.344c0-.41.066-.762.18-1.041.124-.287.288-.541.5-.771H-.081v-2.048zm5.376 2.04a1.648 1.648 0 00-.467.623 1.87 1.87 0 00-.13.713c0 .254.048.467.138.672.09.205.238.377.443.517.197.147.45.254.762.336.312.082.68.114 1.107.114.426 0 .778-.032 1.073-.098.295-.066.533-.156.713-.279.18-.123.312-.262.394-.442a1.31 1.31 0 00.123-.574c0-.361-.074-.664-.213-.902a2.608 2.608 0 00-.607-.688H5.286l.008.008zm-1.098-5.615a7.441 7.441 0 01-.41-.475 2.85 2.85 0 01-.525-1.123 3.083 3.083 0 01-.073-.697c0-.41.074-.778.213-1.098.14-.32.344-.59.598-.811.255-.222.558-.386.918-.492a4.018 4.018 0 011.164-.164h4.827v2.024H6.082c-.426 0-.754.099-.983.295-.238.197-.353.484-.353.869 0 .287.066.549.189.803.123.246.295.492.516.713h5.467v2.033H3.31v-1.254c0-.254.115-.426.352-.508l.533-.123v.008zm3.237-8.097c.713-.066 1.238-.271 1.566-.607.328-.344.492-.787.492-1.336 0-.278-.033-.524-.099-.729a3.375 3.375 0 00-.221-.541 78.617 78.617 0 00-.221-.418.785.785 0 01-.099-.377.43.43 0 01.18-.369l.738-.59c.254.213.46.459.623.713a3.899 3.899 0 01.59 1.664c.033.287.058.557.058.828 0 .532-.09 1.024-.263 1.483-.172.459-.434.86-.778 1.205a3.482 3.482 0 01-1.27.803c-.509.197-1.09.295-1.763.295-.516 0-1-.082-1.459-.254a3.573 3.573 0 01-1.196-.738 3.61 3.61 0 01-.811-1.164 3.895 3.895 0 01-.296-1.549c0-.483.074-.934.23-1.344.156-.409.377-.762.672-1.065a3.153 3.153 0 011.09-.697c.426-.164.918-.246 1.467-.246.156 0 .279 0 .377.025.098.016.18.041.238.074a.291.291 0 01.123.139.591.591 0 01.032.23v4.565zm-1.213-3.205c-.213 0-.41.025-.606.082-.188.057-.36.148-.508.27a1.353 1.353 0 00-.353.468 1.66 1.66 0 00-.13.672c0 .483.139.868.41 1.147.278.279.671.459 1.18.541v-3.172l.007-.008zm-2.909-9.908l9.646 4.098c.14.066.238.14.312.23.074.09.106.237.106.434v1.508l-3.065-1.434-6.99 3.057v-1.787c0-.164.032-.287.114-.377a.554.554 0 01.254-.188l3.639-1.443c.14-.057.287-.098.434-.147l.435-.123a12.67 12.67 0 01-.87-.303l-3.63-1.345a.508.508 0 01-.262-.213.604.604 0 01-.107-.336v-1.631h-.016zM.213 101.762l10.704 4.311v2.008L.213 112.392v-1.787c0-.189.041-.344.14-.467a.824.824 0 01.352-.271l6.163-2.319c.23-.09.483-.172.754-.262.27-.091.557-.164.86-.238a11.19 11.19 0 01-.86-.213 7.507 7.507 0 01-.754-.246l-6.163-2.303a.836.836 0 01-.336-.262.725.725 0 01-.148-.467v-1.795H.213zm2.983-2.935c0-.573.09-1.09.27-1.557.181-.467.443-.869.78-1.205.335-.336.745-.59 1.229-.77a4.63 4.63 0 011.63-.27c.607 0 1.148.09 1.632.27.483.18.893.442 1.237.77.336.336.598.738.779 1.205.18.467.27.984.27 1.557a4.34 4.34 0 01-.27 1.566 3.43 3.43 0 01-.779 1.204c-.336.336-.754.59-1.237.779-.484.188-1.033.279-1.631.279-.599 0-1.148-.091-1.631-.279a3.512 3.512 0 01-1.23-.779 3.431 3.431 0 01-.778-1.204 4.331 4.331 0 01-.27-1.566zm6.311 0c0-.582-.205-1.008-.598-1.295-.402-.278-1-.418-1.787-.418-.787 0-1.377.14-1.778.418-.402.279-.599.713-.599 1.295s.197 1.033.599 1.312c.401.278.991.418 1.778.418s1.385-.14 1.787-.418c.401-.28.598-.722.598-1.312zM-.082 91.68h10.999v2.033H-.082v-2.032zm3.393-8.366h7.606v1.253c0 .263-.115.427-.353.5l-.533.132c.148.155.28.31.41.475.123.164.23.336.32.516.09.189.156.385.205.599.049.212.074.442.074.696 0 .41-.074.779-.213 1.106-.14.32-.345.59-.599.812a2.66 2.66 0 01-.918.492c-.36.114-.746.172-1.163.172H3.31v-2.033h4.836c.426 0 .754-.098.983-.295.238-.197.352-.483.352-.869 0-.286-.065-.549-.188-.803a2.63 2.63 0 00-.516-.713H3.31v-2.04zm7.606-1.68H3.31V80.38c0-.254.115-.427.352-.508l.492-.115a6.004 6.004 0 01-.385-.41 2.718 2.718 0 01-.303-.45 2.684 2.684 0 01-.205-.525 2.43 2.43 0 01-.074-.615c0-.467.123-.852.369-1.156.246-.303.582-.532.992-.696a2.337 2.337 0 01-1.05-1.041 2.792 2.792 0 01-.237-.68 3.532 3.532 0 01-.074-.722c0-.426.066-.803.189-1.139.13-.328.32-.606.565-.827a2.59 2.59 0 01.91-.517c.36-.115.77-.18 1.221-.18H10.9v2.032H6.073c-.893 0-1.336.386-1.336 1.148 0 .172.033.328.082.475.057.148.14.27.254.385.115.107.254.197.418.263.164.057.36.09.574.09h4.827v2.032H6.065c-.484 0-.828.099-1.033.287-.205.189-.303.467-.303.836 0 .238.057.459.164.664.106.205.262.401.459.59h5.54v2.033h.025zM7.433 67.57c.713-.066 1.238-.271 1.566-.607.328-.344.492-.787.492-1.336 0-.278-.033-.524-.099-.73a3.366 3.366 0 00-.221-.54 87.258 87.258 0 00-.221-.418.784.784 0 01-.099-.377.43.43 0 01.18-.369l.738-.59a3 3 0 01.623.713 3.932 3.932 0 01.59 1.664c.033.286.058.557.058.827 0 .533-.09 1.025-.263 1.484-.172.459-.434.86-.778 1.205a3.6 3.6 0 01-1.27.811c-.509.197-1.09.295-1.763.295-.516 0-1-.082-1.459-.254a3.452 3.452 0 01-1.196-.738 3.58 3.58 0 01-.811-1.163 3.896 3.896 0 01-.296-1.55c0-.483.074-.934.23-1.344.156-.41.377-.762.672-1.057a3.04 3.04 0 011.09-.696c.426-.164.918-.246 1.467-.246.156 0 .279 0 .377.024a.74.74 0 01.238.074.289.289 0 01.123.14.629.629 0 01.032.229v4.557-.008zM6.22 64.365c-.213 0-.41.033-.606.082-.188.057-.36.147-.508.27a1.353 1.353 0 00-.353.468c-.082.188-.13.41-.13.672 0 .483.139.868.41 1.139.278.278.671.459 1.18.54v-3.171h.007zM17.916 178.99c0-.721.065-1.327.205-1.844.139-.516.327-.926.573-1.245a2.2 2.2 0 01.902-.705 3.061 3.061 0 011.188-.221c.246 0 .484.032.705.106.23.074.443.18.64.336.196.148.376.344.54.582.164.238.303.516.41.844.172-.729.45-1.262.844-1.614.385-.353.894-.525 1.508-.525.45 0 .877.09 1.262.262a2.84 2.84 0 011.008.763 3.5 3.5 0 01.664 1.237c.164.492.238 1.049.238 1.688v4.147H17.899v-3.794l.017-.017zm1.688 1.582h2.893v-1.45c0-.312-.024-.582-.074-.828a1.626 1.626 0 00-.245-.607 1.159 1.159 0 00-.443-.377 1.623 1.623 0 00-.664-.131c-.254 0-.492.033-.68.107-.189.074-.336.18-.451.328a1.388 1.388 0 00-.246.557 3.84 3.84 0 00-.074.803v1.59l-.016.008zm7.319-1.893c0-.352-.041-.647-.131-.877a1.37 1.37 0 00-.345-.549 1.073 1.073 0 00-.491-.287 1.955 1.955 0 00-.574-.082c-.213 0-.41.033-.582.099-.172.065-.32.163-.442.311a1.48 1.48 0 00-.28.557 3.1 3.1 0 00-.098.844v1.877h2.926v-1.893h.017zm-4.852-5.122a4.567 4.567 0 01-.902-1.483 5.084 5.084 0 01-.295-1.754c0-.451.074-.861.222-1.213.147-.353.352-.656.614-.91.263-.246.574-.442.943-.574a3.49 3.49 0 011.196-.196h4.779v.926c0 .188-.025.336-.082.442-.058.099-.164.181-.336.246l-.484.164c.164.189.311.377.443.558a3.048 3.048 0 01.516 1.172c.04.221.066.467.066.737 0 .336-.042.639-.132.918s-.22.516-.393.713a1.714 1.714 0 01-.656.459 2.35 2.35 0 01-.901.164 1.92 1.92 0 01-.844-.213c-.28-.139-.533-.385-.763-.738-.23-.344-.418-.811-.565-1.385-.148-.582-.238-1.303-.254-2.172h-.394c-.475 0-.827.099-1.049.304-.22.204-.336.491-.336.868 0 .279.033.517.099.697a3.5 3.5 0 00.213.492c.074.139.147.27.213.393a.883.883 0 01.098.426c0 .14-.032.263-.106.361a1.013 1.013 0 01-.254.238l-.648.36h-.008zm3.368-4.139c.025.5.066.91.131 1.238.066.328.14.59.238.787.099.196.213.336.336.409a.73.73 0 00.41.123c.295 0 .5-.082.623-.245.123-.164.18-.394.18-.689a2.01 2.01 0 00-.18-.885 2.655 2.655 0 00-.566-.738h-1.18.008zm-2.859-8.311a.596.596 0 01.18.163.455.455 0 01.057.23.713.713 0 01-.074.303c-.05.107-.098.221-.156.344a3.493 3.493 0 00-.155.443 1.96 1.96 0 00-.074.574c0 .328.065.582.205.77a.64.64 0 00.532.271c.156 0 .28-.05.386-.156.106-.107.196-.238.27-.41.074-.172.148-.361.213-.582.066-.213.14-.442.222-.664.081-.229.172-.45.27-.664a2.56 2.56 0 01.385-.581c.156-.173.344-.304.557-.41.222-.107.484-.156.795-.156.37 0 .713.066 1.025.205a2.3 2.3 0 01.811.59c.23.262.402.582.533.975.131.394.188.836.188 1.344 0 .263-.024.517-.065.779-.05.254-.115.5-.197.729-.082.23-.188.443-.295.648a2.568 2.568 0 01-.369.524l-.762-.475a.608.608 0 01-.205-.205.602.602 0 01-.073-.311c0-.123.032-.238.09-.336.065-.107.13-.222.196-.345.074-.131.14-.278.197-.45.066-.172.09-.394.09-.656 0-.197-.024-.369-.065-.508a.98.98 0 00-.18-.344.675.675 0 00-.263-.197.769.769 0 00-.295-.066.558.558 0 00-.41.156 1.57 1.57 0 00-.278.41 3.765 3.765 0 00-.213.59c-.066.221-.14.443-.214.672-.081.23-.172.451-.278.672-.107.221-.246.41-.41.582a1.773 1.773 0 01-.607.41c-.237.106-.532.156-.876.156-.312 0-.615-.066-.894-.181a2.122 2.122 0 01-.746-.557 2.825 2.825 0 01-.516-.918c-.131-.369-.188-.787-.188-1.27 0-.541.09-1.033.262-1.476.18-.442.41-.803.697-1.09l.72.468h-.024zm2.556-3.416c.713-.066 1.238-.271 1.566-.607.327-.344.491-.787.491-1.336 0-.278-.032-.524-.098-.729a3.374 3.374 0 00-.221-.541 71.802 71.802 0 00-.222-.418.786.786 0 01-.098-.377.43.43 0 01.18-.369l.738-.59a3 3 0 01.623.713c.164.262.295.533.393.811.099.279.164.566.197.853.033.287.057.557.057.828 0 .532-.09 1.024-.262 1.483-.172.459-.434.86-.779 1.205a3.606 3.606 0 01-1.27.811c-.508.197-1.09.295-1.762.295-.516 0-1-.082-1.459-.254a3.45 3.45 0 01-1.196-.738 3.567 3.567 0 01-.812-1.163 3.898 3.898 0 01-.295-1.549c0-.484.074-.935.23-1.344.155-.41.377-.763.672-1.058a3.04 3.04 0 011.09-.696c.426-.164.918-.246 1.467-.246.155 0 .279 0 .377.024a.75.75 0 01.238.074.291.291 0 01.122.139c.025.058.033.14.033.23v4.557-.008zm-1.213-3.205c-.213 0-.41.033-.606.082-.189.057-.36.148-.508.27a1.354 1.354 0 00-.353.468 1.66 1.66 0 00-.13.672c0 .483.138.868.409 1.139.279.279.672.459 1.18.541v-3.172h.008zm-6.303-9.82h11v1.254c0 .262-.115.426-.353.5l-.664.172c.164.156.32.311.46.484.138.172.253.352.36.549.106.196.18.409.23.631.057.229.081.475.081.737 0 .41-.082.779-.254 1.123a2.655 2.655 0 01-.754.885c-.328.254-.738.443-1.221.582-.484.14-1.033.205-1.656.205a5.22 5.22 0 01-1.581-.229 3.86 3.86 0 01-1.262-.664 3.182 3.182 0 01-.837-1.033 2.917 2.917 0 01-.303-1.344c0-.41.066-.762.18-1.041a2.75 2.75 0 01.5-.77h-3.933v-2.033l.008-.008zm5.377 2.041a1.633 1.633 0 00-.467.623c-.09.221-.131.459-.131.713 0 .254.049.467.14.672.09.205.237.377.442.516.196.148.45.254.762.336.311.082.68.115 1.106.115a4.96 4.96 0 001.074-.099c.295-.065.533-.155.713-.278.18-.123.312-.271.393-.443.082-.172.123-.369.123-.573 0-.361-.073-.656-.213-.902a2.476 2.476 0 00-.606-.688h-3.344l.008.008zm-2.098-10.663c0-.573.09-1.09.27-1.557.18-.467.443-.869.78-1.205.335-.336.745-.59 1.228-.778a4.637 4.637 0 011.631-.271c.607 0 1.148.091 1.631.271a3.338 3.338 0 012.017 1.983c.18.467.27.984.27 1.557a4.33 4.33 0 01-.27 1.566c-.18.467-.443.869-.78 1.205-.335.336-.753.59-1.237.778-.483.189-1.032.279-1.63.279-.599 0-1.148-.09-1.632-.279a3.386 3.386 0 01-1.229-.778 3.436 3.436 0 01-.779-1.205 4.33 4.33 0 01-.27-1.566zm6.303 0c0-.581-.205-1.008-.599-1.295-.401-.278-1-.417-1.786-.417-.787 0-1.377.139-1.779.417-.401.279-.598.714-.598 1.295 0 .582.197 1.033.598 1.312.402.278.992.418 1.779.418.786 0 1.385-.14 1.786-.418.402-.279.599-.722.599-1.312zm-5.303-6.973a7.47 7.47 0 01-.41-.475 2.849 2.849 0 01-.524-1.123 3.081 3.081 0 01-.074-.697c0-.41.074-.778.213-1.098.14-.32.344-.59.598-.811.254-.222.557-.386.918-.492a4.019 4.019 0 011.164-.164h4.827v2.032h-4.827c-.426 0-.754.099-.984.296-.23.196-.352.483-.352.868 0 .287.066.549.188.803.123.255.296.492.517.713h5.466v2.033h-7.605v-1.254c0-.254.114-.426.352-.508l.533-.123zm-3.983-19.433h10.703v2.229h-4.606v4.712h4.606v2.23H17.916v-2.23h4.54v-4.712h-4.54v-2.229zm7.22-3.351c.713-.066 1.238-.27 1.566-.606.327-.345.491-.787.491-1.336 0-.279-.032-.525-.098-.73a3.374 3.374 0 00-.221-.541l-.222-.418a.786.786 0 01-.098-.377c0-.155.057-.278.18-.368l.738-.591c.254.214.459.459.623.713.164.263.295.533.393.812.099.279.164.565.197.852.033.287.057.558.057.828a4.18 4.18 0 01-.262 1.483 3.354 3.354 0 01-.779 1.205 3.469 3.469 0 01-1.27.803c-.508.197-1.09.295-1.762.295-.516 0-1-.082-1.459-.254a3.588 3.588 0 01-1.196-.737 3.621 3.621 0 01-.812-1.164 3.895 3.895 0 01-.295-1.549c0-.484.074-.934.23-1.344.155-.41.377-.762.672-1.066a3.15 3.15 0 011.09-.696c.426-.164.918-.246 1.467-.246.155 0 .279 0 .377.024a.75.75 0 01.238.074.289.289 0 01.122.14.589.589 0 01.033.229v4.565zm-1.213-3.204c-.213 0-.41.024-.606.081-.189.058-.36.148-.508.271a1.36 1.36 0 00-.353.467c-.082.189-.13.41-.13.672 0 .484.138.869.409 1.148.279.278.672.459 1.18.54v-3.171l.008-.008zm-5.065-5.419c.172 0 .336.033.476.098.139.066.278.164.393.28.115.114.205.253.262.409a1.264 1.264 0 010 .975 1.433 1.433 0 01-.262.394 1.208 1.208 0 01-.869.368 1.208 1.208 0 01-.877-.368 1.141 1.141 0 01-.262-.394 1.265 1.265 0 010-.975 1.52 1.52 0 01.262-.41 1.49 1.49 0 01.394-.279c.147-.065.311-.098.483-.098zm2.156.238h7.605v2.032h-7.605v-2.032zm.254-8.515h.746c.114 0 .213.032.278.098a.643.643 0 01.156.328l.123.623c.238-.082.5-.123.779-.123.377 0 .72.074 1.024.23.303.155.557.368.779.639.213.27.377.59.491.959.115.368.173.77.173 1.196 0 .27-.025.525-.066.762.131.205.27.312.418.312.14 0 .246-.074.311-.213a2.05 2.05 0 00.14-.55c.024-.229.04-.491.049-.778.008-.287.024-.59.049-.893.025-.304.066-.599.131-.894.066-.295.164-.549.303-.778.14-.23.328-.41.558-.558.23-.139.532-.213.893-.213.336 0 .672.082.992.254.32.164.606.41.852.73.254.32.45.705.607 1.172.155.459.229.991.229 1.582 0 .59-.057 1.09-.164 1.524a3.413 3.413 0 01-.442 1.073c-.18.28-.394.492-.64.632a1.493 1.493 0 01-.754.204c-.336 0-.623-.106-.86-.31-.238-.206-.426-.493-.566-.853a1.274 1.274 0 01-.426.459c-.172.114-.402.172-.68.172-.23 0-.467-.082-.713-.246-.254-.164-.46-.418-.631-.762a2.428 2.428 0 01-.828.918c-.344.23-.754.336-1.213.336-.377 0-.721-.082-1.024-.23a2.187 2.187 0 01-.78-.647 3.032 3.032 0 01-.49-.976 4.13 4.13 0 01-.173-1.213c0-.647.131-1.22.385-1.72v-2.23l-.016-.016zm3.27 3.942c0-.418-.107-.73-.32-.926-.213-.197-.483-.295-.82-.295-.335 0-.622.098-.819.295-.197.196-.295.508-.295.926 0 .418.099.721.295.918.197.197.476.295.82.295.328 0 .598-.099.811-.295.213-.197.32-.508.32-.918h.008zm4.393-1.926a.465.465 0 00-.328.123.891.891 0 00-.197.336 2.42 2.42 0 00-.106.5 6.921 6.921 0 00-.05.614c-.016.213-.024.443-.032.672-.008.23-.025.46-.05.68.107.173.222.312.37.427a.729.729 0 00.475.164.66.66 0 00.336-.082.695.695 0 00.262-.287c.074-.14.131-.311.172-.525.041-.213.066-.483.066-.81 0-.329-.025-.616-.066-.853a1.702 1.702 0 00-.188-.557.723.723 0 00-.664-.393v-.01zM21.76 86.29a4.36 4.36 0 01-.353-.443 2.955 2.955 0 01-.516-1.697c0-.41.074-.778.213-1.098.14-.32.344-.59.598-.811.254-.222.557-.386.918-.492a4.031 4.031 0 011.164-.164h4.827v2.033h-4.827c-.426 0-.754.098-.984.294-.23.197-.352.484-.352.87 0 .286.066.548.189.803.122.254.295.491.516.713h5.466v2.032H17.621v-2.032h4.139v-.009zm6.982-8.852c0 .344-.049.647-.147.918a1.798 1.798 0 01-.435.672c-.188.18-.41.32-.68.41a2.576 2.576 0 01-.901.139H22.48v.713a.396.396 0 01-.107.278c-.073.082-.172.115-.311.115h-.795l-.221-1.213-1.968-.41c-.22-.057-.327-.204-.327-.45v-1.066h2.32v-1.959h1.417v1.96h3.967c.213 0 .377-.05.5-.148.123-.099.18-.246.18-.435a.796.796 0 00-.107-.426 2.245 2.245 0 00-.073-.14.24.24 0 01-.033-.13c0-.058.016-.107.04-.148a.337.337 0 01.14-.115l.975-.614c.222.278.386.598.5.95.115.353.172.722.172 1.099h-.008zm67.572 217.653c.694 0 1.2-.168 1.52-.502.324-.334.487-.792.487-1.372 0-.266-.042-.506-.126-.723a1.362 1.362 0 00-.368-.56 1.6 1.6 0 00-.62-.362 2.85 2.85 0 00-.893-.125h-1.401v3.644h1.401zm0-5.326c.733 0 1.365.086 1.896.258.536.172.976.413 1.32.723.345.305.598.669.76 1.092.167.423.251.882.251 1.379 0 .526-.086 1.008-.258 1.446a2.952 2.952 0 01-.782 1.128c-.35.315-.79.561-1.32.738-.532.172-1.154.258-1.867.258h-1.401v3.681H92.7v-10.703h3.614zm9.114 7.524a8.949 8.949 0 00-1.239.132 2.988 2.988 0 00-.789.236c-.192.099-.33.212-.413.34a.734.734 0 00-.118.405c0 .295.081.504.243.627.167.123.399.185.694.185.339 0 .632-.059.877-.177.251-.123.5-.312.745-.568v-1.18zm-4.145-3.371a4.502 4.502 0 011.483-.9 4.978 4.978 0 011.755-.303c.453 0 .856.074 1.21.222.359.147.661.354.907.619.251.261.443.573.575.937.133.364.2.762.2 1.195v4.78h-.93c-.192 0-.339-.027-.442-.081-.099-.054-.18-.168-.244-.34l-.162-.486a6.952 6.952 0 01-.561.442 3.334 3.334 0 01-.553.325 3.06 3.06 0 01-.619.191c-.217.045-.46.067-.731.067-.334 0-.639-.044-.914-.133a2.051 2.051 0 01-.716-.391 1.79 1.79 0 01-.457-.656 2.338 2.338 0 01-.162-.9c0-.281.071-.561.213-.841.143-.28.386-.534.731-.76.349-.231.811-.42 1.386-.568.581-.152 1.306-.238 2.176-.258v-.391c0-.477-.1-.826-.302-1.047-.202-.227-.492-.34-.87-.34a2.04 2.04 0 00-.701.104 3.143 3.143 0 00-.494.213c-.138.074-.268.146-.391.214a.915.915 0 01-.428.096.616.616 0 01-.362-.103 1.091 1.091 0 01-.236-.258l-.361-.649zm15.525 6.55h-2.028v-6.145h-3.371v3.969c0 .211.049.378.148.501a.536.536 0 00.435.185c.098 0 .182-.01.251-.03.068-.024.127-.049.177-.073.049-.03.093-.055.132-.074a.27.27 0 01.133-.037c.059 0 .108.015.148.044a.417.417 0 01.118.133l.612.974a2.99 2.99 0 01-.952.501 3.59 3.59 0 01-1.099.17c-.344 0-.649-.049-.914-.148a1.86 1.86 0 01-.672-.435 1.846 1.846 0 01-.413-.679 2.706 2.706 0 01-.14-.899v-4.102h-.715a.413.413 0 01-.281-.103c-.073-.069-.11-.172-.11-.31v-.796l1.217-.222.413-1.969c.054-.221.204-.332.45-.332h1.062v2.316h5.399v7.561zm.318-9.781c0 .167-.035.327-.104.479a1.292 1.292 0 01-.28.391 1.361 1.361 0 01-.406.266 1.261 1.261 0 01-.494.096c-.167 0-.327-.032-.479-.096a1.423 1.423 0 01-.391-.266 1.361 1.361 0 01-.273-.391 1.223 1.223 0 01-.096-.479c0-.172.032-.332.096-.479.069-.153.16-.286.273-.399.113-.113.243-.201.391-.265a1.182 1.182 0 01.973 0c.158.064.293.152.406.265.118.113.211.246.28.399.069.147.104.307.104.479zm6.251 5.082a2.05 2.05 0 00-.088-.605 1.371 1.371 0 00-.266-.509 1.267 1.267 0 00-.465-.346 1.544 1.544 0 00-.671-.133c-.487 0-.868.138-1.143.413-.275.275-.455.669-.539 1.18h3.172zm-3.201 1.21c.064.713.265 1.234.605 1.564.344.329.791.494 1.342.494.281 0 .521-.032.723-.096.207-.069.386-.143.539-.221l.42-.222a.787.787 0 01.376-.103c.158 0 .28.059.369.177l.59.738a3.314 3.314 0 01-.715.627 4.15 4.15 0 01-.812.391c-.28.093-.563.157-.848.191-.285.04-.561.059-.826.059a4.238 4.238 0 01-1.49-.258 3.489 3.489 0 01-1.202-.774 3.678 3.678 0 01-.804-1.276c-.197-.507-.295-1.094-.295-1.763 0-.517.083-1.003.25-1.461.172-.457.418-.855.738-1.195.32-.339.708-.607 1.165-.804a3.816 3.816 0 011.549-.302c.487 0 .935.079 1.343.236.413.152.767.376 1.062.671.3.295.531.659.693 1.092.168.428.251.917.251 1.468 0 .152-.007.278-.022.376a.663.663 0 01-.074.236.283.283 0 01-.14.125.726.726 0 01-.229.03h-4.558zm8.175-3.231c.152-.147.309-.283.472-.406.167-.123.342-.228.523-.317a2.97 2.97 0 011.299-.28c.413 0 .779.071 1.099.214.319.142.587.342.804.597.221.256.386.561.494.915.113.354.17.742.17 1.165v4.832h-2.029v-4.832c0-.423-.098-.75-.295-.981-.197-.236-.487-.354-.87-.354-.286 0-.554.062-.804.185-.251.123-.49.295-.716.516v5.466h-2.036v-7.605h1.254c.256 0 .426.118.509.354l.126.531zm9.007 6.838a2.61 2.61 0 01-.915-.148 1.856 1.856 0 01-.671-.435 1.82 1.82 0 01-.413-.679 2.68 2.68 0 01-.14-.899v-4.102h-.716a.409.409 0 01-.28-.103c-.074-.069-.111-.172-.111-.31v-.796l1.217-.222.413-1.969c.054-.221.204-.332.45-.332h1.062v2.316h1.962v1.416h-1.962v3.969c0 .211.05.378.148.501a.536.536 0 00.435.185c.098 0 .182-.01.251-.03.069-.024.128-.049.177-.073a1.47 1.47 0 01.133-.074.264.264 0 01.28.007.406.406 0 01.118.133l.612.974c-.28.221-.597.388-.951.501-.354.113-.721.17-1.099.17zm11.876-4.182l-1.158-3.275a12.029 12.029 0 01-.221-.605 12.96 12.96 0 01-.214-.753 10.76 10.76 0 01-.221.767 9.523 9.523 0 01-.214.605l-1.151 3.261h3.179zm3.718 4.064h-1.719a.784.784 0 01-.472-.133.861.861 0 01-.266-.354l-.722-2.043h-4.264l-.723 2.043a.863.863 0 01-.258.339.718.718 0 01-.465.148h-1.733l4.182-10.703h2.265l4.175 10.703zm3.542-4.087c.418 0 .726-.105.922-.317.202-.211.303-.484.303-.819 0-.349-.101-.622-.303-.818-.196-.202-.504-.303-.922-.303-.418 0-.725.101-.922.303-.196.196-.295.469-.295.818 0 .33.099.603.295.819.202.212.509.317.922.317zm1.926 4.397a.44.44 0 00-.126-.325.866.866 0 00-.339-.199 2.11 2.11 0 00-.494-.103 7.392 7.392 0 00-.613-.052c-.216-.015-.44-.027-.671-.037a9.806 9.806 0 01-.678-.052 1.578 1.578 0 00-.428.369.745.745 0 00-.163.472c0 .123.028.236.082.34a.728.728 0 00.287.265c.133.074.308.13.524.17.216.044.487.066.811.066.335 0 .618-.022.849-.066a1.75 1.75 0 00.56-.192.718.718 0 00.303-.288.735.735 0 00.096-.368zm2.021-7.664v.745a.378.378 0 01-.104.28c-.064.069-.172.121-.324.155l-.62.125c.084.241.126.499.126.775 0 .378-.079.72-.236 1.025-.153.3-.364.558-.635.775-.27.211-.59.376-.959.494a4.06 4.06 0 01-1.195.169c-.27 0-.523-.022-.759-.066-.207.128-.31.268-.31.421 0 .142.069.245.206.309.143.064.327.111.554.14.231.025.491.042.781.052.295.005.593.02.893.044.305.025.602.069.892.133.296.059.556.16.782.303.231.137.416.322.554.553.142.231.213.528.213.892 0 .34-.083.669-.25.989a2.658 2.658 0 01-.731.855 3.701 3.701 0 01-1.165.605 5.011 5.011 0 01-1.578.229c-.586 0-1.095-.057-1.527-.17a3.535 3.535 0 01-1.07-.442 1.885 1.885 0 01-.627-.635 1.493 1.493 0 01-.206-.752c0-.339.103-.627.309-.863.207-.236.492-.425.856-.568a1.358 1.358 0 01-.465-.421c-.113-.177-.169-.405-.169-.686 0-.226.081-.464.243-.715.167-.251.423-.46.767-.627a2.47 2.47 0 01-.922-.826 2.19 2.19 0 01-.339-1.217c0-.379.076-.721.229-1.025.157-.305.373-.564.649-.775.275-.216.6-.381.973-.494.374-.113.78-.17 1.217-.17.649 0 1.222.128 1.719.384h2.228zm5.738 2.655a2.05 2.05 0 00-.088-.605 1.386 1.386 0 00-.266-.509 1.267 1.267 0 00-.465-.346 1.547 1.547 0 00-.671-.133c-.487 0-.868.138-1.143.413-.276.275-.455.669-.539 1.18h3.172zm-3.201 1.21c.064.713.265 1.234.605 1.564.344.329.791.494 1.342.494.28 0 .521-.032.723-.096a3.9 3.9 0 00.538-.221l.421-.222a.787.787 0 01.376-.103c.157 0 .28.059.369.177l.59.738a3.295 3.295 0 01-.716.627c-.26.162-.531.292-.811.391-.28.093-.563.157-.848.191-.285.04-.561.059-.826.059a4.238 4.238 0 01-1.49-.258 3.493 3.493 0 01-1.203-.774 3.707 3.707 0 01-.804-1.276c-.196-.507-.295-1.094-.295-1.763 0-.517.084-1.003.251-1.461.172-.457.418-.855.738-1.195a3.456 3.456 0 011.165-.804 3.812 3.812 0 011.549-.302c.487 0 .934.079 1.343.236.413.152.767.376 1.062.671.3.295.531.659.693 1.092.167.428.251.917.251 1.468 0 .152-.007.278-.022.376a.684.684 0 01-.074.236.283.283 0 01-.14.125.726.726 0 01-.229.03h-4.558zm11.196-1.136c0 .998.115 1.984.347 2.958.236.973.57 1.886 1.003 2.736a.703.703 0 01.096.281.465.465 0 01-.023.221.348.348 0 01-.103.162.745.745 0 01-.155.118l-.9.539a12.84 12.84 0 01-.929-1.689 12.003 12.003 0 01-.627-1.719 12.918 12.918 0 01-.361-1.77c-.074-.6-.111-1.213-.111-1.837 0-.62.037-1.229.111-1.829.078-.6.199-1.19.361-1.771.162-.58.371-1.153.627-1.718a12.12 12.12 0 01.929-1.689l.9.531a.712.712 0 01.155.118.348.348 0 01.103.162.465.465 0 01.023.221.705.705 0 01-.096.288 12.342 12.342 0 00-1.003 2.729c-.232.974-.347 1.96-.347 2.958zm7.96.509v4.116h-2.213v-4.116l-3.887-6.587h1.947c.192 0 .344.047.458.14a.933.933 0 01.28.347l1.755 3.371c.118.226.224.437.318.634.098.197.184.393.258.59.069-.197.147-.393.236-.59.093-.202.196-.413.31-.634l1.74-3.371c.059-.118.148-.229.266-.332a.67.67 0 01.457-.155h1.962l-3.887 6.587zm7.729-.583a2.05 2.05 0 00-.088-.605 1.371 1.371 0 00-.266-.509 1.272 1.272 0 00-.464-.346 1.552 1.552 0 00-.672-.133c-.486 0-.868.138-1.143.413-.275.275-.455.669-.538 1.18h3.171zm-3.201 1.21c.064.713.266 1.234.605 1.564.344.329.792.494 1.342.494.281 0 .522-.032.723-.096.207-.069.386-.143.539-.221l.42-.222a.787.787 0 01.376-.103c.158 0 .281.059.369.177l.59.738a3.314 3.314 0 01-.715.627 4.15 4.15 0 01-.812.391c-.28.093-.563.157-.848.191-.285.04-.56.059-.826.059a4.238 4.238 0 01-1.49-.258 3.489 3.489 0 01-1.202-.774 3.678 3.678 0 01-.804-1.276c-.197-.507-.295-1.094-.295-1.763 0-.517.083-1.003.25-1.461a3.56 3.56 0 01.738-1.195 3.46 3.46 0 011.166-.804 3.809 3.809 0 011.549-.302c.486 0 .934.079 1.342.236.413.152.767.376 1.062.671.3.295.531.659.693 1.092.168.428.251.917.251 1.468 0 .152-.007.278-.022.376a.663.663 0 01-.074.236.283.283 0 01-.14.125.724.724 0 01-.228.03h-4.559zm10.262.31a8.949 8.949 0 00-1.239.132 2.988 2.988 0 00-.789.236c-.192.099-.33.212-.413.34a.734.734 0 00-.118.405c0 .295.081.504.243.627.167.123.398.185.694.185.339 0 .631-.059.877-.177a2.7 2.7 0 00.745-.568v-1.18zm-4.145-3.371a4.502 4.502 0 011.483-.9 4.974 4.974 0 011.755-.303c.452 0 .856.074 1.21.222.359.147.661.354.907.619.251.261.443.573.575.937.133.364.199.762.199 1.195v4.78h-.929c-.192 0-.339-.027-.442-.081-.099-.054-.18-.168-.244-.34l-.162-.486a6.952 6.952 0 01-.561.442 3.334 3.334 0 01-.553.325 3.05 3.05 0 01-.62.191 3.594 3.594 0 01-.73.067c-.334 0-.639-.044-.914-.133a2.051 2.051 0 01-.716-.391 1.79 1.79 0 01-.457-.656 2.338 2.338 0 01-.163-.9c0-.281.072-.561.214-.841.143-.28.386-.534.731-.76.349-.231.811-.42 1.386-.568.581-.152 1.306-.238 2.176-.258v-.391c0-.477-.101-.826-.302-1.047-.202-.227-.492-.34-.871-.34-.28 0-.513.035-.7.104a3.143 3.143 0 00-.494.213c-.138.074-.268.146-.391.214a.915.915 0 01-.428.096.616.616 0 01-.362-.103 1.091 1.091 0 01-.236-.258l-.361-.649zm9.629.199c.241-.433.519-.775.834-1.025a1.72 1.72 0 011.106-.377c.344 0 .624.082.841.244l-.133 1.505c-.025.098-.064.167-.118.206a.352.352 0 01-.207.052 2.74 2.74 0 01-.339-.03 2.581 2.581 0 00-.413-.037c-.187 0-.354.027-.501.082a1.26 1.26 0 00-.384.228 1.765 1.765 0 00-.31.362 3.783 3.783 0 00-.251.486v4.655h-2.035v-7.605h1.202c.206 0 .349.037.428.111.078.073.135.201.169.383l.111.76zm8.364.31a.624.624 0 01-.169.184.424.424 0 01-.229.052.71.71 0 01-.303-.074 8.45 8.45 0 00-.346-.155 3.25 3.25 0 00-.443-.162 1.966 1.966 0 00-.568-.074c-.329 0-.585.069-.767.207a.623.623 0 00-.273.531c0 .152.052.28.155.383.103.103.239.194.406.273.172.074.366.145.583.214.216.064.437.135.663.214.232.079.455.17.672.273.216.103.408.233.575.391.172.152.31.339.413.56.103.217.155.48.155.79 0 .368-.069.71-.207 1.025-.132.31-.329.578-.59.804-.26.226-.585.403-.973.531a4.292 4.292 0 01-1.343.192 4.1 4.1 0 01-.774-.074 4.26 4.26 0 01-.731-.192 4.9 4.9 0 01-.649-.302 2.881 2.881 0 01-.523-.369l.472-.76a.615.615 0 01.199-.206.617.617 0 01.317-.074.63.63 0 01.339.096l.347.199a3.6 3.6 0 00.45.199c.177.059.396.089.656.089.197 0 .367-.022.509-.067a.983.983 0 00.347-.177.702.702 0 00.192-.258.731.731 0 00.066-.302.536.536 0 00-.162-.406 1.313 1.313 0 00-.413-.28 3.927 3.927 0 00-.583-.214 14.917 14.917 0 01-.678-.214 6.162 6.162 0 01-.672-.28 2.458 2.458 0 01-.582-.406 2.01 2.01 0 01-.413-.612c-.104-.241-.155-.534-.155-.878a2.2 2.2 0 01.184-.893 2.1 2.1 0 01.553-.752c.246-.216.551-.388.915-.516a3.886 3.886 0 011.276-.192c.541 0 1.033.088 1.475.265.443.178.807.409 1.092.694l-.465.723zm2.47 1.416c0-.998-.118-1.984-.354-2.958a12.082 12.082 0 00-.996-2.729.82.82 0 01-.103-.288.618.618 0 01.022-.221.464.464 0 01.103-.162c.05-.045.101-.084.155-.118l.908-.531c.358.555.666 1.118.922 1.689.255.565.464 1.138.627 1.718.162.581.28 1.171.354 1.771a14.165 14.165 0 010 3.666 12.323 12.323 0 01-.354 1.77 12.25 12.25 0 01-.627 1.719 13.51 13.51 0 01-.922 1.689l-.908-.539a1.22 1.22 0 01-.155-.118.464.464 0 01-.103-.162.618.618 0 01-.022-.221.826.826 0 01.103-.281c.433-.85.765-1.763.996-2.736.236-.974.354-1.96.354-2.958zM7.59 9.92a1.222 1.222 0 010-1.738L14.563 1.2a1.222 1.222 0 011.737 0l6.967 6.966a1.232 1.232 0 010 1.746 1.232 1.232 0 01-1.746 0l-4.86-4.86v50.092a1.235 1.235 0 01-2.467 0v-50.1l-4.86 4.868a1.222 1.222 0 01-1.738 0l-.008.008zm9.35 262.37a.822.822 0 01-.819-.82v-64.746c0-.451.369-.82.82-.82.45 0 .82.369.82.82v64.746c0 .451-.37.82-.82.82z" fill="#103B71"/><path d="M205.846 62.798v10.108h-2.104v-4.354h-4.452v4.354h-2.104V62.798h2.104v4.291h4.452V62.8h2.104zm3.735 2.926v7.182h-1.923v-7.182h1.923zm.23-2.041c0 .162-.033.313-.098.453a1.23 1.23 0 01-1.114.71 1.16 1.16 0 01-.822-.341 1.285 1.285 0 01-.258-.37 1.116 1.116 0 01-.091-.452c0-.163.03-.314.091-.453.065-.144.151-.27.258-.376.106-.107.23-.19.369-.251.144-.06.295-.09.453-.09.167 0 .322.03.466.09a1.204 1.204 0 01.648.627c.065.14.098.29.098.453zm4.086 5.364c.395 0 .685-.1.871-.3.19-.2.285-.457.285-.773 0-.33-.095-.587-.285-.773-.186-.19-.476-.286-.871-.286s-.685.095-.871.286c-.186.186-.279.443-.279.773 0 .311.093.569.279.773.19.2.481.3.871.3zm1.818 4.152a.414.414 0 00-.118-.307.827.827 0 00-.321-.188 2.013 2.013 0 00-.467-.097 7.064 7.064 0 00-.578-.05 24.81 24.81 0 00-.634-.034 9.41 9.41 0 01-.641-.049 1.493 1.493 0 00-.404.349.702.702 0 00-.153.446c0 .116.026.222.077.32a.678.678 0 00.271.25c.126.07.291.124.495.161.204.042.46.063.766.063.316 0 .583-.021.801-.063a1.68 1.68 0 00.53-.181.69.69 0 00.376-.62zm1.909-7.238v.703c0 .112-.033.2-.098.265-.06.065-.162.114-.306.146l-.585.119c.079.227.118.471.118.731 0 .358-.074.68-.223.969a2.218 2.218 0 01-.599.731c-.255.2-.557.355-.906.467a3.82 3.82 0 01-1.128.16c-.256 0-.495-.02-.718-.063-.195.121-.292.254-.292.398 0 .134.065.232.195.292.134.06.309.105.522.132.218.024.465.04.739.05.278.004.559.018.843.041.287.023.568.065.842.125.279.056.525.151.739.286.218.13.392.304.522.522.135.219.202.5.202.843a2 2 0 01-.236.934 2.507 2.507 0 01-.69.808 3.511 3.511 0 01-1.101.571 4.747 4.747 0 01-1.491.216 5.746 5.746 0 01-1.442-.16 3.33 3.33 0 01-1.01-.418 1.78 1.78 0 01-.592-.6 1.414 1.414 0 01-.195-.71c0-.32.098-.592.293-.815.195-.223.464-.401.808-.536a1.29 1.29 0 01-.439-.397c-.107-.168-.16-.383-.16-.648 0-.214.076-.439.23-.676.157-.237.399-.434.724-.592a2.329 2.329 0 01-.871-.78 2.072 2.072 0 01-.32-1.15c0-.357.072-.68.216-.968.148-.288.353-.532.613-.731.26-.205.566-.36.919-.467a3.95 3.95 0 011.15-.16c.613 0 1.154.12 1.623.362h2.104zm2.922.466c.135-.12.274-.23.418-.327a2.693 2.693 0 01.996-.425c.191-.042.395-.063.613-.063.39 0 .736.068 1.038.203.302.134.555.322.76.564.209.241.364.53.466.864.107.334.161.7.161 1.1v4.563h-1.916v-4.563c0-.4-.093-.708-.279-.926-.185-.223-.46-.335-.822-.335-.269 0-.522.058-.759.175a2.622 2.622 0 00-.676.487v5.162h-1.923V62.52h1.923v3.908zm12.716 1.157c.339 0 .632-.042.878-.125.246-.089.448-.207.606-.356a1.42 1.42 0 00.349-.536 1.95 1.95 0 00.111-.669c0-.478-.16-.85-.481-1.114-.315-.265-.798-.398-1.449-.398h-1.086v3.198h1.072zm4.898 5.322h-1.888c-.353 0-.609-.134-.766-.404l-1.923-3.1a.795.795 0 00-.265-.265c-.093-.055-.232-.083-.418-.083h-.71v3.852h-2.09V62.798h3.176c.706 0 1.31.074 1.812.223.501.144.912.346 1.233.606.32.26.555.571.703.934.149.357.223.752.223 1.184a3.1 3.1 0 01-.146.954c-.093.297-.23.57-.411.815a2.981 2.981 0 01-.669.655c-.265.19-.567.344-.906.46a1.928 1.928 0 01.69.64l2.355 3.637zm2.606-7.182v7.182h-1.922v-7.182h1.922zm.23-2.041c0 .162-.032.313-.097.453a1.233 1.233 0 01-1.115.71 1.16 1.16 0 01-.822-.341 1.285 1.285 0 01-.258-.37 1.13 1.13 0 01-.09-.452 1.132 1.132 0 01.348-.83 1.16 1.16 0 01.822-.341 1.196 1.196 0 01.85.342c.111.107.2.232.265.376.065.14.097.29.097.453zm5.876 3.518a.585.585 0 01-.16.174.402.402 0 01-.216.049.658.658 0 01-.285-.07 8.302 8.302 0 00-.328-.146 3.011 3.011 0 00-.418-.153 1.855 1.855 0 00-.536-.07c-.311 0-.553.065-.725.195a.592.592 0 00-.257.501.49.49 0 00.146.363c.097.097.225.183.383.258.163.07.346.136.55.201.205.06.414.128.627.203.219.074.43.16.634.257.205.098.386.22.544.37.162.144.292.32.39.529.097.204.146.453.146.745 0 .349-.065.671-.195.969a2.076 2.076 0 01-.557.759 2.66 2.66 0 01-.92.502c-.367.12-.789.18-1.268.18-.246 0-.49-.022-.731-.069a4.039 4.039 0 01-.69-.181 4.705 4.705 0 01-.613-.286 2.78 2.78 0 01-.495-.348l.446-.718a.585.585 0 01.188-.195.584.584 0 01.3-.07.59.59 0 01.32.091l.328.188c.121.065.262.128.425.189.167.055.374.083.62.083.186 0 .346-.02.48-.063a.947.947 0 00.328-.167.675.675 0 00.181-.244.687.687 0 00.063-.285.503.503 0 00-.154-.383 1.238 1.238 0 00-.39-.265 3.73 3.73 0 00-.55-.202 14.14 14.14 0 01-.641-.202 5.69 5.69 0 01-.634-.265 2.284 2.284 0 01-.55-.383 1.913 1.913 0 01-.39-.578 2.092 2.092 0 01-.147-.83 2.056 2.056 0 01.697-1.552c.232-.205.52-.368.864-.488.348-.121.75-.181 1.205-.181.511 0 .975.083 1.393.25.418.168.762.386 1.031.655l-.439.683zm3.621-4.682v5.894h.321a.681.681 0 00.285-.049.66.66 0 00.209-.195l1.589-2.118a.873.873 0 01.264-.243.797.797 0 01.384-.084h1.755l-2.062 2.62c-.162.218-.351.39-.564.515.107.074.2.16.278.258.079.097.156.206.23.327l2.223 3.462h-1.728a.956.956 0 01-.383-.07.607.607 0 01-.265-.264l-1.616-2.64a.508.508 0 00-.202-.216.774.774 0 00-.314-.05h-.404v3.24h-1.922V62.52h1.922zm-90.205 17.81c.412 0 .786.065 1.124.197a2.45 2.45 0 011.428 1.449c.131.348.197.74.197 1.177 0 .437-.066.831-.197 1.183a2.516 2.516 0 01-.56.89 2.45 2.45 0 01-.868.564 3.076 3.076 0 01-1.124.197 3.14 3.14 0 01-1.135-.197 2.45 2.45 0 01-1.433-1.454 3.367 3.367 0 01-.197-1.183c0-.437.066-.83.197-1.177.135-.348.323-.643.565-.885a2.45 2.45 0 01.868-.564 3.132 3.132 0 011.135-.197zm0 4.554c.419 0 .73-.143.932-.431.203-.291.304-.723.304-1.295 0-.568-.101-.996-.304-1.283-.202-.292-.513-.437-.932-.437-.43 0-.746.145-.948.437-.203.287-.304.715-.304 1.283 0 .572.101 1.004.304 1.295.202.288.518.431.948.431zm3.926 1.023V81.47l-.426-.075a.61.61 0 01-.272-.117c-.068-.057-.101-.139-.101-.245v-.586h.799v-.362c0-.313.048-.595.144-.847a1.762 1.762 0 011.086-1.055c.263-.096.56-.144.89-.144.128 0 .249.009.362.027.117.014.235.037.352.069l-.032.724c-.007.11-.055.183-.144.219a.815.815 0 01-.288.048c-.149 0-.284.016-.405.048a.686.686 0 00-.298.165.692.692 0 00-.186.309 1.524 1.524 0 00-.064.48v.319h1.364v1.023h-1.316v4.437h-1.465zm8.402-4.07c.259 0 .483-.032.671-.096.188-.067.343-.158.463-.271a1.08 1.08 0 00.267-.41 1.51 1.51 0 00.085-.512c0-.366-.123-.65-.368-.852-.241-.203-.611-.304-1.108-.304h-.831v2.445h.821zm3.745 4.07h-1.444c-.27 0-.465-.103-.586-.309l-1.47-2.37a.613.613 0 00-.203-.203.631.631 0 00-.319-.064h-.544v2.946h-1.598v-7.73h2.429c.54 0 1.002.057 1.385.17.384.111.698.266.943.464.245.2.425.437.538.714.114.274.171.576.171.906 0 .256-.038.499-.112.73a2.111 2.111 0 01-.314.623 2.287 2.287 0 01-.512.5 2.633 2.633 0 01-.692.352c.103.057.199.126.287.208.089.078.169.172.24.282l1.801 2.781zm3.33-2.296c-.358.018-.657.05-.894.096-.238.043-.428.1-.571.17a.765.765 0 00-.298.246.531.531 0 00-.085.293c0 .213.059.364.176.452.12.09.287.134.5.134.246 0 .457-.043.634-.128.182-.089.361-.226.538-.41v-.853zm-2.993-2.434c.323-.291.68-.508 1.07-.65a3.606 3.606 0 011.268-.219c.327 0 .618.054.874.16a1.907 1.907 0 011.071 1.124c.096.263.143.55.143.863v3.452h-.671a.7.7 0 01-.319-.058c-.071-.04-.13-.121-.176-.245l-.117-.352a5.47 5.47 0 01-.405.32c-.128.092-.261.17-.4.234a2.17 2.17 0 01-.447.138 2.647 2.647 0 01-.528.049 2.15 2.15 0 01-.66-.096 1.489 1.489 0 01-.517-.283 1.294 1.294 0 01-.33-.474 1.686 1.686 0 01-.117-.65c0-.202.051-.405.154-.607.103-.203.279-.385.527-.549.253-.167.586-.303 1.002-.41.419-.11.943-.172 1.571-.186v-.283c0-.344-.072-.596-.218-.756-.146-.164-.355-.245-.629-.245a1.48 1.48 0 00-.506.074 2.229 2.229 0 00-.357.155l-.282.154a.663.663 0 01-.309.07.444.444 0 01-.261-.075.776.776 0 01-.17-.187l-.261-.468zm7.044 3.281c.139.16.288.272.448.336.163.064.337.096.522.096.178 0 .339-.034.485-.102a.957.957 0 00.373-.314c.106-.145.188-.33.245-.554.057-.224.085-.49.085-.799 0-.305-.025-.565-.075-.778a1.474 1.474 0 00-.202-.516.743.743 0 00-.314-.283.942.942 0 00-.416-.09c-.259 0-.478.051-.655.154-.174.1-.339.247-.496.442v2.408zm-.085-3.324c.11-.12.228-.23.352-.33a2.08 2.08 0 01.399-.261 1.96 1.96 0 01.459-.17c.163-.043.34-.065.532-.065a1.766 1.766 0 011.449.74c.178.239.316.532.416.88.099.348.149.746.149 1.193 0 .412-.057.794-.171 1.145-.11.349-.268.65-.474.906a2.225 2.225 0 01-.745.602c-.288.142-.61.213-.965.213-.298 0-.552-.044-.761-.133a1.93 1.93 0 01-.555-.362v2.19h-1.47v-7.267h.906c.184 0 .307.085.367.256l.112.463zm6.215-.72v5.493h-1.47v-5.492h1.47zm.176-1.56c0 .124-.025.24-.075.346a.944.944 0 01-.852.544.892.892 0 01-.347-.07.913.913 0 01-.282-.191.984.984 0 01-.197-.283.865.865 0 01-.069-.346.865.865 0 01.266-.634.913.913 0 01.282-.192.913.913 0 01.997.192.924.924 0 01.202.288c.05.106.075.222.075.346zm4.472 2.989a1.16 1.16 0 00-.453-.336 1.362 1.362 0 00-.511-.096 1.14 1.14 0 00-.485.101.97.97 0 00-.378.32 1.604 1.604 0 00-.24.549c-.057.223-.085.49-.085.799 0 .305.023.564.069.778.046.213.112.385.197.516a.823.823 0 00.32.288.987.987 0 00.415.085c.26 0 .476-.051.65-.154.178-.103.345-.249.501-.437v-2.413zm1.47-3.879v7.943h-.905c-.189 0-.309-.085-.363-.256l-.122-.479c-.11.12-.227.23-.352.33-.12.1-.252.187-.394.261a2.135 2.135 0 01-.991.224 1.76 1.76 0 01-1.449-.73 2.76 2.76 0 01-.415-.884 4.33 4.33 0 01-.149-1.193 3.8 3.8 0 01.165-1.14c.113-.352.273-.656.479-.911.206-.256.455-.457.746-.602.291-.146.614-.219.97-.219.298 0 .548.045.751.133.206.09.392.21.559.363v-2.84h1.47zm6.564 4.06c.501 0 .867-.121 1.098-.362.234-.242.351-.572.351-.991 0-.192-.03-.366-.09-.523a.993.993 0 00-.266-.404 1.165 1.165 0 00-.448-.261 2.048 2.048 0 00-.645-.09h-1.012v2.63h1.012zm0-3.846c.53 0 .986.062 1.37.186.387.124.705.298.953.522.249.22.432.483.549.788.121.306.181.638.181.997 0 .38-.062.728-.186 1.044a2.145 2.145 0 01-.565.815c-.252.227-.57.405-.954.532-.383.125-.833.187-1.348.187h-1.012v2.658h-1.598v-7.73h2.61zm5.174 3.142c.174-.312.375-.559.602-.74.228-.181.494-.272.8-.272.248 0 .451.059.607.176l-.096 1.087a.265.265 0 01-.085.15.26.26 0 01-.149.036c-.057 0-.139-.007-.246-.021a1.821 1.821 0 00-.298-.027.916.916 0 00-.639.224 1.261 1.261 0 00-.224.261 2.71 2.71 0 00-.181.352v3.361h-1.47v-5.492h.868c.149 0 .252.026.309.08.057.053.098.145.123.277l.079.549zm4.989-.99c.412 0 .787.065 1.124.197.338.131.627.32.869.564.241.242.428.537.559.885.131.348.197.74.197 1.177 0 .437-.066.831-.197 1.183a2.514 2.514 0 01-.559.89 2.455 2.455 0 01-.869.564 3.072 3.072 0 01-1.124.197c-.415 0-.794-.066-1.134-.197a2.455 2.455 0 01-.869-.565 2.568 2.568 0 01-.564-.89 3.344 3.344 0 01-.198-1.182c0-.437.066-.83.198-1.177a2.453 2.453 0 011.433-1.449c.34-.132.719-.197 1.134-.197zm0 4.554c.419 0 .73-.143.932-.431.203-.291.304-.723.304-1.295 0-.568-.101-.996-.304-1.283-.202-.292-.513-.437-.932-.437-.43 0-.746.145-.948.437-.202.287-.304.715-.304 1.283 0 .572.102 1.004.304 1.295.202.288.518.431.948.431zm5.666-1.928c.302 0 .524-.076.666-.23a.824.824 0 00.218-.59c0-.253-.073-.45-.218-.592-.142-.145-.364-.218-.666-.218-.302 0-.524.073-.666.218-.142.142-.213.34-.213.592 0 .237.071.435.213.59.146.154.368.23.666.23zm1.39 3.175a.318.318 0 00-.09-.234.635.635 0 00-.245-.144c-.1-.036-.219-.06-.357-.075a18.982 18.982 0 00-.927-.064 7.253 7.253 0 01-.49-.037 1.111 1.111 0 00-.309.266.538.538 0 00-.117.341c0 .09.019.17.058.245a.525.525 0 00.208.192c.096.053.222.094.378.123.156.032.352.048.586.048.242 0 .446-.016.613-.048a1.28 1.28 0 00.405-.139.518.518 0 00.287-.474zm1.46-5.535v.538a.273.273 0 01-.075.203.45.45 0 01-.234.111l-.448.09c.061.175.091.361.091.56 0 .274-.057.52-.17.74a1.697 1.697 0 01-.459.56 2.201 2.201 0 01-.692.357 2.93 2.93 0 01-.863.123c-.195 0-.378-.016-.549-.048-.149.092-.224.193-.224.303 0 .103.05.178.15.224.103.046.236.08.399.101.167.018.355.03.565.038.213.003.428.014.644.031.221.018.435.05.645.096.213.043.401.116.565.219.167.1.3.232.399.4.103.166.155.381.155.644 0 .245-.061.483-.181.714a1.92 1.92 0 01-.528.618 2.689 2.689 0 01-.841.437 3.64 3.64 0 01-1.141.165c-.422 0-.79-.041-1.102-.123a2.546 2.546 0 01-.773-.32 1.366 1.366 0 01-.453-.458 1.085 1.085 0 01-.149-.543c0-.245.075-.453.224-.623a1.56 1.56 0 01.618-.41 1.003 1.003 0 01-.336-.304.912.912 0 01-.122-.495.95.95 0 01.176-.517c.12-.181.305-.332.554-.453a1.772 1.772 0 01-.666-.597 1.575 1.575 0 01-.245-.879c0-.273.055-.52.165-.74.114-.22.27-.407.469-.56.199-.156.433-.275.703-.356.27-.082.563-.123.879-.123.469 0 .882.092 1.241.277h1.609zm2.144.725a2.46 2.46 0 01.602-.741c.227-.181.494-.272.799-.272.249 0 .451.059.608.176l-.096 1.087a.266.266 0 01-.086.15.256.256 0 01-.149.036c-.057 0-.138-.007-.245-.021a1.821 1.821 0 00-.298-.027c-.135 0-.256.02-.362.059a.904.904 0 00-.277.165 1.232 1.232 0 00-.224.261 2.71 2.71 0 00-.181.352v3.361h-1.471v-5.492h.869c.149 0 .252.026.309.08.057.053.097.145.122.277l.08.549zm5.996 1.193c0-.153-.022-.299-.064-.437a.98.98 0 00-.192-.368.92.92 0 00-.336-.25 1.122 1.122 0 00-.484-.096c-.352 0-.627.1-.826.299-.199.198-.329.483-.389.852h2.291zm-2.312.873c.046.515.192.892.437 1.13.248.238.571.357.969.357.203 0 .377-.023.522-.07a2.75 2.75 0 00.389-.16l.304-.16a.57.57 0 01.271-.074c.114 0 .203.043.267.128l.426.533a2.381 2.381 0 01-.517.453 2.939 2.939 0 01-.586.282 3.094 3.094 0 01-.612.138 4.357 4.357 0 01-.597.043c-.384 0-.742-.062-1.076-.186a2.512 2.512 0 01-.868-.56 2.655 2.655 0 01-.581-.921c-.142-.366-.213-.79-.213-1.273 0-.373.06-.725.181-1.055a2.485 2.485 0 011.374-1.444 2.752 2.752 0 011.119-.218c.352 0 .675.056.97.17a2.096 2.096 0 011.267 1.273 2.891 2.891 0 01.166 1.332.485.485 0 01-.054.17.207.207 0 01-.101.091.531.531 0 01-.165.022h-3.292zm7.955-1.843a.447.447 0 01-.123.133.306.306 0 01-.165.038.503.503 0 01-.218-.053 6.078 6.078 0 00-.251-.112 2.355 2.355 0 00-.319-.118 1.426 1.426 0 00-.411-.053c-.238 0-.422.05-.554.15a.453.453 0 00-.197.383c0 .11.038.202.112.277.075.074.172.14.293.197.124.053.265.105.421.154.156.047.316.098.479.155.167.057.329.123.485.197.156.075.295.169.416.282a1.234 1.234 0 01.41.975c0 .267-.05.514-.149.74a1.593 1.593 0 01-.426.581 2.03 2.03 0 01-.704.384c-.28.092-.603.139-.969.139-.188 0-.375-.018-.56-.054a3.119 3.119 0 01-.527-.138 3.572 3.572 0 01-.469-.219 2.131 2.131 0 01-.378-.266l.341-.549a.444.444 0 01.144-.149.445.445 0 01.229-.053c.089 0 .17.023.245.069l.25.144c.093.05.201.097.325.144.128.042.286.064.474.064.142 0 .265-.016.368-.048a.72.72 0 00.25-.128.529.529 0 00.187-.405.387.387 0 00-.117-.293.957.957 0 00-.299-.203 2.81 2.81 0 00-.421-.154 11.42 11.42 0 01-.49-.154 4.333 4.333 0 01-.484-.203 1.73 1.73 0 01-.421-.293 1.48 1.48 0 01-.299-.442 1.618 1.618 0 01-.111-.634c0-.227.044-.442.133-.645.089-.206.222-.387.399-.543.178-.156.398-.28.661-.373.266-.092.573-.138.921-.138.391 0 .746.064 1.066.191.32.128.582.295.788.501l-.335.522zm4.713 0a.458.458 0 01-.122.133.313.313 0 01-.166.038.506.506 0 01-.218-.053 6.654 6.654 0 00-.25-.112 2.372 2.372 0 00-.32-.118 1.418 1.418 0 00-.41-.053c-.238 0-.423.05-.554.15a.45.45 0 00-.197.383c0 .11.037.202.111.277.075.074.173.14.293.197.125.053.265.105.421.154.157.047.316.098.48.155.167.057.328.123.485.197.156.075.294.169.415.282.124.11.224.245.298.405.075.156.112.346.112.57 0 .267-.049.514-.149.74a1.593 1.593 0 01-.426.581 2.026 2.026 0 01-.703.384 3.106 3.106 0 01-.97.139c-.188 0-.374-.018-.559-.054a3.106 3.106 0 01-.528-.138 3.558 3.558 0 01-.468-.219 2.105 2.105 0 01-.379-.266l.341-.549a.444.444 0 01.144-.149.448.448 0 01.229-.053c.089 0 .171.023.245.069l.251.144c.092.05.2.097.325.144.128.042.286.064.474.064.142 0 .264-.016.367-.048a.725.725 0 00.251-.128.514.514 0 00.138-.187.526.526 0 00.048-.218.387.387 0 00-.117-.293.963.963 0 00-.298-.203 2.851 2.851 0 00-.421-.154c-.16-.046-.323-.098-.49-.154a4.348 4.348 0 01-.485-.203 1.75 1.75 0 01-.421-.293 1.459 1.459 0 01-.298-.442 1.6 1.6 0 01-.112-.634c0-.227.044-.442.133-.645.089-.206.222-.387.4-.543.177-.156.397-.28.66-.373.267-.092.574-.138.922-.138.39 0 .746.064 1.065.191.32.128.583.295.789.501l-.336.522zm2.812-1.13v5.493h-1.471v-5.492h1.471zm.175-1.56c0 .124-.024.24-.074.346a.93.93 0 01-.203.283.913.913 0 01-1.278 0 .865.865 0 01-.267-.629c0-.124.024-.24.07-.346a.944.944 0 01.479-.48.913.913 0 01.996.192.91.91 0 01.203.288c.05.106.074.222.074.346zm3.556 1.476c.412 0 .787.065 1.124.197.338.131.627.32.869.564.241.242.428.537.559.885a3.3 3.3 0 01.197 1.177c0 .437-.065.831-.197 1.183a2.514 2.514 0 01-.559.89 2.455 2.455 0 01-.869.564 3.072 3.072 0 01-1.124.197 3.13 3.13 0 01-1.134-.197 2.455 2.455 0 01-.869-.565 2.583 2.583 0 01-.564-.89 3.345 3.345 0 01-.197-1.182c0-.437.065-.83.197-1.177a2.453 2.453 0 011.433-1.449 3.13 3.13 0 011.134-.197zm0 4.554c.42 0 .73-.143.933-.431.202-.291.303-.723.303-1.295 0-.568-.101-.996-.303-1.283-.203-.292-.513-.437-.933-.437-.429 0-.745.145-.948.437-.202.287-.303.715-.303 1.283 0 .572.101 1.004.303 1.295.203.288.519.431.948.431zm5.036-3.83c.11-.106.224-.204.341-.293a2.134 2.134 0 011.316-.431c.298 0 .563.051.794.154a1.6 1.6 0 01.58.432c.16.184.279.404.357.66.082.256.123.537.123.842v3.49h-1.465v-3.49c0-.305-.071-.542-.213-.709-.142-.17-.352-.255-.629-.255-.206 0-.399.044-.58.133a1.983 1.983 0 00-.517.373v3.947h-1.471v-5.492h.906c.185 0 .307.085.368.256l.09.383zm-103.035 83.275h-2.104V154.22h2.104v10.108zm3.524-6.346c.144-.14.292-.267.446-.383a2.75 2.75 0 011.72-.565c.39 0 .736.068 1.038.202.302.135.555.323.76.565.209.241.364.529.466.863.107.335.161.702.161 1.101v4.563h-1.916v-4.563c0-.399-.093-.708-.279-.926-.186-.223-.46-.335-.822-.335-.269 0-.522.058-.759.174a2.645 2.645 0 00-.676.488v5.162h-1.923v-7.182h1.185c.241 0 .401.111.48.334l.119.502zm8.506 6.458c-.325 0-.613-.047-.863-.14a1.74 1.74 0 01-.634-.411 1.73 1.73 0 01-.391-.641 2.554 2.554 0 01-.132-.85v-3.873h-.676a.386.386 0 01-.264-.097c-.07-.065-.105-.163-.105-.293v-.752l1.15-.209.39-1.86c.051-.209.192-.314.425-.314h1.003v2.188h1.853v1.337h-1.853v3.748c0 .2.046.358.139.474a.509.509 0 00.411.174.856.856 0 00.237-.028c.065-.023.121-.046.167-.07.047-.027.088-.051.126-.069a.255.255 0 01.125-.035c.056 0 .102.014.139.042a.38.38 0 01.112.125l.578.92a2.803 2.803 0 01-.899.473c-.334.107-.68.161-1.038.161zm7.274-4.549c0-.2-.028-.391-.084-.572a1.281 1.281 0 00-.25-.48 1.205 1.205 0 00-.439-.328 1.481 1.481 0 00-.634-.125c-.46 0-.82.13-1.08.39-.26.26-.43.632-.509 1.115h2.996zm-3.024 1.142c.061.673.251 1.166.572 1.477.325.311.747.467 1.268.467.264 0 .492-.031.682-.091.195-.065.365-.135.509-.209l.397-.209a.746.746 0 01.355-.097.41.41 0 01.349.167l.557.696a3.11 3.11 0 01-.676.593 3.88 3.88 0 01-.766.369 4.132 4.132 0 01-.801.181c-.27.037-.53.056-.781.056-.501 0-.97-.082-1.407-.244a3.28 3.28 0 01-1.135-.732 3.48 3.48 0 01-.76-1.205c-.185-.478-.278-1.033-.278-1.665 0-.487.079-.947.237-1.379.162-.432.394-.808.696-1.129.302-.32.669-.573 1.101-.759.432-.19.919-.286 1.463-.286.46 0 .882.075 1.268.223.39.144.724.356 1.003.634.283.279.501.623.655 1.031.158.404.237.866.237 1.387 0 .144-.007.262-.021.355a.623.623 0 01-.07.223.274.274 0 01-.132.118.686.686 0 01-.216.028h-4.306zm7.742-2.703c.228-.409.49-.731.787-.968a1.627 1.627 0 011.045-.356c.325 0 .59.077.794.23l-.125 1.422c-.023.092-.06.157-.112.195a.338.338 0 01-.195.048c-.074 0-.181-.009-.32-.028a2.393 2.393 0 00-.39-.034 1.184 1.184 0 00-.836.292 1.625 1.625 0 00-.293.342 3.691 3.691 0 00-.237.459v4.396h-1.922v-7.182h1.135c.195 0 .33.035.404.104.075.07.128.191.16.363l.105.717zm3.448 5.998v-7.182h1.184c.241 0 .402.111.481.334l.111.467c.125-.13.253-.251.383-.362.135-.112.279-.207.432-.286.153-.084.318-.149.495-.195.181-.046.376-.07.585-.07.441 0 .806.119 1.094.356.288.232.506.543.654.933a2.23 2.23 0 01.983-.989c.204-.102.418-.177.641-.223.227-.051.455-.077.682-.077.404 0 .762.061 1.073.181.311.121.571.3.78.537a2.3 2.3 0 01.488.857c.112.339.167.724.167 1.156v4.563h-1.922v-4.563c0-.84-.36-1.261-1.08-1.261-.163 0-.314.028-.453.084-.135.051-.255.13-.362.237a1.169 1.169 0 00-.244.397 1.621 1.621 0 00-.084.543v4.563h-1.922v-4.563c0-.455-.091-.778-.272-.968-.177-.195-.439-.293-.787-.293-.223 0-.435.054-.634.16a2.088 2.088 0 00-.551.432v5.232h-1.922zm16.311-4.437c0-.2-.027-.391-.083-.572a1.283 1.283 0 00-.251-.48 1.188 1.188 0 00-.439-.328 1.478 1.478 0 00-.634-.125c-.46 0-.82.13-1.08.39-.26.26-.429.632-.508 1.115h2.995zm-3.023 1.142c.06.673.251 1.166.571 1.477.325.311.748.467 1.268.467.265 0 .492-.031.683-.091a3.62 3.62 0 00.508-.209l.397-.209a.75.75 0 01.356-.097.41.41 0 01.348.167l.557.696a3.106 3.106 0 01-.675.593 3.914 3.914 0 01-.767.369 4.1 4.1 0 01-.801.181 5.728 5.728 0 01-.78.056c-.502 0-.971-.082-1.407-.244a3.283 3.283 0 01-1.136-.732 3.492 3.492 0 01-.759-1.205c-.186-.478-.279-1.033-.279-1.665 0-.487.079-.947.237-1.379.163-.432.395-.808.697-1.129.302-.32.669-.573 1.1-.759a3.6 3.6 0 011.463-.286c.46 0 .883.075 1.268.223a2.743 2.743 0 011.658 1.665c.158.404.237.866.237 1.387 0 .144-.007.262-.021.355a.645.645 0 01-.069.223.276.276 0 01-.133.118.686.686 0 01-.216.028h-4.305zm10.375-2.02a1.534 1.534 0 00-.592-.439 1.776 1.776 0 00-.669-.125c-.232 0-.444.044-.634.132a1.273 1.273 0 00-.495.418 2.103 2.103 0 00-.313.717 4.304 4.304 0 00-.112 1.045c0 .4.031.739.091 1.017.06.279.146.504.258.676.116.172.255.297.418.376.162.075.343.112.543.112.339 0 .622-.068.85-.202.232-.135.45-.325.655-.571v-3.156zm1.922-5.072v10.387h-1.184c-.246 0-.404-.111-.474-.334l-.16-.627a3.978 3.978 0 01-.46.432 2.93 2.93 0 01-.515.341 2.786 2.786 0 01-.599.216 3 3 0 01-.697.077c-.385 0-.738-.082-1.059-.244-.32-.163-.599-.4-.836-.711a3.611 3.611 0 01-.543-1.156 5.69 5.69 0 01-.195-1.561c0-.534.072-1.031.216-1.49.149-.46.358-.857.627-1.192.269-.334.594-.596.975-.787.381-.19.804-.286 1.268-.286.39 0 .718.059.982.175.27.116.513.274.732.473v-3.713h1.922zm3.578 3.205v7.182h-1.922v-7.182h1.922zm.23-2.041c0 .162-.032.313-.097.452a1.23 1.23 0 01-1.115.711 1.15 1.15 0 01-.822-.341 1.282 1.282 0 01-.258-.37 1.13 1.13 0 01-.09-.452 1.13 1.13 0 01.348-.829c.107-.107.23-.191.369-.251a1.204 1.204 0 011.303.251c.111.106.2.232.265.376.065.139.097.29.097.453zm5.166 6.221a8.542 8.542 0 00-1.17.125c-.312.056-.56.13-.746.223a1 1 0 00-.39.32.702.702 0 00-.111.384c0 .278.076.476.229.592.158.116.377.174.655.174.321 0 .597-.056.829-.167.237-.116.472-.295.704-.537v-1.114zm-3.915-3.184a4.24 4.24 0 011.4-.85 4.722 4.722 0 011.658-.286c.427 0 .808.07 1.143.209a2.497 2.497 0 011.4 1.47c.125.344.188.72.188 1.129v4.514h-.878c-.181 0-.32-.025-.418-.077-.093-.051-.169-.157-.23-.32l-.153-.46a6.633 6.633 0 01-.529.418 3.192 3.192 0 01-.523.307 2.872 2.872 0 01-.585.181 3.437 3.437 0 01-.69.063 2.8 2.8 0 01-.864-.126 1.92 1.92 0 01-.675-.369 1.69 1.69 0 01-.432-.62 2.203 2.203 0 01-.154-.85c0-.265.068-.529.202-.794.135-.265.365-.504.69-.718.33-.218.766-.397 1.31-.536.548-.144 1.233-.225 2.055-.244v-.369c0-.451-.095-.78-.286-.989-.19-.214-.464-.321-.822-.321-.264 0-.485.033-.662.098-.176.06-.332.127-.466.202-.13.069-.253.137-.37.202a.865.865 0 01-.404.09.58.58 0 01-.341-.097 1.034 1.034 0 01-.223-.244l-.341-.613zm9.661 6.298c-.325 0-.613-.047-.864-.14a1.748 1.748 0 01-.634-.411 1.715 1.715 0 01-.39-.641 2.554 2.554 0 01-.132-.85v-3.873h-.676a.389.389 0 01-.265-.097c-.07-.065-.104-.163-.104-.293v-.752l1.149-.209.39-1.86c.051-.209.193-.314.425-.314h1.003v2.188h1.853v1.337h-1.853v3.748c0 .2.047.358.14.474a.506.506 0 00.411.174.856.856 0 00.237-.028 1.382 1.382 0 00.292-.139.261.261 0 01.126-.035c.055 0 .102.014.139.042a.378.378 0 01.111.125l.579.92a2.813 2.813 0 01-.899.473 3.391 3.391 0 01-1.038.161zm7.273-4.549c0-.2-.027-.391-.083-.572a1.283 1.283 0 00-.251-.48 1.188 1.188 0 00-.439-.328 1.478 1.478 0 00-.634-.125c-.46 0-.82.13-1.08.39-.26.26-.429.632-.508 1.115h2.995zm-3.023 1.142c.06.673.251 1.166.571 1.477.325.311.748.467 1.268.467.265 0 .492-.031.683-.091a3.62 3.62 0 00.508-.209l.397-.209a.75.75 0 01.356-.097.41.41 0 01.348.167l.557.696a3.106 3.106 0 01-.675.593 3.914 3.914 0 01-.767.369 4.1 4.1 0 01-.801.181 5.728 5.728 0 01-.78.056c-.502 0-.971-.082-1.407-.244a3.283 3.283 0 01-1.136-.732 3.492 3.492 0 01-.759-1.205c-.186-.478-.279-1.033-.279-1.665 0-.487.079-.947.237-1.379.163-.432.395-.808.697-1.129.302-.32.669-.573 1.1-.759a3.6 3.6 0 011.463-.286c.46 0 .883.075 1.268.223a2.743 2.743 0 011.658 1.665c.158.404.237.866.237 1.387 0 .144-.007.262-.021.355a.645.645 0 01-.069.223.276.276 0 01-.133.118.686.686 0 01-.216.028h-4.305zm12.671-2.027c.339 0 .632-.042.878-.126.246-.088.448-.206.606-.355.158-.153.274-.332.348-.536.074-.205.112-.428.112-.669 0-.478-.161-.85-.481-1.115-.316-.264-.799-.397-1.449-.397h-1.087v3.198h1.073zm4.897 5.322h-1.888c-.353 0-.608-.135-.766-.404l-1.923-3.1a.803.803 0 00-.264-.265c-.093-.055-.233-.083-.418-.083h-.711v3.852h-2.09V154.22h3.177c.706 0 1.31.074 1.811.223.502.144.913.346 1.233.606.321.26.555.571.704.933.148.358.223.753.223 1.185 0 .334-.049.652-.147.954a2.707 2.707 0 01-.411.815 2.992 2.992 0 01-.668.655c-.265.19-.567.344-.906.46a1.939 1.939 0 01.69.641l2.354 3.636zm2.607-7.182v7.182h-1.923v-7.182h1.923zm.23-2.041c0 .162-.033.313-.098.452-.065.14-.153.263-.265.37a1.12 1.12 0 01-.383.25 1.18 1.18 0 01-.466.091 1.15 1.15 0 01-.823-.341 1.113 1.113 0 01-.348-.822c0-.163.03-.314.091-.453a1.26 1.26 0 01.257-.376c.107-.107.23-.191.37-.251a1.199 1.199 0 01.919 0c.149.06.277.144.383.251.112.106.2.232.265.376.065.139.098.29.098.453zm5.876 3.518a.582.582 0 01-.16.174.406.406 0 01-.216.049.672.672 0 01-.286-.07 6.955 6.955 0 00-.327-.146 3.11 3.11 0 00-.418-.154 1.872 1.872 0 00-.537-.069c-.311 0-.552.065-.724.195a.589.589 0 00-.258.501c0 .144.049.265.146.363.098.097.226.183.384.257.162.07.346.137.55.202.204.061.413.128.627.202.218.075.43.161.634.258.204.098.385.221.543.369.163.144.293.321.39.53.098.204.147.453.147.745 0 .349-.065.671-.195.969a2.097 2.097 0 01-.558.759 2.622 2.622 0 01-.919.501 4.05 4.05 0 01-1.268.182c-.246 0-.49-.024-.732-.07a4.07 4.07 0 01-.689-.181 4.612 4.612 0 01-.613-.286 2.738 2.738 0 01-.495-.348l.446-.718a.596.596 0 01.188-.195.59.59 0 01.3-.069.6.6 0 01.32.09l.327.188c.121.065.263.128.425.188.168.056.374.084.62.084.186 0 .346-.021.481-.063a.93.93 0 00.327-.167.69.69 0 00.244-.529.508.508 0 00-.153-.384 1.258 1.258 0 00-.39-.264 3.61 3.61 0 00-.55-.202 15.53 15.53 0 01-.641-.202 5.869 5.869 0 01-.634-.265 2.292 2.292 0 01-.551-.383 1.92 1.92 0 01-.39-.578 2.113 2.113 0 01-.146-.829c0-.298.058-.579.174-.843.116-.27.29-.507.523-.711.232-.204.52-.367.863-.488.349-.12.75-.181 1.206-.181.51 0 .975.084 1.393.251.418.167.762.386 1.031.655l-.439.683zm3.621-4.682v5.894h.32a.681.681 0 00.286-.049.666.666 0 00.209-.195l1.588-2.118a.866.866 0 01.265-.244.801.801 0 01.383-.083h1.756l-2.062 2.619c-.163.218-.351.39-.565.516.107.074.2.16.279.257.079.098.156.207.23.328l2.222 3.462h-1.727a.95.95 0 01-.384-.07.605.605 0 01-.264-.264l-1.617-2.641a.504.504 0 00-.202-.215.761.761 0 00-.313-.049h-.404v3.239h-1.923v-10.387h1.923zm-90.206 17.81c.412 0 .787.065 1.124.197.338.131.627.319.869.564.241.242.428.537.559.885.132.348.197.74.197 1.177 0 .437-.065.831-.197 1.183a2.511 2.511 0 01-.559.889 2.449 2.449 0 01-.869.565 3.08 3.08 0 01-1.124.197c-.415 0-.793-.066-1.134-.197a2.449 2.449 0 01-1.433-1.454 3.348 3.348 0 01-.197-1.183c0-.437.065-.829.197-1.177a2.446 2.446 0 011.433-1.449 3.118 3.118 0 011.134-.197zm0 4.554c.419 0 .73-.144.933-.431.202-.291.303-.723.303-1.295 0-.568-.101-.996-.303-1.284-.203-.291-.514-.436-.933-.436-.429 0-.745.145-.948.436-.202.288-.304.716-.304 1.284 0 .572.102 1.004.304 1.295.203.287.519.431.948.431zm3.926 1.023v-4.437l-.426-.075a.61.61 0 01-.272-.117.305.305 0 01-.101-.245v-.586h.799v-.363c0-.312.048-.594.144-.847a1.78 1.78 0 011.087-1.054 2.58 2.58 0 01.89-.144c.127 0 .248.009.362.026.117.015.234.038.351.07l-.032.724c-.007.11-.055.183-.143.219a.82.82 0 01-.288.048c-.149 0-.284.016-.405.048a.671.671 0 00-.298.165.695.695 0 00-.187.309 1.546 1.546 0 00-.064.479v.32h1.364v1.023h-1.316v4.437h-1.465zm8.402-4.07c.259 0 .483-.032.671-.096.189-.067.343-.158.464-.271a1.08 1.08 0 00.266-.411c.057-.156.085-.326.085-.511 0-.366-.122-.65-.367-.852-.242-.203-.611-.304-1.108-.304h-.831v2.445h.82zm3.745 4.07h-1.444c-.269 0-.465-.103-.585-.309l-1.471-2.37a.61.61 0 00-.202-.203.631.631 0 00-.32-.064h-.543v2.946h-1.598v-7.73h2.429c.54 0 1.001.057 1.385.171.383.11.698.264.943.463s.424.437.538.714c.113.274.17.575.17.906 0 .255-.037.499-.112.73a2.087 2.087 0 01-.314.623 2.296 2.296 0 01-.511.501 2.685 2.685 0 01-.693.351 1.483 1.483 0 01.528.49l1.8 2.781zm3.331-2.296c-.359.018-.657.05-.895.096a2.16 2.16 0 00-.57.17.754.754 0 00-.298.246.529.529 0 00-.086.293c0 .213.059.364.176.452.121.089.288.133.501.133.245 0 .456-.042.634-.127.181-.089.36-.226.538-.411v-.852zm-2.994-2.434a3.23 3.23 0 011.071-.65 3.594 3.594 0 011.268-.219c.327 0 .618.053.873.16a1.898 1.898 0 011.071 1.124 2.5 2.5 0 01.144.863v3.452h-.671a.706.706 0 01-.32-.058c-.071-.04-.129-.121-.176-.246l-.117-.351a4.865 4.865 0 01-.405.32c-.128.092-.261.17-.399.234-.139.06-.288.106-.448.138a2.636 2.636 0 01-.527.048 2.15 2.15 0 01-.661-.096 1.465 1.465 0 01-.516-.282 1.3 1.3 0 01-.331-.474 1.686 1.686 0 01-.117-.65c0-.202.052-.405.155-.607.103-.203.278-.386.527-.549.252-.167.586-.304 1.001-.41.42-.11.943-.172 1.572-.187v-.282c0-.344-.073-.597-.218-.756-.146-.164-.356-.245-.629-.245-.202 0-.371.024-.506.074a2.21 2.21 0 00-.357.155c-.099.053-.194.104-.282.154a.664.664 0 01-.309.069.441.441 0 01-.261-.074.76.76 0 01-.171-.187l-.261-.468zm7.045 3.281c.139.16.288.272.448.336.163.064.337.096.522.096.177 0 .339-.034.484-.102a.947.947 0 00.373-.314c.107-.146.188-.33.245-.554.057-.224.086-.49.086-.799 0-.305-.025-.565-.075-.778a1.5 1.5 0 00-.202-.517.749.749 0 00-.315-.282.942.942 0 00-.415-.09c-.26 0-.478.051-.656.154-.174.1-.339.247-.495.442v2.408zm-.085-3.324c.11-.121.227-.231.351-.33.125-.103.258-.19.4-.261a2.133 2.133 0 01.991-.235 1.775 1.775 0 011.449.741c.177.238.316.531.415.879.1.348.149.746.149 1.193 0 .412-.056.794-.17 1.145a2.75 2.75 0 01-.474.906 2.23 2.23 0 01-.746.602 2.15 2.15 0 01-.964.213 1.95 1.95 0 01-.762-.133 1.929 1.929 0 01-.554-.362v2.189h-1.47v-7.266h.905c.185 0 .308.085.368.255l.112.464zm6.214-.719v5.492h-1.47v-5.492h1.47zm.176-1.561c0 .124-.025.24-.074.346a.948.948 0 01-.853.544.891.891 0 01-.628-.261.846.846 0 01-.267-.629c0-.124.023-.24.07-.346a.95.95 0 01.197-.288.882.882 0 01.628-.261.916.916 0 01.65.261.933.933 0 01.203.288.817.817 0 01.074.346zm4.473 2.988a1.181 1.181 0 00-.453-.335 1.367 1.367 0 00-.512-.096c-.177 0-.339.034-.484.101a.983.983 0 00-.379.32 1.583 1.583 0 00-.239.549c-.057.223-.086.49-.086.799 0 .305.023.564.07.777.046.213.112.386.197.517a.822.822 0 00.319.288.989.989 0 00.416.085c.259 0 .476-.051.65-.154.177-.103.344-.249.501-.437v-2.414zm1.47-3.878v7.943h-.906c-.188 0-.309-.085-.362-.256l-.123-.479c-.11.121-.227.231-.351.33-.121.1-.252.187-.394.261a2.129 2.129 0 01-.458.165c-.164.04-.341.059-.533.059-.295 0-.565-.062-.81-.186a1.864 1.864 0 01-.639-.544 2.755 2.755 0 01-.416-.884 4.368 4.368 0 01-.149-1.193c0-.409.055-.789.165-1.14.114-.352.274-.656.48-.911.206-.256.454-.457.746-.602a2.13 2.13 0 01.969-.219c.298 0 .549.045.751.133.206.089.393.21.56.363v-2.84h1.47zm6.564 4.06c.501 0 .867-.121 1.097-.363.235-.241.352-.571.352-.991 0-.191-.03-.365-.091-.522a.975.975 0 00-.266-.404 1.145 1.145 0 00-.447-.261 2.032 2.032 0 00-.645-.091h-1.012v2.632h1.012zm0-3.847c.529 0 .986.062 1.369.187.387.124.705.298.954.522.248.22.431.483.548.788.121.306.182.638.182.996 0 .38-.063.729-.187 1.045a2.129 2.129 0 01-.565.815 2.65 2.65 0 01-.953.532c-.384.125-.833.187-1.348.187h-1.012v2.658h-1.598v-7.73h2.61zm5.174 3.143c.174-.312.375-.559.602-.74.227-.181.494-.272.799-.272.249 0 .451.059.607.176l-.096 1.087c-.017.071-.046.121-.085.149a.254.254 0 01-.149.037c-.057 0-.138-.007-.245-.021a1.8 1.8 0 00-.298-.027.913.913 0 00-.64.224 1.254 1.254 0 00-.223.261c-.064.103-.125.22-.181.352v3.361h-1.471v-5.492h.869c.149 0 .252.026.309.08.056.053.097.145.122.277l.08.548zm4.989-.99c.412 0 .786.065 1.124.197a2.442 2.442 0 011.428 1.449c.131.348.197.74.197 1.177 0 .437-.066.831-.197 1.183a2.514 2.514 0 01-.56.889 2.445 2.445 0 01-.868.565 3.084 3.084 0 01-1.124.197 3.14 3.14 0 01-1.135-.197 2.445 2.445 0 01-.868-.565 2.567 2.567 0 01-.565-.889 3.37 3.37 0 01-.197-1.183c0-.437.066-.829.197-1.177.135-.348.323-.643.565-.885.241-.245.531-.433.868-.564a3.12 3.12 0 011.135-.197zm0 4.554c.419 0 .73-.144.932-.431.202-.291.304-.723.304-1.295 0-.568-.102-.996-.304-1.284-.202-.291-.513-.436-.932-.436-.43 0-.746.145-.948.436-.203.288-.304.716-.304 1.284 0 .572.101 1.004.304 1.295.202.287.518.431.948.431zm5.665-1.928c.302 0 .524-.077.666-.229a.822.822 0 00.219-.592c0-.252-.073-.449-.219-.591-.142-.145-.364-.218-.666-.218-.301 0-.523.073-.665.218-.143.142-.214.339-.214.591 0 .238.071.436.214.592.145.152.367.229.665.229zm1.391 3.175a.317.317 0 00-.091-.235.626.626 0 00-.245-.143 1.489 1.489 0 00-.357-.075 5.26 5.26 0 00-.442-.037c-.156-.011-.318-.02-.485-.027a7.003 7.003 0 01-.49-.037 1.13 1.13 0 00-.309.266.538.538 0 00-.117.341c0 .089.02.171.059.245a.517.517 0 00.207.192c.096.053.222.094.379.122.156.032.351.048.586.048.241 0 .445-.016.612-.048.167-.031.302-.078.405-.138a.52.52 0 00.288-.474zm1.459-5.535v.538a.27.27 0 01-.074.202.449.449 0 01-.234.112l-.448.091c.06.174.091.36.091.559 0 .274-.057.52-.171.741-.11.216-.263.403-.458.559a2.184 2.184 0 01-.693.357 2.918 2.918 0 01-.863.122c-.195 0-.378-.016-.548-.047-.149.092-.224.193-.224.303 0 .103.05.178.149.224.103.046.236.08.4.101.167.018.355.03.564.037.213.004.428.015.645.032.22.018.435.05.645.096.213.043.401.116.564.219.167.099.3.232.4.399.103.167.154.382.154.645 0 .245-.06.483-.181.714a1.924 1.924 0 01-.527.618 2.696 2.696 0 01-.842.436 3.608 3.608 0 01-1.14.166 4.38 4.38 0 01-1.103-.123 2.534 2.534 0 01-.772-.32 1.344 1.344 0 01-.453-.458 1.084 1.084 0 01-.149-.543c0-.245.074-.453.224-.623a1.55 1.55 0 01.618-.411.983.983 0 01-.336-.303.905.905 0 01-.123-.496c0-.163.059-.335.176-.516.121-.182.306-.332.554-.453a1.784 1.784 0 01-.666-.597 1.583 1.583 0 01-.245-.879c0-.273.055-.52.165-.74.114-.221.27-.407.469-.56.199-.156.434-.275.703-.357.27-.081.563-.122.879-.122.469 0 .883.092 1.242.277h1.608zm2.145.724c.174-.312.374-.559.602-.74.227-.181.493-.272.799-.272.248 0 .451.059.607.176l-.096 1.087c-.018.071-.046.121-.085.149a.257.257 0 01-.149.037c-.057 0-.139-.007-.245-.021a1.803 1.803 0 00-.299-.027.913.913 0 00-.639.224 1.258 1.258 0 00-.224.261c-.064.103-.124.22-.181.352v3.361h-1.47v-5.492h.868c.149 0 .252.026.309.08.057.053.098.145.123.277l.08.548zm5.995 1.194c0-.153-.021-.299-.064-.437a.92.92 0 00-.527-.618 1.125 1.125 0 00-.485-.096c-.351 0-.627.099-.826.298-.198.199-.328.483-.388.853h2.29zm-2.312.873c.046.515.192.892.437 1.13.249.238.572.357.97.357.202 0 .376-.023.522-.07.149-.049.279-.103.389-.159.113-.061.215-.114.303-.16a.57.57 0 01.272-.075c.114 0 .202.043.266.128l.427.533a2.414 2.414 0 01-.517.453 2.975 2.975 0 01-.586.282 3.096 3.096 0 01-.613.138 4.278 4.278 0 01-.596.043 3.07 3.07 0 01-1.077-.186 2.527 2.527 0 01-.868-.56 2.669 2.669 0 01-.581-.921c-.142-.366-.213-.791-.213-1.274 0-.372.061-.724.181-1.054.125-.331.302-.618.533-.863a2.5 2.5 0 01.842-.581c.33-.146.703-.218 1.119-.218.351 0 .674.056.969.17a2.096 2.096 0 011.268 1.273c.121.309.181.663.181 1.06 0 .11-.005.201-.016.272a.48.48 0 01-.053.17.211.211 0 01-.101.091.543.543 0 01-.165.021h-3.293zm7.955-1.843a.444.444 0 01-.122.133.305.305 0 01-.165.038.504.504 0 01-.219-.054 8.924 8.924 0 00-.25-.112 2.533 2.533 0 00-.32-.117 1.437 1.437 0 00-.41-.053c-.238 0-.423.05-.554.149a.453.453 0 00-.197.384c0 .11.037.202.112.277.074.074.172.14.293.197.124.053.264.105.421.154.156.046.316.098.479.155.167.057.329.122.485.197.156.075.295.169.415.282a1.22 1.22 0 01.41.975c0 .267-.049.513-.149.741a1.595 1.595 0 01-.426.58 2.001 2.001 0 01-.703.384 3.115 3.115 0 01-.97.138c-.188 0-.374-.017-.559-.053a3.131 3.131 0 01-.527-.138 3.49 3.49 0 01-.469-.219 2.07 2.07 0 01-.378-.266l.341-.549a.445.445 0 01.143-.149.444.444 0 01.229-.053c.089 0 .171.023.246.069l.25.144c.092.049.201.097.325.144.128.042.286.064.474.064.142 0 .265-.016.368-.048a.725.725 0 00.25-.128.513.513 0 00.138-.187.527.527 0 00.048-.218.386.386 0 00-.117-.293.957.957 0 00-.298-.203 2.935 2.935 0 00-.421-.154 10.51 10.51 0 01-.49-.155 4.29 4.29 0 01-.485-.202 1.773 1.773 0 01-.421-.293 1.48 1.48 0 01-.298-.442 1.598 1.598 0 01-.112-.634c0-.227.044-.442.133-.645.089-.206.222-.387.4-.543.177-.156.398-.281.66-.373.267-.092.574-.138.922-.138.391 0 .746.063 1.065.191.32.128.583.295.789.501l-.336.522zm4.714 0a.433.433 0 01-.123.133.305.305 0 01-.165.038.504.504 0 01-.219-.054 8.924 8.924 0 00-.25-.112 2.477 2.477 0 00-.32-.117 1.432 1.432 0 00-.41-.053c-.238 0-.422.05-.554.149a.453.453 0 00-.197.384c0 .11.037.202.112.277.075.074.172.14.293.197.124.053.265.105.421.154.156.046.316.098.479.155.167.057.329.122.485.197.156.075.295.169.416.282a1.232 1.232 0 01.41.975c0 .267-.05.513-.149.741a1.586 1.586 0 01-.427.58 2.001 2.001 0 01-.703.384c-.28.092-.603.138-.969.138-.188 0-.375-.017-.56-.053a3.157 3.157 0 01-.527-.138 3.548 3.548 0 01-.469-.219 2.104 2.104 0 01-.378-.266l.341-.549a.438.438 0 01.144-.149.439.439 0 01.229-.053c.089 0 .17.023.245.069l.25.144c.093.049.201.097.325.144.128.042.286.064.474.064.142 0 .265-.016.368-.048a.725.725 0 00.25-.128.528.528 0 00.139-.187.527.527 0 00.048-.218.386.386 0 00-.117-.293.963.963 0 00-.299-.203 2.935 2.935 0 00-.421-.154 10.902 10.902 0 01-.49-.155 4.29 4.29 0 01-.485-.202 1.747 1.747 0 01-.42-.293 1.464 1.464 0 01-.299-.442 1.616 1.616 0 01-.112-.634c0-.227.045-.442.134-.645.088-.206.222-.387.399-.543.178-.156.398-.281.661-.373.266-.092.573-.138.921-.138.391 0 .746.063 1.066.191.319.128.582.295.788.501l-.335.522zm2.811-1.129v5.492h-1.47v-5.492h1.47zm.176-1.561c0 .124-.025.24-.075.346a.928.928 0 01-.495.474.916.916 0 01-.703 0 .912.912 0 01-.283-.191 1.005 1.005 0 01-.197-.283.862.862 0 01-.069-.346.862.862 0 01.266-.634.887.887 0 01.629-.261.916.916 0 01.65.261.914.914 0 01.202.288c.05.106.075.222.075.346zm3.556 1.476c.412 0 .787.065 1.124.197a2.442 2.442 0 011.428 1.449c.131.348.197.74.197 1.177 0 .437-.066.831-.197 1.183a2.514 2.514 0 01-.56.889 2.445 2.445 0 01-.868.565 3.08 3.08 0 01-1.124.197 3.14 3.14 0 01-1.135-.197 2.445 2.445 0 01-.868-.565 2.567 2.567 0 01-.565-.889 3.37 3.37 0 01-.197-1.183c0-.437.066-.829.197-1.177.135-.348.323-.643.565-.885.241-.245.531-.433.868-.564a3.12 3.12 0 011.135-.197zm0 4.554c.419 0 .73-.144.932-.431.203-.291.304-.723.304-1.295 0-.568-.101-.996-.304-1.284-.202-.291-.513-.436-.932-.436-.43 0-.746.145-.948.436-.203.288-.304.716-.304 1.284 0 .572.101 1.004.304 1.295.202.287.518.431.948.431zm5.036-3.83c.11-.107.224-.204.341-.293a2.109 2.109 0 011.316-.431c.298 0 .562.051.793.154.231.103.425.247.581.432.16.184.279.404.357.66.082.256.122.536.122.842v3.489h-1.465v-3.489c0-.306-.071-.542-.213-.709-.142-.17-.351-.255-.628-.255a1.3 1.3 0 00-.581.133 2.017 2.017 0 00-.517.373v3.947h-1.47v-5.492h.906c.184 0 .307.085.367.255l.091.384zm-44.13 64.579v1.7h-5.998v-10.108h2.09v8.408h3.908zm3.957-5.594c.539 0 1.029.086 1.47.258.441.172.819.418 1.135.738.316.316.56.702.732 1.157.172.455.257.968.257 1.539 0 .572-.085 1.087-.257 1.547a3.283 3.283 0 01-.732 1.163 3.203 3.203 0 01-1.135.739 4.036 4.036 0 01-1.47.257 4.113 4.113 0 01-1.484-.257 3.207 3.207 0 01-1.136-.739 3.383 3.383 0 01-.738-1.163 4.388 4.388 0 01-.258-1.547c0-.571.086-1.084.258-1.539a3.32 3.32 0 01.738-1.157c.316-.32.695-.566 1.136-.738.446-.172.94-.258 1.484-.258zm0 5.956c.548 0 .954-.188 1.219-.564.265-.381.397-.945.397-1.693 0-.743-.132-1.302-.397-1.679-.265-.38-.671-.571-1.219-.571-.562 0-.975.191-1.24.571-.265.377-.397.936-.397 1.679 0 .748.132 1.312.397 1.693.265.376.678.564 1.24.564zm15.08-5.844l-2.257 7.182h-1.554a.342.342 0 01-.216-.077.506.506 0 01-.139-.257l-1.17-3.888a9.213 9.213 0 01-.126-.439 17.526 17.526 0 01-.09-.445c-.033.148-.068.299-.105.452a5.147 5.147 0 01-.118.446l-1.184 3.874c-.065.222-.205.334-.418.334h-1.477l-2.257-7.182h1.532c.14 0 .256.032.349.097a.473.473 0 01.195.251l.884 3.553c.056.227.105.448.147.662.041.213.081.425.118.633.056-.208.114-.42.174-.633l.202-.662 1.052-3.567a.48.48 0 01.188-.244.557.557 0 01.328-.097h.85a.58.58 0 01.341.097.468.468 0 01.195.244l1.017 3.567c.065.223.128.443.188.662.061.213.116.429.167.647.038-.213.077-.427.119-.64.046-.219.1-.442.16-.669l.927-3.553a.475.475 0 01.188-.251.556.556 0 01.327-.097h1.463zm7.34 1.86c.339 0 .632-.042.878-.126.246-.088.448-.206.606-.355.158-.153.274-.332.349-.536.074-.205.111-.428.111-.669 0-.479-.16-.85-.481-1.115-.315-.265-.798-.397-1.449-.397h-1.086v3.198h1.072zm4.898 5.322h-1.888c-.353 0-.609-.135-.766-.404l-1.923-3.1a.796.796 0 00-.265-.265c-.093-.056-.232-.083-.418-.083h-.71v3.852h-2.09v-10.108h3.176c.706 0 1.31.074 1.812.223.501.144.912.346 1.233.606.32.26.555.571.703.933.149.358.223.753.223 1.184 0 .335-.049.653-.146.955-.093.297-.23.569-.411.815a2.997 2.997 0 01-.669.655c-.265.19-.567.343-.906.46.135.074.261.164.377.271.116.102.22.225.313.369l2.355 3.637zm2.606-7.182v7.182h-1.922v-7.182h1.922zm.23-2.042c0 .163-.032.314-.097.453-.065.14-.154.263-.265.369a1.143 1.143 0 01-.383.251c-.144.061-.3.091-.467.091a1.15 1.15 0 01-.822-.342 1.264 1.264 0 01-.258-.369 1.13 1.13 0 01-.09-.453 1.13 1.13 0 01.348-.829 1.15 1.15 0 01.822-.341c.167 0 .323.03.467.091a1.213 1.213 0 01.648.627c.065.139.097.29.097.452zm5.876 3.518a.6.6 0 01-.16.175.407.407 0 01-.216.048.662.662 0 01-.285-.069 8.871 8.871 0 00-.328-.147 3.204 3.204 0 00-.418-.153 1.868 1.868 0 00-.536-.07c-.311 0-.553.066-.725.196a.59.59 0 00-.257.501c0 .144.048.265.146.362.097.098.225.184.383.258.163.07.346.137.55.202.205.061.414.128.627.202.219.074.43.16.634.258.205.097.386.221.544.369.162.144.292.321.39.53.097.204.146.452.146.745 0 .348-.065.671-.195.968a2.078 2.078 0 01-.557.76c-.246.213-.553.38-.92.501a4.046 4.046 0 01-1.268.181c-.246 0-.49-.023-.731-.069a4.057 4.057 0 01-.69-.181 4.733 4.733 0 01-.613-.286 2.81 2.81 0 01-.495-.348l.446-.718a.586.586 0 01.188-.195.59.59 0 01.3-.07c.116 0 .223.031.32.091l.328.188c.121.065.262.128.425.188.167.056.374.084.62.084.186 0 .346-.021.48-.063a.961.961 0 00.328-.167.675.675 0 00.181-.244.687.687 0 00.063-.286.503.503 0 00-.154-.383 1.235 1.235 0 00-.39-.264 3.715 3.715 0 00-.55-.203c-.209-.06-.423-.127-.641-.202a5.666 5.666 0 01-.634-.264 2.286 2.286 0 01-.55-.383 1.913 1.913 0 01-.39-.579 2.091 2.091 0 01-.147-.829c0-.297.058-.578.175-.843.116-.269.29-.506.522-.71.232-.204.52-.367.864-.488.348-.12.75-.181 1.205-.181.511 0 .975.084 1.393.251.418.167.762.385 1.031.655l-.439.682zm3.621-4.681v5.894h.321a.689.689 0 00.285-.049.656.656 0 00.209-.195l1.589-2.118a.875.875 0 01.264-.244.794.794 0 01.384-.083h1.755l-2.062 2.619c-.162.218-.351.39-.564.515.107.075.2.161.278.258.079.098.156.207.23.328l2.223 3.462h-1.728a.946.946 0 01-.383-.07.607.607 0 01-.265-.264l-1.616-2.641a.514.514 0 00-.202-.216.787.787 0 00-.314-.048h-.404v3.239h-1.922v-10.387h1.922zm-90.205 17.809c.412 0 .786.066 1.124.197.337.132.627.32.868.565.242.242.428.536.56.884.131.348.197.741.197 1.178 0 .437-.066.831-.197 1.182a2.518 2.518 0 01-.56.89 2.458 2.458 0 01-.868.565 3.084 3.084 0 01-1.124.197 3.14 3.14 0 01-1.135-.197 2.458 2.458 0 01-.868-.565 2.572 2.572 0 01-.565-.89 3.36 3.36 0 01-.197-1.182c0-.437.066-.83.197-1.178a2.458 2.458 0 011.433-1.449 3.14 3.14 0 011.135-.197zm0 4.555c.419 0 .73-.144.932-.431.203-.292.304-.723.304-1.295 0-.568-.101-.996-.304-1.284-.202-.291-.513-.437-.932-.437-.43 0-.746.146-.948.437-.203.288-.304.716-.304 1.284 0 .572.101 1.003.304 1.295.202.287.518.431.948.431zm3.926 1.023v-4.438l-.426-.074a.628.628 0 01-.272-.117c-.068-.057-.101-.139-.101-.245v-.586h.799v-.363c0-.312.048-.595.144-.847a1.765 1.765 0 011.086-1.055c.263-.095.56-.143.89-.143.128 0 .249.008.362.026.117.014.235.038.352.069l-.032.725c-.007.11-.055.183-.144.218a.813.813 0 01-.288.048c-.149 0-.284.016-.405.048a.687.687 0 00-.298.165.696.696 0 00-.186.309 1.528 1.528 0 00-.064.48v.32h1.364v1.022h-1.316v4.438h-1.465zm8.402-4.07c.259 0 .483-.032.671-.096.188-.067.343-.158.463-.272a1.08 1.08 0 00.267-.41c.056-.156.085-.327.085-.511 0-.366-.123-.65-.368-.853-.241-.202-.611-.303-1.108-.303h-.831v2.445h.821zm3.745 4.07h-1.444c-.27 0-.465-.103-.586-.309l-1.47-2.371a.61.61 0 00-.203-.202.627.627 0 00-.319-.064h-.544v2.946h-1.598v-7.73h2.429c.54 0 1.002.057 1.385.171.384.11.698.264.943.463s.425.437.538.714c.114.273.171.575.171.906 0 .255-.038.499-.112.729a2.117 2.117 0 01-.314.624 2.275 2.275 0 01-.512.5 2.634 2.634 0 01-.692.352c.103.057.199.126.287.208.089.078.169.172.24.282l1.801 2.781zm3.33-2.296c-.358.018-.657.05-.894.096a2.142 2.142 0 00-.571.17.768.768 0 00-.298.245.533.533 0 00-.085.293c0 .213.059.364.176.453.12.089.287.133.5.133.246 0 .457-.042.634-.128a1.91 1.91 0 00.538-.41v-.852zm-2.993-2.435c.323-.291.68-.508 1.07-.65a3.62 3.62 0 011.268-.218c.327 0 .618.053.874.16a1.914 1.914 0 011.071 1.124c.096.263.143.55.143.863v3.452h-.671a.7.7 0 01-.319-.059c-.071-.039-.13-.12-.176-.245l-.117-.351c-.139.12-.274.227-.405.319a2.352 2.352 0 01-.4.235 2.2 2.2 0 01-.447.138 2.647 2.647 0 01-.528.048c-.241 0-.461-.032-.66-.096a1.495 1.495 0 01-.517-.282 1.297 1.297 0 01-.33-.474 1.686 1.686 0 01-.117-.65c0-.203.051-.405.154-.607.103-.203.279-.386.527-.549.253-.167.586-.304 1.002-.41.419-.11.943-.173 1.571-.187v-.282c0-.345-.072-.597-.218-.757-.146-.163-.355-.245-.629-.245-.202 0-.371.025-.506.075a2.304 2.304 0 00-.357.154l-.282.155a.664.664 0 01-.309.069.449.449 0 01-.261-.074.794.794 0 01-.17-.187l-.261-.469zm7.044 3.282c.139.16.288.272.448.336.163.063.337.095.522.095.178 0 .339-.033.485-.101a.954.954 0 00.373-.314 1.61 1.61 0 00.245-.554c.057-.224.085-.49.085-.799 0-.306-.025-.565-.075-.778a1.48 1.48 0 00-.202-.517.746.746 0 00-.314-.282.947.947 0 00-.416-.091c-.259 0-.478.052-.655.155a1.783 1.783 0 00-.496.442v2.408zm-.085-3.324c.11-.121.228-.231.352-.331.124-.103.257-.19.399-.261.142-.074.295-.131.459-.17a2.08 2.08 0 01.532-.064 1.766 1.766 0 011.449.74c.178.238.316.531.416.879.099.349.149.746.149 1.194 0 .412-.057.794-.171 1.145a2.75 2.75 0 01-.474.906 2.239 2.239 0 01-.745.602c-.288.142-.61.213-.965.213a1.96 1.96 0 01-.761-.133 1.93 1.93 0 01-.555-.363v2.19h-1.47v-7.266h.906c.184 0 .307.085.367.255l.112.464zm6.215-.719v5.492h-1.47v-5.492h1.47zm.176-1.561a.806.806 0 01-.075.346.94.94 0 01-.852.543.895.895 0 01-.347-.069.905.905 0 01-.282-.192.98.98 0 01-.197-.282.865.865 0 01-.069-.346.867.867 0 01.266-.634.905.905 0 01.282-.192.916.916 0 01.997.192.915.915 0 01.202.287c.05.107.075.222.075.347zm4.472 2.988a1.157 1.157 0 00-.453-.335 1.362 1.362 0 00-.511-.096c-.178 0-.339.033-.485.101a.964.964 0 00-.378.32 1.605 1.605 0 00-.24.548c-.057.224-.085.49-.085.799 0 .306.023.565.069.778.046.213.112.385.197.517a.832.832 0 00.32.288 1 1 0 00.415.085c.26 0 .476-.052.65-.155a1.87 1.87 0 00.501-.437v-2.413zm1.47-3.878v7.943h-.905c-.189 0-.309-.085-.363-.256l-.122-.479c-.11.121-.227.231-.352.33-.12.099-.252.186-.394.261a2.129 2.129 0 01-.458.165 2.29 2.29 0 01-.533.059c-.295 0-.564-.062-.809-.187a1.844 1.844 0 01-.64-.543 2.764 2.764 0 01-.415-.884 4.332 4.332 0 01-.149-1.194c0-.408.055-.788.165-1.14.113-.351.273-.655.479-.911a2.144 2.144 0 011.716-.82c.298 0 .548.044.751.133.206.089.392.21.559.362v-2.839h1.47zm6.564 4.059c.501 0 .867-.12 1.098-.362.234-.241.351-.572.351-.991 0-.192-.03-.366-.09-.522a.992.992 0 00-.266-.405 1.182 1.182 0 00-.448-.261 2.058 2.058 0 00-.645-.09h-1.012v2.631h1.012zm0-3.846c.53 0 .986.062 1.37.187.387.124.705.298.953.522.249.22.432.483.549.788.121.305.181.638.181.996 0 .38-.062.728-.186 1.044a2.143 2.143 0 01-.565.815c-.252.228-.57.405-.954.533a4.39 4.39 0 01-1.348.187h-1.012v2.658h-1.598v-7.73h2.61zm5.174 3.143c.174-.312.375-.559.602-.74.228-.181.494-.272.8-.272.248 0 .451.059.607.176l-.096 1.087c-.018.071-.046.12-.085.149a.259.259 0 01-.149.037c-.057 0-.139-.007-.246-.021a1.791 1.791 0 00-.298-.027.913.913 0 00-.639.224 1.258 1.258 0 00-.224.261c-.064.103-.124.22-.181.351v3.362h-1.47v-5.492h.868c.149 0 .252.026.309.079.057.054.098.146.123.277l.079.549zm4.989-.991c.412 0 .787.066 1.124.197.338.132.627.32.869.565.241.242.428.536.559.884.131.348.197.741.197 1.178 0 .437-.066.831-.197 1.182a2.516 2.516 0 01-.559.89 2.462 2.462 0 01-.869.565 3.08 3.08 0 01-1.124.197c-.415 0-.794-.066-1.134-.197a2.462 2.462 0 01-.869-.565 2.57 2.57 0 01-.564-.89 3.338 3.338 0 01-.198-1.182c0-.437.066-.83.198-1.178a2.462 2.462 0 011.433-1.449c.34-.131.719-.197 1.134-.197zm0 4.555c.419 0 .73-.144.932-.431.203-.292.304-.723.304-1.295 0-.568-.101-.996-.304-1.284-.202-.291-.513-.437-.932-.437-.43 0-.746.146-.948.437-.202.288-.304.716-.304 1.284 0 .572.102 1.003.304 1.295.202.287.518.431.948.431zm5.666-1.928c.302 0 .524-.077.666-.229a.825.825 0 00.218-.592c0-.252-.073-.449-.218-.591-.142-.146-.364-.219-.666-.219-.302 0-.524.073-.666.219-.142.142-.213.339-.213.591 0 .238.071.435.213.592.146.152.368.229.666.229zm1.39 3.175a.32.32 0 00-.09-.235.647.647 0 00-.245-.144c-.1-.035-.219-.06-.357-.074a5.296 5.296 0 00-.442-.037c-.157-.011-.318-.02-.485-.027a7.668 7.668 0 01-.49-.037 1.102 1.102 0 00-.309.266.536.536 0 00-.117.341c0 .089.019.17.058.245a.527.527 0 00.208.192c.096.053.222.094.378.122.156.032.352.048.586.048.242 0 .446-.016.613-.048.167-.032.302-.078.405-.138a.518.518 0 00.287-.474zm1.46-5.535v.538a.272.272 0 01-.075.202.449.449 0 01-.234.112l-.448.091c.061.174.091.36.091.559 0 .273-.057.52-.17.74a1.693 1.693 0 01-.459.56 2.21 2.21 0 01-.692.357 2.95 2.95 0 01-.863.122c-.195 0-.378-.016-.549-.048-.149.093-.224.194-.224.304 0 .103.05.178.15.224.103.046.236.08.399.101.167.018.355.03.565.037.213.004.428.014.644.032.221.018.435.05.645.096.213.043.401.115.565.218.167.1.3.233.399.4.103.167.155.382.155.645 0 .245-.061.483-.181.713a1.917 1.917 0 01-.528.618 2.67 2.67 0 01-.841.437 3.64 3.64 0 01-1.141.165c-.422 0-.79-.04-1.102-.122a2.54 2.54 0 01-.773-.32 1.362 1.362 0 01-.453-.458 1.084 1.084 0 01-.149-.543c0-.245.075-.453.224-.624a1.56 1.56 0 01.618-.41 1.002 1.002 0 01-.336-.303.913.913 0 01-.122-.496c0-.163.058-.335.176-.517.12-.181.305-.332.554-.452a1.777 1.777 0 01-.666-.597 1.575 1.575 0 01-.245-.879c0-.274.055-.52.165-.741.114-.22.27-.406.469-.559.199-.156.433-.275.703-.357.27-.082.563-.122.879-.122.469 0 .882.092 1.241.277h1.609zm2.144.724c.174-.312.375-.559.602-.74.227-.181.494-.272.799-.272.249 0 .451.059.608.176l-.096 1.087a.256.256 0 01-.086.149.254.254 0 01-.149.037c-.057 0-.138-.007-.245-.021a1.791 1.791 0 00-.298-.027c-.135 0-.256.02-.362.059a.901.901 0 00-.277.165 1.229 1.229 0 00-.224.261c-.064.103-.124.22-.181.351v3.362h-1.471v-5.492h.869c.149 0 .252.026.309.079.057.054.097.146.122.277l.08.549zm5.996 1.193c0-.152-.022-.298-.064-.436a.982.982 0 00-.192-.368.92.92 0 00-.336-.25 1.12 1.12 0 00-.484-.096c-.352 0-.627.099-.826.298-.199.199-.329.483-.389.852h2.291zm-2.312.874c.046.515.192.892.437 1.13.248.237.571.356.969.356.203 0 .377-.023.522-.069.149-.05.279-.103.389-.16l.304-.159a.567.567 0 01.271-.075c.114 0 .203.043.267.128l.426.533a2.359 2.359 0 01-.517.452 2.899 2.899 0 01-.586.283 3.143 3.143 0 01-.612.138 4.28 4.28 0 01-.597.043c-.384 0-.742-.062-1.076-.187a2.501 2.501 0 01-.868-.559 2.659 2.659 0 01-.581-.922c-.142-.365-.213-.79-.213-1.273 0-.373.06-.724.181-1.055a2.483 2.483 0 011.374-1.443 2.745 2.745 0 011.119-.219c.352 0 .675.057.97.171.298.11.554.271.767.485.216.213.383.475.5.788a2.89 2.89 0 01.166 1.332.479.479 0 01-.054.17.207.207 0 01-.101.091.538.538 0 01-.165.021h-3.292zm7.955-1.843a.445.445 0 01-.123.133.306.306 0 01-.165.037.495.495 0 01-.218-.053 6.823 6.823 0 00-.251-.112 2.515 2.515 0 00-.319-.117 1.444 1.444 0 00-.411-.053c-.238 0-.422.049-.554.149a.453.453 0 00-.197.383.38.38 0 00.112.278c.075.074.172.14.293.197.124.053.265.104.421.154.156.046.316.098.479.155.167.056.329.122.485.197.156.074.295.168.416.282a1.232 1.232 0 01.41.975c0 .266-.05.513-.149.74a1.59 1.59 0 01-.426.581 2.048 2.048 0 01-.704.384c-.28.092-.603.138-.969.138a3.01 3.01 0 01-.56-.053 3.064 3.064 0 01-.996-.357 2.194 2.194 0 01-.378-.266l.341-.549a.438.438 0 01.144-.149.441.441 0 01.229-.054.46.46 0 01.245.07c.075.042.158.09.25.144.093.049.201.097.325.143.128.043.286.064.474.064.142 0 .265-.016.368-.048a.708.708 0 00.25-.128.527.527 0 00.187-.404.386.386 0 00-.117-.293.963.963 0 00-.299-.203 2.778 2.778 0 00-.421-.154 10.902 10.902 0 01-.49-.155 4.386 4.386 0 01-.484-.202 1.734 1.734 0 01-.421-.293 1.483 1.483 0 01-.299-.442 1.62 1.62 0 01-.111-.634c0-.228.044-.442.133-.645.089-.206.222-.387.399-.543.178-.157.398-.281.661-.373.266-.093.573-.139.921-.139.391 0 .746.064 1.066.192.32.128.582.295.788.501l-.335.522zm4.713 0a.456.456 0 01-.122.133.312.312 0 01-.166.037.498.498 0 01-.218-.053 7.564 7.564 0 00-.25-.112 2.533 2.533 0 00-.32-.117 1.437 1.437 0 00-.41-.053c-.238 0-.423.049-.554.149a.45.45 0 00-.197.383.38.38 0 00.111.278c.075.074.173.14.293.197.125.053.265.104.421.154.157.046.316.098.48.155.167.056.328.122.485.197a1.6 1.6 0 01.415.282c.124.11.224.245.298.405.075.156.112.346.112.57 0 .266-.049.513-.149.74a1.59 1.59 0 01-.426.581 2.043 2.043 0 01-.703.384 3.115 3.115 0 01-.97.138c-.188 0-.374-.018-.559-.053a3.051 3.051 0 01-.528-.139 3.532 3.532 0 01-.468-.218 2.165 2.165 0 01-.379-.266l.341-.549a.438.438 0 01.144-.149.444.444 0 01.229-.054c.089 0 .171.024.245.07l.251.144c.092.049.2.097.325.143.128.043.286.064.474.064.142 0 .264-.016.367-.048a.713.713 0 00.251-.128.502.502 0 00.138-.186.527.527 0 00.048-.218.386.386 0 00-.117-.293.97.97 0 00-.298-.203 2.819 2.819 0 00-.421-.154 10.51 10.51 0 01-.49-.155 4.401 4.401 0 01-.485-.202 1.753 1.753 0 01-.421-.293 1.462 1.462 0 01-.298-.442 1.602 1.602 0 01-.112-.634c0-.228.044-.442.133-.645.089-.206.222-.387.4-.543.177-.157.397-.281.66-.373.267-.093.574-.139.922-.139.39 0 .746.064 1.065.192.32.128.583.295.789.501l-.336.522zm2.812-1.129v5.492h-1.471v-5.492h1.471zm.175-1.561a.805.805 0 01-.074.346.927.927 0 01-.203.282.916.916 0 01-.996.192.961.961 0 01-.479-.474.866.866 0 01-.07-.346.867.867 0 01.267-.634.905.905 0 01.282-.192.916.916 0 01.996.192.901.901 0 01.203.287c.05.107.074.222.074.347zm3.556 1.475c.412 0 .787.066 1.124.197.338.132.627.32.869.565.241.242.428.536.559.884.132.348.197.741.197 1.178 0 .437-.065.831-.197 1.182a2.516 2.516 0 01-.559.89 2.462 2.462 0 01-.869.565 3.08 3.08 0 01-1.124.197c-.415 0-.793-.066-1.134-.197a2.462 2.462 0 01-.869-.565 2.584 2.584 0 01-.564-.89 3.338 3.338 0 01-.197-1.182c0-.437.065-.83.197-1.178a2.462 2.462 0 011.433-1.449 3.139 3.139 0 011.134-.197zm0 4.555c.42 0 .73-.144.933-.431.202-.292.303-.723.303-1.295 0-.568-.101-.996-.303-1.284-.203-.291-.513-.437-.933-.437-.429 0-.745.146-.948.437-.202.288-.303.716-.303 1.284 0 .572.101 1.003.303 1.295.203.287.519.431.948.431zm5.036-3.83c.11-.107.224-.204.341-.293a2.097 2.097 0 01.81-.378 2.25 2.25 0 01.506-.054c.298 0 .563.052.794.155.231.103.424.247.58.431.16.185.279.405.357.661.082.256.123.536.123.842v3.489h-1.465v-3.489c0-.306-.071-.542-.213-.709-.142-.17-.352-.256-.629-.256-.206 0-.399.045-.58.134a1.979 1.979 0 00-.517.372v3.948h-1.471v-5.492h.906c.185 0 .307.085.368.255l.09.384z" fill="#000"/><path d="M258.337 287.821a1.222 1.222 0 011.738 0l6.974 6.974a1.222 1.222 0 010 1.738l-6.966 6.966a1.231 1.231 0 01-1.746 0 1.233 1.233 0 010-1.746l4.86-4.86h-41.896a1.24 1.24 0 01-1.229-1.237c0-.68 1.229-1.23 1.229-1.23h41.905l-4.869-4.86a1.222 1.222 0 010-1.737v-.008zm-173.274 8.712H41.536a.822.822 0 01-.82-.82c0-.451.37-.819.82-.819h43.527c.451 0 .82.368.82.819 0 .451-.369.82-.82.82z" fill="#103B71"/></g><defs><clipPath id="clip0_5_51959"><path fill="#fff" d="M0 0h268v304.061H0z"/></clipPath></defs></svg>