<svg width="23" height="29" viewBox="0 0 25 29" fill="none" xmlns="http://www.w3.org/2000/svg"><path d="M11.5 5.638H9.652l3.653-3.71a1.145 1.145 0 000-1.602 1.103 1.103 0 00-1.577 0l-5.571 5.66a1.145 1.145 0 000 1.601l5.571 5.66s.022.021.036.028c.442.435 1.149.42 1.577-.036a1.14 1.14 0 00-.036-1.601L9.674 7.949h1.833c5.08 0 9.217 4.203 9.217 9.363 0 5.159-4.137 9.362-9.217 9.362-5.08 0-9.224-4.189-9.224-9.355 0-.638-.514-1.16-1.142-1.16-.627 0-1.141.522-1.141 1.16C0 23.76 5.158 29 11.5 29S23 23.76 23 17.319c0-6.442-5.158-11.681-11.5-11.681z" fill="#A7B7CB"/></svg>