<svg width="65" height="58" viewBox="0 0 65 58" fill="none" xmlns="http://www.w3.org/2000/svg">
<g id="Layer_1" clip-path="url(#clip0_4_42093)">
<g id="Clip path group">
<mask id="mask0_4_42093" style="mask-type:luminance" maskUnits="userSpaceOnUse" x="0" y="0" width="65" height="58">
<g id="clippath">
<path id="Vector" d="M64.259 0.0078125H0.188965V57.3778H64.259V0.0078125Z" fill="white"/>
</g>
</mask>
<g mask="url(#mask0_4_42093)">
<g id="Group">
<path id="Vector_2" d="M23.4889 45.897C24.5189 43.637 24.4489 41.217 23.3089 38.707C23.2689 38.607 23.1889 38.537 23.0989 38.487C21.6889 37.807 20.3189 37.457 19.0189 37.457C17.9089 37.457 16.8489 37.707 15.8389 38.197C9.62892 41.247 6.75892 52.817 6.01892 56.297C5.96892 56.537 6.09892 56.687 6.15892 56.747C6.21892 56.797 6.37892 56.927 6.61892 56.857C9.84892 55.897 20.6089 52.257 23.4989 45.897" fill="#1B3E71"/>
<path id="Vector_3" d="M24.159 27.2883C24.479 29.5183 25.729 31.3383 27.859 32.6983C27.939 32.7483 28.039 32.7683 28.119 32.7583C30.739 32.4583 32.649 31.3483 33.779 29.4583C36.979 24.1483 33.439 13.9783 32.279 10.9883C32.209 10.7983 32.039 10.7483 31.969 10.7383C31.949 10.7383 31.929 10.7383 31.899 10.7383C31.819 10.7383 31.699 10.7583 31.609 10.8683C29.629 13.1483 23.259 21.0783 24.159 27.2883Z" fill="#1B3E71"/>
<path id="Vector_4" d="M29.579 22.6978C29.579 22.8978 29.639 23.0978 29.759 23.2478C31.289 25.2578 32.999 26.3178 34.789 26.7278C35.539 23.1478 34.679 18.6678 33.709 15.2578C31.349 16.7578 29.719 19.0978 29.579 22.6878" fill="#1B3E71"/>
<path id="Vector_5" d="M27.8589 32.6988C27.9389 32.7488 28.0389 32.7688 28.1189 32.7588C30.3389 32.4988 32.0089 31.6388 33.1689 30.2388C31.5889 29.6588 29.7789 29.5388 27.6689 30.0688C27.4789 30.1188 27.3089 30.2288 27.1889 30.3888C26.8989 30.7888 26.6489 31.1888 26.4289 31.5788C26.8489 31.9788 27.3289 32.3488 27.8589 32.6888" fill="#1B3E71"/>
<path id="Vector_6" d="M42.4489 50.5584C42.5089 50.5084 42.6589 50.3684 42.6389 50.1284C42.4789 48.6984 42.0789 45.8084 41.2289 42.6684C38.1889 41.9284 34.8189 43.0984 31.7189 44.9384C35.5289 47.8084 40.0589 49.8284 41.9889 50.6184C42.2089 50.7084 42.3889 50.6084 42.4489 50.5584Z" fill="#1B3E71"/>
<path id="Vector_7" d="M22.2789 53.3773C22.1089 53.5573 22.1489 53.7573 22.1689 53.8373C22.1889 53.9173 22.2689 54.0973 22.5089 54.1573C25.7789 54.9873 36.8789 57.3773 42.6189 53.3873C44.6589 51.9773 45.8489 49.8673 46.1489 47.1273C46.1589 47.0273 46.1289 46.9173 46.0789 46.8273C45.0089 45.1973 43.7389 44.0773 42.2789 43.4473C42.9189 46.0573 43.2689 48.4573 43.4489 50.0373C43.4989 50.4873 43.3089 50.9273 42.9489 51.1973C42.7189 51.3673 42.4589 51.4573 42.1889 51.4573C42.0289 51.4573 41.8589 51.4273 41.7089 51.3573C39.2789 50.3673 34.9889 48.3973 31.3489 45.6573C27.2689 48.2173 23.7289 51.8273 22.2989 53.3773" fill="#1B3E71"/>
<path id="Vector_8" d="M23.1389 38.537C23.1389 38.537 23.1089 38.497 23.0889 38.487C21.6789 37.807 20.3089 37.457 19.0089 37.457C17.9089 37.457 16.8389 37.707 15.8289 38.197C14.8689 38.667 13.9989 39.357 13.1989 40.167C15.1589 40.737 17.1289 40.987 18.9489 40.667C20.5589 40.387 21.9589 39.657 23.1389 38.527" fill="#1B3E71"/>
<path id="Vector_9" d="M15.479 37.4772C17.909 36.2872 20.589 36.3772 23.439 37.7572C23.539 37.8072 23.619 37.8772 23.699 37.9472C24.089 37.4972 24.449 37.0072 24.779 36.4572C24.829 36.3672 24.849 36.2572 24.839 36.1572C24.409 33.2872 23.109 31.2072 20.979 30.0072C14.959 26.5972 3.77896 30.7672 0.498963 32.1172C0.268963 32.2072 0.218963 32.4072 0.208963 32.4872C0.198963 32.5672 0.188963 32.7672 0.378963 32.9272C2.19896 34.4072 7.15896 38.1572 12.329 39.8972C13.269 38.8872 14.319 38.0472 15.489 37.4772" fill="#1B3E71"/>
<path id="Vector_10" d="M14.6789 32.387C16.0889 31.647 17.2989 30.457 18.3489 29.037C14.6989 28.227 10.1589 29.027 6.45889 30.067C6.62889 30.737 6.86889 31.407 7.19889 32.077C7.24889 32.177 7.32889 32.247 7.41889 32.297C10.0689 33.497 12.5089 33.527 14.6789 32.397" fill="#1B3E71"/>
<path id="Vector_11" d="M18.849 28.3283C22.039 23.5383 23.549 16.6083 24.029 14.0483C24.079 13.8083 23.939 13.6583 23.879 13.6083C23.829 13.5683 23.729 13.4883 23.569 13.4883C23.519 13.4883 23.469 13.4883 23.419 13.5183C20.219 14.5683 9.55904 18.4783 6.82904 24.9083C6.22904 26.3183 6.04904 27.7783 6.28904 29.2783C10.259 28.1583 15.019 27.3583 18.859 28.3383" fill="#1B3E71"/>
<path id="Vector_12" d="M23.879 13.5985C23.879 13.5985 23.719 13.4785 23.569 13.4785C23.519 13.4785 23.469 13.4785 23.419 13.5085C22.309 13.8685 20.309 14.5785 18.049 15.6185C19.379 17.1185 21.009 18.1985 22.999 18.5085C23.509 16.6385 23.849 15.0285 24.029 14.0485C24.079 13.8085 23.939 13.6585 23.879 13.6085" fill="#1B3E71"/>
<path id="Vector_13" d="M34.8689 31.5687C34.4789 31.2987 34.0789 31.0887 33.6689 30.8887C33.0389 31.6087 32.2689 32.1887 31.3789 32.6187C31.2889 32.6687 31.1989 32.6987 31.1089 32.7387C30.7389 32.8987 30.3789 33.0687 29.9689 33.1787C29.4189 33.3387 28.8389 33.4687 28.2089 33.5487C28.1689 33.5487 28.1189 33.5487 28.0689 33.5487C27.8389 33.5487 27.6189 33.4887 27.4289 33.3587C27.0489 33.1187 26.6989 32.8487 26.3689 32.5787C25.6089 34.2887 25.4489 36.0087 25.9389 37.7087C27.8289 44.3687 38.6989 49.2687 41.9889 50.6087C42.2089 50.6987 42.3889 50.5987 42.4489 50.5487C42.5089 50.4987 42.6589 50.3587 42.6389 50.1187C42.2689 46.7687 40.6089 35.5287 34.8689 31.5587" fill="#1B3E71"/>
<path id="Vector_14" d="M26.6789 17.8275C26.7589 17.7975 26.8289 17.7575 26.8789 17.6875C27.3489 17.0175 27.7089 16.3575 27.9789 15.6875C27.5389 16.3675 27.0989 17.0775 26.6889 17.8275" fill="#1B3E71"/>
<path id="Vector_15" d="M24.399 12.9978C24.739 13.2978 24.899 13.7478 24.809 14.1878C24.619 15.2278 24.329 16.6078 23.929 18.1378C24.479 18.1578 25.049 18.1078 25.629 18.0278C26.499 16.3778 27.509 14.8378 28.469 13.5178C28.519 12.7678 28.429 12.0178 28.209 11.2678C26.409 5.33781 16.469 1.16781 13.469 0.0378125C13.419 0.0178125 13.369 0.0078125 13.329 0.0078125C13.209 0.0078125 13.119 0.0678125 13.079 0.0978125C13.029 0.137812 12.909 0.257812 12.929 0.457812C13.249 2.96781 14.449 10.3978 17.899 14.7878C19.959 13.8578 21.849 13.1678 23.169 12.7378C23.599 12.5978 24.059 12.6878 24.409 12.9878" fill="#1B3E71"/>
<path id="Vector_16" d="M42.6989 16.8285C42.2489 16.3385 41.4489 16.4985 41.2189 17.1285C40.5789 18.9485 39.4889 22.3985 38.9489 26.1785C41.6189 25.4585 44.2889 23.7085 46.6289 21.7385C45.1189 19.6185 43.6289 17.8785 42.6989 16.8385" fill="#1B3E71"/>
<path id="Vector_17" d="M35.649 26.4678C35.909 26.4978 36.169 26.5178 36.439 26.5278H36.519C43.419 26.5278 51.139 17.5478 53.349 14.7878C53.499 14.5978 53.449 14.3978 53.419 14.3278C53.389 14.2578 53.299 14.0678 53.059 14.0278C51.509 13.7478 48.219 13.2578 44.599 13.2578C40.979 13.2578 37.379 13.7278 34.549 15.2578C35.519 18.6778 36.279 22.9078 35.649 26.4778" fill="#1B3E71"/>
<path id="Vector_18" d="M40.539 37.358C41.769 39.518 43.759 40.888 46.459 41.438C46.569 41.458 46.669 41.438 46.759 41.388C49.319 40.018 50.839 38.098 51.259 35.688C51.979 31.538 49.429 26.548 46.779 22.668C44.469 24.558 41.889 26.178 39.269 26.908C38.809 30.588 38.909 34.498 40.539 37.358Z" fill="#1B3E71"/>
<path id="Vector_19" d="M39.049 31.0273C39.049 31.3873 39.069 31.7573 39.099 32.1073C40.949 37.6873 45.559 38.7373 50.439 37.9973C50.839 37.2873 51.129 36.5173 51.269 35.6873C51.829 32.4773 50.419 28.7573 48.529 25.4473C44.589 25.3073 40.979 26.6473 39.059 31.0273" fill="#1B3E71"/>
<path id="Vector_20" d="M52.0589 35.8273C51.9689 36.3673 51.8089 36.8673 51.6089 37.3673C56.7789 36.2673 62.0089 33.4273 64.0189 32.2473C64.2289 32.1273 64.2489 31.9173 64.2489 31.8373C64.2489 31.7573 64.2289 31.5573 64.0189 31.4273C61.8189 30.1073 55.5389 26.5973 49.7289 25.9473C51.4389 29.1773 52.5989 32.6873 52.0489 35.8273" fill="#1B3E71"/>
</g>
</g>
</g>
</g>
<defs>
<clipPath id="clip0_4_42093">
<rect width="64.07" height="57.37" fill="white" transform="translate(0.188965 0.0078125)"/>
</clipPath>
</defs>
</svg>
