<svg width="86" height="62" viewBox="0 0 86 62" fill="none" xmlns="http://www.w3.org/2000/svg">
<g id="Layer_1" clip-path="url(#clip0_4_42117)">
<g id="Clip path group">
<mask id="mask0_4_42117" style="mask-type:luminance" maskUnits="userSpaceOnUse" x="0" y="0" width="86" height="62">
<g id="clippath">
<path id="Vector" d="M85.03 0.773438H0V61.7034H85.03V0.773438Z" fill="white"/>
</g>
</mask>
<g mask="url(#mask0_4_42117)">
<g id="Group">
<path id="Vector_2" d="M46.79 5.96332L8.5 23.3133C7.65 23.7933 7.12 24.7033 7.12 25.6833V41.3533C7.12 42.3333 7.65 43.2433 8.5 43.7233L35.03 59.2133C35.85 59.6733 36.86 59.6833 37.69 59.2233L76.51 41.8533C77.38 41.3733 77.92 40.4633 77.92 39.4733V23.8433C77.92 22.8533 77.38 21.9433 76.51 21.4633L49.45 5.95332C48.62 5.49332 47.62 5.50332 46.79 5.96332Z" stroke="#1D3E70" stroke-miterlimit="10"/>
<path id="Vector_3" d="M44.17 12.5426C44.76 12.5326 45.33 12.5226 45.89 12.5126C46.25 12.5126 46.62 12.5026 46.99 12.4926C47.51 12.4926 48.02 12.4826 48.54 12.4726C48.89 12.4726 49.24 12.4826 49.58 12.4526C50.22 12.3926 50.81 12.1926 51.34 11.8026C51.6 11.6126 51.82 11.3726 51.96 11.0726C52.13 10.7126 52.07 10.2426 51.81 9.94265C51.61 9.72265 51.36 9.58265 51.09 9.48265C50.72 9.35265 50.33 9.32265 49.94 9.33265C49.84 9.33265 49.84 9.33265 49.85 9.24265C49.88 8.91265 49.8 8.63265 49.52 8.42265C49.35 8.29265 49.16 8.21265 48.95 8.15265C48.54 8.04265 48.12 8.04265 47.69 8.10265C47.1 8.18265 46.55 8.38265 46.06 8.73265C45.79 8.92265 45.56 9.16265 45.44 9.48265C45.39 9.61265 45.34 9.74265 45.28 9.87265C44.91 10.7226 44.54 11.5626 44.18 12.4026C44.16 12.4426 44.18 12.4826 44.17 12.5326" fill="#1B3E71"/>
<path id="Vector_4" d="M44.17 12.5424C44.17 12.5424 44.17 12.4424 44.18 12.4124C44.55 11.5624 44.92 10.7224 45.28 9.88241C45.34 9.75241 45.39 9.62242 45.44 9.49242C45.56 9.17242 45.79 8.93241 46.06 8.74241C46.55 8.39241 47.1 8.19241 47.69 8.11241C48.11 8.05241 48.53 8.05241 48.95 8.16241C49.16 8.21241 49.35 8.30241 49.52 8.43241C49.79 8.64241 49.88 8.92241 49.85 9.25241C49.85 9.35241 49.84 9.35241 49.94 9.34241C50.33 9.32241 50.72 9.36242 51.09 9.49242C51.37 9.58242 51.61 9.72242 51.81 9.95242C52.07 10.2524 52.13 10.7224 51.96 11.0824C51.82 11.3824 51.6 11.6124 51.34 11.8124C50.82 12.1924 50.22 12.4024 49.58 12.4624C49.24 12.4924 48.89 12.4824 48.54 12.4824C48.02 12.4824 47.51 12.4924 46.99 12.5024C46.62 12.5024 46.26 12.5024 45.89 12.5224C45.32 12.5224 44.76 12.5424 44.17 12.5524" fill="#1B3E71"/>
<path id="Vector_5" d="M35.82 33.2031C35.42 33.2031 35.05 33.2431 34.69 33.3531C34.17 33.5031 33.69 33.7431 33.33 34.1731C33.01 34.5531 32.96 35.0931 33.22 35.4831C33.4 35.7431 33.66 35.9131 33.94 36.0331C34.3 36.1831 34.68 36.2331 35.07 36.2431C35.12 36.2431 35.15 36.2431 35.14 36.3131C35.06 36.7331 35.2 37.0431 35.56 37.2731C35.89 37.4831 36.25 37.5631 36.63 37.5831C37.34 37.6231 38.02 37.4931 38.65 37.1531C38.88 37.0231 39.09 36.8731 39.27 36.6631C39.39 36.5231 39.45 36.3531 39.53 36.1931C39.96 35.3231 40.4 34.4531 40.83 33.5931C40.83 33.5731 40.85 33.5531 40.86 33.5331C40.88 33.4731 40.86 33.4331 40.8 33.4331C40.76 33.4331 40.72 33.4331 40.67 33.4231C39.91 33.3931 39.15 33.3631 38.39 33.3231C37.94 33.3031 37.49 33.2831 37.04 33.2631C36.62 33.2431 36.2 33.2231 35.81 33.2031" fill="#1B3E71"/>
<path id="Vector_6" d="M35.82 33.2024C36.21 33.2224 36.63 33.2424 37.05 33.2624C37.5 33.2824 37.95 33.3024 38.4 33.3224C39.16 33.3524 39.92 33.3824 40.68 33.4224C40.72 33.4224 40.76 33.4224 40.81 33.4324C40.87 33.4324 40.9 33.4724 40.87 33.5324C40.87 33.5524 40.85 33.5724 40.84 33.5924C40.4 34.4624 39.97 35.3224 39.54 36.1924C39.46 36.3524 39.4 36.5224 39.28 36.6624C39.11 36.8724 38.9 37.0224 38.66 37.1524C38.03 37.4924 37.36 37.6224 36.64 37.5824C36.26 37.5624 35.9 37.4824 35.57 37.2724C35.21 37.0424 35.07 36.7324 35.15 36.3124C35.16 36.2424 35.13 36.2424 35.08 36.2424C34.69 36.2424 34.31 36.1824 33.95 36.0324C33.66 35.9124 33.4 35.7524 33.23 35.4824C32.97 35.0924 33.02 34.5524 33.34 34.1724C33.7 33.7424 34.18 33.5124 34.7 33.3524C35.06 33.2424 35.42 33.1924 35.83 33.2024" fill="#1B3E71"/>
<path id="Vector_7" d="M42.5101 16.9238C43.3901 16.9238 44.2501 17.0538 45.0501 17.4738C45.4801 17.7038 45.8401 18.0038 46.0501 18.4538C46.2101 18.7938 46.2301 19.1638 46.1501 19.5338C46.1101 19.7238 46.1101 19.7238 46.3001 19.7238C47.1801 19.7538 48.0401 19.8638 48.8601 20.2338C49.3501 20.4538 49.7801 20.7438 50.1301 21.1538C50.8001 21.9438 50.8001 23.0538 50.1301 23.9438C49.7301 24.4638 49.2201 24.8538 48.6501 25.1638C47.6201 25.7138 46.5201 25.9938 45.3601 26.0138C44.6501 26.0138 43.9301 25.9638 43.2201 25.9338C42.3001 25.8938 41.3901 25.8538 40.4701 25.8238C38.9501 25.7638 37.4201 25.6938 35.9001 25.6338C35.4801 25.6138 35.0601 25.5938 34.6401 25.5738C34.4501 25.5738 34.4301 25.5438 34.5201 25.3638C34.9501 24.4238 35.3901 23.4938 35.8301 22.5538C36.2601 21.6238 36.7501 20.7138 37.1201 19.7538C37.5401 18.6638 38.3601 18.0538 39.3501 17.5938C40.3501 17.1338 41.4201 16.9238 42.5201 16.9338" fill="#1B3E71"/>
<path id="Vector_8" d="M76.91 23.1232C76.91 23.1232 77.01 23.1832 77.03 23.2332C77.13 23.4632 77.03 23.7232 76.8 23.8232L36.62 41.5332V47.3232C36.62 47.5732 36.42 47.7732 36.17 47.7732C35.92 47.7732 35.72 47.5732 35.72 47.3232V41.5232L8.37 25.5932C8.2 25.4932 8.16 25.3132 8.19 25.1332L7.99 25.0232V43.9632L35.72 58.8932V51.6132C35.72 51.3632 35.92 51.1632 36.17 51.1632C36.42 51.1632 36.62 51.3632 36.62 51.6132V59.3632L77.33 42.0632L77.68 22.7832L76.91 23.1232ZM33.83 55.3632C33.75 55.5132 33.59 55.5932 33.44 55.5932C33.36 55.5932 33.29 55.5732 33.22 55.5332L9.46 42.0932C9.24 41.9732 9.17 41.6932 9.29 41.4832C9.41 41.2632 9.68 41.1932 9.9 41.3132L33.66 54.7532C33.88 54.8732 33.95 55.1532 33.83 55.3632ZM33.83 52.9432C33.75 53.0932 33.59 53.1732 33.44 53.1732C33.36 53.1732 33.29 53.1532 33.22 53.1132L9.46 39.6732C9.24 39.5532 9.17 39.2732 9.29 39.0632C9.41 38.8432 9.68 38.7732 9.9 38.8932L33.66 52.3332C33.88 52.4532 33.95 52.7332 33.83 52.9432ZM33.83 50.5232C33.75 50.6732 33.59 50.7532 33.44 50.7532C33.36 50.7532 33.29 50.7332 33.22 50.6932L9.46 37.2532C9.24 37.1332 9.17 36.8532 9.29 36.6432C9.41 36.4232 9.68 36.3532 9.9 36.4732L33.66 49.9132C33.88 50.0332 33.95 50.3132 33.83 50.5232ZM33.83 48.1132C33.75 48.2632 33.59 48.3432 33.44 48.3432C33.36 48.3432 33.29 48.3232 33.22 48.2832L9.46 34.8432C9.24 34.7232 9.17 34.4432 9.29 34.2332C9.41 34.0132 9.68 33.9432 9.9 34.0632L33.66 47.5032C33.88 47.6232 33.95 47.9032 33.83 48.1132ZM33.83 45.6932C33.75 45.8432 33.59 45.9232 33.44 45.9232C33.36 45.9232 33.29 45.9032 33.22 45.8632L9.46 32.4232C9.24 32.3032 9.17 32.0232 9.29 31.8132C9.41 31.5932 9.68 31.5232 9.9 31.6432L33.66 45.0832C33.88 45.2032 33.95 45.4832 33.83 45.6932ZM33.83 43.2732C33.75 43.4232 33.59 43.5032 33.44 43.5032C33.36 43.5032 33.29 43.4832 33.22 43.4432L9.46 30.0032C9.24 29.8832 9.17 29.6032 9.29 29.3932C9.41 29.1732 9.68 29.1032 9.9 29.2232L33.66 42.6632C33.88 42.7832 33.95 43.0632 33.83 43.2732ZM75.57 40.3032L38.74 56.5432C38.68 56.5732 38.62 56.5832 38.56 56.5832C38.39 56.5832 38.22 56.4832 38.15 56.3132C38.05 56.0832 38.15 55.8232 38.38 55.7232L75.22 39.4832C75.44 39.3832 75.71 39.4832 75.81 39.7132C75.91 39.9432 75.81 40.2032 75.58 40.3032M75.57 37.7332L38.74 53.9632C38.68 53.9932 38.62 54.0032 38.56 54.0032C38.39 54.0032 38.22 53.9032 38.15 53.7332C38.05 53.5032 38.15 53.2432 38.38 53.1432L75.22 36.9132C75.44 36.8132 75.71 36.9132 75.81 37.1432C75.91 37.3732 75.81 37.6332 75.58 37.7332M75.57 35.1732L38.74 51.4032C38.68 51.4332 38.62 51.4432 38.56 51.4432C38.39 51.4432 38.22 51.3432 38.15 51.1732C38.05 50.9432 38.15 50.6832 38.38 50.5832L75.22 34.3532C75.44 34.2532 75.71 34.3532 75.81 34.5832C75.91 34.8132 75.81 35.0732 75.58 35.1732M75.57 32.6032L38.74 48.8332C38.68 48.8632 38.62 48.8732 38.56 48.8732C38.39 48.8732 38.22 48.7732 38.15 48.6032C38.05 48.3732 38.15 48.1132 38.38 48.0132L75.22 31.7832C75.44 31.6832 75.71 31.7832 75.81 32.0132C75.91 32.2432 75.81 32.5032 75.58 32.6032M75.57 30.0332L38.74 46.2732C38.68 46.3032 38.62 46.3132 38.56 46.3132C38.39 46.3132 38.22 46.2132 38.15 46.0432C38.05 45.8132 38.15 45.5532 38.38 45.4532L75.22 29.2132C75.44 29.1132 75.71 29.2132 75.81 29.4432C75.91 29.6732 75.81 29.9332 75.58 30.0332M75.57 27.4632L38.74 43.6932C38.68 43.7232 38.62 43.7332 38.56 43.7332C38.39 43.7332 38.22 43.6332 38.15 43.4632C38.05 43.2332 38.15 42.9732 38.38 42.8732L75.22 26.6432C75.44 26.5432 75.71 26.6432 75.81 26.8732C75.91 27.1032 75.81 27.3632 75.58 27.4632" fill="#1B3E71"/>
</g>
</g>
</g>
</g>
<defs>
<clipPath id="clip0_4_42117">
<rect width="85.03" height="60.93" fill="white" transform="translate(0 0.773438)"/>
</clipPath>
</defs>
</svg>
