<svg width="85" height="73" viewBox="0 0 85 73" fill="none" xmlns="http://www.w3.org/2000/svg">
<g id="Layer_1" clip-path="url(#clip0_4_42040)">
<g id="Clip path group">
<mask id="mask0_4_42040" style="mask-type:luminance" maskUnits="userSpaceOnUse" x="14" y="0" width="71" height="40">
<g id="clippath">
<path id="Vector" d="M84.99 0.613281H14.77V39.9633H84.99V0.613281Z" fill="white"/>
</g>
</mask>
<g mask="url(#mask0_4_42040)">
<g id="Group">
<path id="Vector_2" d="M48.16 17.3437L35.14 9.88375C34.74 9.66375 34.26 9.66375 33.86 9.88375L15.44 18.2338C15.03 18.4637 14.77 18.9037 14.77 19.3737V31.2437C14.77 31.7137 15.02 32.1538 15.44 32.3838L28.2 39.8338C28.2 39.8338 28.28 39.8638 28.32 39.8838V34.4438C28.32 34.2038 28.51 34.0138 28.75 34.0138C28.99 34.0138 29.18 34.2038 29.18 34.4438V39.9637C29.28 39.9337 29.38 39.9037 29.47 39.8438L48.15 31.4838C48.57 31.2538 48.83 30.8137 48.83 30.3337V18.4838C48.83 18.0038 48.57 17.5637 48.15 17.3337M16.8 30.2138C16.47 30.2138 16.2 29.9438 16.2 29.6138C16.2 29.2838 16.47 29.0138 16.8 29.0138C17.13 29.0138 17.4 29.2838 17.4 29.6138C17.4 29.9438 17.13 30.2138 16.8 30.2138ZM21.4 27.4638C21.07 27.4638 20.8 27.1938 20.8 26.8638C20.8 26.5338 21.07 26.2638 21.4 26.2638C21.73 26.2638 22 26.5338 22 26.8638C22 27.1938 21.73 27.4638 21.4 27.4638ZM24.26 34.4438C23.93 34.4438 23.66 34.1737 23.66 33.8438C23.66 33.5138 23.93 33.2438 24.26 33.2438C24.59 33.2438 24.86 33.5138 24.86 33.8438C24.86 34.1737 24.59 34.4438 24.26 34.4438ZM33.68 32.1238C33.35 32.1238 33.08 31.8538 33.08 31.5238C33.08 31.1938 33.35 30.9237 33.68 30.9237C34.01 30.9237 34.28 31.1938 34.28 31.5238C34.28 31.8538 34.01 32.1238 33.68 32.1238ZM38.66 26.8638C38.33 26.8638 38.06 26.5938 38.06 26.2638C38.06 25.9338 38.33 25.6637 38.66 25.6637C38.99 25.6637 39.26 25.9338 39.26 26.2638C39.26 26.5938 38.99 26.8638 38.66 26.8638ZM43.92 29.6138C43.59 29.6138 43.32 29.3438 43.32 29.0138C43.32 28.6838 43.59 28.4137 43.92 28.4137C44.25 28.4137 44.52 28.6838 44.52 29.0138C44.52 29.3438 44.25 29.6138 43.92 29.6138ZM46.64 19.4437L29.19 27.1338V31.5138C29.19 31.7537 29 31.9438 28.76 31.9438C28.52 31.9438 28.33 31.7537 28.33 31.5138V27.1138L17.01 20.7137C16.8 20.5938 16.73 20.3337 16.85 20.1237C16.97 19.9137 17.23 19.8438 17.44 19.9637L28.78 26.3738L46.3 18.6538C46.52 18.5538 46.77 18.6537 46.87 18.8737C46.97 19.0938 46.87 19.3437 46.65 19.4437" fill="#1B3E71"/>
<g id="Group_2" opacity="0.26">
<g id="Clip path group_2">
<mask id="mask1_4_42040" style="mask-type:luminance" maskUnits="userSpaceOnUse" x="14" y="9" width="35" height="18">
<g id="clippath-1">
<path id="Vector_3" d="M48.83 9.71289H14.77V26.3729H48.83V9.71289Z" fill="white"/>
</g>
</mask>
<g mask="url(#mask1_4_42040)">
<g id="Group_3">
<g id="Clip path group_3">
<mask id="mask2_4_42040" style="mask-type:luminance" maskUnits="userSpaceOnUse" x="14" y="9" width="35" height="18">
<g id="clippath-2">
<path id="Vector_4" d="M48.83 9.71289H14.77V26.3729H48.83V9.71289Z" fill="white"/>
</g>
</mask>
<g mask="url(#mask2_4_42040)">
<g id="Group_4">
<path id="Vector_5" d="M16.83 20.132C16.95 19.922 17.21 19.852 17.42 19.972L28.76 26.382L46.28 18.652C46.5 18.552 46.75 18.652 46.85 18.872C46.95 19.092 46.85 19.352 46.62 19.442L45.97 19.732L48.82 18.482C48.82 18.002 48.56 17.562 48.14 17.332L35.12 9.87203C34.72 9.65203 34.24 9.65203 33.84 9.87203L15.42 18.222C15.01 18.452 14.75 18.892 14.75 19.362L16.81 20.532C16.74 20.402 16.74 20.252 16.81 20.122" fill="white"/>
</g>
</g>
</g>
</g>
</g>
</g>
</g>
<path id="Vector_6" d="M84.32 8.29297L71.3 0.832969C70.9 0.612969 70.42 0.612969 70.02 0.832969L51.6 9.18297C51.19 9.41297 50.93 9.85297 50.93 10.323V22.193C50.93 22.663 51.18 23.103 51.6 23.333L64.36 30.783C64.36 30.783 64.44 30.813 64.48 30.833V25.393C64.48 25.153 64.67 24.963 64.91 24.963C65.15 24.963 65.34 25.153 65.34 25.393V30.913C65.44 30.883 65.54 30.853 65.63 30.793L84.31 22.433C84.73 22.203 84.99 21.763 84.99 21.283V9.43297C84.99 8.95297 84.73 8.51297 84.31 8.28297M52.97 21.173C52.64 21.173 52.37 20.903 52.37 20.573C52.37 20.243 52.64 19.973 52.97 19.973C53.3 19.973 53.57 20.243 53.57 20.573C53.57 20.903 53.3 21.173 52.97 21.173ZM57.57 18.423C57.24 18.423 56.97 18.153 56.97 17.823C56.97 17.493 57.24 17.223 57.57 17.223C57.9 17.223 58.17 17.493 58.17 17.823C58.17 18.153 57.9 18.423 57.57 18.423ZM60.42 25.403C60.09 25.403 59.82 25.133 59.82 24.803C59.82 24.473 60.09 24.203 60.42 24.203C60.75 24.203 61.02 24.473 61.02 24.803C61.02 25.133 60.75 25.403 60.42 25.403ZM69.84 23.083C69.51 23.083 69.24 22.813 69.24 22.483C69.24 22.153 69.51 21.883 69.84 21.883C70.17 21.883 70.44 22.153 70.44 22.483C70.44 22.813 70.17 23.083 69.84 23.083ZM74.82 17.823C74.49 17.823 74.22 17.553 74.22 17.223C74.22 16.893 74.49 16.623 74.82 16.623C75.15 16.623 75.42 16.893 75.42 17.223C75.42 17.553 75.15 17.823 74.82 17.823ZM80.09 20.573C79.76 20.573 79.49 20.303 79.49 19.973C79.49 19.643 79.76 19.373 80.09 19.373C80.42 19.373 80.69 19.643 80.69 19.973C80.69 20.303 80.42 20.573 80.09 20.573ZM82.8 10.403L65.35 18.093V22.473C65.35 22.713 65.16 22.903 64.92 22.903C64.68 22.903 64.49 22.713 64.49 22.473V18.073L53.17 11.673C52.96 11.553 52.89 11.293 53.01 11.083C53.13 10.873 53.39 10.803 53.6 10.923L64.94 17.333L82.46 9.61297C82.68 9.51297 82.93 9.61297 83.03 9.83297C83.13 10.053 83.03 10.303 82.81 10.403" fill="#1B3E71"/>
<g id="Group_5" opacity="0.26">
<g id="Clip path group_4">
<mask id="mask3_4_42040" style="mask-type:luminance" maskUnits="userSpaceOnUse" x="50" y="0" width="35" height="18">
<g id="clippath-3">
<path id="Vector_7" d="M84.9999 0.673828H50.9399V17.3338H84.9999V0.673828Z" fill="white"/>
</g>
</mask>
<g mask="url(#mask3_4_42040)">
<g id="Group_6">
<g id="Clip path group_5">
<mask id="mask4_4_42040" style="mask-type:luminance" maskUnits="userSpaceOnUse" x="50" y="0" width="35" height="18">
<g id="clippath-4">
<path id="Vector_8" d="M84.9999 0.673828H50.9399V17.3338H84.9999V0.673828Z" fill="white"/>
</g>
</mask>
<g mask="url(#mask4_4_42040)">
<g id="Group_7">
<path id="Vector_9" d="M52.9899 11.083C53.1099 10.873 53.3699 10.803 53.5799 10.923L64.9199 17.333L82.4399 9.60297C82.6599 9.50297 82.9099 9.60297 83.0099 9.82297C83.1099 10.043 83.0099 10.303 82.7799 10.393L82.1299 10.683L84.9799 9.43297C84.9799 8.95297 84.7199 8.51297 84.2999 8.28297L71.2999 0.832969C70.8999 0.612969 70.4199 0.612969 70.0199 0.832969L51.5999 9.18297C51.1899 9.41297 50.9299 9.85297 50.9299 10.323L52.9899 11.493C52.9199 11.363 52.9199 11.213 52.9899 11.083Z" fill="white"/>
</g>
</g>
</g>
</g>
</g>
</g>
</g>
</g>
</g>
</g>
<g id="Clip path group_6">
<mask id="mask5_4_42040" style="mask-type:luminance" maskUnits="userSpaceOnUse" x="0" y="33" width="72" height="40">
<g id="clippath-5">
<path id="Vector_10" d="M71.11 33.4238H0.890015V72.7738H71.11V33.4238Z" fill="white"/>
</g>
</mask>
<g mask="url(#mask5_4_42040)">
<g id="Group_8">
<path id="Vector_11" d="M34.27 50.1543L21.25 42.6943C20.85 42.4743 20.37 42.4743 19.97 42.6943L1.56001 51.0443C1.15001 51.2743 0.890015 51.7143 0.890015 52.1843V64.0543C0.890015 64.5243 1.14001 64.9643 1.56001 65.1943L14.32 72.6443C14.32 72.6443 14.4 72.6743 14.44 72.6943V67.2543C14.44 67.0143 14.63 66.8243 14.87 66.8243C15.11 66.8243 15.3 67.0143 15.3 67.2543V72.7743C15.4 72.7443 15.5 72.7143 15.59 72.6543L34.27 64.2943C34.69 64.0643 34.95 63.6243 34.95 63.1443V51.2943C34.95 50.8143 34.69 50.3743 34.27 50.1443M2.92001 63.0343C2.59001 63.0343 2.32001 62.7643 2.32001 62.4343C2.32001 62.1043 2.59001 61.8343 2.92001 61.8343C3.25001 61.8343 3.52001 62.1043 3.52001 62.4343C3.52001 62.7643 3.25001 63.0343 2.92001 63.0343ZM7.52001 60.2843C7.19001 60.2843 6.92001 60.0143 6.92001 59.6843C6.92001 59.3543 7.19001 59.0843 7.52001 59.0843C7.85001 59.0843 8.12001 59.3543 8.12001 59.6843C8.12001 60.0143 7.85001 60.2843 7.52001 60.2843ZM10.38 67.2543C10.05 67.2543 9.78001 66.9843 9.78001 66.6543C9.78001 66.3243 10.05 66.0543 10.38 66.0543C10.71 66.0543 10.98 66.3243 10.98 66.6543C10.98 66.9843 10.71 67.2543 10.38 67.2543ZM19.79 64.9343C19.46 64.9343 19.19 64.6643 19.19 64.3343C19.19 64.0043 19.46 63.7343 19.79 63.7343C20.12 63.7343 20.39 64.0043 20.39 64.3343C20.39 64.6643 20.12 64.9343 19.79 64.9343ZM24.78 59.6743C24.45 59.6743 24.18 59.4043 24.18 59.0743C24.18 58.7443 24.45 58.4743 24.78 58.4743C25.11 58.4743 25.38 58.7443 25.38 59.0743C25.38 59.4043 25.11 59.6743 24.78 59.6743ZM30.04 62.4343C29.71 62.4343 29.44 62.1643 29.44 61.8343C29.44 61.5043 29.71 61.2343 30.04 61.2343C30.37 61.2343 30.64 61.5043 30.64 61.8343C30.64 62.1643 30.37 62.4343 30.04 62.4343ZM32.75 52.2643L15.3 59.9543V64.3343C15.3 64.5743 15.11 64.7643 14.87 64.7643C14.63 64.7643 14.44 64.5743 14.44 64.3343V59.9343L3.12001 53.5343C2.91001 53.4143 2.84001 53.1543 2.96001 52.9443C3.08001 52.7343 3.34001 52.6643 3.55001 52.7843L14.89 59.1943L32.41 51.4743C32.63 51.3743 32.88 51.4743 32.98 51.6943C33.08 51.9143 32.98 52.1643 32.76 52.2643" fill="#1B3E71"/>
<g id="Group_9" opacity="0.26">
<g id="Clip path group_7">
<mask id="mask6_4_42040" style="mask-type:luminance" maskUnits="userSpaceOnUse" x="0" y="42" width="35" height="18">
<g id="clippath-6">
<path id="Vector_12" d="M34.95 42.5234H0.890015V59.1834H34.95V42.5234Z" fill="white"/>
</g>
</mask>
<g mask="url(#mask6_4_42040)">
<g id="Group_10">
<g id="Clip path group_8">
<mask id="mask7_4_42040" style="mask-type:luminance" maskUnits="userSpaceOnUse" x="0" y="42" width="35" height="18">
<g id="clippath-7">
<path id="Vector_13" d="M34.95 42.5234H0.890015V59.1834H34.95V42.5234Z" fill="white"/>
</g>
</mask>
<g mask="url(#mask7_4_42040)">
<g id="Group_11">
<path id="Vector_14" d="M2.95001 52.9426C3.07001 52.7326 3.33001 52.6626 3.54001 52.7826L14.88 59.1926L32.4 51.4626C32.62 51.3626 32.87 51.4626 32.97 51.6826C33.07 51.9026 32.97 52.1626 32.74 52.2526L32.09 52.5426L34.94 51.2926C34.94 50.8126 34.68 50.3726 34.26 50.1426L21.24 42.6826C20.84 42.4626 20.36 42.4626 19.96 42.6826L1.56001 51.0426C1.15001 51.2726 0.890015 51.7126 0.890015 52.1826L2.95001 53.3526C2.88001 53.2226 2.88001 53.0726 2.95001 52.9426Z" fill="white"/>
</g>
</g>
</g>
</g>
</g>
</g>
</g>
<path id="Vector_15" d="M70.4399 41.1152L57.4199 33.6552C57.0199 33.4352 56.5399 33.4352 56.1399 33.6552L37.7199 42.0052C37.3099 42.2352 37.0499 42.6752 37.0499 43.1452V55.0152C37.0499 55.4852 37.2999 55.9252 37.7199 56.1552L50.4799 63.6052C50.4799 63.6052 50.5599 63.6352 50.5999 63.6552V58.2152C50.5999 57.9752 50.7899 57.7852 51.0299 57.7852C51.2699 57.7852 51.4599 57.9752 51.4599 58.2152V63.7352C51.5599 63.7052 51.6599 63.6752 51.7499 63.6152L70.4299 55.2552C70.8499 55.0252 71.1099 54.5852 71.1099 54.1052V42.2552C71.1099 41.7752 70.8499 41.3352 70.4299 41.1052M39.0899 53.9852C38.7599 53.9852 38.4899 53.7152 38.4899 53.3852C38.4899 53.0552 38.7599 52.7852 39.0899 52.7852C39.4199 52.7852 39.6899 53.0552 39.6899 53.3852C39.6899 53.7152 39.4199 53.9852 39.0899 53.9852ZM43.6799 51.2352C43.3499 51.2352 43.0799 50.9652 43.0799 50.6352C43.0799 50.3052 43.3499 50.0352 43.6799 50.0352C44.0099 50.0352 44.2799 50.3052 44.2799 50.6352C44.2799 50.9652 44.0099 51.2352 43.6799 51.2352ZM46.5399 58.2152C46.2099 58.2152 45.9399 57.9452 45.9399 57.6152C45.9399 57.2852 46.2099 57.0152 46.5399 57.0152C46.8699 57.0152 47.1399 57.2852 47.1399 57.6152C47.1399 57.9452 46.8699 58.2152 46.5399 58.2152ZM55.9599 55.8952C55.6299 55.8952 55.3599 55.6252 55.3599 55.2952C55.3599 54.9652 55.6299 54.6952 55.9599 54.6952C56.2899 54.6952 56.5599 54.9652 56.5599 55.2952C56.5599 55.6252 56.2899 55.8952 55.9599 55.8952ZM60.9399 50.6352C60.6099 50.6352 60.3399 50.3652 60.3399 50.0352C60.3399 49.7052 60.6099 49.4352 60.9399 49.4352C61.2699 49.4352 61.5399 49.7052 61.5399 50.0352C61.5399 50.3652 61.2699 50.6352 60.9399 50.6352ZM66.2099 53.3852C65.8799 53.3852 65.6099 53.1152 65.6099 52.7852C65.6099 52.4552 65.8799 52.1852 66.2099 52.1852C66.5399 52.1852 66.8099 52.4552 66.8099 52.7852C66.8099 53.1152 66.5399 53.3852 66.2099 53.3852ZM68.9199 43.2152L51.4699 50.9052V55.2852C51.4699 55.5252 51.2799 55.7152 51.0399 55.7152C50.7999 55.7152 50.6099 55.5252 50.6099 55.2852V50.8852L39.2899 44.4852C39.0799 44.3652 39.0099 44.1052 39.1299 43.8952C39.2499 43.6852 39.5099 43.6152 39.7199 43.7352L51.0599 50.1452L68.5799 42.4252C68.7999 42.3252 69.0499 42.4252 69.1499 42.6452C69.2499 42.8652 69.1499 43.1152 68.9299 43.2152" fill="#1B3E71"/>
<g id="Group_12" opacity="0.26">
<g id="Clip path group_9">
<mask id="mask8_4_42040" style="mask-type:luminance" maskUnits="userSpaceOnUse" x="37" y="33" width="35" height="18">
<g id="clippath-8">
<path id="Vector_16" d="M71.12 33.4844H37.06V50.1444H71.12V33.4844Z" fill="white"/>
</g>
</mask>
<g mask="url(#mask8_4_42040)">
<g id="Group_13">
<g id="Clip path group_10">
<mask id="mask9_4_42040" style="mask-type:luminance" maskUnits="userSpaceOnUse" x="37" y="33" width="35" height="18">
<g id="clippath-9">
<path id="Vector_17" d="M71.12 33.4844H37.06V50.1444H71.12V33.4844Z" fill="white"/>
</g>
</mask>
<g mask="url(#mask9_4_42040)">
<g id="Group_14">
<path id="Vector_18" d="M39.11 43.8937C39.23 43.6837 39.49 43.6137 39.7 43.7337L51.04 50.1437L68.56 42.4137C68.78 42.3137 69.03 42.4137 69.13 42.6337C69.23 42.8538 69.13 43.1137 68.9 43.2037L68.25 43.4938L71.1 42.2438C71.1 41.7638 70.84 41.3237 70.42 41.0937L57.4 33.6337C57 33.4137 56.52 33.4137 56.12 33.6337L37.7 41.9837C37.29 42.2137 37.03 42.6537 37.03 43.1237L39.09 44.2937C39.02 44.1637 39.02 44.0138 39.09 43.8837" fill="white"/>
</g>
</g>
</g>
</g>
</g>
</g>
</g>
</g>
</g>
</g>
</g>
<defs>
<clipPath id="clip0_4_42040">
<rect width="84.11" height="72.16" fill="white" transform="translate(0.890015 0.613281)"/>
</clipPath>
</defs>
</svg>
