<svg width="163" height="163" viewBox="0 0 163 163" fill="none" xmlns="http://www.w3.org/2000/svg">
<g clip-path="url(#clip0_2_4021)">
<path d="M81.08 162.16C125.859 162.16 162.16 125.859 162.16 81.08C162.16 36.3008 125.859 0 81.08 0C36.3008 0 0 36.3008 0 81.08C0 125.859 36.3008 162.16 81.08 162.16Z" fill="#D9E8E7"/>
<path d="M81.0795 144.63C46.0295 144.63 17.5195 116.12 17.5195 81.0698C17.5195 46.0198 46.0295 17.5098 81.0795 17.5098C116.13 17.5098 144.64 46.0198 144.64 81.0698C144.64 116.12 116.13 144.63 81.0795 144.63ZM81.0795 23.5198C49.3395 23.5198 23.5195 49.3398 23.5195 81.0798C23.5195 112.82 49.3395 138.64 81.0795 138.64C112.82 138.64 138.64 112.82 138.64 81.0798C138.64 49.3398 112.82 23.5198 81.0795 23.5198Z" fill="#00B0A9"/>
<path d="M82.1801 92.5501C81.2801 92.5501 80.3901 92.1501 79.8001 91.3801L55.4801 59.6901C54.4701 58.3801 54.7201 56.4901 56.0301 55.4801C57.3401 54.4701 59.2301 54.7201 60.2401 56.0301L84.5601 87.7201C85.5701 89.0301 85.3201 90.9201 84.0101 91.9301C83.4701 92.3501 82.8201 92.5501 82.1901 92.5501H82.1801Z" fill="#00B0A9"/>
<path d="M82.1805 92.5506C81.3105 92.5506 80.4504 92.1706 79.8504 91.4506C78.8004 90.1706 79.0004 88.2806 80.2804 87.2306L100.18 71.0106C101.47 69.9606 103.35 70.1606 104.4 71.4406C105.45 72.7206 105.25 74.6106 103.97 75.6606L84.0704 91.8806C83.5104 92.3306 82.8405 92.5506 82.1805 92.5506Z" fill="#00B0A9"/>
<path d="M80.71 48.5009C79.05 48.5009 77.71 47.1609 77.71 45.5009V33.3809C77.71 31.7209 79.05 30.3809 80.71 30.3809C82.37 30.3809 83.71 31.7209 83.71 33.3809V45.5009C83.71 47.1609 82.37 48.5009 80.71 48.5009Z" fill="#00B0A9"/>
<path d="M129.77 84.4395H117.65C115.99 84.4395 114.65 83.0995 114.65 81.4395C114.65 79.7795 115.99 78.4395 117.65 78.4395H129.77C131.43 78.4395 132.77 79.7795 132.77 81.4395C132.77 83.0995 131.43 84.4395 129.77 84.4395Z" fill="#00B0A9"/>
<path d="M44.7704 84.4395H32.6504C30.9904 84.4395 29.6504 83.0995 29.6504 81.4395C29.6504 79.7795 30.9904 78.4395 32.6504 78.4395H44.7704C46.4304 78.4395 47.7704 79.7795 47.7704 81.4395C47.7704 83.0995 46.4304 84.4395 44.7704 84.4395Z" fill="#00B0A9"/>
<path d="M80.71 133.501C79.05 133.501 77.71 132.161 77.71 130.501V118.381C77.71 116.721 79.05 115.381 80.71 115.381C82.37 115.381 83.71 116.721 83.71 118.381V130.501C83.71 132.161 82.37 133.501 80.71 133.501Z" fill="#00B0A9"/>
</g>
<defs>
<clipPath id="clip0_2_4021">
<rect width="162.15" height="162.15" fill="white"/>
</clipPath>
</defs>
</svg>
