<svg width="163" height="163" viewBox="0 0 163 163" fill="none" xmlns="http://www.w3.org/2000/svg">
<g clip-path="url(#clip0_2_4307)">
<path d="M81.08 162.16C125.859 162.16 162.16 125.859 162.16 81.08C162.16 36.3008 125.859 0 81.08 0C36.3008 0 0 36.3008 0 81.08C0 125.859 36.3008 162.16 81.08 162.16Z" fill="#FAEFD2"/>
<path d="M115.8 48.6399C115.39 48.6399 114.98 48.5399 114.6 48.3299L93.1198 36.5699C91.9098 35.9099 91.4698 34.3899 92.1298 33.1799C92.7898 31.9699 94.3098 31.5199 95.5198 32.1899L117 43.9499C118.21 44.6099 118.65 46.1299 117.99 47.3399C117.54 48.1699 116.68 48.6399 115.8 48.6399Z" fill="#FEC52E"/>
<path d="M111.32 56.7991C110.91 56.7991 110.5 56.6991 110.12 56.4891L89.9499 45.4391C88.7399 44.7791 88.2999 43.2591 88.9599 42.0491C89.6199 40.8391 91.1399 40.3891 92.3499 41.0591L112.52 52.1091C113.73 52.7691 114.17 54.2891 113.51 55.4991C113.06 56.3291 112.2 56.7991 111.32 56.7991Z" fill="#FEC52E"/>
<path d="M77.3799 118.771C76.9699 118.771 76.5599 118.671 76.1799 118.461L54.6999 106.701C53.4899 106.041 53.0499 104.521 53.7099 103.311C54.3699 102.101 55.8899 101.651 57.0999 102.321L78.5799 114.081C79.7899 114.741 80.2299 116.261 79.5699 117.471C79.1199 118.301 78.2599 118.771 77.3799 118.771Z" fill="#FEC52E"/>
<path d="M72.9097 126.94C72.4997 126.94 72.0897 126.84 71.7097 126.63L52.2897 115.99C51.0797 115.33 50.6397 113.81 51.2997 112.6C51.9597 111.39 53.4797 110.94 54.6897 111.61L74.1097 122.25C75.3197 122.91 75.7597 124.43 75.0997 125.64C74.6497 126.47 73.7897 126.94 72.9097 126.94Z" fill="#FEC52E"/>
<path d="M99.4605 79.9807C98.8805 79.9807 98.3005 79.7807 97.8305 79.3707L81.2105 64.9807C80.1705 64.0807 80.0505 62.5007 80.9605 61.4507C81.8705 60.4107 83.4405 60.2907 84.4905 61.2007L101.11 75.5907C102.15 76.4907 102.27 78.0707 101.36 79.1207C100.86 79.6907 100.17 79.9807 99.4705 79.9807H99.4605Z" fill="#FEC52E"/>
<path d="M98.68 90.1602C98.27 90.1602 97.86 90.0601 97.48 89.8501L80.07 80.3101C78.86 79.6501 78.42 78.1301 79.08 76.9201C79.74 75.7101 81.26 75.2601 82.47 75.9301L99.88 85.4701C101.09 86.1301 101.53 87.6501 100.87 88.8601C100.42 89.6901 99.56 90.1602 98.68 90.1602Z" fill="#FEC52E"/>
<path d="M92.0704 96.6601C91.8004 96.6601 91.5304 96.6201 91.2704 96.5301L66.8304 88.2601C65.5204 87.8201 64.8204 86.4001 65.2604 85.0901C65.7004 83.7801 67.1204 83.0801 68.4304 83.5201L92.8704 91.7901C94.1804 92.2301 94.8804 93.6501 94.4404 94.9601C94.0904 96.0001 93.1104 96.6601 92.0704 96.6601Z" fill="#FEC52E"/>
<path d="M59.9701 140.291C59.0001 140.291 58.0701 139.721 57.6701 138.761C56.9901 137.151 56.1501 135.411 55.2501 133.571C51.2701 125.361 46.3201 115.151 51.2101 106.231C55.3401 98.6907 64.7101 97.4607 73.7701 96.2707C82.9601 95.0607 92.4601 93.8207 96.6001 86.2507L96.7801 85.9107C100.92 78.3507 96.8601 69.6707 92.9301 61.2807C89.0501 53.0107 85.0401 44.4507 89.1801 36.9007C94.0701 27.9707 105.34 26.6507 114.4 25.5807C116.43 25.3407 118.36 25.1107 120.07 24.8207C121.43 24.5907 122.72 25.5007 122.95 26.8607C123.18 28.2207 122.27 29.5107 120.91 29.7407C119.06 30.0607 117.08 30.2907 114.98 30.5407C106.65 31.5207 97.2101 32.6307 93.5601 39.3007C90.6501 44.6207 93.9501 51.6807 97.4601 59.1507C101.71 68.2307 106.53 78.5107 101.17 88.3107L100.99 88.6507C95.6301 98.4407 84.3601 99.9207 74.4301 101.221C66.2501 102.291 58.5201 103.311 55.6001 108.631C51.9501 115.291 56.1001 123.851 59.7501 131.391C60.6701 133.291 61.5401 135.091 62.2701 136.821C62.8101 138.091 62.2101 139.561 60.9401 140.101C60.6201 140.231 60.2901 140.301 59.9701 140.301V140.291Z" fill="#FEC52E"/>
<path d="M73.5102 69.4595C72.9002 69.4595 72.2902 69.2395 71.8102 68.7895C70.8002 67.8495 70.7302 66.2695 71.6702 65.2595C78.0502 58.3695 87.2302 57.6495 95.3302 57.0295C103.29 56.4095 110.17 55.8795 113.32 50.1295C116.97 43.4695 112.82 34.9095 109.17 27.3695C108.25 25.4695 107.38 23.6695 106.65 21.9395C106.11 20.6695 106.71 19.1995 107.98 18.6595C109.25 18.1195 110.72 18.7195 111.26 19.9895C111.94 21.5995 112.78 23.3395 113.68 25.1795C117.66 33.3895 122.61 43.5995 117.72 52.5195C113.27 60.6395 104.35 61.3295 95.7302 61.9995C88.1902 62.5795 80.4002 63.1895 75.3502 68.6395C74.8602 69.1695 74.1902 69.4395 73.5102 69.4395V69.4595Z" fill="#FEC52E"/>
<path d="M48.4301 133.979C47.2301 133.979 46.1801 133.119 45.9701 131.899C45.7401 130.539 46.6501 129.249 48.0101 129.019C49.8601 128.699 51.8401 128.469 53.9401 128.219C62.2701 127.239 71.7101 126.129 75.3601 119.459C78.0901 114.479 75.7801 110.629 71.4801 104.249C67.1501 97.8291 61.7501 89.8391 64.8301 78.5091C65.1901 77.1791 66.5701 76.3891 67.9001 76.7491C69.2301 77.1091 70.0201 78.4891 69.6601 79.8191C67.1901 88.9391 71.4801 95.2991 75.6301 101.459C79.7801 107.619 84.0801 113.979 79.7501 121.869C74.8601 130.799 63.5901 132.119 54.5301 133.189C52.5001 133.429 50.5701 133.659 48.8601 133.949C48.7201 133.969 48.5801 133.989 48.4401 133.989L48.4301 133.979Z" fill="#FEC52E"/>
<path d="M63.1602 72.5092C63.5002 72.4692 63.5102 72.3592 63.1902 72.2492L49.1802 67.6592C48.8502 67.5492 48.5802 67.7492 48.5702 68.0892L48.4502 73.4392C48.4502 73.7792 48.7202 74.0392 49.0602 73.9992L63.1702 72.5092H63.1602Z" fill="#FEC52E"/>
<path d="M65.95 65.2207C65.95 65.5607 65.84 65.5907 65.69 65.2807L59.62 51.8407C59.48 51.5307 59.64 51.2307 59.98 51.1907L65.28 50.4907C65.62 50.4507 65.9 50.6907 65.9 51.0307L65.94 65.2107L65.95 65.2207Z" fill="#FEC52E"/>
<path d="M64.5397 69.1204C64.7997 69.3504 64.7597 69.4003 64.4597 69.2403L43.0397 57.7204C42.7397 57.5604 42.6197 57.1704 42.7697 56.8703L44.9797 52.4904C45.1297 52.1804 45.4697 52.1203 45.7297 52.3503L64.5397 69.1303V69.1204Z" fill="#FEC52E"/>
</g>
<defs>
<clipPath id="clip0_2_4307">
<rect width="162.15" height="162.15" fill="white"/>
</clipPath>
</defs>
</svg>
