<svg width="163" height="163" viewBox="0 0 163 163" fill="none" xmlns="http://www.w3.org/2000/svg">
<g clip-path="url(#clip0_2_4103)">
<path d="M81.08 162.16C125.859 162.16 162.16 125.859 162.16 81.08C162.16 36.3008 125.859 0 81.08 0C36.3008 0 0 36.3008 0 81.08C0 125.859 36.3008 162.16 81.08 162.16Z" fill="#D9E8E7"/>
<path d="M90.1804 44.5705C90.2404 44.5705 90.3104 44.5705 90.3904 44.6005C94.7904 45.5705 98.9404 47.2905 102.73 49.7105C102.96 49.8605 103.02 49.9905 103.04 50.1605C103.07 50.4605 102.95 50.9305 102.51 51.3705L89.3704 64.5105V45.9205C89.3704 45.2005 89.7504 44.5605 90.1904 44.5605M74.0204 44.5705C74.4504 44.5705 74.8404 45.2005 74.8404 45.9305V64.5205L61.7004 51.3805C61.2604 50.9405 61.1404 50.4705 61.1704 50.1705C61.1904 50.0005 61.2504 49.8705 61.4804 49.7205C65.2704 47.3005 69.4204 45.5705 73.8204 44.6105C73.8904 44.5905 73.9604 44.5905 74.0204 44.5905M50.3104 61.1105C50.6804 61.1105 51.1004 61.3105 51.4304 61.6405L64.5704 74.7805H45.9804C45.3604 74.7805 44.9404 74.5305 44.7504 74.3005C44.6404 74.1705 44.5904 74.0305 44.6504 73.7605C45.6104 69.3805 47.3404 65.2305 49.7604 61.4305C49.8904 61.2305 50.0204 61.1205 50.3104 61.1205M113.89 61.1105C114.18 61.1105 114.31 61.2305 114.44 61.4305C116.87 65.2305 118.59 69.3805 119.56 73.7605C119.62 74.0305 119.56 74.1605 119.46 74.2905C119.27 74.5205 118.85 74.7805 118.23 74.7805H99.6404L112.78 61.6405C113.11 61.3105 113.53 61.1105 113.9 61.1105M118.22 89.3005C118.84 89.3005 119.26 89.5505 119.45 89.7905C119.56 89.9205 119.61 90.0605 119.55 90.3305C118.59 94.7105 116.86 98.8605 114.44 102.661C114.31 102.861 114.18 102.981 113.89 102.981C113.52 102.981 113.11 102.781 112.77 102.451L99.6304 89.3105H118.22M64.5704 89.3005L51.4304 102.441C51.1004 102.771 50.6804 102.971 50.3104 102.971C50.0204 102.971 49.8904 102.851 49.7604 102.661C47.3304 98.8605 45.6104 94.7105 44.6404 90.3305C44.5804 90.0605 44.6404 89.9305 44.7404 89.7905C44.9304 89.5605 45.3504 89.3105 45.9704 89.3105H64.5604M74.8404 99.5605V118.151C74.8404 118.871 74.4604 119.511 74.0204 119.511C73.9604 119.511 73.8904 119.511 73.8204 119.491C69.4304 118.521 65.2704 116.801 61.4804 114.381C61.2504 114.231 61.1904 114.101 61.1704 113.931C61.1404 113.631 61.2604 113.161 61.7004 112.721L74.8404 99.5805M89.3604 99.5705L102.5 112.711C102.94 113.151 103.06 113.621 103.03 113.921C103.01 114.091 102.95 114.221 102.72 114.371C98.9304 116.791 94.7804 118.511 90.3904 119.481C90.3204 119.501 90.2504 119.501 90.1904 119.501C89.7504 119.501 89.3704 118.871 89.3704 118.141V99.5605M90.1804 39.5705C86.9104 39.5705 84.3604 42.4105 84.3604 45.9305V76.5905L106.04 54.9105C108.84 52.1105 108.75 47.6305 105.41 45.5005C101.2 42.8105 96.4904 40.8305 91.4604 39.7205C91.0204 39.6205 90.5904 39.5805 90.1804 39.5805V39.5705ZM74.0204 39.5705C73.6004 39.5705 73.1704 39.6205 72.7404 39.7105C67.7004 40.8205 63.0004 42.8005 58.7904 45.4905C55.4504 47.6205 55.3604 52.1005 58.1604 54.9005L79.8404 76.5805V45.9205C79.8404 42.4105 77.3004 39.5605 74.0204 39.5605V39.5705ZM50.3104 56.1105C48.4604 56.1105 46.6804 56.9705 45.5504 58.7305C42.8604 62.9505 40.8704 67.6505 39.7604 72.6805C38.9104 76.5505 42.0104 79.7805 45.9704 79.7805H76.6304L54.9504 58.1105C53.6304 56.7905 51.9404 56.1105 50.3004 56.1105H50.3104ZM113.89 56.1105C112.25 56.1105 110.56 56.7905 109.24 58.1105L87.5604 79.7805H118.22C122.18 79.7805 125.29 76.5505 124.44 72.6905C123.33 67.6605 121.35 62.9505 118.65 58.7405C117.52 56.9705 115.74 56.1205 113.89 56.1205V56.1105ZM118.22 84.3005H87.5604L109.24 105.971C110.56 107.291 112.25 107.971 113.89 107.971C115.74 107.971 117.52 107.111 118.65 105.351C121.34 101.141 123.33 96.4305 124.44 91.4005C125.29 87.5305 122.19 84.3005 118.22 84.3005ZM76.6404 84.3005H45.9804C42.0204 84.3005 38.9104 87.5305 39.7604 91.3905C40.8704 96.4305 42.8504 101.131 45.5504 105.341C46.6804 107.111 48.4704 107.961 50.3104 107.961C51.9504 107.961 53.6404 107.281 54.9604 105.961L76.6404 84.2905V84.3005ZM79.8404 87.4905L58.1604 109.171C55.3604 111.971 55.4504 116.451 58.7904 118.581C63.0004 121.271 67.7104 123.251 72.7504 124.361C73.1904 124.461 73.6104 124.501 74.0304 124.501C77.3104 124.501 79.8504 121.661 79.8504 118.141V87.4805L79.8404 87.4905ZM84.3604 87.5005V118.151C84.3604 121.671 86.9004 124.511 90.1804 124.511C90.6004 124.511 91.0204 124.461 91.4604 124.371C96.5004 123.261 101.2 121.281 105.41 118.591C108.75 116.461 108.84 111.981 106.04 109.181L84.3604 87.5105V87.5005Z" fill="#00B0A9"/>
<path d="M81.7703 27.6699C111.4 27.6699 135.51 51.7699 135.51 81.3999C135.51 111.03 111.4 135.13 81.7703 135.13C52.1403 135.13 28.0303 111.03 28.0303 81.3999C28.0303 51.7699 52.1403 27.6699 81.7703 27.6699ZM81.7703 22.6699C49.3803 22.6699 23.0303 49.0199 23.0303 81.3999C23.0303 113.78 49.3803 140.13 81.7703 140.13C114.16 140.13 140.51 113.78 140.51 81.3999C140.51 49.0199 114.16 22.6699 81.7703 22.6699Z" fill="#00B0A9"/>
</g>
<defs>
<clipPath id="clip0_2_4103">
<rect width="162.15" height="162.15" fill="white"/>
</clipPath>
</defs>
</svg>
