<svg width="163" height="163" viewBox="0 0 163 163" fill="none" xmlns="http://www.w3.org/2000/svg">
<g clip-path="url(#clip0_2_4185)">
<path d="M81.08 162.16C125.859 162.16 162.16 125.859 162.16 81.08C162.16 36.3008 125.859 0 81.08 0C36.3008 0 0 36.3008 0 81.08C0 125.859 36.3008 162.16 81.08 162.16Z" fill="#D9E8E7"/>
<path d="M79.3197 140.22C60.9697 140.22 46.0497 122.76 46.0497 101.29V89.6599L39.4597 55.9398C38.1897 50.5198 40.9497 44.9098 45.7797 43.2698C48.0597 42.4998 50.4797 42.7198 52.6097 43.8998C53.1997 44.2298 53.7497 44.6198 54.2597 45.0798L54.0097 43.0698C53.1897 37.5198 56.5497 32.1098 61.4997 31.0698C63.7997 30.5898 66.1697 31.0898 68.1497 32.4798C69.5897 33.4898 70.7497 34.9398 71.5097 36.6398V34.0898C71.5097 33.9198 71.5297 33.7398 71.5597 33.5798C72.0197 28.2298 76.0197 24.0898 80.8197 24.0898C85.9597 24.0898 90.1397 28.7998 90.1397 34.5898V38.1698C90.8897 36.7798 91.9197 35.5898 93.1697 34.7098C95.1497 33.3198 97.5097 32.8198 99.8197 33.2998C104.77 34.3398 108.13 39.7498 107.3 45.3598L102.99 81.0498L105.18 75.4798C106.25 72.7598 108.31 70.6698 110.82 69.7598C113.14 68.9198 115.62 69.1198 117.81 70.3298C122.27 72.7998 124.21 78.7198 122.27 83.8698C121.65 86.2998 115.42 110.12 105.62 125.18C105.61 125.2 105.6 125.22 105.59 125.23C103.36 128.57 100.7 131.45 97.6697 133.79C92.2297 137.99 85.8997 140.21 79.3397 140.21L79.3197 140.22ZM48.4797 47.8198C48.1097 47.8198 47.7497 47.8798 47.3797 47.9998C45.0397 48.7998 43.6497 51.9498 44.3397 54.8798L50.9997 88.9298C51.0297 89.0898 51.0497 89.2498 51.0497 89.4099V101.29C51.0497 120 63.7297 135.22 79.3197 135.22C84.7597 135.22 90.0397 133.36 94.5897 129.84C96.8297 128.11 98.8497 126.01 100.61 123.6C100.61 123.12 100.75 122.63 101.03 122.2C101.31 121.78 101.7 121.47 102.14 121.29C111.45 106.24 117.37 82.7698 117.43 82.5298C117.46 82.4198 117.49 82.3098 117.53 82.1998C118.63 79.3998 117.64 75.9598 115.37 74.6998C114.45 74.1898 113.46 74.1098 112.51 74.4598C111.34 74.8798 110.36 75.9298 109.81 77.3098L102.68 95.4498C102.24 96.5698 101.07 97.2198 99.8897 96.9898C98.7097 96.7698 97.8497 95.7398 97.8497 94.5298V81.8398C97.8497 81.7398 97.8497 81.6398 97.8697 81.5398L102.32 44.6898C102.77 41.6298 101.14 38.6898 98.7697 38.1898C97.8197 37.9898 96.8697 38.1998 96.0197 38.7998C95.1797 39.3898 94.5197 40.3098 94.1397 41.3998C94.2897 41.7798 94.3497 42.2098 94.2897 42.6498C94.2197 43.1598 93.9997 43.6198 93.6797 43.9798L90.0997 74.4398C89.9497 75.7598 88.8097 76.7198 87.4697 76.6398C86.1497 76.5598 85.1197 75.4698 85.1197 74.1398V34.5998C85.1197 31.6198 83.1397 29.0998 80.7997 29.0998C78.4597 29.0998 76.6597 31.3498 76.4997 34.2298C76.4997 34.2998 76.4997 34.3698 76.4797 34.4298V74.2698C76.4797 75.5898 75.4497 76.6898 74.1297 76.7698C72.8197 76.8698 71.6597 75.8898 71.4997 74.5698L67.3997 40.3198C67.3997 40.3198 67.3997 40.2798 67.3997 40.2498C67.3997 40.2098 67.3797 40.1698 67.3697 40.1298C67.0897 38.6198 66.3097 37.3198 65.2497 36.5798C64.3997 35.9798 63.4597 35.7698 62.4997 35.9698C60.1297 36.4698 58.4997 39.4098 58.9497 42.4098L62.7297 73.2698C62.8897 74.5898 61.9897 75.7998 60.6897 76.0398C59.3797 76.2698 58.1197 75.4398 57.8197 74.1498L52.5897 51.7298C52.2097 50.1898 51.3297 48.9398 50.1697 48.2998C49.6297 47.9998 49.0497 47.8398 48.4797 47.8398V47.8198Z" fill="#00B0A9"/>
</g>
<defs>
<clipPath id="clip0_2_4185">
<rect width="162.15" height="162.15" fill="white"/>
</clipPath>
</defs>
</svg>
