<svg width="163" height="163" viewBox="0 0 163 163" fill="none" xmlns="http://www.w3.org/2000/svg">
<g clip-path="url(#clip0_2_4335)">
<path d="M81.08 162.16C125.859 162.16 162.16 125.859 162.16 81.08C162.16 36.3008 125.859 0 81.08 0C36.3008 0 0 36.3008 0 81.08C0 125.859 36.3008 162.16 81.08 162.16Z" fill="#FAEFD2"/>
<path d="M89.3902 103.341C89.3102 103.341 89.2301 103.341 89.1402 103.331C88.0502 103.221 87.1602 102.421 86.9402 101.341L86.4402 98.8907L79.2801 63.3607C79.1801 63.7707 79.0701 64.1807 78.9701 64.5907L72.8201 88.9707C72.7901 89.0707 72.7602 89.1807 72.7201 89.3107L72.6902 89.4107C72.4002 90.3107 71.6301 90.9807 70.7001 91.1207C69.7601 91.2707 68.8301 90.8707 68.2801 90.1007L68.1602 89.9407C68.0602 89.8007 67.9701 89.6807 67.8901 89.5507L66.7201 87.8007C65.5201 86.0107 64.3302 84.2207 63.1301 82.4207C62.3001 83.9807 61.4801 85.5007 60.6601 87.0207C59.8701 88.4907 59.0802 89.9607 58.2901 91.4307C57.7501 92.4407 56.7602 93.0307 55.5802 93.0307C48.3502 93.0307 41.1301 93.0307 33.9102 93.0307C32.8002 93.0307 31.8402 92.4907 31.2802 91.5407C28.1502 86.2507 26.0102 81.2007 24.7402 76.0707C23.7602 72.1307 23.3301 68.2607 23.4601 64.5607C23.6601 58.8207 25.2202 53.4607 28.0802 48.6107C31.4702 42.8707 36.2001 38.4907 42.1402 35.5807C46.2101 33.5807 50.6402 32.4907 55.3001 32.3407C60.7402 32.1607 66.0602 33.6507 71.1502 36.7607C74.8302 39.0107 78.1601 41.9507 81.0802 45.5207C84.4301 41.4407 88.2802 38.1907 92.5402 35.8807C96.9501 33.4807 101.52 32.2907 106.08 32.3307C113.27 32.4007 119.78 34.6207 125.41 38.9007C132.2 44.0707 136.48 51.0007 138.13 59.5107C138.79 62.9007 138.88 66.4807 138.42 70.4407C137.65 77.0507 135.39 83.5707 131.52 90.4007L131.3 90.7707C131.2 90.9407 131.1 91.1107 131.01 91.2807C130.45 92.3907 129.41 93.0207 128.15 93.0207H128.14C123.55 93.0207 118.96 93.0207 114.37 93.0207H110.1C108.79 93.0207 107.48 93.0207 106.17 93.0207C105.09 93.0207 104.2 92.5407 103.61 91.6507L98.0002 83.1507C97.2502 85.3507 96.5302 87.5107 95.8002 89.6607L91.9102 101.231C91.8702 101.361 91.8202 101.481 91.7502 101.641L91.6902 101.791C91.3002 102.721 90.3801 103.321 89.3902 103.321V103.341ZM79.2701 57.1807C79.2701 57.1807 79.3601 57.1807 79.4002 57.1807C81.6801 57.2407 83.4602 58.8207 83.9402 61.1907L90.0002 91.2607L91.0702 88.0907C91.8702 85.7207 92.6601 83.3507 93.4602 80.9807C94.0602 79.1907 95.4502 78.0307 97.2602 77.7807C99.1202 77.5307 100.78 78.3107 101.84 79.9107L107.2 88.0307C108.17 88.0307 109.13 88.0307 110.1 88.0307H114.37C118.62 88.0307 122.87 88.0307 127.12 88.0307L127.17 87.9407C130.71 81.7107 132.76 75.8007 133.45 69.8707C133.85 66.4207 133.77 63.3507 133.22 60.4707C131.81 53.2007 128.17 47.2807 122.38 42.8907C117.62 39.2707 112.11 37.4007 106.02 37.3407C102.25 37.3007 98.6201 38.2607 94.9202 40.2807C91.0402 42.3907 87.6702 45.2807 84.6101 49.1107C84.2602 49.5507 83.9202 50.0007 83.5802 50.4607L83.0502 51.1607C82.5802 51.7807 81.8401 52.1407 81.0601 52.1407C80.2801 52.1407 79.5401 51.7707 79.0701 51.1507L78.8302 50.8307C75.8401 46.6607 72.4701 43.4507 68.5301 41.0407C64.2301 38.4107 59.9601 37.2007 55.4601 37.3507C51.5101 37.4807 47.7702 38.4007 44.3302 40.0807C39.2802 42.5507 35.2602 46.2807 32.3802 51.1707C29.9502 55.2907 28.6302 59.8607 28.4502 64.7507C28.3302 68.0307 28.7002 71.3407 29.5802 74.8807C30.6602 79.2207 32.4301 83.5307 35.0101 88.0407C41.4801 88.0407 47.9602 88.0407 54.4302 88.0407C55.0302 86.9107 55.6402 85.7907 56.2402 84.6607C57.1301 83.0007 58.0201 81.3507 58.9101 79.6907C59.7301 78.1507 61.2101 77.1807 62.8701 77.1007C64.5301 77.0107 66.0701 77.8407 67.0301 79.2807C67.7701 80.4007 68.5101 81.5107 69.2501 82.6207L74.1001 63.3807C74.3401 62.4207 74.5801 61.4507 74.8501 60.5007C75.4201 58.5007 77.1801 57.1707 79.2501 57.1707L79.2701 57.1807Z" fill="#FEC52E"/>
<path d="M80.0699 136.87C79.6499 136.87 79.2199 136.76 78.8399 136.53C46.6899 117.31 31.7699 91.6199 31.1499 90.5399C30.4899 89.3899 30.8899 87.9199 32.0499 87.2499C33.1999 86.5899 34.6799 86.9899 35.3399 88.1399C35.4899 88.3899 50.3099 113.85 81.3199 132.39C82.4599 133.07 82.8299 134.55 82.1499 135.69C81.6999 136.44 80.8999 136.86 80.0799 136.86L80.0699 136.87Z" fill="#FEC52E"/>
<path d="M80.6504 136.969C79.7904 136.969 78.9504 136.519 78.4804 135.719C77.7904 134.519 78.2004 132.999 79.4004 132.299C111.5 113.759 126.85 88.3192 127 88.0692C127.71 86.8792 129.24 86.4892 130.42 87.1892C131.61 87.8892 132 89.4292 131.3 90.6092C130.66 91.6892 115.2 117.399 81.9004 136.619C81.5104 136.849 81.0804 136.949 80.6504 136.949V136.969Z" fill="#FEC52E"/>
</g>
<defs>
<clipPath id="clip0_2_4335">
<rect width="162.15" height="162.15" fill="white"/>
</clipPath>
</defs>
</svg>
