<svg width="163" height="163" viewBox="0 0 163 163" fill="none" xmlns="http://www.w3.org/2000/svg">
<g clip-path="url(#clip0_2_4343)">
<path d="M81.08 162.16C125.859 162.16 162.16 125.859 162.16 81.08C162.16 36.3008 125.859 0 81.08 0C36.3008 0 0 36.3008 0 81.08C0 125.859 36.3008 162.16 81.08 162.16Z" fill="#FAEFD2"/>
<path d="M70.3099 54.5691L56.9399 31.7891L43.7699 54.5691C43.7699 54.5691 37.2899 63.6091 41.7199 75.0191C41.7199 75.0291 41.7199 75.0391 41.7299 75.0491C43.3499 80.0791 49.5499 83.8191 56.9399 83.8191C63.5899 83.8191 69.2599 80.7991 71.5199 76.5291C71.5199 76.5291 71.5299 76.5091 71.5399 76.4991C77.4799 67.1191 70.2999 54.5591 70.2999 54.5591L70.3099 54.5691Z" fill="#FAEFD2"/>
<path d="M56.9497 86.3191C48.6297 86.3191 41.4197 82.0391 39.3897 75.8991C34.7797 63.9391 40.8497 54.4291 41.6697 53.2291L54.7897 30.5391C55.2397 29.7691 56.0597 29.2891 56.9497 29.2891C57.8397 29.2891 58.6597 29.7591 59.1097 30.5191L72.4797 53.2991C72.4797 53.2991 72.4797 53.3191 72.4897 53.3291C72.8097 53.8991 80.3197 67.2891 73.6897 77.8091C70.8797 82.9891 64.3297 86.3191 56.9497 86.3191ZM44.0397 74.0791C44.0697 74.1391 44.0897 74.2091 44.1097 74.2591C45.4297 78.3591 50.8297 81.3191 56.9497 81.3191C62.4597 81.3191 67.4297 78.9291 69.3197 75.3591C69.3397 75.3191 69.3597 75.2791 69.3797 75.2391C69.3997 75.1991 69.4297 75.1591 69.4597 75.1191C74.4097 67.1591 68.3497 56.1691 68.1397 55.8091L56.9597 36.7491L45.9297 55.8091C45.8897 55.8791 45.8497 55.9491 45.7997 56.0091C45.5697 56.3291 40.1997 64.1391 44.0297 74.0591L44.0397 74.0791Z" fill="#FEC52E"/>
<path d="M122.31 69.7001L113.42 44.8301L96.2397 64.7601C96.2397 64.7601 88.1897 72.4401 90.4197 84.4701C90.4197 84.4801 90.4197 84.4901 90.4197 84.5001C91.0797 89.7401 96.4697 94.5701 103.73 95.9501C110.26 97.1901 116.4 95.2701 119.41 91.5001C119.41 91.5001 119.43 91.4901 119.43 91.4801C127.01 83.3701 122.3 69.7001 122.3 69.7001H122.31Z" fill="#FAEFD2"/>
<path d="M107.69 98.8307C106.24 98.8307 104.76 98.6907 103.27 98.4107C95.0902 96.8607 88.8102 91.3207 87.9502 84.9107C85.6302 72.3207 93.3702 64.0807 94.4002 63.0507L111.52 43.2007C112.1 42.5307 112.99 42.2107 113.87 42.3707C114.74 42.5307 115.47 43.1507 115.77 43.9907L124.66 68.8607C124.66 68.8607 124.66 68.8807 124.66 68.8907C124.87 69.5107 129.76 84.0707 121.28 93.1707C118.32 96.7907 113.26 98.8407 107.68 98.8407L107.69 98.8307ZM112.51 49.7207L98.1302 66.4007C98.0802 66.4607 98.0202 66.5207 97.9602 66.5807C97.6802 66.8507 90.9302 73.5407 92.8702 84.0207C92.8702 84.0507 92.9002 84.1607 92.9002 84.2007C93.4302 88.4507 98.1902 92.3707 104.2 93.5107C109.62 94.5307 114.95 93.1107 117.47 89.9607C117.53 89.8907 117.59 89.8207 117.65 89.7507C123.94 82.8807 120.08 70.9507 119.94 70.5407L112.5 49.7407L112.51 49.7207Z" fill="#FEC52E"/>
<path d="M103.889 77.0192L79.9391 36.1992L56.3291 77.0192C56.3291 77.0192 44.7191 93.2292 52.6491 113.669C52.6491 113.689 52.6691 113.709 52.6691 113.729C55.5791 122.739 66.6791 129.449 79.9391 129.449C91.8491 129.449 102.029 124.029 106.079 116.389C106.089 116.369 106.099 116.359 106.109 116.339C116.759 99.5292 103.889 77.0192 103.889 77.0192Z" fill="#FAEFD2"/>
<path d="M79.9296 131.949C65.8396 131.949 53.6896 124.829 50.3196 114.609C50.3196 114.599 50.3196 114.589 50.2996 114.559C42.2396 93.7692 53.0796 77.2992 54.1996 75.6792L77.7596 34.9492C78.2096 34.1792 79.0296 33.6992 79.9196 33.6992C80.8096 33.6992 81.6296 34.1692 82.0796 34.9292L106.03 75.7492C106.03 75.7492 106.03 75.7692 106.04 75.7792C106.6 76.7492 119.52 99.7992 108.2 117.679C103.53 126.349 92.4496 131.949 79.9196 131.949H79.9296ZM54.9596 112.719C54.9596 112.719 54.9796 112.769 54.9896 112.789C55.0096 112.839 55.0296 112.899 55.0496 112.949C57.6696 121.059 68.1296 126.939 79.9396 126.939C90.5296 126.939 100.15 122.229 103.87 115.209C103.9 115.149 103.94 115.079 103.98 115.019C103.99 114.999 104.01 114.979 104.03 114.949C113.61 99.7692 102.05 78.8092 101.74 78.2592L79.9696 41.1492L58.5096 78.2592C58.4696 78.3292 58.4296 78.3992 58.3796 78.4592C57.9396 79.0792 47.6996 93.8592 54.9896 112.709L54.9596 112.719Z" fill="#FEC52E"/>
<path d="M99.5898 109.489C99.5898 109.489 99.6099 109.459 99.6199 109.439L99.5898 109.489Z" fill="#FEFAEE"/>
<path d="M100.82 110.35L98.3301 108.67L98.4001 108.57L100.89 110.25L100.82 110.35Z" fill="#2D3E6D"/>
<path d="M77.9497 123.55C77.3897 123.55 77.0397 123.53 76.9597 123.53C76.1297 123.48 75.4997 122.78 75.5497 121.95C75.5997 121.12 76.3297 120.5 77.1297 120.54C77.2397 120.54 88.6897 121.09 96.2097 114.17C100.45 110.26 102.7 104.68 102.89 97.5801C102.91 96.7501 103.63 96.0501 104.43 96.1201C105.26 96.1401 105.91 96.8301 105.89 97.6601C105.68 105.61 103.1 111.91 98.2297 116.39C91.0397 123 81.1197 123.56 77.9597 123.56L77.9497 123.55Z" fill="#FEC52E"/>
</g>
<defs>
<clipPath id="clip0_2_4343">
<rect width="162.15" height="162.15" fill="white"/>
</clipPath>
</defs>
</svg>
