<svg width="163" height="163" viewBox="0 0 163 163" fill="none" xmlns="http://www.w3.org/2000/svg">
<g clip-path="url(#clip0_2_4258)">
<path d="M81.08 162.16C125.859 162.16 162.16 125.859 162.16 81.08C162.16 36.3008 125.859 0 81.08 0C36.3008 0 0 36.3008 0 81.08C0 125.859 36.3008 162.16 81.08 162.16Z" fill="#FAEFD2"/>
<path d="M124.91 125.62H38.5303C33.9003 125.62 29.5903 123.11 27.2703 119.07C24.9603 115.04 24.9503 110.02 27.2403 105.98L70.4203 29.8402C72.7303 25.7702 77.0603 23.2402 81.7103 23.2402C86.3603 23.2402 90.6903 25.7702 93.0003 29.8402L136.2 105.98C138.49 110.02 138.48 115.04 136.17 119.07C133.85 123.11 129.54 125.63 124.91 125.63V125.62ZM81.7103 28.2302C78.8503 28.2302 76.1903 29.7902 74.7703 32.3002L31.5903 108.44C30.1603 110.95 30.1703 114.07 31.6103 116.58C33.0403 119.07 35.6903 120.62 38.5303 120.62H124.91C127.75 120.62 130.41 119.07 131.83 116.58C133.27 114.08 133.27 110.96 131.85 108.45L88.6603 32.3202C87.2303 29.8102 84.5703 28.2502 81.7203 28.2502L81.7103 28.2302Z" fill="#FEC52E"/>
<path d="M68.9396 64.2597C69.7396 61.6297 71.6896 60.3197 74.1596 59.5297C79.5296 57.7997 84.8196 57.8397 90.0696 60.0297C91.8696 60.7797 93.1396 62.0197 93.7596 63.8497C95.5396 69.0597 97.2796 74.2797 99.0196 79.5097C99.4996 80.9597 98.9396 82.3097 97.6696 82.9197C96.4596 83.4997 95.0896 83.1597 94.3296 82.0497C94.1096 81.7297 93.9596 81.3397 93.8296 80.9697C92.9296 78.3297 92.0396 75.6797 91.1396 73.0297C91.0596 72.7997 90.9696 72.5797 90.7296 72.3897C90.7296 73.0897 90.7296 73.7997 90.7296 74.4997C90.7296 81.9697 91.7196 89.4397 91.7396 96.8997C91.7396 97.4597 91.9696 98.0097 91.9896 98.5697C92.0396 99.5797 92.0496 100.59 92.0096 101.6C91.9796 102.21 91.7396 102.82 91.7396 103.43C91.7096 106.72 91.7396 110.01 91.7196 113.3C91.7196 115.55 90.3096 117.2 88.2596 117.38C86.0196 117.57 84.0796 116.15 83.6896 114C83.5996 113.52 83.5696 113.04 83.5496 112.55C83.4696 109.43 83.4196 106.31 83.3296 103.2C83.3296 102.85 83.1896 102.48 83.0496 102.15C82.5496 100.97 82.5196 99.7797 82.8596 98.5497C83.0196 97.9597 83.3496 97.2997 83.1596 96.7297C82.5696 94.9397 82.1796 93.1097 82.0196 91.0697C81.9796 90.6397 81.9596 90.1597 81.4196 90.2797C81.1596 90.3397 80.8596 90.8097 80.8296 91.1097C80.2696 95.8097 79.5696 100.78 79.4596 105.61C79.3996 108.18 79.3696 110.76 79.2696 113.33C79.1996 114.97 78.4196 116.23 76.9296 116.96C75.5096 117.66 74.1096 117.59 72.7796 116.71C71.6296 115.95 71.1496 114.84 71.1496 113.49C71.1496 110.94 71.1496 108.4 71.1496 105.85C71.1496 95.3797 72.1596 84.9097 72.1596 74.4397C72.1596 74.2397 72.1296 74.0497 72.1196 73.8597C71.4696 73.6097 71.3696 74.0797 71.2296 74.4897C70.4796 76.7097 69.7396 78.9297 68.9896 81.1397C68.4296 82.7997 67.0396 83.5597 65.5296 83.0697C64.0296 82.5797 63.3196 81.0797 63.8596 79.4697C64.6796 77.0097 65.5396 74.5597 66.3396 72.0897C66.4496 71.7597 67.9196 68.0397 67.7896 67.7097M89.4096 100.12C89.4096 98.4697 88.0496 97.0997 86.4296 97.1197C84.8096 97.1397 83.5196 98.4497 83.5096 100.08C83.5096 101.75 84.8196 103.08 86.4796 103.07C88.0996 103.06 89.4096 101.74 89.4196 100.12H89.4096Z" fill="#FEC52E"/>
<path d="M81.4605 41.3105C85.6705 41.3105 88.8805 44.5305 88.8805 48.7605C88.8805 52.9705 85.6305 56.1905 81.3505 56.2005C77.3505 56.2005 73.9805 52.8405 73.9805 48.8205C73.9805 44.6105 77.2605 41.3205 81.4605 41.3205V41.3105Z" fill="#FEC52E"/>
<path d="M70.7295 69.9597C68.0895 69.9597 65.8995 67.7897 65.8495 65.1297C65.7995 62.4797 67.9295 60.2597 70.5995 60.1797H70.7495C73.3995 60.1797 75.5895 62.3397 75.6295 64.9897C75.6495 66.2797 75.1295 67.5497 74.1995 68.4897C73.2795 69.4197 72.0195 69.9597 70.7495 69.9597H70.7295Z" fill="#FFFCEF"/>
<path d="M70.7497 61.6797C72.5797 61.6797 74.0997 63.1697 74.1297 65.0197C74.1597 66.8697 72.5897 68.4697 70.7497 68.4697C68.9397 68.4697 67.3997 66.9397 67.3697 65.1097C67.3297 63.2797 68.8197 61.7397 70.6597 61.6897C70.6897 61.6897 70.7297 61.6897 70.7597 61.6897M70.7497 58.6797C70.6897 58.6797 70.6197 58.6797 70.5597 58.6797C67.0697 58.7797 64.2897 61.6897 64.3597 65.1597C64.4297 68.6197 67.2897 71.4497 70.7297 71.4597C72.4197 71.4597 74.0697 70.7597 75.2697 69.5397C76.4697 68.3197 77.1497 66.6497 77.1297 64.9697C77.0797 61.4997 74.2197 58.6797 70.7497 58.6797Z" fill="#FEC52E"/>
<path d="M87.4502 104.979C84.8102 104.979 82.6202 102.809 82.5702 100.149C82.5202 97.4992 84.6502 95.2792 87.3202 95.1992H87.4702C90.1202 95.1992 92.3102 97.3592 92.3502 100.009C92.3702 101.289 91.8502 102.569 90.9202 103.509C90.0002 104.449 88.7402 104.979 87.4602 104.979H87.4502Z" fill="#FFFCEF"/>
<path d="M87.4704 96.6992C89.3004 96.6992 90.8204 98.1892 90.8504 100.039C90.8804 101.889 89.3104 103.489 87.4704 103.489C85.6604 103.489 84.1204 101.959 84.0904 100.129C84.0504 98.2992 85.5404 96.7592 87.3804 96.7092C87.4104 96.7092 87.4504 96.7092 87.4804 96.7092M87.4704 93.6992C87.4104 93.6992 87.3404 93.6992 87.2804 93.6992C83.7904 93.7992 81.0104 96.7092 81.0804 100.179C81.1504 103.639 84.0104 106.469 87.4504 106.479C89.1404 106.479 90.7904 105.779 91.9904 104.559C93.1904 103.339 93.8704 101.669 93.8504 99.9892C93.8004 96.5192 90.9404 93.6992 87.4704 93.6992Z" fill="#FEC52E"/>
<path d="M83.2695 81.1691C81.5995 81.1691 80.2595 79.8291 80.2795 78.1991C80.3095 76.5891 81.6295 75.2891 83.2495 75.2891C84.8995 75.2891 86.2595 76.6391 86.2395 78.2691C86.2195 79.8791 84.8895 81.1791 83.2695 81.1791V81.1691Z" fill="#FFFCEF"/>
<path d="M83.2695 81.6693C82.3195 81.6693 81.4195 81.2893 80.7595 80.6193C80.1095 79.9593 79.7695 79.0993 79.7795 78.1893C79.8095 76.3093 81.3595 74.7893 83.2495 74.7793C84.1895 74.7793 85.0795 75.1493 85.7395 75.8193C86.3895 76.4793 86.7495 77.3493 86.7395 78.2593C86.7195 80.1393 85.1595 81.6593 83.2695 81.6593V81.6693ZM83.2495 75.7793C81.9095 75.7793 80.7995 76.8693 80.7795 78.1993C80.7695 78.8393 81.0195 79.4493 81.4695 79.9193C81.9395 80.3993 82.5795 80.6693 83.2695 80.6693C84.6095 80.6693 85.7195 79.5893 85.7395 78.2593C85.7395 77.6193 85.4995 76.9993 85.0295 76.5293C84.5495 76.0493 83.9195 75.7793 83.2495 75.7793Z" fill="#FEC52E"/>
</g>
<defs>
<clipPath id="clip0_2_4258">
<rect width="162.15" height="162.15" fill="white"/>
</clipPath>
</defs>
</svg>
