<svg width="163" height="163" viewBox="0 0 163 163" fill="none" xmlns="http://www.w3.org/2000/svg">
<g clip-path="url(#clip0_2_4390)">
<path d="M81.08 162.16C125.859 162.16 162.16 125.859 162.16 81.08C162.16 36.3008 125.859 0 81.08 0C36.3008 0 0 36.3008 0 81.08C0 125.859 36.3008 162.16 81.08 162.16Z" fill="#FAEFD2"/>
<path d="M110.97 134.071H51.1903C39.0103 134.071 29.1104 124.161 29.1104 111.991V52.2109C29.1104 40.0309 39.0203 30.1309 51.1903 30.1309H110.97C123.15 30.1309 133.05 40.0409 133.05 52.2109V111.991C133.05 124.171 123.14 134.071 110.97 134.071ZM51.1903 35.1309C41.7703 35.1309 34.1104 42.7909 34.1104 52.2109V111.991C34.1104 121.411 41.7703 129.071 51.1903 129.071H110.97C120.39 129.071 128.05 121.411 128.05 111.991V52.2109C128.05 42.7909 120.39 35.1309 110.97 35.1309H51.1903Z" fill="#FEC52E"/>
<path d="M97.7802 80.9794H64.1902C61.9902 80.9794 59.9302 79.9894 58.5602 78.2694L47.3402 64.2194C44.9002 61.1694 45.3702 56.6594 48.3802 54.1694C52.7602 50.5394 61.8502 44.1394 73.4702 41.9794C87.5402 39.3694 101.05 43.5194 113.63 54.2994C116.58 56.8294 117.01 61.1894 114.61 64.2394C111.61 68.0494 106.85 73.9794 103.39 78.2894C102.01 79.9994 99.9702 80.9794 97.7702 80.9794H97.7802ZM51.5702 58.0194C50.6502 58.7794 50.5002 60.1694 51.2502 61.0994L62.4702 75.1494C62.8902 75.6794 63.5202 75.9794 64.2002 75.9794H97.7902C98.4602 75.9794 99.0902 75.6794 99.5102 75.1594C102.34 71.6394 107.55 65.1394 110.7 61.1494C111.44 60.2194 111.3 58.8794 110.4 58.0994C84.2802 35.7094 60.5702 50.5894 51.5802 58.0194H51.5702Z" fill="#FEC52E"/>
<path d="M80.6198 71.3102L95.6198 55.4102C96.2998 54.6902 97.8798 55.1702 97.6198 56.0002L92.6698 71.9002C92.5598 72.2602 92.1098 72.5102 91.5898 72.5102H81.5398C80.6598 72.5102 80.1298 71.8202 80.6198 71.3102Z" fill="#FEC52E"/>
</g>
<defs>
<clipPath id="clip0_2_4390">
<rect width="162.15" height="162.15" fill="white"/>
</clipPath>
</defs>
</svg>
