<svg width="84" height="43" viewBox="0 0 84 43" fill="none" xmlns="http://www.w3.org/2000/svg">
<g id="Layer_1" clip-path="url(#clip0_4_42129)">
<g id="Clip path group">
<mask id="mask0_4_42129" style="mask-type:luminance" maskUnits="userSpaceOnUse" x="0" y="0" width="84" height="44">
<g id="clippath">
<path id="Vector" d="M83.27 0.289062H0V43.0091H83.27V0.289062Z" fill="white"/>
</g>
</mask>
<g mask="url(#mask0_4_42129)">
<g id="Group">
<path id="Vector_2" d="M35 28.28L43.06 43.01C46.02 36.7 48.22 35.23 50.57 33.96C51.67 33.36 52.88 33 54.12 32.88C57.23 32.58 61.67 32.21 61.67 32.21C61.67 32.21 61.28 34.89 62.47 37.86C66.63 35.32 68.78 31.67 69.14 29.09C70.62 28.25 72.06 27.38 73.3 26.61C70.19 24.78 65.05 20.35 66 11.5C64.64 12.04 63.54 12.58 62.34 12.96C60.46 13.55 53.92 11.92 51.21 14.55C53.66 15.15 55.22 18 55.22 18C55.22 18 52 22.7 47.43 26.62C46.6 27.33 45.63 27.86 44.59 28.14C39.86 29.42 35 28.27 35 28.27M54.81 22.31C54.6 22.43 54.33 22.35 54.22 22.14C54.1 21.93 54.18 21.66 54.39 21.55C54.6 21.43 54.87 21.51 54.98 21.72C55.1 21.93 55.02 22.2 54.81 22.31ZM56.24 19.53C56.14 19.59 56 19.55 55.94 19.44C55.88 19.33 55.92 19.2 56.03 19.14C56.14 19.08 56.27 19.12 56.33 19.23C56.39 19.33 56.35 19.47 56.24 19.53ZM56.94 23.56C56.73 23.68 56.46 23.6 56.35 23.39C56.23 23.18 56.31 22.91 56.52 22.8C56.73 22.68 57 22.76 57.11 22.97C57.23 23.18 57.15 23.45 56.94 23.56ZM59.28 17.59C59.01 17.71 58.7 17.59 58.58 17.31C58.46 17.04 58.58 16.72 58.86 16.61C59.13 16.49 59.44 16.61 59.56 16.89C59.68 17.16 59.56 17.48 59.28 17.59ZM59.95 20.68C59.49 20.93 58.91 20.76 58.65 20.3C58.4 19.84 58.57 19.26 59.03 19.01C59.49 18.76 60.07 18.93 60.33 19.39C60.58 19.85 60.41 20.43 59.95 20.68ZM61.95 14.76C61.85 14.82 61.71 14.78 61.65 14.67C61.59 14.56 61.63 14.43 61.74 14.37C61.85 14.31 61.98 14.35 62.04 14.46C62.1 14.56 62.06 14.7 61.95 14.76ZM63.32 19.08C63.44 19.29 63.36 19.56 63.15 19.67C62.94 19.79 62.67 19.71 62.56 19.5C62.44 19.29 62.52 19.02 62.73 18.91C62.94 18.79 63.21 18.87 63.32 19.08ZM64.01 16.49C63.75 16.63 63.43 16.54 63.29 16.28C63.15 16.02 63.24 15.7 63.5 15.56C63.76 15.42 64.08 15.51 64.22 15.77C64.36 16.03 64.27 16.35 64.01 16.49ZM51.44 31.05C51.41 30.8 51.59 30.58 51.84 30.55C51.94 30.54 62.28 29.35 68.43 26.14C68.65 26.02 68.93 26.11 69.04 26.33C69.16 26.55 69.07 26.82 68.86 26.94C62.55 30.23 52.38 31.4 51.94 31.45C51.69 31.48 51.47 31.3 51.44 31.05ZM52.19 25.17C52.57 24.96 53.04 25.1 53.25 25.48C53.46 25.86 53.32 26.33 52.94 26.54C52.56 26.75 52.09 26.61 51.88 26.23C51.67 25.85 51.81 25.38 52.19 25.17ZM48.81 26.28C49.02 26.16 49.29 26.24 49.4 26.45C49.52 26.66 49.44 26.93 49.23 27.04C49.02 27.16 48.76 27.08 48.64 26.87C48.52 26.66 48.6 26.39 48.81 26.28ZM47.17 28.66C47.28 28.6 47.41 28.64 47.47 28.75C47.53 28.85 47.49 28.99 47.38 29.05C47.27 29.11 47.14 29.07 47.08 28.96C47.02 28.85 47.06 28.72 47.17 28.66Z" fill="#1B3E71"/>
<path id="Vector_3" d="M74.2501 25.9491C74.3301 25.8991 74.4201 25.8491 74.4901 25.7991C75.6501 25.0591 76.7001 24.1691 77.6301 23.1591C79.7401 20.8591 83.2701 16.6791 82.7401 15.0291C79.3601 16.2591 79.5201 15.9091 77.1101 16.3491C76.9701 15.2791 78.2501 12.4591 81.6401 10.5991C77.8401 7.20913 67.8401 11.0591 67.8401 11.0591C67.5901 11.1191 67.3601 11.1991 67.1301 11.2591C65.7001 20.7591 71.7201 24.7191 74.2501 25.9491ZM72.6101 22.9191C74.7901 21.5691 76.3401 19.6691 76.3501 19.6491C76.5101 19.4491 76.7901 19.4191 76.9901 19.5791C77.1901 19.7391 77.2201 20.0191 77.0601 20.2191C76.9901 20.2991 75.4101 22.2591 73.0901 23.6991C73.0901 23.6991 73.0801 23.6991 73.0701 23.7091C72.8601 23.8291 72.5901 23.7591 72.4601 23.5491C72.3301 23.3391 72.4001 23.0591 72.6101 22.9191ZM73.2601 10.6891C73.9501 10.3091 74.8101 10.5691 75.1801 11.2491C75.5601 11.9291 75.3001 12.7891 74.6201 13.1691C73.9401 13.5391 73.0801 13.2891 72.7001 12.6091C72.3301 11.9191 72.5801 11.0591 73.2601 10.6891ZM68.3801 13.2991C68.2601 13.0291 68.3801 12.7191 68.6601 12.5991C68.9301 12.4791 69.2401 12.5991 69.3601 12.8791C69.4801 13.1491 69.3601 13.4591 69.0801 13.5791C68.8101 13.6991 68.4901 13.5791 68.3801 13.2991ZM68.0301 15.2591C68.2401 15.1391 68.5101 15.2191 68.6201 15.4291C68.7401 15.6391 68.6601 15.9091 68.4501 16.0191C68.2401 16.1291 67.9701 16.0591 67.8601 15.8491C67.7401 15.6391 67.8201 15.3691 68.0301 15.2591Z" fill="#1B3E71"/>
<path id="Vector_4" d="M0 11.4898L4.35 27.7098C8.72 22.2798 11.2 21.3698 13.79 20.6898C15 20.3698 16.26 20.2998 17.5 20.4798C20.6 20.9198 24.99 21.6098 24.99 21.6098C24.99 21.6098 23.98 24.1198 24.43 27.2898C29.08 25.7998 32.03 22.7698 32.99 20.3498C34.63 19.8798 36.24 19.3798 37.61 18.9298C35.03 16.4098 31.08 10.8998 34.09 2.51979C32.64 2.71979 31.44 2.98979 30.19 3.07979C28.22 3.20979 22.25 0.0797945 19 1.99979C21.23 3.15979 22.08 6.29979 22.08 6.29979C22.08 6.29979 17.84 10.0998 12.47 12.8298C11.5 13.3198 10.43 13.6098 9.35 13.6398C4.45 13.7598 0 11.4998 0 11.4998M20.66 10.3798C20.43 10.4398 20.19 10.2998 20.13 10.0698C20.07 9.8398 20.21 9.5998 20.44 9.53979C20.67 9.47979 20.91 9.6098 20.97 9.8498C21.03 10.0798 20.89 10.3198 20.66 10.3798ZM22.71 8.01979C22.59 8.04979 22.47 7.97979 22.44 7.86979C22.41 7.74979 22.48 7.62979 22.59 7.59979C22.71 7.56979 22.83 7.63979 22.86 7.74979C22.89 7.86979 22.82 7.98979 22.71 8.01979ZM22.43 12.0998C22.2 12.1598 21.96 12.0198 21.9 11.7898C21.84 11.5598 21.97 11.3198 22.21 11.2598C22.44 11.1998 22.68 11.3398 22.74 11.5698C22.8 11.7998 22.66 12.0398 22.43 12.0998ZM26.12 6.84979C25.83 6.89979 25.55 6.69979 25.51 6.40979C25.46 6.11979 25.66 5.83979 25.95 5.79979C26.24 5.75979 26.52 5.94979 26.56 6.23979C26.61 6.52979 26.41 6.80979 26.12 6.84979ZM26.04 10.0098C25.53 10.1498 25.01 9.83979 24.87 9.33979C24.73 8.82979 25.03 8.30979 25.54 8.16979C26.05 8.02979 26.57 8.33979 26.71 8.83979C26.85 9.34979 26.54 9.86979 26.04 10.0098ZM29.38 4.72979C29.26 4.75979 29.15 4.68979 29.11 4.57979C29.08 4.45979 29.15 4.34979 29.26 4.30979C29.38 4.27979 29.49 4.34979 29.53 4.45979C29.56 4.57979 29.49 4.68979 29.38 4.72979ZM29.69 9.24979C29.75 9.47979 29.61 9.71979 29.38 9.77979C29.15 9.8398 28.91 9.69979 28.85 9.4698C28.79 9.2398 28.93 8.99979 29.16 8.93979C29.39 8.87979 29.63 9.00979 29.69 9.24979ZM30.98 6.90979C30.7 6.98979 30.4 6.81979 30.33 6.52979C30.25 6.24979 30.42 5.94979 30.71 5.87979C30.99 5.79979 31.29 5.96979 31.36 6.25979C31.44 6.53979 31.27 6.83979 30.98 6.90979ZM15.32 18.0798C15.35 17.8298 15.58 17.6598 15.83 17.6898C15.93 17.6998 26.26 18.9898 33 17.3298C33.25 17.2698 33.49 17.4198 33.55 17.6598C33.61 17.8998 33.47 18.1398 33.23 18.2098C26.32 19.9198 16.16 18.6498 15.73 18.5898C15.48 18.5598 15.3 18.3298 15.34 18.0798M17.44 12.5398C17.86 12.4298 18.28 12.6798 18.4 13.0898C18.51 13.5098 18.26 13.9398 17.85 14.0498C17.43 14.1598 17 13.9098 16.89 13.4998C16.78 13.0798 17.03 12.6498 17.44 12.5398ZM13.89 12.8198C14.12 12.7598 14.36 12.8998 14.42 13.1298C14.48 13.3598 14.34 13.5998 14.11 13.6598C13.88 13.7198 13.64 13.5798 13.58 13.3498C13.52 13.1198 13.66 12.8798 13.89 12.8198ZM11.73 14.7498C11.85 14.7198 11.97 14.7898 12 14.8998C12.03 15.0198 11.96 15.1398 11.85 15.1698C11.73 15.1998 11.61 15.1298 11.58 15.0198C11.55 14.8998 11.62 14.7798 11.73 14.7498Z" fill="#1B3E71"/>
<path id="Vector_5" d="M38.68 18.5089C38.77 18.4789 38.87 18.4489 38.95 18.4189C40.25 17.9689 41.48 17.3589 42.63 16.5889C45.22 14.8489 49.64 11.6289 49.51 9.89886C45.93 10.2989 46.17 9.99886 43.73 9.84886C43.84 8.77886 45.75 6.33886 49.49 5.33886C46.6 1.14886 35.97 2.51886 35.97 2.51886C35.71 2.51886 35.47 2.53886 35.23 2.54886C31.59 11.4389 36.51 16.7189 38.68 18.4989M37.81 15.1789C40.25 14.3789 42.2 12.8989 42.22 12.8789C42.42 12.7289 42.7 12.7689 42.86 12.9589C43.01 13.1589 42.98 13.4389 42.78 13.5989C42.7 13.6589 40.69 15.1889 38.1 16.0389H38.08C37.85 16.0989 37.61 15.9689 37.53 15.7389C37.45 15.4989 37.58 15.2389 37.82 15.1689M41.34 3.44886C42.1 3.24886 42.87 3.69886 43.07 4.44886C43.27 5.20886 42.82 5.97886 42.07 6.18886C41.31 6.38886 40.54 5.93886 40.34 5.18886C40.14 4.42886 40.59 3.65886 41.34 3.45886M35.98 4.83886C35.93 4.54886 36.13 4.26886 36.42 4.22886C36.71 4.17886 36.99 4.37886 37.03 4.66886C37.08 4.95886 36.88 5.22886 36.59 5.27886C36.3 5.32886 36.03 5.12886 35.98 4.83886ZM35.17 6.65886C35.4 6.59886 35.64 6.73886 35.7 6.96886C35.76 7.19886 35.62 7.43886 35.39 7.49886C35.16 7.55886 34.92 7.41886 34.86 7.18886C34.8 6.95886 34.94 6.71886 35.17 6.65886Z" fill="#1B3E71"/>
</g>
</g>
</g>
</g>
<defs>
<clipPath id="clip0_4_42129">
<rect width="83.27" height="42.72" fill="white" transform="translate(0 0.289062)"/>
</clipPath>
</defs>
</svg>
