<svg width="163" height="163" viewBox="0 0 163 163" fill="none" xmlns="http://www.w3.org/2000/svg">
<g clip-path="url(#clip0_2_4152)">
<path d="M81.08 162.16C125.859 162.16 162.16 125.859 162.16 81.08C162.16 36.3008 125.859 0 81.08 0C36.3008 0 0 36.3008 0 81.08C0 125.859 36.3008 162.16 81.08 162.16Z" fill="#D9E8E7"/>
<path d="M115.91 27.0293C116.41 27.0293 116.91 27.1793 117.35 27.4893C118.48 28.2893 118.74 29.8493 117.95 30.9693L101.04 54.8693C101 54.9293 100.94 54.9793 100.89 55.0393L100.92 55.0593C100.61 55.5393 100.72 56.1893 101.19 56.5193C101.38 56.6593 101.6 56.7193 101.81 56.7193C102.13 56.7193 102.46 56.5693 102.67 56.2993L102.71 56.3293C102.75 56.2593 102.78 56.1793 102.83 56.1093L119.74 32.2093C120.23 31.5193 121 31.1493 121.78 31.1493C122.28 31.1493 122.78 31.2993 123.22 31.6093C124.35 32.4093 124.61 33.9693 123.82 35.0893L106.91 58.9893C106.86 59.0593 106.79 59.1193 106.73 59.1793H106.75C106.3 59.8293 106.44 60.7193 107.08 61.1693C107.33 61.3493 107.62 61.4393 107.91 61.4393C108.35 61.4393 108.79 61.2293 109.07 60.8493H109.08L126.29 36.5193C126.78 35.8293 127.55 35.4593 128.33 35.4593C128.83 35.4593 129.33 35.6093 129.77 35.9193C130.9 36.7193 131.16 38.2793 130.37 39.3993L113.15 63.7393C113.15 63.7393 113.13 63.7593 113.12 63.7693C112.72 64.3193 112.85 65.0893 113.4 65.4893C113.62 65.6493 113.87 65.7193 114.12 65.7193C114.5 65.7193 114.88 65.5393 115.12 65.2093C115.13 65.1993 115.13 65.1793 115.14 65.1593H115.16L131.94 41.4493C132.43 40.7593 133.2 40.3893 133.98 40.3893C134.48 40.3893 134.98 40.5393 135.42 40.8493C136.55 41.6493 136.81 43.2093 136.02 44.3293L119.59 67.5593C119.55 67.7593 119.47 67.9593 119.34 68.1393C113.2 76.7793 106.21 79.4493 102.04 81.0493C100.73 81.5493 99.4897 82.0293 99.1197 82.3993L98.6697 82.8593C96.7397 84.8293 94.3297 87.2693 89.7397 95.5993C89.4297 96.1593 89.1297 96.6993 88.8197 97.2493C91.6397 101.099 94.7597 105.389 97.5997 109.409C105.76 120.959 112.18 130.059 107.21 133.699C106.35 134.329 105.42 134.629 104.44 134.629C97.7797 134.629 88.7797 121.109 81.8997 109.179C71.6097 126.119 63.6097 135.339 58.0497 136.599C57.5797 136.709 57.1197 136.759 56.6697 136.759C55.5897 136.759 54.5797 136.449 53.7097 135.829C52.4797 134.959 51.7397 133.629 51.5597 131.989C50.8597 125.689 58.4497 113.299 74.1297 95.1193C74.0597 94.9893 73.9897 94.8593 73.9197 94.7293C73.1097 93.3193 71.5697 90.8993 70.5597 90.8993C70.4297 90.8993 70.3197 90.9393 70.2097 91.0193C69.6497 91.4493 67.4297 93.9193 65.3297 93.9193C64.7397 93.9193 64.1597 93.7193 63.6297 93.2293C55.9797 86.0993 41.3397 66.4093 37.1697 50.9893C33.1397 36.0693 36.9997 28.3693 38.1897 28.3693C38.2697 28.3693 38.3397 28.4093 38.3897 28.4793C40.4497 31.2793 75.2497 78.8993 79.5997 84.8293C79.5997 84.8293 80.2097 85.6393 81.2497 87.0293C86.4597 81.0493 87.8497 78.2393 88.9797 75.9593L89.2697 75.3893C89.4797 74.9693 89.4897 73.9793 89.4897 72.8393C89.5197 68.8493 89.5597 62.1793 96.7497 52.0693C96.8197 51.9693 96.8997 51.8893 96.9897 51.8093L113.82 28.0193C114.31 27.3293 115.08 26.9593 115.86 26.9593M115.91 22.0293C113.48 22.0293 111.19 23.2093 109.79 25.1993L93.1897 48.6593C93.0197 48.8493 92.8697 49.0393 92.7297 49.2393C84.6297 60.6293 84.5797 68.5893 84.5497 72.8693C84.5497 73.1693 84.5497 73.5593 84.5397 73.8593C83.8797 75.1993 83.1497 76.6493 81.4897 78.9393C76.6397 72.3093 65.9997 57.7593 57.1497 45.6593C49.6597 35.4193 43.3197 26.7493 42.4797 25.5993C41.4897 24.2493 39.9097 23.4493 38.2497 23.4493C37.2197 23.4493 35.2497 23.7693 33.5997 25.9193C29.3397 31.4793 29.9297 43.2093 32.3997 52.3693C36.7197 68.3793 51.6297 88.8993 60.2697 96.9593C61.4697 98.0793 62.9197 98.7593 64.4897 98.9393C51.4097 114.989 45.8597 125.529 46.6397 132.599C46.9797 135.649 48.4797 138.269 50.8597 139.959C52.5697 141.169 54.5897 141.819 56.7197 141.819C57.5397 141.819 58.3797 141.719 59.2097 141.529C65.4697 140.099 72.5697 132.999 81.8497 118.779C90.9997 133.339 97.9397 139.679 104.49 139.679C106.55 139.679 108.53 139.029 110.22 137.789C113.27 135.549 116.04 131.069 111.88 122.409C109.69 117.839 106 112.619 101.73 106.579C99.7097 103.719 97.3797 100.479 94.7897 96.9293C98.6297 90.1193 100.64 88.0693 102.27 86.4093L102.3 86.3793C102.71 86.1993 103.38 85.9493 103.86 85.7593C108.26 84.0793 116.44 80.9393 123.45 71.0693C123.71 70.6993 123.93 70.3093 124.11 69.9093L140.14 47.2493C142.53 43.8693 141.72 39.1793 138.35 36.7893C137.47 36.1693 136.49 35.7493 135.46 35.5493C134.97 34.0993 134.03 32.7893 132.69 31.8493C131.48 30.9893 130.06 30.5193 128.59 30.4793C128.06 29.3393 127.23 28.3093 126.13 27.5393C125.09 26.7993 123.9 26.3493 122.65 26.2093C122.12 25.1193 121.31 24.1493 120.26 23.4093C118.99 22.5093 117.49 22.0293 115.93 22.0293H115.91Z" fill="#00B0A9"/>
</g>
<defs>
<clipPath id="clip0_2_4152">
<rect width="162.15" height="162.15" fill="white"/>
</clipPath>
</defs>
</svg>
