<svg width="163" height="163" viewBox="0 0 163 163" fill="none" xmlns="http://www.w3.org/2000/svg">
<g clip-path="url(#clip0_2_4275)">
<path d="M81.08 162.16C125.859 162.16 162.16 125.859 162.16 81.08C162.16 36.3008 125.859 0 81.08 0C36.3008 0 0 36.3008 0 81.08C0 125.859 36.3008 162.16 81.08 162.16Z" fill="#FAEFD2"/>
<path d="M68.2999 73.2896C67.9399 73.2896 67.5699 73.2096 67.2199 73.0396C65.6399 72.2496 64.1199 71.3397 62.7099 70.3297C61.6199 69.5497 61.3699 68.0296 62.1599 66.9296C62.9499 65.8396 64.4699 65.5896 65.5599 66.3796C66.7499 67.2396 68.0399 68.0196 69.3899 68.6796C70.5899 69.2796 71.0799 70.7397 70.4899 71.9397C70.0699 72.7997 69.1999 73.2896 68.3099 73.2896H68.2999Z" fill="#FEC52E"/>
<path d="M68.2996 74.0405C67.8096 74.0405 67.3296 73.9305 66.8896 73.7105C65.2696 72.9105 63.7196 71.9705 62.2796 70.9305C61.5896 70.4305 61.1296 69.7005 60.9996 68.8605C60.8596 68.0205 61.0596 67.1805 61.5596 66.4905C62.5896 65.0705 64.5796 64.7405 65.9996 65.7705C67.1596 66.6105 68.4096 67.3605 69.7196 68.0105C70.4796 68.3905 71.0496 69.0405 71.3196 69.8405C71.5896 70.6505 71.5296 71.5105 71.1496 72.2705C70.6096 73.3605 69.5196 74.0405 68.2996 74.0405ZM64.1296 66.6705C63.6096 66.6705 63.0896 66.9105 62.7596 67.3705C62.4996 67.7305 62.3896 68.1805 62.4696 68.6205C62.5396 69.0605 62.7796 69.4505 63.1496 69.7205C64.5296 70.7105 66.0096 71.6005 67.5496 72.3705C68.3696 72.7705 69.3996 72.4205 69.8096 71.6105C70.0096 71.2105 70.0396 70.7505 69.8996 70.3205C69.7596 69.8905 69.4596 69.5505 69.0496 69.3505C67.6696 68.6605 66.3396 67.8705 65.1196 66.9805C64.8196 66.7705 64.4796 66.6605 64.1396 66.6605L64.1296 66.6705Z" fill="#FEC52E"/>
<path d="M76.1301 140.06C74.8201 140.06 73.7401 139.02 73.7001 137.7C73.6601 136.36 74.7101 135.23 76.0501 135.19C79.1501 135.09 82.1101 134.56 84.8601 133.6C86.1301 133.16 87.5101 133.83 87.9601 135.1C88.4001 136.37 87.7301 137.76 86.4601 138.2C83.2501 139.32 79.8001 139.94 76.2101 140.05C76.1801 140.05 76.1601 140.05 76.1301 140.05V140.06ZM66.5201 138.85C66.3101 138.85 66.0901 138.82 65.8801 138.76C62.4501 137.82 59.2401 136.4 56.3501 134.52C55.2201 133.79 54.9001 132.28 55.6401 131.16C56.3701 130.03 57.8801 129.71 59.0101 130.45C61.4801 132.05 64.2201 133.27 67.1701 134.08C68.4701 134.43 69.2301 135.77 68.8801 137.07C68.5901 138.15 67.6101 138.86 66.5301 138.86L66.5201 138.85ZM94.5101 134.34C93.6801 134.34 92.8701 133.91 92.4101 133.14C91.7301 131.98 92.1101 130.49 93.2701 129.81C95.8901 128.26 98.3401 126.41 100.56 124.29C101.53 123.36 103.07 123.4 104 124.37C104.93 125.34 104.89 126.88 103.92 127.81C101.44 130.18 98.6801 132.26 95.7401 134C95.3501 134.23 94.9301 134.34 94.5101 134.34ZM50.5901 128.34C49.8501 128.34 49.1101 128 48.6401 127.36C46.4101 124.36 44.9201 121.09 44.1901 117.64C43.9101 116.33 44.7601 115.04 46.0701 114.76C47.3801 114.49 48.6701 115.33 48.9501 116.64C49.5301 119.4 50.7401 122.03 52.5401 124.45C53.3401 125.53 53.1201 127.05 52.0401 127.85C51.6001 128.17 51.1001 128.33 50.5901 128.33V128.34ZM108.48 121.07C108.01 121.07 107.54 120.94 107.12 120.65C106.01 119.9 105.71 118.39 106.46 117.27C108.13 114.8 109.62 112.06 110.89 109.14C111.43 107.91 112.87 107.35 114.09 107.88C115.32 108.42 115.89 109.85 115.35 111.08C113.96 114.27 112.33 117.27 110.49 119.99C110.02 120.69 109.25 121.06 108.47 121.06L108.48 121.07ZM46.9101 109.95C46.6901 109.95 46.4601 109.92 46.2401 109.85C44.9501 109.48 44.2001 108.13 44.5701 106.84C45.5601 103.39 47.3401 100.25 49.8501 97.4797C50.7601 96.4897 52.2901 96.4197 53.2901 97.3197C54.2801 98.2297 54.3501 99.7597 53.4501 100.76C51.4401 102.96 50.0301 105.46 49.2501 108.18C48.9401 109.25 47.9701 109.94 46.9101 109.94V109.95ZM116.31 103.38C116.1 103.38 115.89 103.35 115.68 103.3C114.38 102.95 113.61 101.62 113.96 100.32C114.74 97.4197 115.38 94.3097 115.85 91.0797C116.05 89.7497 117.29 88.8297 118.61 89.0297C119.94 89.2297 120.86 90.4597 120.66 91.7897C120.16 95.1997 119.48 98.4997 118.65 101.58C118.36 102.67 117.38 103.38 116.3 103.38H116.31ZM119.21 84.1897C119.21 84.1897 119.13 84.1897 119.09 84.1897C117.75 84.1197 116.71 82.9797 116.78 81.6397C116.85 80.1697 116.89 78.6997 116.89 77.2597C116.89 75.5397 116.84 73.8397 116.73 72.2097C116.64 70.8697 117.66 69.7097 119 69.6297C120.36 69.5497 121.5 70.5597 121.58 71.8997C121.69 73.6297 121.75 75.4397 121.75 77.2597C121.75 78.7797 121.71 80.3397 121.63 81.8897C121.57 83.1897 120.49 84.1997 119.2 84.1997L119.21 84.1897ZM117.88 64.8597C116.75 64.8597 115.74 64.0697 115.5 62.9197C114.85 59.7897 113.96 56.7997 112.86 54.0297C112.36 52.7797 112.97 51.3697 114.22 50.8697C115.47 50.3697 116.88 50.9797 117.38 52.2297C118.59 55.2597 119.56 58.5297 120.27 61.9297C120.54 63.2497 119.7 64.5297 118.39 64.8097C118.22 64.8397 118.05 64.8597 117.89 64.8597H117.88ZM57.4101 63.8297C56.6201 63.8297 55.8401 63.4397 55.3701 62.7297C53.3201 59.5897 52.0501 56.2197 51.5901 52.6997C51.4201 51.3697 52.3501 50.1497 53.6901 49.9697C55.0001 49.7897 56.2401 50.7297 56.4201 52.0697C56.7801 54.8597 57.8001 57.5497 59.4501 60.0697C60.1801 61.1997 59.8701 62.6997 58.7401 63.4397C58.3301 63.7097 57.8701 63.8397 57.4101 63.8397V63.8297ZM110.65 46.9497C109.86 46.9497 109.08 46.5697 108.62 45.8497C106.92 43.2697 104.95 40.8997 102.77 38.8197C101.8 37.8897 101.76 36.3497 102.69 35.3797C103.61 34.4097 105.16 34.3697 106.13 35.2997C108.58 37.6397 110.79 40.2897 112.69 43.1797C113.43 44.2997 113.12 45.8097 111.99 46.5497C111.58 46.8197 111.11 46.9497 110.66 46.9497H110.65ZM55.0801 45.2497C54.8001 45.2497 54.5201 45.1997 54.2401 45.0997C52.9801 44.6397 52.3301 43.2397 52.8001 41.9797C54.0301 38.6497 56.0201 35.6397 58.7101 33.0397C59.6801 32.1097 61.2201 32.1297 62.1501 33.0997C63.0801 34.0697 63.0601 35.6097 62.0901 36.5397C59.9301 38.6297 58.3401 41.0197 57.3601 43.6697C57.0001 44.6497 56.0701 45.2597 55.0801 45.2597V45.2497ZM96.6601 33.6997C96.2601 33.6997 95.8501 33.5997 95.4701 33.3897C93.4401 32.2497 92.1001 31.7997 92.0801 31.7897C90.4001 31.1197 88.7501 30.6197 87.0601 30.2497C85.7501 29.9697 84.9101 28.6797 85.1901 27.3597C85.4701 26.0497 86.7701 25.2097 88.0801 25.4897C90.0501 25.9097 91.9601 26.4897 93.7701 27.2197C93.8001 27.2197 95.4201 27.7797 97.8601 29.1397C99.0301 29.7997 99.4501 31.2797 98.7901 32.4497C98.3401 33.2497 97.5201 33.6897 96.6701 33.6897L96.6601 33.6997ZM68.5001 31.9397C67.5501 31.9397 66.6501 31.3797 66.2601 30.4497C65.7401 29.2097 66.3201 27.7897 67.5601 27.2597C70.7401 25.9197 74.1601 25.0997 77.7201 24.8097C79.0401 24.7097 80.2301 25.6997 80.3401 27.0397C80.4501 28.3797 79.4501 29.5497 78.1101 29.6597C75.0701 29.9097 72.1501 30.6097 69.4501 31.7497C69.1401 31.8797 68.8201 31.9397 68.5101 31.9397H68.5001Z" fill="#FEC52E"/>
<path d="M76.1301 140.81C74.4001 140.81 73.0101 139.46 72.9501 137.73C72.9201 136.88 73.2301 136.07 73.8101 135.45C74.3901 134.83 75.1801 134.47 76.0301 134.45C79.0501 134.35 81.9401 133.83 84.6201 132.9C85.4201 132.62 86.2901 132.67 87.0501 133.04C87.8101 133.41 88.3901 134.06 88.6701 134.86C89.2501 136.52 88.3601 138.34 86.7101 138.91C83.4201 140.05 79.9001 140.69 76.2301 140.8H76.1301V140.81ZM85.6601 134.22C85.4701 134.22 85.2901 134.25 85.1101 134.31C82.2901 135.29 79.2501 135.84 76.0801 135.94C75.6301 135.95 75.2101 136.14 74.9101 136.47C74.6001 136.8 74.4401 137.23 74.4601 137.67C74.4901 138.58 75.2301 139.3 76.1401 139.3V140.05L76.1701 139.3C79.7101 139.19 83.0901 138.58 86.2301 137.49C87.1101 137.19 87.5701 136.22 87.2701 135.35C87.1201 134.93 86.8201 134.59 86.4101 134.39C86.1801 134.28 85.9301 134.22 85.6801 134.22H85.6601ZM66.5201 139.6C66.2401 139.6 65.9501 139.56 65.6801 139.49C62.1701 138.53 58.8901 137.07 55.9401 135.15C54.4701 134.19 54.0501 132.22 55.0001 130.75C55.9501 129.28 57.9301 128.86 59.4001 129.81C61.8101 131.37 64.4801 132.56 67.3501 133.34C68.1701 133.56 68.8501 134.09 69.2801 134.83C69.7001 135.57 69.8101 136.43 69.5901 137.25C69.2101 138.63 67.9501 139.6 66.5201 139.6ZM57.6801 130.81C57.1301 130.81 56.5901 131.08 56.2601 131.57C55.7601 132.35 55.9801 133.39 56.7601 133.9C59.5901 135.74 62.7201 137.13 66.0801 138.05C66.9501 138.29 67.9101 137.75 68.1501 136.87C68.2701 136.44 68.2101 135.98 67.9901 135.59C67.7701 135.2 67.4101 134.92 66.9701 134.8C63.9501 133.98 61.1301 132.72 58.6001 131.08C58.3201 130.9 58.0001 130.81 57.6901 130.81H57.6801ZM94.5101 135.09C93.3901 135.09 92.3401 134.49 91.7701 133.52C90.8801 132.01 91.3801 130.05 92.8901 129.16C95.4601 127.65 97.8601 125.83 100.04 123.75C101.31 122.54 103.33 122.58 104.54 123.86C105.75 125.13 105.71 127.15 104.44 128.36C101.91 130.78 99.1101 132.89 96.1201 134.65C95.6301 134.94 95.0701 135.09 94.5101 135.09ZM102.24 124.38C101.82 124.38 101.4 124.53 101.08 124.84C98.8201 127 96.3201 128.89 93.6501 130.46C93.2601 130.69 92.9901 131.05 92.8801 131.49C92.7701 131.93 92.8301 132.38 93.0601 132.77C93.5101 133.54 94.5901 133.82 95.3601 133.36C98.2501 131.66 100.96 129.61 103.4 127.28C104.07 126.64 104.09 125.57 103.45 124.9C103.12 124.56 102.68 124.38 102.23 124.38H102.24ZM50.5901 129.09C49.5901 129.09 48.6301 128.61 48.0301 127.81C45.7401 124.72 44.2001 121.35 43.4501 117.8C43.0901 116.08 44.1901 114.39 45.9101 114.03C47.6301 113.67 49.3201 114.78 49.6801 116.49C50.2301 119.14 51.4001 121.67 53.1401 124.01C54.1901 125.42 53.8901 127.42 52.4801 128.46C51.9301 128.87 51.2701 129.09 50.5801 129.09H50.5901ZM46.5601 115.46C46.4501 115.46 46.3301 115.47 46.2201 115.5C45.3101 115.69 44.7301 116.58 44.9201 117.49C45.6201 120.83 47.0701 124 49.2301 126.91C49.7701 127.63 50.8601 127.8 51.5801 127.26C52.3301 126.71 52.4801 125.65 51.9301 124.91C50.0601 122.39 48.8101 119.66 48.2101 116.8C48.0401 116.01 47.3401 115.46 46.5601 115.46ZM108.48 121.82C107.85 121.82 107.23 121.63 106.7 121.28C105.99 120.8 105.52 120.08 105.36 119.25C105.2 118.42 105.37 117.57 105.85 116.86C107.49 114.43 108.96 111.73 110.22 108.85C110.56 108.07 111.18 107.47 111.98 107.16C112.77 106.85 113.63 106.87 114.41 107.2C115.19 107.54 115.79 108.16 116.1 108.95C116.41 109.74 116.4 110.61 116.06 111.39C114.65 114.63 112.99 117.67 111.13 120.42C110.54 121.3 109.55 121.82 108.49 121.82H108.48ZM113.13 108.43C112.92 108.43 112.71 108.47 112.51 108.55C112.09 108.72 111.76 109.03 111.58 109.44C110.29 112.4 108.77 115.18 107.08 117.69C106.83 118.06 106.74 118.51 106.82 118.95C106.91 119.39 107.16 119.77 107.53 120.03C108.28 120.53 109.36 120.32 109.86 119.58C111.67 116.9 113.28 113.95 114.65 110.79C114.83 110.38 114.84 109.92 114.67 109.5C114.5 109.08 114.19 108.75 113.78 108.57C113.57 108.48 113.34 108.43 113.11 108.43H113.13ZM46.9101 110.7C46.6101 110.7 46.3201 110.66 46.0301 110.58C44.3401 110.1 43.3601 108.33 43.8501 106.65C44.8701 103.09 46.7001 99.8396 49.3001 96.9996C50.4801 95.6996 52.5001 95.6096 53.8001 96.7896C55.1001 97.9696 55.1901 99.9896 54.0101 101.29C52.0801 103.41 50.7201 105.8 49.9701 108.41C49.5801 109.77 48.3201 110.72 46.9101 110.72V110.7ZM51.6501 97.4496C51.1901 97.4496 50.7401 97.6296 50.4101 97.9996C47.9701 100.68 46.2501 103.72 45.2901 107.06C45.0401 107.95 45.5501 108.88 46.4401 109.14C47.3101 109.39 48.2701 108.85 48.5201 107.99C49.3301 105.16 50.8001 102.56 52.8901 100.27C53.5101 99.5896 53.4701 98.5196 52.7801 97.8896C52.4601 97.5996 52.0501 97.4496 51.6501 97.4496ZM116.31 104.13C116.04 104.13 115.76 104.09 115.49 104.02C114.66 103.8 113.98 103.27 113.55 102.53C113.13 101.79 113.01 100.93 113.24 100.11C114.01 97.2296 114.64 94.1596 115.11 90.9596C115.24 90.1096 115.68 89.3696 116.37 88.8596C117.05 88.3596 117.89 88.1496 118.73 88.2696C120.46 88.5296 121.67 90.1496 121.41 91.8796C120.9 95.3196 120.22 98.6396 119.38 101.76C119.01 103.15 117.75 104.12 116.31 104.12V104.13ZM118.25 89.7496C117.9 89.7496 117.55 89.8596 117.26 90.0796C116.9 90.3496 116.66 90.7396 116.59 91.1896C116.11 94.4396 115.47 97.5796 114.68 100.51C114.56 100.94 114.62 101.4 114.85 101.79C115.07 102.18 115.44 102.46 115.87 102.58C116.79 102.83 117.7 102.26 117.93 101.39C118.75 98.3296 119.42 95.0596 119.92 91.6796C120.05 90.7596 119.42 89.9096 118.5 89.7696C118.42 89.7596 118.33 89.7496 118.25 89.7496ZM119.21 84.9396H119.05C118.2 84.8896 117.42 84.5196 116.85 83.8896C116.28 83.2596 115.99 82.4396 116.03 81.5996C116.1 80.1496 116.14 78.6896 116.14 77.2496C116.14 75.5496 116.09 73.8696 115.98 72.2496C115.87 70.4996 117.2 68.9796 118.95 68.8696C120.72 68.7396 122.21 70.0696 122.33 71.8396C122.44 73.5896 122.5 75.4096 122.5 77.2496C122.5 78.7796 122.46 80.3396 122.38 81.9196C122.3 83.6196 120.9 84.9396 119.2 84.9396H119.21ZM119.16 70.3696C119.16 70.3696 119.09 70.3696 119.05 70.3696C118.13 70.4296 117.42 71.2296 117.48 72.1596C117.59 73.8096 117.64 75.5296 117.64 77.2596C117.64 78.7196 117.6 80.1996 117.53 81.6796C117.51 82.1296 117.66 82.5596 117.96 82.8896C118.26 83.2196 118.67 83.4196 119.12 83.4396H119.2C120.1 83.4396 120.83 82.7396 120.88 81.8396C120.96 80.2996 121 78.7496 121 77.2496C121 75.4396 120.94 73.6496 120.83 71.9396C120.77 71.0396 120.04 70.3696 119.15 70.3696H119.16ZM117.88 65.6096C116.38 65.6096 115.08 64.5396 114.77 63.0796C114.13 59.9896 113.25 57.0396 112.16 54.3096C111.85 53.5196 111.86 52.6496 112.19 51.8696C112.53 51.0896 113.15 50.4896 113.94 50.1696C115.57 49.5196 117.43 50.3196 118.07 51.9496C119.29 55.0096 120.27 58.3196 121 61.7696C121.36 63.4896 120.25 65.1796 118.53 65.5296C118.32 65.5696 118.1 65.5996 117.88 65.5996V65.6096ZM115.11 51.4496C114.9 51.4496 114.69 51.4896 114.49 51.5696C114.07 51.7396 113.75 52.0496 113.57 52.4696C113.39 52.8796 113.39 53.3396 113.55 53.7596C114.67 56.5696 115.57 59.6096 116.23 62.7796C116.42 63.6696 117.33 64.2796 118.22 64.0796C119.13 63.8896 119.71 62.9996 119.52 62.0896C118.82 58.7196 117.86 55.4996 116.67 52.5096C116.41 51.8496 115.77 51.4496 115.1 51.4496H115.11ZM57.4101 64.5796C56.3301 64.5796 55.3301 64.0396 54.7401 63.1396C52.6301 59.9096 51.3201 56.4296 50.8401 52.7996C50.7301 51.9596 50.9501 51.1196 51.4701 50.4496C51.9901 49.7796 52.7401 49.3396 53.5801 49.2296C54.4001 49.1196 55.2401 49.3296 55.9101 49.8496C56.5901 50.3696 57.0301 51.1196 57.1401 51.9696C57.4901 54.6496 58.4701 57.2296 60.0601 59.6596C61.0201 61.1296 60.6001 63.1096 59.1401 64.0696C58.6201 64.4096 58.0201 64.5896 57.4001 64.5896L57.4101 64.5796ZM54.0101 50.6996C53.9401 50.6996 53.8601 50.6996 53.7901 50.7196C53.3401 50.7796 52.9401 51.0096 52.6701 51.3596C52.4001 51.7196 52.2801 52.1596 52.3401 52.5996C52.7901 56.0096 54.0201 59.2796 56.0101 62.3196C56.5001 63.0696 57.5901 63.2996 58.3401 62.8096C59.1201 62.2996 59.3401 61.2596 58.8301 60.4796C57.1201 57.8596 56.0601 55.0596 55.6801 52.1596C55.6201 51.7096 55.3901 51.3096 55.0301 51.0396C54.7401 50.8096 54.3901 50.6996 54.0301 50.6996H54.0101ZM110.65 47.6996C109.57 47.6996 108.58 47.1596 107.99 46.2696C106.32 43.7296 104.39 41.4096 102.25 39.3696C101.63 38.7796 101.28 37.9896 101.26 37.1396C101.24 36.2896 101.55 35.4796 102.14 34.8696C102.72 34.2596 103.52 33.9096 104.37 33.8896C105.27 33.8496 106.03 34.1796 106.64 34.7696C109.13 37.1496 111.37 39.8396 113.31 42.7796C113.78 43.4896 113.94 44.3396 113.77 45.1696C113.6 45.9996 113.11 46.7196 112.4 47.1896C111.88 47.5296 111.28 47.7096 110.65 47.7096V47.6996ZM104.45 35.3796H104.41C103.96 35.3896 103.54 35.5796 103.23 35.8996C102.92 36.2296 102.75 36.6496 102.77 37.0996C102.77 37.5496 102.97 37.9696 103.29 38.2796C105.51 40.3996 107.52 42.8096 109.25 45.4396C109.74 46.1896 110.83 46.4196 111.58 45.9196C111.96 45.6696 112.21 45.2996 112.3 44.8496C112.39 44.4096 112.3 43.9596 112.06 43.5896C110.19 40.7496 108.02 38.1396 105.61 35.8396C105.3 35.5396 104.89 35.3796 104.45 35.3796ZM55.0801 45.9996C54.7001 45.9996 54.3301 45.9296 53.9801 45.7996C53.1901 45.5096 52.5501 44.9196 52.1901 44.1496C51.8301 43.3796 51.8001 42.5096 52.0901 41.7196C53.3601 38.2796 55.4101 35.1796 58.1801 32.4996C59.4401 31.2796 61.4601 31.3196 62.6801 32.5796C63.9001 33.8396 63.8601 35.8596 62.6001 37.0796C60.5201 39.0896 58.9901 41.3896 58.0601 43.9296C57.6001 45.1796 56.4001 46.0096 55.0701 46.0096L55.0801 45.9996ZM60.3901 33.0996C59.9701 33.0996 59.5501 33.2596 59.2201 33.5696C56.6101 36.0896 54.6801 39.0096 53.4901 42.2296C53.3301 42.6496 53.3501 43.1096 53.5401 43.5196C53.7301 43.9296 54.0701 44.2396 54.4901 44.3896C55.3401 44.7096 56.3401 44.2396 56.6501 43.3896C57.6601 40.6396 59.3201 38.1496 61.5601 35.9796C62.2301 35.3396 62.2501 34.2696 61.6001 33.5996C61.2701 33.2596 60.8301 33.0896 60.3901 33.0896V33.0996ZM96.6601 34.4496C96.1201 34.4496 95.5801 34.3096 95.1001 34.0396C93.1601 32.9496 91.8501 32.4996 91.8401 32.4996C90.1701 31.8296 88.5701 31.3396 86.9001 30.9896C85.1801 30.6196 84.0901 28.9296 84.4501 27.2096C84.8101 25.4996 86.5001 24.3996 88.2201 24.7596C90.2301 25.1896 92.1901 25.7896 94.0301 26.5296C94.5501 26.6996 96.1101 27.3096 98.2001 28.4896C99.7301 29.3496 100.28 31.2896 99.4201 32.8196C98.8601 33.8196 97.7901 34.4496 96.6401 34.4496H96.6601ZM92.3701 31.0996C92.3701 31.0996 93.7601 31.5696 95.8401 32.7396C96.6301 33.1796 97.6901 32.8796 98.1301 32.0896C98.3501 31.6996 98.4001 31.2396 98.2801 30.8096C98.1601 30.3796 97.8701 30.0196 97.4801 29.7996C95.3401 28.5996 93.8501 28.0496 93.5901 27.9596L93.4801 27.9196C91.7201 27.2096 89.8401 26.6396 87.9201 26.2296C87.0001 26.0396 86.1201 26.6196 85.9201 27.5196C85.7301 28.4296 86.3101 29.3196 87.2101 29.5196C88.9601 29.8896 90.6501 30.4096 92.3601 31.0896L92.3701 31.0996ZM68.5001 32.6896C67.2101 32.6896 66.0601 31.9196 65.5601 30.7396C65.2301 29.9596 65.2301 29.0896 65.5501 28.3096C65.8701 27.5196 66.4801 26.9096 67.2601 26.5796C70.5201 25.2096 74.0101 24.3696 77.6501 24.0696C79.4101 23.9096 80.9401 25.2496 81.0801 26.9896C81.1501 27.8396 80.8801 28.6596 80.3301 29.3096C79.7801 29.9596 79.0101 30.3496 78.1601 30.4196C75.2001 30.6596 72.3601 31.3396 69.7301 32.4496C69.3301 32.6196 68.9201 32.6996 68.5001 32.6996V32.6896ZM77.8901 25.5596C77.8901 25.5596 77.8001 25.5596 77.7601 25.5596C74.2901 25.8396 70.9501 26.6496 67.8401 27.9496C67.4201 28.1196 67.1001 28.4496 66.9301 28.8696C66.7601 29.2896 66.7601 29.7396 66.9301 30.1596C67.2801 30.9896 68.2801 31.4196 69.1401 31.0596C71.9201 29.8896 74.9101 29.1696 78.0301 28.9196C78.4801 28.8796 78.8901 28.6696 79.1801 28.3296C79.4701 27.9896 79.6101 27.5496 79.5701 27.0996C79.5001 26.2196 78.7501 25.5596 77.8801 25.5596H77.8901Z" fill="#FEC52E"/>
<path d="M59.5908 95.7703C58.6808 95.7703 57.8108 95.2603 57.3908 94.3803C56.8108 93.1703 57.3308 91.7203 58.5408 91.1403C59.3808 90.7403 60.2408 90.3803 61.1208 90.0503C60.8808 89.1003 60.7108 88.1403 60.6008 87.1703C60.4508 85.8403 61.4108 84.6303 62.7408 84.4803C64.1108 84.3303 65.2808 85.2903 65.4308 86.6203C65.5908 88.0303 65.9308 89.4303 66.4208 90.7803L67.3308 93.2403L64.8108 93.9603C63.3708 94.3703 61.9608 94.9003 60.6308 95.5403C60.2908 95.7003 59.9308 95.7803 59.5808 95.7803L59.5908 95.7703Z" fill="#FEC52E"/>
<path d="M59.5904 96.52C58.3704 96.52 57.2404 95.81 56.7104 94.71C56.3404 93.94 56.3004 93.08 56.5804 92.28C56.8604 91.48 57.4404 90.84 58.2104 90.47C58.8604 90.16 59.5404 89.86 60.2304 89.59C60.0604 88.82 59.9304 88.04 59.8404 87.26C59.6404 85.52 60.9004 83.94 62.6404 83.74C64.4104 83.54 65.9604 84.77 66.1604 86.54C66.3104 87.88 66.6304 89.23 67.1104 90.53L68.3004 93.74L65.0004 94.68C63.6004 95.08 62.2304 95.6 60.9404 96.21C60.5104 96.42 60.0504 96.52 59.5704 96.52H59.5904ZM63.0204 85.21C62.9504 85.21 62.8904 85.21 62.8204 85.22C61.9004 85.33 61.2404 86.16 61.3404 87.08C61.4504 88.01 61.6204 88.94 61.8404 89.86L62.0004 90.51L61.3704 90.74C60.5104 91.06 59.6604 91.42 58.8504 91.8C58.4404 91.99 58.1404 92.33 57.9904 92.76C57.8404 93.18 57.8604 93.64 58.0604 94.05C58.4504 94.86 59.4804 95.24 60.3004 94.84C61.6704 94.19 63.1104 93.65 64.5904 93.22L66.3304 92.72L65.7004 91.02C65.1804 89.61 64.8304 88.15 64.6704 86.69C64.5704 85.82 63.8604 85.2 63.0104 85.2L63.0204 85.21Z" fill="#FEC52E"/>
<path d="M65.46 77.2394C65.06 77.2394 64.65 77.1394 64.27 76.9294C63.1 76.2694 62.68 74.7894 63.34 73.6194C64.21 72.0794 65.27 70.5994 66.49 69.2394C67.39 68.2394 68.93 68.1594 69.92 69.0594C70.92 69.9594 71 71.4994 70.11 72.4894C69.13 73.5894 68.28 74.7694 67.59 75.9994C67.14 76.7894 66.32 77.2394 65.47 77.2394H65.46Z" fill="#FEC52E"/>
<path d="M65.46 77.9893C64.92 77.9893 64.38 77.8493 63.9 77.5793C62.37 76.7193 61.82 74.7793 62.68 73.2493C63.57 71.6593 64.66 70.1393 65.92 68.7393C66.49 68.1093 67.27 67.7293 68.12 67.6893C68.97 67.6493 69.79 67.9293 70.42 68.4993C71.05 69.0693 71.43 69.8493 71.47 70.6993C71.51 71.5493 71.23 72.3693 70.66 72.9993C69.71 74.0493 68.9 75.1893 68.23 76.3693C67.67 77.3693 66.6 77.9993 65.45 77.9993L65.46 77.9893ZM68.3 69.1793C68.3 69.1793 68.24 69.1793 68.21 69.1793C67.76 69.1993 67.35 69.3993 67.05 69.7393C65.86 71.0593 64.84 72.4893 64 73.9793C63.55 74.7893 63.84 75.8193 64.65 76.2693C65.44 76.7193 66.5 76.4093 66.94 75.6293C67.66 74.3493 68.54 73.1293 69.56 71.9893C69.86 71.6593 70.01 71.2193 69.99 70.7793C69.97 70.3293 69.77 69.9193 69.43 69.6193C69.12 69.3393 68.72 69.1893 68.31 69.1893L68.3 69.1793Z" fill="#FEC52E"/>
</g>
<defs>
<clipPath id="clip0_2_4275">
<rect width="162.15" height="162.15" fill="white"/>
</clipPath>
</defs>
</svg>
