<svg width="163" height="163" viewBox="0 0 163 163" fill="none" xmlns="http://www.w3.org/2000/svg">
<g clip-path="url(#clip0_2_4293)">
<path d="M81.08 162.16C125.859 162.16 162.16 125.859 162.16 81.08C162.16 36.3008 125.859 0 81.08 0C36.3008 0 0 36.3008 0 81.08C0 125.859 36.3008 162.16 81.08 162.16Z" fill="#FAEFD2"/>
<mask id="mask0_2_4293" style="mask-type:luminance" maskUnits="userSpaceOnUse" x="19" y="15" width="123" height="123">
<path d="M80.6497 137.6C114.345 137.6 141.66 110.285 141.66 76.5901C141.66 42.8952 114.345 15.5801 80.6497 15.5801C46.9548 15.5801 19.6396 42.8952 19.6396 76.5901C19.6396 110.285 46.9548 137.6 80.6497 137.6Z" fill="white"/>
</mask>
<g mask="url(#mask0_2_4293)">
<path d="M122.95 67.7402C124.76 67.7402 129.41 69.6202 131.39 75.1902C131.43 75.2902 131.46 75.3902 131.5 75.4802C132.1 76.8802 134.7 83.8902 136.59 89.0302C136.37 89.9602 136.13 90.9102 135.89 91.8502C133.85 86.9002 132.04 82.5102 132 82.4302C131.22 80.5302 129.37 79.3402 127.38 79.3402C127.04 79.3402 126.69 79.3802 126.35 79.4502C123.99 79.9502 122.33 82.0502 122.38 84.4602L123.17 117.38L121.36 135.65L85.8901 141.93L42.0501 130.86L43.8801 122.72C43.9201 122.56 43.9501 122.39 43.9701 122.22L46.7801 98.9802C47.0801 96.4702 45.4701 94.1302 43.0201 93.5302C42.6201 93.4302 42.2101 93.3802 41.8201 93.3802C39.7901 93.3802 37.9101 94.6202 37.1501 96.5902L33.2301 106.84C32.9701 106.48 32.7401 106.16 32.5501 105.87L39.5801 85.3602C39.6701 85.0902 39.6901 85.0902 39.7301 84.8602C39.9801 84.1302 41.6101 80.3902 49.3301 80.3902C57.9301 80.3902 62.7301 80.3402 65.9101 80.3102C67.3901 80.3002 68.4801 80.2802 69.4001 80.2802C70.2501 80.2802 70.8601 80.6002 71.0601 80.7202C71.9501 81.5302 73.0201 81.9202 74.1801 81.9202C74.5101 81.9202 74.8401 81.8902 75.1801 81.8302C76.7401 81.5502 77.9401 80.4202 78.6401 79.0002L80.2001 75.8302C80.4201 75.4202 84.6701 67.7202 90.9501 67.7202H122.96M122.95 62.7402H90.9401C81.2701 62.7402 75.7301 73.6002 75.7301 73.6002L74.1501 76.8202C74.1501 76.8202 72.3001 75.3102 69.4001 75.3102C66.5001 75.3102 62.0001 75.4202 49.3301 75.4202C36.6601 75.4202 34.8601 83.7602 34.8601 83.7602L27.2501 105.95C26.6601 107.66 34.8601 116.62 34.8601 116.62L41.8301 98.4002L39.0201 121.64L36.1201 134.53L85.7201 147.05L125.97 139.92L128.19 117.58L127.4 84.3502C127.4 84.3502 134.06 100.46 136.27 105.96C138.17 104.48 141.82 88.7402 141.82 88.7402C141.82 88.7402 137.07 75.7502 136.11 73.5302C133.36 65.8202 126.76 62.7502 122.96 62.7502L122.95 62.7402Z" fill="#FEC52E"/>
<path d="M57.8201 46.6699C63.1901 46.6699 67.5601 51.0399 67.5601 56.4099C67.5601 61.7799 63.1901 66.1499 57.8201 66.1499C52.4501 66.1499 48.0801 61.7799 48.0801 56.4099C48.0801 51.0399 52.4501 46.6699 57.8201 46.6699ZM57.8201 41.6699C49.6801 41.6699 43.0801 48.2699 43.0801 56.4099C43.0801 64.5499 49.6801 71.1499 57.8201 71.1499C65.9601 71.1499 72.5601 64.5499 72.5601 56.4099C72.5601 48.2699 65.9601 41.6699 57.8201 41.6699Z" fill="#FEC52E"/>
<path d="M106.47 33.6699C111.93 33.6699 116.37 38.1099 116.37 43.5699C116.37 49.0299 111.93 53.4699 106.47 53.4699C101.01 53.4699 96.5703 49.0299 96.5703 43.5699C96.5703 38.1099 101.01 33.6699 106.47 33.6699ZM106.47 28.6699C98.2403 28.6699 91.5703 35.3399 91.5703 43.5699C91.5703 51.7999 98.2403 58.4699 106.47 58.4699C114.7 58.4699 121.37 51.7999 121.37 43.5699C121.37 35.3399 114.7 28.6699 106.47 28.6699Z" fill="#FEC52E"/>
<path d="M81.8704 92.1992C85.4404 92.1992 88.3404 95.0992 88.3404 98.6692C88.3404 102.239 85.4404 105.139 81.8704 105.139C78.3004 105.139 75.4004 102.239 75.4004 98.6692C75.4004 95.0992 78.3004 92.1992 81.8704 92.1992ZM81.8704 87.1992C75.5404 87.1992 70.4004 92.3292 70.4004 98.6692C70.4004 105.009 75.5304 110.139 81.8704 110.139C88.2104 110.139 93.3404 105.009 93.3404 98.6692C93.3404 92.3292 88.2104 87.1992 81.8704 87.1992Z" fill="#FEC52E"/>
<path d="M93.3304 148.129C93.3304 148.129 93.2704 148.129 93.2504 148.129L69.3004 147.339C67.9404 147.299 66.8704 146.179 66.8804 144.819L66.9404 136.919L65.1904 140.499C64.6304 141.649 63.2904 142.189 62.0904 141.749L52.9004 138.419C52.1804 138.159 51.6204 137.589 51.3804 136.869C51.1404 136.149 51.2404 135.349 51.6504 134.709L63.1404 116.969C63.7404 115.249 66.3704 109.689 75.0904 109.689H90.4604C94.4804 109.689 99.9104 114.389 101.83 119.559C103.14 122.719 108.89 131.339 110.99 134.389C111.43 135.019 111.55 135.819 111.32 136.549C111.09 137.279 110.54 137.869 109.83 138.139L101.59 141.309C100.45 141.749 99.1504 141.299 98.5304 140.239L95.8204 135.589V145.629C95.8204 146.309 95.5504 146.959 95.0604 147.429C94.5904 147.879 93.9704 148.129 93.3204 148.129H93.3304ZM71.9104 142.419L90.8404 143.049V126.339C90.8404 125.209 91.6004 124.219 92.6904 123.929C93.7804 123.639 94.9304 124.109 95.5004 125.079L101.8 135.879L105.12 134.599C102.69 130.969 98.4904 124.509 97.2004 121.389C95.7604 117.549 91.8804 114.689 90.4804 114.689H75.1104C68.9104 114.689 67.8804 118.599 67.8704 118.639C67.8004 118.909 67.6904 119.169 67.5404 119.409L57.5804 134.789L61.7004 136.279L67.3004 124.839C67.8104 123.789 68.9804 123.239 70.1204 123.509C71.2604 123.779 72.0604 124.799 72.0504 125.959L71.9204 142.419H71.9104Z" fill="#FEC52E"/>
</g>
</g>
<defs>
<clipPath id="clip0_2_4293">
<rect width="162.15" height="162.15" fill="white"/>
</clipPath>
</defs>
</svg>
