<svg width="163" height="163" viewBox="0 0 163 163" fill="none" xmlns="http://www.w3.org/2000/svg">
<g clip-path="url(#clip0_2_4383)">
<path d="M162.15 81.08C162.15 125.86 125.85 162.16 81.07 162.16C36.29 162.16 0 125.85 0 81.08C0 36.31 36.3 0 81.08 0C125.86 0 162.16 36.3 162.16 81.08" fill="#FAEFD2"/>
<path d="M91.7599 99.0697H74.8699V83.8197H59.6299V66.9297H74.8699V51.6797H91.7599V66.9297H107.01V83.8197H91.7599V99.0697ZM79.8599 94.0697H86.7499V78.8197H102V71.9297H86.7499V56.6797H79.8599V71.9297H64.6199V78.8197H79.8599V94.0697Z" fill="#FEC52E"/>
<path d="M48.6103 129.25C46.8603 129.25 45.1403 129.07 43.4403 128.71C42.5103 128.52 41.3403 127.86 40.9303 126.59C40.7703 126.09 40.5203 124.79 41.7103 123.5C42.0003 123.18 42.4503 122.79 43.0603 122.26C48.4703 117.54 53.3603 111.92 48.7803 105.97C39.5903 97.7701 34.5303 86.8201 34.5303 75.1101C34.5303 51.2501 55.9003 31.8301 82.1703 31.8301C108.44 31.8301 129.82 51.2401 129.82 75.1101C129.82 98.9801 108.44 118.38 82.1703 118.38C81.1003 118.38 79.9903 118.34 78.8003 118.26C78.6903 118.26 78.5703 118.26 78.4603 118.26C76.5803 118.09 73.4503 118.29 72.4603 119.11C64.4003 125.81 56.2603 129.25 48.6103 129.25ZM48.3203 124.25C56.4103 124.34 64.0303 119.62 69.2603 115.27C72.0003 112.99 76.9703 113.13 78.5903 113.25C78.6703 113.25 78.7503 113.25 78.8303 113.25C80.0303 113.33 81.1203 113.37 82.1703 113.37C105.69 113.37 124.82 96.2001 124.82 75.1001C124.82 54.0001 105.69 36.8201 82.1703 36.8201C58.6503 36.8201 39.5303 53.9901 39.5303 75.1001C39.5303 85.4301 44.0503 95.1101 52.2703 102.36C52.3803 102.46 52.4803 102.56 52.5703 102.68C59.7603 111.7 52.7703 120.03 48.3303 124.23L48.3203 124.25ZM44.4703 123.82C44.4703 123.82 44.4903 123.82 44.5003 123.82C44.5003 123.82 44.4803 123.82 44.4703 123.82Z" fill="#FEC52E"/>
</g>
<defs>
<clipPath id="clip0_2_4383">
<rect width="162.15" height="162.15" fill="white"/>
</clipPath>
</defs>
</svg>
