<svg width="163" height="163" viewBox="0 0 163 163" fill="none" xmlns="http://www.w3.org/2000/svg">
<g clip-path="url(#clip0_2_4136)">
<path d="M96.9805 27.3809C99.9105 27.7509 102.67 28.4509 105.24 29.4909L96.9805 27.3809Z" fill="white"/>
<path d="M81.08 162.16C125.859 162.16 162.16 125.859 162.16 81.08C162.16 36.3008 125.859 0 81.08 0C36.3008 0 0 36.3008 0 81.08C0 125.859 36.3008 162.16 81.08 162.16Z" fill="#D9E8E7"/>
<path d="M80.8603 140.14C80.7303 140.14 80.6003 140.13 80.4803 140.11C78.8603 140.08 77.5103 139.99 76.2603 139.82C72.3903 139.34 68.6703 138.25 65.2303 136.57C64.4603 136.19 63.9303 135.45 63.8403 134.59C63.7503 133.73 64.1003 132.89 64.7703 132.36C72.7803 126.02 75.1503 115.49 75.8503 109.77C77.8403 93.3095 72.5003 84.4895 67.6703 79.9895C66.9503 79.3195 66.6903 78.2795 67.0103 77.3495C67.7003 75.3195 68.6803 73.3995 69.9103 71.6095C60.7503 65.9695 55.7003 56.5795 56.9003 47.0095C57.7403 40.0395 61.7403 33.8895 68.1503 29.7095C74.4203 25.6295 82.2803 23.9095 90.2903 24.8795C93.4103 25.2695 96.3803 26.0195 99.1203 27.1295C100.11 27.4695 108.06 30.4395 115.28 39.2495C127.7 54.3995 128.21 74.8795 126.45 89.3895C122.59 120.92 106.36 133.06 93.4003 137.68C89.7303 139.17 85.7303 139.99 81.4903 140.12C81.4203 140.12 81.3503 140.12 81.2803 140.12C81.2103 140.12 81.1603 140.12 81.1103 140.12C81.0303 140.12 80.9503 140.13 80.8703 140.13L80.8603 140.14ZM81.1303 135.12C81.2303 135.12 81.3303 135.12 81.4403 135.12C85.0503 135.01 88.4603 134.3 91.5503 133.04C91.5903 133.03 91.6203 133.01 91.6603 133C103.3 128.86 117.93 117.83 121.48 88.7895C127.1 42.3895 98.6603 32.2595 97.4503 31.8495C97.4003 31.8295 97.3503 31.8095 97.3003 31.7995C94.9403 30.8495 92.3703 30.1895 89.6703 29.8595C82.8403 29.0295 76.1603 30.4695 70.8703 33.9195C65.7203 37.2795 62.5103 42.1495 61.8503 47.6395C60.8103 55.9795 65.8903 64.2095 74.7903 68.6295C75.4903 68.9795 75.9903 69.6295 76.1303 70.3995C76.2703 71.1695 76.0603 71.9595 75.5303 72.5395C74.1603 74.0595 73.0703 75.7395 72.2803 77.5495C77.6003 83.1295 82.8903 93.1595 80.8003 110.39C80.1003 116.11 77.8803 126.12 70.8903 133.51C72.8103 134.16 74.8203 134.61 76.8803 134.87C78.0203 135.02 79.2403 135.1 80.7603 135.12C80.8403 135.12 80.9303 135.12 81.0103 135.14C81.0403 135.14 81.0803 135.14 81.1103 135.14L81.1303 135.12Z" fill="#00B0A9"/>
<path d="M54.4499 139.48C54.3499 139.48 54.2499 139.48 54.1499 139.46C53.2199 139.44 52.4399 139.39 51.7199 139.29C41.7899 138.06 34.5299 130.07 35.5699 121.48C36.2199 116.22 39.7899 111.81 45.0699 109.54C44.8399 108.22 44.8099 106.88 44.9699 105.54C45.1899 103.67 45.8099 101.87 46.7799 100.21C41.8599 96.7703 39.2099 91.4103 39.8899 85.9403C40.3999 81.7003 42.8199 77.9703 46.6999 75.4403C50.4399 73.0103 55.1199 71.9803 59.8599 72.5603C61.6999 72.7903 63.4599 73.2403 65.0799 73.8903C65.8299 74.1603 70.4599 75.9603 74.6099 81.0303C78.5999 85.8903 82.9599 94.8703 81.1299 110.02C80.1199 118.28 76.2699 132.88 61.8699 138.04C59.6899 138.92 57.3199 139.41 54.8199 139.48C54.7499 139.48 54.6799 139.48 54.6099 139.48C54.5499 139.48 54.4999 139.48 54.4399 139.48H54.4499ZM54.6999 139.47C54.6999 139.47 54.6499 139.47 54.6199 139.47C54.6399 139.47 54.6699 139.47 54.6999 139.47ZM54.5999 134.48C54.6499 134.48 54.7099 134.48 54.7799 134.48C56.6599 134.42 58.4399 134.05 60.0399 133.39C60.0799 133.37 60.1099 133.36 60.1499 133.35C66.3999 131.13 74.2499 125.17 76.1799 109.42C79.2199 84.3303 64.0599 78.8303 63.4199 78.6103C63.3799 78.6003 63.3199 78.5703 63.2799 78.5603C62.0399 78.0603 60.6899 77.7203 59.2699 77.5403C55.6899 77.1103 52.1999 77.8503 49.4399 79.6503C46.8199 81.3603 45.1999 83.8103 44.8599 86.5703C44.3299 90.7903 46.9499 94.9803 51.5299 97.2503C52.2299 97.6003 52.7299 98.2503 52.8699 99.0203C53.0099 99.7903 52.7999 100.58 52.2699 101.16C50.9499 102.62 50.1499 104.35 49.9299 106.16C49.7599 107.56 49.9299 108.95 50.4099 110.28C50.6499 110.93 50.6099 111.65 50.2899 112.27C49.9699 112.89 49.4199 113.35 48.7499 113.54C44.1599 114.85 41.0099 118.14 40.5199 122.1C39.8099 127.95 45.1199 133.44 52.3399 134.34C52.9399 134.42 53.5899 134.46 54.3999 134.47C54.4599 134.47 54.5199 134.47 54.5699 134.47H54.5799L54.5999 134.48Z" fill="#00B0A9"/>
</g>
<defs>
<clipPath id="clip0_2_4136">
<rect width="162.15" height="162.15" fill="white"/>
</clipPath>
</defs>
</svg>
