<svg width="163" height="163" viewBox="0 0 163 163" fill="none" xmlns="http://www.w3.org/2000/svg">
<g clip-path="url(#clip0_2_4210)">
<path d="M81.08 162.16C125.859 162.16 162.16 125.859 162.16 81.08C162.16 36.3008 125.859 0 81.08 0C36.3008 0 0 36.3008 0 81.08C0 125.859 36.3008 162.16 81.08 162.16Z" fill="#FAEFD2"/>
<path d="M105.31 116.639L99.05 108.889C98.06 107.659 98.93 105.829 100.51 105.829H107.14C106.6 103.959 105.78 102.189 104.75 100.549H90.49C89.35 100.549 88.38 101.159 87.89 102.189C87.4 103.219 87.53 104.359 88.25 105.239L103.55 124.169C105.11 122.049 106.31 119.729 107.05 117.289C106.42 117.379 105.75 117.169 105.31 116.619V116.639Z" fill="white"/>
<path d="M73.5195 31.5098C84.2395 31.5098 93.0995 37.9198 94.1295 46.4498C94.9795 53.2798 90.6595 60.1098 83.0995 63.8598C81.4195 64.6898 80.2295 66.2598 79.8695 68.1098C79.5095 69.9598 80.0495 71.8498 81.2995 73.2498C83.4296 75.6198 84.7295 78.3998 85.0795 81.3198C85.3495 83.5498 85.0896 85.7798 84.2995 87.9198C83.7995 89.2798 83.8095 90.7698 84.3195 92.1098C81.9895 93.3798 80.0595 95.3698 78.8595 97.8898C76.6995 102.41 77.3195 107.64 80.4595 111.54L92.3795 126.29C89.3595 128.1 85.8495 129.31 82.1295 129.77C82.1095 129.77 82.0895 129.77 82.0695 129.77C81.0995 129.9 80.0095 129.97 78.6295 129.98C78.5095 129.98 78.3895 129.98 78.2795 129.99C78.1995 129.99 78.1095 129.99 78.0195 129.99C74.8695 129.88 71.9095 129.27 69.2395 128.17C69.1495 128.13 69.0695 128.1 68.9795 128.07C58.2696 124.26 44.7995 113.99 41.4595 86.7398C36.2495 43.7498 61.6695 34.0598 63.1195 33.5398C63.2595 33.4898 63.3195 33.4698 63.4695 33.4098C65.5495 32.5698 67.8195 31.9898 70.2095 31.6998C71.3095 31.5698 72.4295 31.4998 73.5295 31.4998M73.5195 25.5098C72.1895 25.5098 70.8396 25.5898 69.4795 25.7598C66.5495 26.1298 63.7895 26.8298 61.2195 27.8698C61.2195 27.8698 29.5395 38.2898 35.4995 87.4798C39.2895 118.48 55.5195 129.67 66.9595 133.74C70.3195 135.12 74.0896 135.9 78.0495 136.01C78.1595 136.01 78.2495 136.01 78.3295 136.01C78.4295 136.01 78.5195 136.01 78.5895 136.02H78.6295L78.7095 135.99C80.0895 135.97 81.4895 135.91 82.8695 135.72C90.1096 134.82 96.3995 131.68 100.88 127.25L85.1295 107.76C83.4495 105.68 83.1195 102.89 84.2695 100.47C85.4195 98.0598 87.7995 96.5598 90.4795 96.5598H101.47C98.4095 93.5598 94.4395 91.2798 89.9295 89.9898C91.0195 87.0298 91.4295 83.8398 91.0295 80.5898C90.5195 76.2698 88.5995 72.3998 85.7595 69.2398C95.3095 64.4998 101.28 55.3398 100.07 45.7098C98.6495 33.9598 87.1395 25.5098 73.4995 25.5098H73.5195Z" fill="#FEC52E"/>
<path d="M125.65 102.201C125.16 101.171 124.19 100.561 123.05 100.561H90.49C89.35 100.561 88.38 101.171 87.89 102.201C87.4 103.231 87.53 104.371 88.25 105.251L104.53 125.401C105.08 126.081 105.9 126.471 106.77 126.471C107.64 126.471 108.46 126.081 109.01 125.401L125.29 105.251C126 104.371 126.14 103.221 125.65 102.201ZM114.49 108.901L108.23 116.651C107.48 117.581 106.06 117.581 105.31 116.651L99.05 108.901C98.06 107.671 98.93 105.841 100.51 105.841H113.03C114.61 105.841 115.48 107.671 114.49 108.901Z" fill="#FEC52E"/>
</g>
<defs>
<clipPath id="clip0_2_4210">
<rect width="162.15" height="162.15" fill="white"/>
</clipPath>
</defs>
</svg>
