<svg width="163" height="163" viewBox="0 0 163 163" fill="none" xmlns="http://www.w3.org/2000/svg">
<g clip-path="url(#clip0_2_4179)">
<path d="M162.15 81.08C162.15 125.86 125.85 162.16 81.07 162.16C36.29 162.16 0 125.85 0 81.08C0 36.31 36.3 0 81.08 0C125.86 0 162.16 36.3 162.16 81.08" fill="#D9E8E7"/>
<path d="M107.69 142.41H107.55C105.12 142.27 102.83 141.13 101.26 139.27L101.17 139.16L95.05 130.99L89.02 139.22C87.47 141.11 85.17 142.27 82.73 142.4H82.59H68.67C66.96 142.4 65.6 141.66 64.95 140.37C64.3 139.08 64.5 137.54 65.52 136.16L81.52 114.62C81.84 114.12 81.84 113.48 81.52 112.98L69.04 96.3395C68.38 95.5695 67.43 95.0895 66.42 95.0095C66.18 95.0295 66.06 95.1695 66.06 95.3295V113.1C66.04 116.04 63.65 118.41 60.73 118.41H50.42C47.5 118.4 45.12 116.02 45.11 113.11V56.6695L45.08 54.7795V42.3695H40.72C39.66 42.4095 38.66 42.0595 37.86 41.3595C37.04 40.6395 36.55 39.6495 36.48 38.5595C36.44 37.9795 36.53 37.3995 36.73 36.8495L36.93 36.3295L53.25 20.3795L53.57 20.2095C54.85 19.5395 56.38 19.5395 57.67 20.2095L57.98 20.3695L74.53 36.1895L74.72 36.5295C75.01 37.0595 75.87 38.8995 74.93 40.5995C74.6 41.2095 73.77 42.2395 71.97 42.3495C71.5 42.3795 70.35 42.4295 66.04 42.4395V49.5595H70.48C72.13 49.5595 74.73 49.6095 76.2 49.6595C78.45 49.7395 80.7 49.9395 82.91 50.2495C85.9 50.7395 88.67 51.7895 91.19 53.3795C93.73 54.9795 95.9 57.1795 97.44 59.7595C99.12 62.8195 99.92 66.1895 99.81 69.5895C100 74.3295 98.72 78.9195 96.09 82.8795L95.94 83.0795C93.93 85.5295 91.57 87.6395 88.91 89.3495H88.92L88.87 89.4795L94.62 96.9795L100.45 89.1195C102.01 87.2395 104.3 86.0895 106.74 85.9495H106.88H120.24C121.95 85.9495 123.31 86.6895 123.97 87.9795C124.63 89.2695 124.42 90.8095 123.41 92.1895L108.17 113.02C107.86 113.51 107.87 114.15 108.19 114.64L124.67 136.11C125.72 137.48 125.96 139.01 125.32 140.32C124.68 141.62 123.32 142.37 121.59 142.37H107.68L107.69 142.41ZM105.13 136.1C105.8 136.87 106.76 137.34 107.77 137.41H119.35L104.13 117.58C102.6 115.4 102.57 112.45 104.05 110.24L104.11 110.15L118.14 90.9695H106.97C105.96 91.0395 105.01 91.5195 104.35 92.2895L98.4 100.3C97.75 101.27 96.77 101.95 95.63 102.2C94.45 102.47 93.24 102.26 92.22 101.61C91.7 101.28 91.26 100.86 90.91 100.36L84.91 92.5395C83.21 90.3795 83.58 87.1995 85.76 85.4795C85.92 85.3495 86.08 85.2495 86.24 85.1395C88.39 83.7495 90.34 82.0195 92 80.0195C94.01 76.9495 94.98 73.3895 94.81 69.7195V69.6095V69.4995C94.91 66.9695 94.32 64.4595 93.1 62.2495C92.01 60.4295 90.4 58.7895 88.52 57.6095C86.56 56.3795 84.42 55.5695 82.15 55.1895C80.17 54.9095 78.09 54.7295 76.03 54.6495C74.61 54.6095 72.08 54.5595 70.48 54.5595H61.04V37.4395H63.54C65.78 37.4295 67.39 37.4395 68.59 37.4195L55.63 25.0395L43.02 37.3595L50.07 37.3895V52.2695H50.14L50.11 55.0295V113.09C50.11 113.26 50.26 113.4 50.44 113.4H60.74C60.92 113.4 61.07 113.25 61.07 113.07V95.3195C61.07 92.3895 63.45 89.9995 66.38 89.9895H66.62C69.06 90.1295 71.35 91.2795 72.92 93.1495L73 93.2595L85.63 110.1C87.15 112.32 87.16 115.2 85.66 117.43L85.59 117.52L70.84 137.37H82.52C83.52 137.3 84.47 136.83 85.12 136.06L91.29 127.62C92.61 125.6 95.32 124.98 97.39 126.25C97.94 126.59 98.41 127.04 98.77 127.57L105.13 136.05V136.1ZM50.09 55.1795V55.2095C50.09 55.2095 50.09 55.1895 50.09 55.1795ZM45.14 54.4995C45.14 54.4995 45.14 54.5195 45.14 54.5395V54.4995ZM65.84 83.5495L65.54 83.5295C62.82 83.1995 60.88 80.8395 61.06 78.1195V66.6695C60.99 63.8495 63.27 61.4295 66.16 61.3395C67.74 61.3395 70.22 61.3595 71.79 61.3895C71.84 61.3895 72.45 61.3995 73.74 61.5295C75.11 61.6295 76.5 61.9695 77.81 62.5195C79.59 63.2295 81.13 64.5695 82.09 66.2895L82.14 66.3895C82.95 68.0095 83.36 69.8195 83.33 71.6295C83.39 73.4595 83.08 75.2395 82.41 76.9395L82.37 77.0395C81.69 78.5495 80.63 79.8795 79.31 80.8895C77.87 82.0395 76.09 82.8095 74.22 83.0995C73.22 83.2695 72.16 83.3895 71.1 83.4395C69.46 83.4895 67.16 83.5395 65.86 83.5395L65.84 83.5495ZM66.24 66.3395C66.17 66.3395 66.06 66.4595 66.06 66.6095V78.3395V78.4495C66.06 78.4895 66.08 78.5295 66.11 78.5495C67.39 78.5495 69.48 78.4995 70.9 78.4495C71.71 78.4095 72.57 78.3195 73.41 78.1695C74.47 77.9995 75.44 77.5795 76.25 76.9395C76.95 76.4095 77.47 75.7595 77.81 75.0095C78.21 73.9595 78.39 72.8695 78.35 71.7395V71.6595V71.5795C78.38 70.5795 78.16 69.5795 77.72 68.6895C77.32 67.9995 76.69 67.4495 75.94 67.1595C75.07 66.7995 74.21 66.5895 73.33 66.5195C72.26 66.4195 71.77 66.3995 71.71 66.3995C70.16 66.3595 67.72 66.3495 66.26 66.3495L66.24 66.3395Z" fill="#00B0A9"/>
</g>
<defs>
<clipPath id="clip0_2_4179">
<rect width="162.15" height="162.15" fill="white"/>
</clipPath>
</defs>
</svg>
