<svg width="163" height="163" viewBox="0 0 163 163" fill="none" xmlns="http://www.w3.org/2000/svg">
<g clip-path="url(#clip0_2_4173)">
<path d="M81.08 162.16C125.859 162.16 162.16 125.859 162.16 81.08C162.16 36.3008 125.859 0 81.08 0C36.3008 0 0 36.3008 0 81.08C0 125.859 36.3008 162.16 81.08 162.16Z" fill="#D9E8E7"/>
<path d="M81.19 140.399C74.75 140.399 69.94 134.389 69.94 129.009C69.94 122.359 74.78 117.339 81.19 117.339C87.95 117.339 92.86 122.249 92.86 129.009C92.86 134.509 88.17 140.399 81.19 140.399ZM81.19 122.339C77.57 122.339 74.94 125.149 74.94 129.009C74.94 131.909 77.73 135.399 81.19 135.399C85.12 135.399 87.86 132.029 87.86 129.009C87.86 124.959 85.24 122.339 81.19 122.339ZM88.41 112.039H74.24C72.86 112.039 71.74 110.919 71.74 109.539V98.1491C71.74 84.4291 80.64 79.9191 89.24 75.5591L89.32 75.5191C89.45 75.4191 89.58 75.3191 89.73 75.2391L89.87 75.1691C94.91 72.4491 98.89 70.2891 99.12 63.4691C99.23 59.9991 97.9 56.6491 95.38 54.0391C92.12 50.6691 87.08 48.8191 81.19 48.8191C70.87 48.8191 65.16 56.1391 62.18 62.2791C61.88 62.8991 61.33 63.3691 60.67 63.5791C60.01 63.7891 59.29 63.7091 58.69 63.3591L47.3 56.8291C46.17 56.1791 45.73 54.7791 46.28 53.5991C53.58 37.9791 65.98 29.3691 81.2 29.3691C92.57 29.3691 102.65 33.2491 109.58 40.2991C115.8 46.6191 119.14 54.9891 118.99 63.8691C118.55 81.2991 107.72 87.1091 99.01 91.7891L97.24 92.7291C93.22 94.8491 90.78 96.2891 90.78 98.2891L90.92 109.509C90.92 110.179 90.67 110.819 90.2 111.299C89.73 111.779 89.09 112.039 88.42 112.039H88.41ZM76.74 107.039H85.88L85.77 98.3191C85.77 93.1291 90.41 90.6791 94.9 88.3091L96.63 87.3891C104.98 82.9091 113.61 78.2691 113.97 63.7691C114.1 56.2691 111.26 49.1691 105.99 43.8091C99.92 37.6391 91.34 34.3691 81.17 34.3691C64.86 34.3691 56.02 45.6391 51.8 53.6591L58.9 57.7291C64.05 48.7391 71.88 43.8191 81.16 43.8191C88.41 43.8191 94.73 46.2091 98.94 50.5591C102.41 54.1391 104.24 58.7791 104.09 63.6291C103.78 73.0391 97.75 76.5791 92.69 79.3191C92.53 79.4591 92.36 79.5791 92.16 79.6791L91.48 80.0291C83.23 84.2091 76.72 87.5091 76.72 98.1591V107.049L76.74 107.039Z" fill="#00B0A9"/>
</g>
<defs>
<clipPath id="clip0_2_4173">
<rect width="162.15" height="162.15" fill="white"/>
</clipPath>
</defs>
</svg>
