<svg width="163" height="163" viewBox="0 0 163 163" fill="none" xmlns="http://www.w3.org/2000/svg">
<g clip-path="url(#clip0_2_4369)">
<path d="M81.08 162.16C125.859 162.16 162.16 125.859 162.16 81.08C162.16 36.3008 125.859 0 81.08 0C36.3008 0 0 36.3008 0 81.08C0 125.859 36.3008 162.16 81.08 162.16Z" fill="#FAEFD2"/>
<path d="M131.43 105.531L127.42 101.521C126.36 100.461 124.65 100.461 123.6 101.521L118.78 106.341L113.24 100.801L124.27 89.7709C125.17 88.8709 125.17 87.4009 124.27 86.4909L119.91 82.1309C119.01 81.2309 117.54 81.2309 116.63 82.1309L111.2 87.5609L72.9298 49.2909C72.3298 48.6909 71.5398 48.3909 70.7598 48.3909C69.9798 48.3909 69.1898 48.6909 68.5898 49.2909L64.2098 53.6709C64.2098 53.6709 64.1898 53.6409 64.1798 53.6209L61.5598 51.0009C60.8898 50.3309 59.7998 50.3309 59.1298 51.0009L57.4498 52.6809L41.1698 36.4009C39.8098 35.0409 37.4298 35.0409 36.0698 36.4009C35.3898 37.0809 35.0098 37.9909 35.0098 38.9509C35.0098 39.9109 35.3898 40.8209 36.0698 41.5009L52.3498 57.7809L50.6698 59.4609C49.9998 60.1309 49.9998 61.2209 50.6698 61.8909L53.2898 64.5109C53.2898 64.5109 53.3198 64.5309 53.3398 64.5409L48.9598 68.9209C47.7598 70.1209 47.7598 72.0609 48.9598 73.2609L87.2298 111.531L81.7998 116.961C80.8898 117.861 80.8898 119.331 81.7998 120.241L86.1598 124.601C87.0598 125.501 88.5298 125.501 89.4398 124.601L100.47 113.571L106.01 119.111L101.19 123.931C100.13 124.991 100.13 126.701 101.19 127.751L105.2 131.761C106.26 132.821 107.97 132.821 109.02 131.761L131.43 109.351C132.49 108.291 132.49 106.581 131.43 105.531ZM92.9398 105.811L58.2198 71.0909L70.7598 58.5509L105.48 93.2709L92.9398 105.811Z" fill="#FEC52E"/>
<path d="M107.11 133.551C106.12 133.551 105.19 133.161 104.49 132.461L100.48 128.451C99.7798 127.751 99.3998 126.821 99.3998 125.831C99.3998 124.841 99.7898 123.911 100.48 123.211L104.59 119.091L100.46 114.961L90.1298 125.291C88.8798 126.541 86.6898 126.541 85.4398 125.291L81.0798 120.931C79.7898 119.641 79.7898 117.531 81.0798 116.241L85.7998 111.521L48.2398 73.9609C47.4698 73.1909 47.0498 72.1709 47.0498 71.0809C47.0498 69.9909 47.4698 68.9709 48.2398 68.2009L51.9098 64.5309L49.9598 62.5809C48.8998 61.5209 48.8998 59.7909 49.9598 58.7409L50.9298 57.7709L35.3598 42.2009C34.4898 41.3309 34.0098 40.1709 34.0098 38.9509C34.0098 37.7309 34.4898 36.5609 35.3598 35.6909C36.1898 34.8609 37.3798 34.3809 38.6098 34.3809C39.8398 34.3809 41.0298 34.8609 41.8698 35.6909L57.4398 51.2609L58.4098 50.2909C59.4298 49.2709 61.2298 49.2609 62.2598 50.2909L64.2098 52.2409L67.8798 48.5709C68.6498 47.8009 69.6698 47.3809 70.7598 47.3809C71.8498 47.3809 72.8698 47.8009 73.6398 48.5709L111.2 86.1309L115.92 81.4109C117.21 80.1209 119.32 80.1209 120.61 81.4109L124.97 85.7709C126.26 87.0609 126.26 89.1709 124.97 90.4609L114.64 100.791L118.77 104.921L122.89 100.811C124.29 99.4109 126.73 99.4109 128.13 100.811L132.14 104.821C132.84 105.521 133.23 106.451 133.23 107.441C133.23 108.431 132.84 109.361 132.14 110.061L109.73 132.471C109.03 133.171 108.1 133.561 107.11 133.561V133.551ZM100.46 112.151L107.42 119.111L101.89 124.641C101.57 124.961 101.39 125.391 101.39 125.851C101.39 126.311 101.57 126.731 101.89 127.061L105.9 131.071C106.54 131.711 107.67 131.711 108.31 131.071L130.72 108.661C131.04 108.341 131.22 107.911 131.22 107.451C131.22 106.991 131.04 106.571 130.72 106.241L126.71 102.231C126.07 101.591 124.94 101.591 124.3 102.231L118.77 107.761L111.81 100.801L123.55 89.0609C124.06 88.5509 124.06 87.7109 123.55 87.2009L119.19 82.8409C118.68 82.3309 117.84 82.3309 117.33 82.8409L111.2 88.9809L72.2198 50.0109C71.4398 49.2309 70.0698 49.2309 69.2898 50.0109L64.1898 55.1109L63.3698 54.2509L60.8398 51.7209C60.5698 51.4509 60.0898 51.4509 59.8198 51.7209L57.4398 54.1009L40.4498 37.1109C39.5198 36.1809 37.6898 36.1809 36.7698 37.1109C36.2798 37.6009 36.0098 38.2609 36.0098 38.9509C36.0098 39.6409 36.2798 40.3009 36.7698 40.7909L53.7598 57.7809L51.3798 60.1609C51.2498 60.2909 51.1698 60.4709 51.1698 60.6709C51.1698 60.8709 51.2398 61.0409 51.3798 61.1809L54.7498 64.5409L49.6598 69.6309C49.2698 70.0209 49.0498 70.5409 49.0498 71.0909C49.0498 71.6409 49.2698 72.1609 49.6598 72.5509L88.6298 111.521L82.4998 117.651C81.9898 118.161 81.9898 119.001 82.4998 119.511L86.8598 123.871C87.3598 124.371 88.2198 124.371 88.7198 123.871L100.46 112.131V112.151ZM92.9398 107.231L56.7998 71.0909L70.7598 57.1309L106.9 93.2709L92.9398 107.231ZM59.6298 71.0909L92.9398 104.401L104.07 93.2709L70.7598 59.9609L59.6298 71.0909Z" fill="#FAEFD2"/>
</g>
<defs>
<clipPath id="clip0_2_4369">
<rect width="162.15" height="162.15" fill="white"/>
</clipPath>
</defs>
</svg>
