<svg xmlns="http://www.w3.org/2000/svg" width="33.25" height="35.455" viewBox="0 0 33.25 35.455"><path fill="#103a71" d="M33.25 35.455h-5.985a1.716 1.716 0 01-1.208-.4 3.714 3.714 0 01-.718-.893l-8.924-13.897q-.14.49-.3.962a3.13 3.13 0 01-.438.858L7.42 34.16a7.069 7.069 0 01-.753.893 1.49 1.49 0 01-1.1.4H0l12.425-18.198L.495 0h5.98a1.992 1.992 0 011.12.245 2.32 2.32 0 01.63.7l8.715 13.3a7.324 7.324 0 01.875-1.96l7.63-11.2a3.287 3.287 0 01.683-.788 1.373 1.373 0 01.892-.3h5.74L20.825 16.94z"/></svg>