<svg width="880" height="356" viewBox="0 0 880 356" fill="none" xmlns="http://www.w3.org/2000/svg"><g clip-path="url(#clip0_5_51569)"><path d="M880.248 4.133H63.926v292.744h816.322V4.133z" fill="#fff"/><path d="M527.399 3.717H62.644l-.045 242.712 816.552-112.746.018-129.966h-351.77z" fill="#F9BEA0"/><path d="M879.708 133.666L62.856 246.448v16.335l817.197-59.858-.345-69.25v-.009z" fill="#BFD0E3"/><path d="M880.239 203.058L62.856 262.96v33.917h817.383v-93.828.009z" fill="#8BAACD"/><path d="M879.124 296.257H62.599V3.248" stroke="#fff" stroke-width="2.553"/><path d="M3.06 250.699v4.688h13.364v3.325H3.06v4.688H.38v-12.701h2.68zm1.787-4.076c0-.858.132-1.637.406-2.335.275-.699.664-1.3 1.168-1.805.504-.504 1.114-.884 1.84-1.158.725-.274 1.538-.407 2.44-.407.903 0 1.725.133 2.45.407A5.26 5.26 0 0115 242.483a5.092 5.092 0 011.167 1.805c.274.698.407 1.477.407 2.335 0 .857-.133 1.645-.407 2.352A5.04 5.04 0 0115 250.779a5.233 5.233 0 01-1.849 1.168c-.725.274-1.538.415-2.45.415-.91 0-1.724-.141-2.44-.415a5.118 5.118 0 01-1.84-1.168 5.203 5.203 0 01-1.168-1.804c-.274-.699-.406-1.486-.406-2.352zm9.454 0c0-.867-.3-1.513-.902-1.937-.601-.425-1.495-.628-2.68-.628s-2.07.212-2.67.628c-.602.415-.903 1.061-.903 1.937 0 .875.3 1.547.902 1.963.602.424 1.495.628 2.671.628 1.177 0 2.079-.212 2.68-.628.601-.416.902-1.079.902-1.963zm2.299-11.347c0 .513-.08.973-.23 1.371-.15.398-.362.734-.645 1.008-.283.274-.62.478-1.017.619a4.011 4.011 0 01-1.353.212H7.208v1.071c0 .159-.053.3-.16.415-.105.115-.256.168-.46.168H5.396l-.336-1.822-2.954-.619c-.336-.079-.495-.309-.495-.672v-1.592h3.466v-2.945H7.2v2.945h5.943c.319 0 .566-.071.752-.23.186-.15.274-.371.274-.645 0-.151-.017-.275-.053-.372a2.074 2.074 0 00-.106-.265 1.524 1.524 0 01-.106-.204.376.376 0 01-.053-.194.36.36 0 01.062-.221.695.695 0 01.203-.177l1.46-.92c.336.416.583.893.751 1.424a5.42 5.42 0 01.257 1.645h.018zm-9.993-4.157a6.972 6.972 0 01-1.354-2.22 7.519 7.519 0 01-.45-2.627c0-.681.106-1.282.335-1.822.222-.53.531-.99.92-1.362a4.222 4.222 0 011.406-.858 5.327 5.327 0 011.796-.3h7.164v1.397c0 .292-.044.504-.124.655-.08.15-.248.274-.513.371l-.725.239c.247.292.468.566.663.831s.354.549.478.832c.132.291.23.592.291.919.062.328.098.699.098 1.097 0 .504-.071.955-.204 1.371a2.934 2.934 0 01-.592 1.07 2.596 2.596 0 01-.982.69c-.39.159-.84.239-1.353.239-.416 0-.84-.106-1.256-.319-.416-.212-.805-.583-1.14-1.096-.346-.522-.629-1.212-.85-2.079-.221-.867-.354-1.954-.38-3.254H9.25c-.716 0-1.238.15-1.574.451-.336.3-.504.734-.504 1.309 0 .415.053.769.15 1.052.097.283.203.522.318.734.115.212.221.407.319.593.097.185.15.398.15.636 0 .213-.053.39-.16.54a1.476 1.476 0 01-.38.363l-.972.539.009.009zm5.058-6.209c.036.743.107 1.362.195 1.857.088.496.212.885.363 1.177.15.292.318.495.504.619.185.124.389.186.61.186.442 0 .752-.124.938-.372.185-.247.274-.592.274-1.035 0-.513-.089-.946-.274-1.317-.177-.372-.46-.743-.85-1.115h-1.768.008zm-11.718-8.437h16.486v3.051H-.053v-3.051zm7.058-11.534v-.654c0-.548-.168-.938-.505-1.185l-5.43-4.06c-.256-.194-.433-.398-.54-.628a2.162 2.162 0 01-.15-.84v-2.874l6.58 5.112c.425.336.734.672.92 1.026.106-.257.239-.487.407-.699.168-.203.39-.407.654-.593l7.483-5.235v2.954c0 .194-.018.353-.045.495a1.34 1.34 0 01-.123.362.854.854 0 01-.195.266c-.08.071-.168.141-.274.212l-5.767 4.121c-.203.142-.344.31-.424.496-.08.185-.124.46-.124.805v.928h6.952v3.317H.38v-3.317h6.625v-.009zm-5.219-15.132c.257 0 .496.053.717.159a1.95 1.95 0 01.982 1.026c.097.23.141.477.141.743a1.821 1.821 0 01-.539 1.309 2.09 2.09 0 01-.584.406c-.221.107-.46.151-.717.151-.256 0-.495-.053-.725-.151a1.81 1.81 0 01-.592-.406 1.84 1.84 0 01-.54-1.309c0-.266.044-.513.142-.743.097-.23.23-.434.398-.61.168-.177.362-.31.592-.416.221-.106.469-.159.725-.159zm3.246.362h11.4v3.052h-11.4v-3.052zm-5.085-12.7h16.486v1.875c0 .389-.177.637-.531.751l-.99.257c.247.23.477.469.68.725.204.257.39.531.54.823.15.292.265.61.345.955.08.336.124.707.124 1.105a3.7 3.7 0 01-.39 1.681c-.256.513-.636.946-1.132 1.318-.495.371-1.105.663-1.83.866-.726.204-1.548.31-2.477.31a7.77 7.77 0 01-2.361-.345c-.734-.23-1.362-.557-1.893-.991a4.59 4.59 0 01-1.247-1.547 4.438 4.438 0 01-.45-2.008c0-.619.088-1.141.273-1.565a4.27 4.27 0 01.752-1.159h-5.89v-3.051h-.01zm8.048 3.051c-.336.292-.566.601-.699.938a2.87 2.87 0 00-.194 1.07c0 .38.07.698.212 1.008.142.309.363.566.655.778.3.221.68.389 1.14.504a6.99 6.99 0 001.663.177c.646 0 1.176-.044 1.619-.141.442-.098.796-.239 1.07-.416a1.66 1.66 0 00.592-.654 1.97 1.97 0 00.186-.858c0-.54-.106-.991-.318-1.354a3.916 3.916 0 00-.911-1.034H8.004l-.009-.018zm-1.636-8.41a7.778 7.778 0 01-.61-.716 4.467 4.467 0 01-.787-1.681 4.848 4.848 0 01-.106-1.044c0-.619.106-1.167.318-1.645.212-.477.513-.884.893-1.211a3.87 3.87 0 011.371-.743 5.763 5.763 0 011.742-.248h7.244v3.043H9.18c-.636 0-1.123.15-1.477.442-.353.292-.521.734-.521 1.3 0 .425.088.831.274 1.203.185.38.442.734.778 1.07h8.19v3.051h-11.4v-1.875c0-.38.176-.637.53-.76l.796-.186h.009zm4.838-12.142c1.07-.098 1.848-.398 2.344-.911.495-.513.742-1.185.742-2.008 0-.416-.053-.778-.15-1.088a4.618 4.618 0 00-.336-.805c-.124-.23-.23-.442-.336-.628a1.098 1.098 0 01-.15-.557c0-.239.088-.424.265-.548l1.105-.885c.38.328.69.681.938 1.071.248.389.442.796.584 1.22.141.425.247.84.3 1.274.053.433.08.84.08 1.238 0 .796-.133 1.539-.39 2.229a5.105 5.105 0 01-1.158 1.804c-.513.513-1.15.92-1.91 1.211-.76.292-1.636.443-2.645.443a6.122 6.122 0 01-2.184-.381 5.391 5.391 0 01-1.795-1.096 5.361 5.361 0 01-1.212-1.743c-.3-.689-.451-1.459-.451-2.317 0-.725.115-1.397.345-2.016a4.447 4.447 0 011.008-1.592 4.47 4.47 0 011.627-1.035 6.309 6.309 0 012.203-.371c.23 0 .415.008.565.035.15.018.266.062.354.106.089.053.15.124.186.212a.946.946 0 01.053.345v6.828l.018-.035zm-1.813-4.794c-.319 0-.62.044-.902.124a2.03 2.03 0 00-.761.407 1.878 1.878 0 00-.522.698c-.132.283-.194.619-.194 1.009 0 .734.203 1.3.619 1.715.415.416 1 .681 1.769.805v-4.758h-.01zm-4.352-14.85l14.46 6.147c.204.097.363.212.46.345.107.133.15.354.15.646v2.264l-4.598-2.158-10.48 4.572v-2.68c0-.238.053-.433.168-.566a.96.96 0 01.389-.291l5.448-2.167c.212-.08.433-.151.645-.213.222-.062.434-.123.646-.185a19.076 19.076 0 01-1.3-.451l-5.44-2.008a.868.868 0 01-.548-.831v-2.441.017zM.39 120.812l16.043 6.457v3.007L.389 136.732v-2.68c0-.283.07-.521.204-.698a1.18 1.18 0 01.521-.407l9.243-3.467a16.69 16.69 0 011.132-.389c.406-.124.84-.248 1.29-.363a22.74 22.74 0 01-1.29-.318 12.999 12.999 0 01-1.133-.372l-9.242-3.449a1.218 1.218 0 01-.504-.389 1.09 1.09 0 01-.23-.699v-2.689h.01zm4.457-4.402c0-.858.132-1.637.406-2.335.275-.699.664-1.3 1.168-1.804.504-.505 1.114-.885 1.84-1.159.725-.274 1.538-.407 2.44-.407.903 0 1.725.133 2.45.407A5.249 5.249 0 0115 112.271a5.08 5.08 0 011.167 1.804c.274.698.407 1.477.407 2.335 0 .857-.133 1.645-.407 2.352A5.041 5.041 0 0115 120.566a5.234 5.234 0 01-1.849 1.168c-.725.274-1.539.415-2.45.415-.91 0-1.724-.141-2.44-.415a5.118 5.118 0 01-1.84-1.168 5.203 5.203 0 01-1.168-1.804c-.274-.699-.406-1.486-.406-2.352zm9.454 0c0-.867-.3-1.513-.902-1.937-.601-.416-1.495-.628-2.68-.628s-2.07.212-2.67.628c-.602.415-.903 1.061-.903 1.937 0 .875.3 1.547.902 1.963.602.416 1.495.628 2.671.628 1.176 0 2.079-.212 2.68-.628.601-.416.902-1.079.902-1.963zM-.053 105.709h16.486v3.051H-.053v-3.051zm5.085-12.541h11.4v1.875c0 .39-.176.637-.53.752l-.796.194c.221.23.424.469.61.708s.345.504.478.778c.132.274.239.575.31.893.07.319.105.672.105 1.044 0 .619-.106 1.167-.318 1.654a3.42 3.42 0 01-.893 1.212c-.38.327-.84.566-1.371.742a5.777 5.777 0 01-1.751.257H5.032v-3.051h7.244c.636 0 1.123-.142 1.477-.434.354-.292.521-.725.521-1.3 0-.424-.097-.831-.282-1.203a4.14 4.14 0 00-.77-1.07h-8.19v-3.051zm11.392-2.522h-11.4v-1.875c0-.38.176-.637.53-.76l.743-.177a12.132 12.132 0 01-.575-.61 4 4 0 01-.46-.681 3.23 3.23 0 01-.3-.788 3.803 3.803 0 01-.107-.92c0-.698.186-1.282.558-1.733.371-.46.866-.805 1.486-1.044a3.498 3.498 0 01-.938-.68 3.4 3.4 0 01-.637-.885 4.49 4.49 0 01-.362-1.017 4.915 4.915 0 01-.115-1.08c0-.645.097-1.21.292-1.706a3.26 3.26 0 01.849-1.247 3.798 3.798 0 011.362-.77c.53-.176 1.15-.265 1.84-.265h7.243v3.052H9.189c-1.335 0-1.999.574-1.999 1.715 0 .257.045.496.124.717.089.22.212.407.38.575a1.8 1.8 0 00.628.389c.248.088.54.141.858.141h7.244v3.051H9.18c-.725 0-1.238.142-1.539.425-.31.283-.46.699-.46 1.256 0 .354.08.69.248 1 .168.309.398.61.69.875h8.305v3.051-.009zm-5.227-21.085c1.07-.097 1.848-.398 2.344-.91.495-.514.742-1.186.742-2.008 0-.416-.053-.778-.15-1.088a4.592 4.592 0 00-.336-.805c-.124-.23-.23-.442-.336-.628a1.101 1.101 0 01-.15-.557c0-.239.088-.424.265-.548l1.105-.885c.38.328.69.681.938 1.07.248.39.442.796.584 1.22.141.425.247.841.3 1.274.053.434.08.84.08 1.239 0 .796-.133 1.538-.39 2.228a5.099 5.099 0 01-1.158 1.805c-.513.513-1.15.92-1.91 1.211-.76.292-1.636.442-2.645.442a6.135 6.135 0 01-2.184-.38A5.391 5.391 0 016.5 71.144a5.354 5.354 0 01-1.211-1.742c-.3-.69-.451-1.46-.451-2.317 0-.725.115-1.397.345-2.016.23-.62.566-1.141 1.008-1.593a4.465 4.465 0 011.627-1.034 6.313 6.313 0 012.203-.372c.23 0 .415.01.565.036.15.017.266.062.354.106.089.053.15.124.186.212a.941.941 0 01.053.345v6.828l.018-.036zM9.384 64.76c-.319 0-.62.044-.902.124-.283.08-.54.22-.761.407a1.887 1.887 0 00-.522.698c-.133.283-.194.62-.194 1.008 0 .735.203 1.3.619 1.716.415.416 1 .681 1.769.805V64.76h-.01zm17.538 171.799c0-1.079.106-1.999.3-2.76.204-.76.487-1.388.867-1.866a3.247 3.247 0 011.353-1.052 4.583 4.583 0 011.778-.336c.372 0 .725.053 1.061.159.337.106.655.274.956.495.3.221.566.513.813.867.248.354.451.778.62 1.256.256-1.088.68-1.902 1.255-2.424.575-.521 1.336-.787 2.264-.787.681 0 1.31.133 1.893.389a4.238 4.238 0 011.512 1.141c.425.496.76 1.115 1 1.849.239.734.362 1.574.362 2.529v6.209H26.913v-5.696l.009.027zm2.52 2.379h4.334v-2.176c0-.469-.035-.875-.115-1.238a2.473 2.473 0 00-.371-.902 1.536 1.536 0 00-.672-.557 2.452 2.452 0 00-1-.195c-.39 0-.734.053-1.017.159a1.47 1.47 0 00-.672.496 2.225 2.225 0 00-.372.84c-.08.336-.115.743-.115 1.203v2.379-.009zm10.976-2.839c0-.531-.062-.964-.194-1.309-.133-.345-.301-.619-.513-.823a1.787 1.787 0 00-.735-.433 3.08 3.08 0 00-.857-.124c-.328 0-.62.044-.876.142a1.543 1.543 0 00-.654.46 2.288 2.288 0 00-.416.831c-.098.336-.142.761-.142 1.265v2.821h4.387v-2.839.009zm-7.278-7.679a6.983 6.983 0 01-1.354-2.22 7.523 7.523 0 01-.45-2.627c0-.681.105-1.282.335-1.822.221-.531.53-.99.92-1.362a4.223 4.223 0 011.406-.858 5.323 5.323 0 011.795-.301h7.164v1.398c0 .292-.044.504-.123.654-.08.151-.248.275-.513.372l-.726.239c.248.291.47.566.664.831.194.265.353.548.477.831.133.292.23.593.292.92.062.327.097.699.097 1.097 0 .504-.07.955-.203 1.371a2.943 2.943 0 01-.593 1.07c-.265.301-.592.53-.981.69-.39.159-.84.238-1.354.238-.415 0-.84-.106-1.255-.318-.416-.212-.805-.584-1.141-1.097-.345-.521-.628-1.211-.85-2.078-.22-.867-.353-1.955-.38-3.255h-.583c-.717 0-1.239.151-1.575.451-.336.301-.504.734-.504 1.309 0 .416.053.77.15 1.053.098.283.204.522.319.734.115.212.221.407.318.592.098.186.15.398.15.637a.909.909 0 01-.158.54c-.107.141-.23.265-.38.362l-.974.54.01.009zm5.058-6.209c.035.743.106 1.362.195 1.857.088.496.212.885.362 1.177.15.291.319.495.505.619.185.123.389.185.61.185.442 0 .752-.123.937-.371.186-.248.274-.593.274-1.035 0-.513-.088-.946-.274-1.318-.177-.371-.46-.743-.849-1.114H38.19h.01zm-4.289-12.452c.124.079.212.168.274.247.062.08.08.204.08.345 0 .142-.036.301-.107.451-.07.151-.15.328-.238.522a4.667 4.667 0 00-.24.655c-.07.247-.105.53-.105.858 0 .495.097.875.3 1.149a.948.948 0 00.805.407c.23 0 .416-.079.575-.23.16-.15.292-.362.407-.61.115-.248.221-.548.318-.867.098-.318.213-.654.328-.999a9.92 9.92 0 01.406-1c.15-.327.345-.61.584-.866.23-.257.513-.46.84-.611.328-.15.725-.23 1.185-.23.549 0 1.062.107 1.53.301a3.26 3.26 0 011.212.893c.336.39.601.876.796 1.46.195.583.292 1.256.292 2.016 0 .389-.035.779-.106 1.159-.07.38-.168.752-.3 1.096a6.495 6.495 0 01-.452.973 4.6 4.6 0 01-.548.788l-1.141-.708a.922.922 0 01-.31-.301.918.918 0 01-.106-.468c0-.195.044-.354.142-.513.088-.151.194-.328.3-.522.106-.195.204-.416.301-.681.089-.266.142-.593.142-.982 0-.292-.036-.548-.098-.761a1.383 1.383 0 00-.274-.521 1.098 1.098 0 00-.84-.39.827.827 0 00-.61.239c-.16.159-.292.363-.416.619a7.133 7.133 0 00-.318.876c-.098.327-.204.672-.319 1.008a7.153 7.153 0 01-.424 1.008 3.36 3.36 0 01-.61.876c-.248.256-.549.46-.912.619-.362.159-.796.239-1.317.239-.47 0-.92-.089-1.345-.274a3.178 3.178 0 01-1.123-.832c-.327-.371-.584-.822-.778-1.379-.195-.549-.292-1.185-.292-1.911 0-.813.133-1.547.398-2.211.265-.663.61-1.211 1.035-1.636l1.088.699h-.01zm3.821-5.129c1.07-.097 1.848-.398 2.343-.911.495-.513.743-1.176.743-2.008 0-.424-.053-.787-.15-1.088a4.91 4.91 0 00-.336-.804c-.124-.23-.23-.443-.336-.628a1.104 1.104 0 01-.15-.558c0-.238.088-.415.264-.548l1.106-.884c.38.327.69.681.938 1.07.247.389.442.796.583 1.22.142.416.248.841.301 1.274.053.424.08.84.08 1.238 0 .796-.133 1.539-.39 2.229a5.096 5.096 0 01-1.158 1.804c-.513.513-1.15.92-1.91 1.212-.761.292-1.637.442-2.645.442a6.144 6.144 0 01-2.184-.38 5.306 5.306 0 01-1.796-1.097 5.3 5.3 0 01-1.212-1.751c-.3-.681-.45-1.459-.45-2.317 0-.726.114-1.398.344-2.017a4.446 4.446 0 011.009-1.592 4.474 4.474 0 011.627-1.043c.646-.248 1.38-.372 2.202-.372.23 0 .416.009.566.035.15.027.266.062.354.107.088.053.15.123.186.212a.938.938 0 01.053.345v6.828l.017-.018zm-1.814-4.794c-.318 0-.619.044-.902.124-.283.08-.54.221-.76.407a1.89 1.89 0 00-.522.699c-.133.283-.195.619-.195 1.008 0 .734.204 1.3.62 1.716.415.415.999.681 1.768.804v-4.758h-.009zM26.48 185.12h16.485v1.875c0 .389-.177.646-.53.752l-.991.256c.248.23.478.469.681.726.203.256.39.53.54.822.15.292.265.61.344.955.08.345.124.708.124 1.106a3.67 3.67 0 01-.389 1.68 3.806 3.806 0 01-1.132 1.318c-.495.371-1.105.663-1.83.867-.726.203-1.548.309-2.477.309a7.773 7.773 0 01-2.361-.345 5.848 5.848 0 01-1.893-.99 4.595 4.595 0 01-1.247-1.548c-.3-.601-.451-1.273-.451-2.016 0-.619.088-1.141.274-1.566a4.14 4.14 0 01.752-1.158h-5.89v-3.052l-.01.009zm8.048 3.051c-.336.292-.566.602-.699.938-.133.336-.194.69-.194 1.07 0 .38.07.708.212 1.008.141.301.362.566.654.779.301.221.681.389 1.141.504a6.99 6.99 0 001.663.177c.645 0 1.176-.045 1.618-.142.443-.097.796-.23 1.07-.416a1.66 1.66 0 00.593-.654c.124-.257.186-.548.186-.858 0-.539-.106-.99-.319-1.353a3.904 3.904 0 00-.91-1.035h-5.006l-.01-.018zm-3.148-15.972c0-.858.132-1.637.406-2.335a5.19 5.19 0 011.168-1.804c.504-.505 1.114-.885 1.84-1.159.724-.274 1.538-.407 2.44-.407.902 0 1.725.133 2.45.407a5.248 5.248 0 011.849 1.159 5.08 5.08 0 011.167 1.804c.274.698.407 1.477.407 2.335 0 .858-.133 1.645-.407 2.352a5.121 5.121 0 01-1.168 1.804 5.219 5.219 0 01-1.848 1.168c-.725.274-1.539.416-2.45.416-.91 0-1.724-.142-2.44-.416a5.104 5.104 0 01-1.84-1.168 5.204 5.204 0 01-1.168-1.804c-.274-.707-.407-1.486-.407-2.352zm9.454 0c0-.867-.3-1.513-.902-1.937-.602-.425-1.495-.628-2.68-.628s-2.07.212-2.671.628c-.602.415-.902 1.061-.902 1.937 0 .875.3 1.547.902 1.963.601.416 1.495.628 2.67.628 1.177 0 2.08-.212 2.68-.628.602-.416.903-1.079.903-1.963zm-7.942-10.464a7.777 7.777 0 01-.61-.716 4.782 4.782 0 01-.478-.788 4.079 4.079 0 01-.31-.893 4.842 4.842 0 01-.106-1.043c0-.62.106-1.168.318-1.646a3.41 3.41 0 01.894-1.211 3.87 3.87 0 011.37-.743 5.762 5.762 0 011.743-.248h7.243v3.043h-7.243c-.637 0-1.123.15-1.477.442-.354.292-.522.725-.522 1.3 0 .425.089.831.274 1.203.186.371.443.734.779 1.07h8.19v3.051h-11.4v-1.875c0-.38.176-.637.53-.76l.796-.186h.009zm-5.97-29.116h16.043v3.343h-6.907v7.067h6.907v3.334H26.922v-3.334h6.81v-7.067h-6.81v-3.343zm10.808-5.032c1.07-.098 1.848-.398 2.343-.911.495-.513.743-1.185.743-2.008 0-.416-.053-.778-.15-1.088a4.566 4.566 0 00-.336-.804c-.124-.23-.23-.443-.336-.628a1.104 1.104 0 01-.15-.558c0-.238.088-.424.264-.548l1.106-.884c.38.327.69.681.938 1.07.247.389.442.796.583 1.22a6.5 6.5 0 01.301 1.274c.053.433.08.84.08 1.238 0 .796-.133 1.539-.39 2.229a5.096 5.096 0 01-1.158 1.804c-.513.513-1.15.92-1.91 1.212-.761.292-1.637.442-2.645.442a6.144 6.144 0 01-2.184-.38 5.41 5.41 0 01-1.796-1.097 5.355 5.355 0 01-1.212-1.742c-.3-.69-.45-1.46-.45-2.318 0-.725.114-1.397.344-2.016a4.446 4.446 0 011.009-1.592 4.47 4.47 0 011.627-1.035 6.309 6.309 0 012.202-.371c.23 0 .416.009.566.035.15.018.266.062.354.106.088.053.15.124.186.212a.946.946 0 01.053.345v6.828l.017-.035zm-1.814-4.794c-.318 0-.619.044-.902.124-.283.08-.54.221-.76.407a1.89 1.89 0 00-.522.699c-.133.283-.195.619-.195 1.008 0 .734.204 1.3.62 1.716.415.415.999.681 1.768.804v-4.758h-.009zm-7.596-8.125c.256 0 .494.053.715.159a1.949 1.949 0 01.982 1.026c.098.23.142.478.142.743a1.839 1.839 0 01-.54 1.309 2.093 2.093 0 01-.584.407c-.22.097-.46.15-.716.15a1.84 1.84 0 01-1.318-.557 1.839 1.839 0 01-.54-1.309c0-.265.045-.513.142-.743.098-.23.23-.433.398-.61s.363-.31.593-.416c.221-.106.469-.159.725-.159zm3.245.363h11.4v3.051h-11.4v-3.051zm.371-12.772h1.115c.177 0 .318.053.424.15.106.097.177.266.23.495l.186.929a3.57 3.57 0 011.159-.186c.566 0 1.079.115 1.53.345.45.23.84.549 1.158.955.319.407.566.885.743 1.433a5.84 5.84 0 01.257 1.796c0 .406-.036.787-.098 1.141.195.309.398.468.628.468.213 0 .372-.106.46-.318.089-.212.168-.487.204-.831.035-.345.07-.735.08-1.177.008-.442.035-.884.07-1.335a9.55 9.55 0 01.195-1.336 3.42 3.42 0 01.45-1.167c.213-.345.487-.619.832-.832.345-.212.796-.318 1.335-.318.513 0 1 .124 1.477.372.478.247.911.61 1.283 1.087.371.478.68 1.062.902 1.752.23.689.345 1.477.345 2.361 0 .884-.08 1.636-.248 2.282-.168.645-.389 1.176-.663 1.601-.274.424-.593.742-.955.946a2.275 2.275 0 01-1.132.309c-.504 0-.938-.15-1.292-.468-.353-.31-.636-.734-.849-1.283a1.842 1.842 0 01-.636.69c-.266.177-.602.257-1.026.257-.336 0-.699-.124-1.07-.372-.38-.247-.69-.628-.938-1.141a3.621 3.621 0 01-1.247 1.38c-.522.336-1.123.504-1.822.504a3.392 3.392 0 01-1.539-.345 3.408 3.408 0 01-1.167-.964 4.531 4.531 0 01-.734-1.459 6.298 6.298 0 01-.257-1.822c0-.973.195-1.831.575-2.574v-3.334l.035.009zm4.9 5.917c0-.628-.159-1.088-.477-1.389-.319-.301-.726-.451-1.23-.451s-.937.15-1.23.451c-.3.301-.45.761-.45 1.389s.15 1.087.45 1.379c.302.292.708.443 1.23.443.495 0 .902-.151 1.22-.452.32-.3.478-.76.478-1.379l.01.009zm6.59-2.884a.653.653 0 00-.487.186 1.39 1.39 0 00-.301.504c-.08.213-.124.46-.16.743-.035.292-.061.593-.079.92l-.053 1.008c-.018.345-.044.69-.08 1.017.16.257.337.469.549.637.212.168.45.248.716.248.186 0 .354-.045.504-.124.16-.089.292-.23.398-.425.106-.203.195-.46.257-.787a6.67 6.67 0 00.097-1.22 7.46 7.46 0 00-.097-1.274c-.07-.345-.16-.628-.283-.84a1.215 1.215 0 00-.434-.46 1.18 1.18 0 00-.548-.141v.008zM32.68 97.613a5.468 5.468 0 01-.522-.672 4.295 4.295 0 01-.407-.743 4.239 4.239 0 01-.266-.84 4.807 4.807 0 01-.097-.964c0-.619.106-1.167.318-1.645.213-.477.513-.884.894-1.212.38-.327.84-.574 1.37-.743a5.763 5.763 0 011.743-.247h7.243v3.042h-7.243c-.637 0-1.123.15-1.477.442-.354.292-.522.735-.522 1.3 0 .425.089.832.274 1.203.186.372.443.734.779 1.07h8.19v3.052H26.47v-3.051h6.2l.008.008zM43.133 84.35c0 .512-.08.972-.23 1.37a2.71 2.71 0 01-.645 1.008 2.77 2.77 0 01-1.018.62 4.036 4.036 0 01-1.353.212h-6.146v1.07c0 .16-.053.3-.16.416-.106.114-.256.168-.46.168h-1.194l-.336-1.822-2.954-.62c-.336-.079-.495-.309-.495-.672v-1.59h3.467v-2.937h2.123v2.936h5.943c.318 0 .566-.07.752-.23.185-.15.274-.362.274-.645 0-.15-.018-.274-.053-.38a2.057 2.057 0 00-.106-.266c-.036-.07-.08-.141-.106-.203a.38.38 0 01-.053-.195c0-.088.017-.159.061-.22a.693.693 0 01.204-.178l1.46-.92a4.4 4.4 0 01.751 1.424c.168.531.256 1.08.256 1.645l.018.01zm348.12 243.926c1 0 1.73-.241 2.191-.723.468-.483.702-1.142.702-1.979 0-.383-.06-.731-.181-1.043a1.954 1.954 0 00-.532-.808 2.304 2.304 0 00-.893-.521c-.362-.121-.791-.181-1.287-.181h-2.022v5.255h2.022zm0-7.681c1.056 0 1.968.124 2.734.373.773.248 1.407.595 1.904 1.042.496.44.862.965 1.096 1.575.241.609.361 1.273.361 1.989 0 .759-.124 1.454-.372 2.085a4.26 4.26 0 01-1.128 1.628c-.503.454-1.138.808-1.904 1.063-.766.249-1.663.373-2.691.373h-2.022v5.308h-3.191v-15.436h5.213zm13.144 10.851c-.716.036-1.312.099-1.787.192-.475.085-.855.198-1.138.34-.277.142-.475.305-.596.489-.113.178-.17.373-.17.586 0 .425.117.726.351.904.241.177.574.266 1 .266.489 0 .911-.085 1.266-.256.361-.177.72-.45 1.074-.819v-1.702zm-5.978-4.861a6.464 6.464 0 012.138-1.298 7.187 7.187 0 012.532-.436c.652 0 1.234.106 1.744.319.518.212.954.51 1.309.893.362.376.638.826.83 1.351.191.525.287 1.1.287 1.724v6.893h-1.341c-.276 0-.489-.039-.638-.117-.142-.078-.259-.241-.351-.489l-.234-.702a9.793 9.793 0 01-.808.638c-.256.184-.522.34-.798.468a4.377 4.377 0 01-.894.277 5.266 5.266 0 01-1.053.095c-.482 0-.922-.063-1.319-.191a2.98 2.98 0 01-1.032-.564 2.582 2.582 0 01-.66-.947 3.362 3.362 0 01-.234-1.298c0-.404.103-.808.309-1.212.205-.405.557-.77 1.053-1.096.504-.333 1.17-.606 2-.819.837-.22 1.883-.344 3.138-.372v-.564c0-.688-.145-1.192-.436-1.511-.291-.326-.709-.489-1.255-.489-.405 0-.741.049-1.011.149a4.54 4.54 0 00-.713.308c-.198.107-.386.209-.563.309a1.323 1.323 0 01-.617.138.89.89 0 01-.522-.149 1.542 1.542 0 01-.34-.372l-.521-.936zm22.391 9.446h-2.926v-8.861h-4.861v5.723c0 .305.071.546.213.723.149.178.358.266.627.266.142 0 .263-.014.362-.042.099-.036.184-.071.255-.107a2.91 2.91 0 01.192-.106.394.394 0 01.191-.053c.085 0 .156.021.213.064a.573.573 0 01.17.191l.883 1.404c-.404.32-.862.561-1.372.724a5.182 5.182 0 01-1.585.244c-.497 0-.936-.07-1.319-.212a2.682 2.682 0 01-.968-.628 2.628 2.628 0 01-.596-.979 3.887 3.887 0 01-.202-1.298v-5.914h-1.032a.594.594 0 01-.404-.149c-.107-.1-.16-.249-.16-.447v-1.149l1.755-.319.596-2.841c.078-.319.294-.478.649-.478h1.532v3.34h7.787v10.904zm.457-14.106c0 .241-.049.472-.149.691a1.864 1.864 0 01-.404.564 1.984 1.984 0 01-.585.383 1.827 1.827 0 01-1.404 0 2.073 2.073 0 01-.564-.383 1.98 1.98 0 01-.394-.564 1.769 1.769 0 01-.138-.691c0-.248.046-.479.138-.691.1-.22.231-.412.394-.575a1.8 1.8 0 01.564-.383 1.715 1.715 0 011.404 0c.227.092.422.22.585.383.17.163.305.355.404.575.1.212.149.443.149.691zm9.017 7.33a2.96 2.96 0 00-.128-.873 1.976 1.976 0 00-.383-.734 1.844 1.844 0 00-.67-.5c-.27-.127-.592-.191-.968-.191-.702 0-1.252.198-1.649.596-.397.397-.656.964-.777 1.702h4.575zm-4.617 1.744c.092 1.029.383 1.781.872 2.256.497.475 1.142.712 1.936.712.405 0 .752-.046 1.043-.138.298-.099.557-.206.776-.319.227-.121.429-.227.607-.319a1.14 1.14 0 01.542-.149c.227 0 .405.085.532.255l.851 1.064a4.734 4.734 0 01-1.032.904 5.908 5.908 0 01-1.17.564 6.222 6.222 0 01-1.223.277 8.855 8.855 0 01-1.192.085 6.094 6.094 0 01-2.149-.373 5.024 5.024 0 01-1.734-1.117c-.489-.496-.875-1.109-1.159-1.84-.284-.73-.426-1.578-.426-2.542 0-.745.121-1.447.362-2.107a5.102 5.102 0 011.064-1.723 4.972 4.972 0 011.681-1.16c.659-.291 1.404-.436 2.234-.436a5.36 5.36 0 011.936.34c.596.22 1.106.543 1.532.969.432.425.766.95 1 1.574.241.617.361 1.323.361 2.117 0 .22-.01.401-.032.543a.953.953 0 01-.106.34.42.42 0 01-.202.181 1.077 1.077 0 01-.33.042h-6.574zm11.79-4.659a7.38 7.38 0 01.681-.585 4.81 4.81 0 01.755-.458c.269-.127.557-.227.862-.298a4.61 4.61 0 011.01-.106c.596 0 1.124.103 1.585.309.461.205.848.492 1.16.861.319.369.557.809.713 1.319.163.511.244 1.071.244 1.681v6.968h-2.925v-6.968c0-.61-.142-1.081-.426-1.415-.283-.34-.702-.51-1.255-.51-.411 0-.798.088-1.16.266a3.994 3.994 0 00-1.031.744v7.883h-2.937v-10.968h1.809c.369 0 .613.17.734.511l.181.766zm12.99 9.861c-.496 0-.936-.07-1.319-.212a2.682 2.682 0 01-.968-.628 2.628 2.628 0 01-.596-.979 3.887 3.887 0 01-.202-1.298v-5.914h-1.032a.594.594 0 01-.404-.149c-.107-.1-.16-.249-.16-.447v-1.149l1.755-.319.596-2.841c.078-.319.295-.478.649-.478h1.532v3.34h2.83v2.043h-2.83v5.723c0 .305.071.546.213.723.149.178.358.266.627.266.142 0 .263-.014.362-.042.099-.036.185-.071.255-.107a2.91 2.91 0 01.192-.106.397.397 0 01.191-.053c.086 0 .156.021.213.064a.563.563 0 01.17.191l.883 1.404c-.404.32-.861.561-1.372.724a5.182 5.182 0 01-1.585.244zm17.129-6.031l-1.671-4.724a18.926 18.926 0 01-.319-.872 18.996 18.996 0 01-.308-1.085c-.1.397-.206.766-.319 1.106-.107.334-.21.624-.309.873l-1.659 4.702h4.585zm5.361 5.861h-2.478c-.277 0-.504-.064-.681-.191a1.25 1.25 0 01-.383-.511l-1.043-2.947h-6.149l-1.042 2.947a1.244 1.244 0 01-.373.489c-.177.142-.4.213-.67.213h-2.5l6.032-15.436h3.266l6.021 15.436zm5.11-5.893c.603 0 1.046-.153 1.33-.458.29-.305.436-.698.436-1.181 0-.503-.146-.897-.436-1.18-.284-.291-.727-.437-1.33-.437-.603 0-1.046.146-1.33.437-.284.283-.426.677-.426 1.18 0 .476.142.869.426 1.181.291.305.734.458 1.33.458zm2.776 6.34a.633.633 0 00-.181-.468 1.248 1.248 0 00-.489-.287 3.032 3.032 0 00-.713-.149c-.276-.036-.571-.06-.883-.075a38.231 38.231 0 00-.968-.053 14.58 14.58 0 01-.978-.074 2.245 2.245 0 00-.617.532 1.07 1.07 0 00-.234.68c0 .178.039.341.117.49.085.149.223.276.414.383.192.106.444.188.756.244a5.96 5.96 0 001.17.096c.482 0 .89-.032 1.223-.096.334-.063.603-.156.809-.276.206-.114.351-.252.436-.415.092-.163.138-.34.138-.532zm2.915-11.053v1.074a.545.545 0 01-.149.405c-.092.099-.248.173-.468.223l-.893.181c.12.347.18.72.18 1.117 0 .546-.113 1.039-.34 1.479-.22.432-.525.805-.915 1.117a4.39 4.39 0 01-1.383.712 5.82 5.82 0 01-1.723.245 5.93 5.93 0 01-1.096-.096c-.298.185-.447.387-.447.607 0 .205.1.354.298.447.206.092.472.159.798.202.333.035.709.06 1.128.074.425.007.854.028 1.287.064.44.035.869.099 1.287.191.426.086.801.231 1.128.437.333.198.599.464.798.797.205.334.308.763.308 1.288 0 .489-.12.964-.362 1.425a3.817 3.817 0 01-1.053 1.234c-.454.362-1.014.653-1.681.873-.666.219-1.425.329-2.276.329-.844 0-1.578-.081-2.202-.244-.617-.156-1.132-.369-1.543-.639-.404-.262-.706-.567-.904-.914a2.158 2.158 0 01-.298-1.086c0-.489.149-.904.447-1.244.298-.341.709-.614 1.234-.819a1.972 1.972 0 01-.67-.607c-.163-.255-.245-.585-.245-.989 0-.326.117-.67.351-1.032.241-.362.61-.663 1.106-.904a3.546 3.546 0 01-1.329-1.192c-.327-.503-.49-1.088-.49-1.755 0-.546.11-1.039.33-1.479.227-.439.539-.812.936-1.117a4.245 4.245 0 011.404-.713 6.045 6.045 0 011.756-.244c.936 0 1.762.184 2.478.553h3.213zm8.276 3.83a2.96 2.96 0 00-.127-.873 1.976 1.976 0 00-.383-.734 1.853 1.853 0 00-.67-.5c-.27-.127-.593-.191-.969-.191-.702 0-1.251.198-1.648.596-.398.397-.656.964-.777 1.702h4.574zm-4.617 1.744c.093 1.029.383 1.781.873 2.256.496.475 1.142.712 1.936.712a3.47 3.47 0 001.042-.138c.298-.099.557-.206.777-.319.227-.121.429-.227.606-.319.185-.099.366-.149.543-.149.227 0 .404.085.532.255l.851 1.064a4.734 4.734 0 01-1.032.904 5.935 5.935 0 01-1.17.564 6.216 6.216 0 01-1.224.277 8.83 8.83 0 01-1.191.085 6.094 6.094 0 01-2.149-.373 5.006 5.006 0 01-1.734-1.117c-.489-.496-.876-1.109-1.16-1.84-.283-.73-.425-1.578-.425-2.542 0-.745.12-1.447.362-2.107a5.1 5.1 0 011.063-1.723 4.982 4.982 0 011.681-1.16c.66-.291 1.405-.436 2.234-.436.702 0 1.348.114 1.936.34.596.22 1.107.543 1.532.969.433.425.766.95 1 1.574.241.617.362 1.323.362 2.117 0 .22-.011.401-.032.543a.974.974 0 01-.106.34.42.42 0 01-.202.181 1.081 1.081 0 01-.33.042h-6.575zm16.148-1.638c0 1.44.167 2.862.5 4.266.34 1.404.823 2.72 1.447 3.947.085.156.131.291.138.404a.671.671 0 01-.032.319.51.51 0 01-.149.234 1.067 1.067 0 01-.223.17l-1.298.777a18.425 18.425 0 01-1.341-2.436 17.463 17.463 0 01-.904-2.479 18.67 18.67 0 01-.521-2.553 21.76 21.76 0 010-5.287c.113-.865.287-1.716.521-2.553.234-.837.536-1.663.904-2.479.369-.823.816-1.635 1.341-2.436l1.298.766c.085.049.159.106.223.17a.51.51 0 01.149.234.672.672 0 01.032.319 1.015 1.015 0 01-.138.415 17.82 17.82 0 00-1.447 3.936 18.424 18.424 0 00-.5 4.266zm11.48.734v5.936h-3.191v-5.936l-5.606-9.5h2.808c.277 0 .496.068.66.202.17.128.305.295.404.5l2.532 4.862c.17.326.322.631.457.915.142.284.266.567.372.851.1-.284.213-.567.341-.851.135-.291.284-.596.447-.915l2.51-4.862c.085-.17.213-.329.383-.478.171-.149.39-.224.66-.224h2.83l-5.607 9.5zm11.148-.84a2.96 2.96 0 00-.128-.873 1.962 1.962 0 00-.383-.734 1.836 1.836 0 00-.67-.5c-.269-.127-.592-.191-.968-.191-.702 0-1.252.198-1.649.596-.397.397-.656.964-.776 1.702h4.574zm-4.617 1.744c.092 1.029.383 1.781.872 2.256.497.475 1.142.712 1.936.712.405 0 .752-.046 1.043-.138.298-.099.557-.206.777-.319.227-.121.429-.227.606-.319.184-.099.365-.149.543-.149.226 0 .404.085.531.255l.851 1.064a4.753 4.753 0 01-1.031.904 5.916 5.916 0 01-1.171.564 6.222 6.222 0 01-1.223.277 8.84 8.84 0 01-1.191.085 6.09 6.09 0 01-2.149-.373 5.006 5.006 0 01-1.734-1.117c-.49-.496-.876-1.109-1.16-1.84-.284-.73-.426-1.578-.426-2.542 0-.745.121-1.447.362-2.107a5.102 5.102 0 011.064-1.723 4.972 4.972 0 011.681-1.16c.659-.291 1.404-.436 2.234-.436a5.36 5.36 0 011.936.34c.596.22 1.106.543 1.532.969.433.425.766.95 1 1.574.241.617.362 1.323.362 2.117 0 .22-.011.401-.032.543a.973.973 0 01-.107.34.416.416 0 01-.202.181 1.077 1.077 0 01-.33.042h-6.574zm14.801.447c-.717.036-1.312.099-1.788.192-.475.085-.854.198-1.138.34-.277.142-.475.305-.596.489-.113.178-.17.373-.17.586 0 .425.117.726.351.904.241.177.575.266 1 .266.49 0 .911-.085 1.266-.256.362-.177.72-.45 1.075-.819v-1.702zm-5.979-4.861a6.464 6.464 0 012.138-1.298 7.187 7.187 0 012.532-.436c.653 0 1.234.106 1.745.319.517.212.954.51 1.308.893.362.376.639.826.83 1.351.191.525.287 1.1.287 1.724v6.893h-1.34c-.277 0-.49-.039-.638-.117-.142-.078-.259-.241-.352-.489l-.234-.702a9.793 9.793 0 01-.808.638 4.81 4.81 0 01-.798.468 4.358 4.358 0 01-.894.277 5.266 5.266 0 01-1.053.095c-.482 0-.922-.063-1.319-.191a2.98 2.98 0 01-1.032-.564 2.591 2.591 0 01-.659-.947 3.362 3.362 0 01-.234-1.298c0-.404.102-.808.308-1.212.206-.405.557-.77 1.053-1.096.504-.333 1.17-.606 2-.819.837-.22 1.883-.344 3.139-.372v-.564c0-.688-.146-1.192-.437-1.511-.29-.326-.709-.489-1.255-.489-.404 0-.741.049-1.011.149a4.487 4.487 0 00-.712.308c-.199.107-.387.209-.564.309a1.32 1.32 0 01-.617.138.885.885 0 01-.521-.149 1.526 1.526 0 01-.341-.372l-.521-.936zm13.887.287c.348-.624.749-1.117 1.202-1.479a2.483 2.483 0 011.596-.542c.497 0 .901.117 1.213.351l-.192 2.17c-.035.142-.092.241-.17.298a.519.519 0 01-.298.074c-.113 0-.276-.014-.489-.042a3.583 3.583 0 00-.596-.054c-.269 0-.51.039-.723.117a1.81 1.81 0 00-.553.33 2.532 2.532 0 00-.447.521c-.128.206-.248.44-.362.703v6.712h-2.936v-10.968h1.734c.298 0 .504.053.617.16.114.106.195.291.245.553l.159 1.096zm12.064.447a.914.914 0 01-.245.266.62.62 0 01-.33.074c-.142 0-.287-.035-.436-.106a12.604 12.604 0 00-.5-.224 4.69 4.69 0 00-.638-.234 2.831 2.831 0 00-.819-.106c-.476 0-.844.099-1.107.298a.9.9 0 00-.393.766c0 .219.074.404.223.553.149.149.344.28.585.393.248.107.528.21.84.309.313.092.632.195.958.308.333.114.656.245.968.394.312.149.589.337.83.564.248.22.447.489.595.808.149.312.224.692.224 1.139 0 .532-.099 1.024-.298 1.478a3.167 3.167 0 01-.851 1.16c-.376.326-.844.581-1.404.766-.561.184-1.206.276-1.936.276-.376 0-.749-.035-1.117-.106a6.194 6.194 0 01-1.054-.277 7.064 7.064 0 01-.936-.436 4.15 4.15 0 01-.755-.532l.681-1.095a.893.893 0 01.287-.298.89.89 0 01.457-.107c.178 0 .341.047.49.139l.5.287c.184.099.4.195.649.287.255.085.571.128.947.128.283 0 .528-.032.734-.096.205-.064.372-.149.5-.255.127-.114.219-.238.276-.373.064-.141.096-.287.096-.436a.772.772 0 00-.234-.585 1.906 1.906 0 00-.596-.404 5.717 5.717 0 00-.84-.309 22.177 22.177 0 01-.979-.308 8.854 8.854 0 01-.968-.404 3.517 3.517 0 01-.841-.585 2.948 2.948 0 01-.595-.883c-.149-.348-.224-.77-.224-1.266 0-.454.089-.883.266-1.288.178-.411.444-.773.798-1.085a3.95 3.95 0 011.319-.744c.532-.185 1.146-.277 1.841-.277.78 0 1.489.128 2.127.383.639.255 1.163.589 1.575 1l-.67 1.043zm3.562 2.042c0-1.44-.17-2.862-.511-4.266a17.452 17.452 0 00-1.436-3.936 1.178 1.178 0 01-.149-.415.915.915 0 01.032-.319.657.657 0 01.149-.234c.071-.064.145-.121.223-.17l1.309-.766c.517.801.961 1.613 1.33 2.436a17.27 17.27 0 011.414 5.032c.114.865.171 1.744.171 2.638 0 .901-.057 1.784-.171 2.649a17.639 17.639 0 01-.51 2.553 17.463 17.463 0 01-.904 2.479 19.288 19.288 0 01-1.33 2.436l-1.309-.777a1.623 1.623 0 01-.223-.17.657.657 0 01-.149-.234.912.912 0 01-.032-.319 1.19 1.19 0 01.149-.404 17.667 17.667 0 001.436-3.947c.341-1.404.511-2.826.511-4.266zM15.486 23.933a1.319 1.319 0 010-1.875l7.527-7.526a1.319 1.319 0 011.875 0l7.517 7.518a1.33 1.33 0 010 1.883 1.33 1.33 0 01-1.884 0l-5.244-5.244v32.83c0 .734-.602 1.326-1.336 1.326a1.325 1.325 0 01-1.326-1.326v-32.84l-5.245 5.254a1.319 1.319 0 01-1.875 0h-.009zm354.592 307.676H62.272a.887.887 0 01-.884-.885c0-.486.398-.884.884-.884h307.806c.486 0 .884.398.884.884a.887.887 0 01-.884.885zM23.941 307.241a.887.887 0 01-.884-.885v-28.841c0-.486.398-.884.884-.884.487 0 .885.398.885.884v28.841a.887.887 0 01-.885.885zm844.844 15.018a1.318 1.318 0 011.875 0l7.527 7.526a1.318 1.318 0 010 1.875l-7.518 7.518a1.33 1.33 0 01-1.884 0 1.33 1.33 0 010-1.884l5.245-5.245H583.931a1.332 1.332 0 01-1.327-1.335c0-.734.593-1.327 1.327-1.327h290.117l-5.254-5.245a1.32 1.32 0 01-.009-1.875v-.008z" fill="#103B71"/><path d="M671.608 74.436v12.966h-2.699v-5.585h-5.71v5.585H660.5V74.436h2.699v5.505h5.71v-5.505h2.699zm4.792 3.753v9.213h-2.467V78.19h2.467zm.294-2.618c0 .209-.041.402-.125.58a1.561 1.561 0 01-.339.474 1.465 1.465 0 01-.492.322 1.527 1.527 0 01-.598.116 1.483 1.483 0 01-1.055-.438 1.665 1.665 0 01-.331-.473 1.452 1.452 0 01-.116-.581 1.453 1.453 0 01.447-1.063 1.483 1.483 0 011.055-.438c.214 0 .414.038.598.116.191.077.355.185.492.322.143.137.256.297.339.482.084.179.125.373.125.581zm5.242 6.88c.506 0 .878-.127 1.117-.383.244-.257.366-.587.366-.992 0-.423-.122-.754-.366-.992-.239-.245-.611-.367-1.117-.367-.507 0-.879.122-1.117.367-.239.238-.358.569-.358.992 0 .399.119.73.358.992.244.256.616.384 1.117.384zm2.332 5.327a.533.533 0 00-.152-.394 1.055 1.055 0 00-.411-.24 2.568 2.568 0 00-.599-.126 9.094 9.094 0 00-.741-.063 32.21 32.21 0 00-.814-.044c-.28-.012-.554-.033-.822-.063a1.905 1.905 0 00-.518.447.901.901 0 00-.197.572c0 .149.033.286.099.411a.87.87 0 00.348.322c.161.09.373.158.635.205.262.054.59.08.983.08.405 0 .747-.026 1.027-.08.28-.053.507-.13.679-.232a.87.87 0 00.367-.348.898.898 0 00.116-.447zm2.449-9.285v.903a.457.457 0 01-.126.34c-.077.083-.208.145-.393.187l-.75.152c.101.292.152.604.152.938 0 .459-.096.873-.286 1.242a2.839 2.839 0 01-.769.938 3.697 3.697 0 01-1.162.6 4.909 4.909 0 01-1.447.205 5 5 0 01-.921-.08c-.25.154-.375.324-.375.509 0 .172.083.297.25.375.173.077.396.134.67.17.28.03.596.05.948.062a16.5 16.5 0 011.081.054c.369.03.73.083 1.081.16.358.072.673.194.947.367.28.167.504.39.671.67.172.28.259.64.259 1.082 0 .41-.102.81-.304 1.197a3.223 3.223 0 01-.885 1.037c-.381.303-.852.548-1.412.732-.56.185-1.197.277-1.912.277-.709 0-1.325-.068-1.85-.205-.518-.131-.95-.31-1.295-.536a2.271 2.271 0 01-.76-.769 1.81 1.81 0 01-.25-.911c0-.411.125-.76.375-1.046.25-.286.596-.515 1.037-.688-.233-.13-.42-.3-.563-.51-.137-.214-.206-.49-.206-.83 0-.274.098-.563.295-.867.203-.304.512-.557.929-.76a2.987 2.987 0 01-1.117-1c-.274-.424-.411-.915-.411-1.475 0-.459.093-.873.277-1.242.191-.37.453-.682.787-.938a3.552 3.552 0 011.179-.6 5.076 5.076 0 011.475-.205c.786 0 1.48.155 2.082.465h2.699zm3.748.599a5.09 5.09 0 01.536-.42 3.49 3.49 0 011.278-.545c.244-.054.507-.08.787-.08.5 0 .944.086 1.331.258.387.173.712.414.974.724.268.31.468.68.599 1.108.137.43.205.9.205 1.412v5.853h-2.457V81.55c0-.512-.119-.908-.357-1.188-.239-.286-.59-.43-1.055-.43-.345 0-.67.075-.974.224a3.354 3.354 0 00-.867.626v6.621h-2.466V74.08h2.466v5.013zm16.312 1.483c.435 0 .81-.053 1.126-.16.316-.114.575-.266.777-.456a1.8 1.8 0 00.447-.689 2.5 2.5 0 00.143-.857c0-.614-.205-1.09-.616-1.43-.406-.34-1.025-.51-1.859-.51h-1.394v4.102h1.376zm6.282 6.827h-2.422c-.452 0-.78-.172-.983-.518l-2.466-3.977a1.014 1.014 0 00-.34-.34c-.119-.07-.297-.106-.536-.106h-.911v4.941h-2.681V74.436h4.075c.905 0 1.68.095 2.323.286.644.185 1.171.444 1.582.778.411.333.712.732.902 1.197.191.459.286.965.286 1.519 0 .429-.062.837-.187 1.224-.119.382-.295.73-.528 1.046a3.831 3.831 0 01-.857.84c-.34.244-.727.44-1.162.59.173.095.334.211.482.348.149.131.283.289.403.474l3.02 4.664zm3.343-9.213v9.213h-2.466V78.19h2.466zm.295-2.618c0 .209-.041.402-.125.58a1.561 1.561 0 01-.339.474 1.465 1.465 0 01-.492.322 1.529 1.529 0 01-.599.116 1.482 1.482 0 01-1.054-.438 1.665 1.665 0 01-.331-.473 1.452 1.452 0 01-.116-.581 1.453 1.453 0 01.447-1.063 1.482 1.482 0 011.054-.438c.215 0 .415.038.599.116.191.077.355.185.492.322.143.137.256.297.339.482.084.179.125.373.125.581zm7.538 4.513a.756.756 0 01-.205.223.517.517 0 01-.277.063.851.851 0 01-.367-.09 9.209 9.209 0 00-.42-.187 3.916 3.916 0 00-.536-.197 2.38 2.38 0 00-.688-.09c-.399 0-.709.084-.929.25a.757.757 0 00-.331.644c0 .185.063.34.188.465s.289.235.491.33c.209.09.444.176.706.26.262.077.53.164.804.259.28.095.551.205.814.33.262.126.494.284.697.474.208.185.375.411.5.68.125.261.188.58.188.955 0 .447-.084.861-.251 1.243-.16.375-.399.7-.714.974a3.395 3.395 0 01-1.18.643c-.471.155-1.013.232-1.626.232a4.97 4.97 0 01-.939-.089 5.223 5.223 0 01-.884-.232 6.005 6.005 0 01-.787-.367 3.525 3.525 0 01-.634-.447l.572-.92a.746.746 0 01.241-.25.746.746 0 01.384-.09.77.77 0 01.411.117l.42.24a4.4 4.4 0 00.545.242c.215.072.48.107.796.107.238 0 .444-.026.616-.08a1.2 1.2 0 00.42-.215.893.893 0 00.313-.68.648.648 0 00-.196-.49 1.611 1.611 0 00-.501-.34 4.76 4.76 0 00-.706-.259 18.523 18.523 0 01-.822-.259 7.327 7.327 0 01-.813-.34 2.928 2.928 0 01-.706-.491 2.472 2.472 0 01-.501-.742c-.125-.292-.187-.646-.187-1.063 0-.381.074-.742.223-1.081.149-.346.373-.65.67-.912a3.33 3.33 0 011.109-.625c.446-.155.962-.233 1.545-.233.656 0 1.252.107 1.788.322.536.214.977.494 1.322.84l-.563.876zm4.645-6.005v7.56h.411a.872.872 0 00.366-.063.847.847 0 00.268-.25l2.038-2.717a1.11 1.11 0 01.339-.313c.131-.071.295-.107.492-.107h2.252l-2.645 3.36c-.209.28-.45.5-.724.661.137.096.256.206.357.331.102.125.2.265.295.42l2.851 4.441h-2.216a1.24 1.24 0 01-.492-.089.774.774 0 01-.339-.34l-2.074-3.386c-.083-.143-.169-.236-.259-.277-.089-.042-.223-.063-.402-.063h-.518v4.155h-2.466V74.08h2.466zm-65.796 22.195c.527 0 1.006.084 1.437.252.431.168.801.408 1.11.722.308.308.547.685.714 1.13.168.445.252.946.252 1.504 0 .559-.084 1.062-.252 1.512a3.203 3.203 0 01-.714 1.137 3.142 3.142 0 01-1.11.722c-.431.167-.91.251-1.437.251a4.023 4.023 0 01-1.45-.251 3.142 3.142 0 01-1.11-.722 3.29 3.29 0 01-.721-1.137 4.292 4.292 0 01-.252-1.512c0-.558.084-1.06.252-1.504a3.139 3.139 0 011.831-1.852 4.004 4.004 0 011.45-.252zm0 5.821c.536 0 .933-.184 1.192-.551.258-.373.388-.924.388-1.655 0-.726-.13-1.273-.388-1.64-.259-.373-.656-.559-1.192-.559-.549 0-.953.186-1.212.558-.258.368-.388.915-.388 1.641 0 .731.13 1.282.388 1.655.259.367.663.551 1.212.551zm5.018 1.307v-5.671l-.545-.095a.783.783 0 01-.347-.15.388.388 0 01-.13-.313v-.75h1.022v-.462c0-.4.061-.76.184-1.083a2.263 2.263 0 011.388-1.348 3.303 3.303 0 011.138-.184c.163 0 .317.012.462.034.15.019.3.048.45.089l-.041.926c-.009.14-.07.234-.184.279-.109.04-.231.061-.367.061-.191 0-.364.02-.518.061a.87.87 0 00-.62.606 1.979 1.979 0 00-.081.613v.409h1.743v1.307h-1.682v5.671h-1.872zm10.738-5.201c.331 0 .617-.041.858-.123.24-.086.438-.202.592-.347a1.38 1.38 0 00.34-.524c.073-.2.109-.418.109-.654 0-.468-.156-.83-.47-1.09-.308-.258-.78-.387-1.416-.387h-1.062V98.2h1.049zm4.786 5.201h-1.845c-.345 0-.595-.131-.749-.395l-1.879-3.03a.772.772 0 00-.259-.258c-.091-.054-.227-.082-.408-.082h-.695v3.765h-2.042v-9.879h3.104c.69 0 1.28.073 1.771.218.49.14.891.338 1.205.593.313.254.542.558.687.912.146.35.218.735.218 1.157 0 .327-.048.638-.143.933-.091.29-.224.556-.402.797a2.91 2.91 0 01-.653.64 3.39 3.39 0 01-.885.449c.131.073.254.161.367.266.114.1.216.22.307.36l2.301 3.554zm4.257-2.934c-.458.023-.84.063-1.144.122a2.779 2.779 0 00-.728.218.982.982 0 00-.382.314.683.683 0 00-.108.374c0 .272.074.465.224.579.155.113.368.17.64.17.313 0 .583-.055.81-.163.232-.114.461-.289.688-.525v-1.089zm-3.826-3.112a4.152 4.152 0 011.368-.83 4.605 4.605 0 011.621-.28c.417 0 .789.069 1.116.205a2.44 2.44 0 011.369 1.437c.122.335.184.703.184 1.102v4.412h-.858a.898.898 0 01-.409-.075c-.091-.049-.166-.154-.225-.313l-.149-.449c-.177.154-.35.29-.518.408a3.068 3.068 0 01-.51.3 2.827 2.827 0 01-.572.177c-.2.041-.425.061-.674.061-.309 0-.59-.041-.845-.122a1.9 1.9 0 01-.66-.361 1.662 1.662 0 01-.422-.606c-.1-.241-.15-.518-.15-.831 0-.258.066-.517.198-.776.131-.259.356-.492.674-.701.322-.214.748-.388 1.28-.524.535-.141 1.205-.22 2.008-.239v-.36c0-.44-.093-.763-.279-.967-.186-.21-.454-.314-.804-.314-.258 0-.474.032-.646.096a2.82 2.82 0 00-.456.197c-.128.068-.248.134-.361.198a.845.845 0 01-.395.088.568.568 0 01-.334-.095.993.993 0 01-.218-.238l-.333-.6zm9.003 4.194c.177.205.368.348.572.429.209.082.432.123.668.123.227 0 .433-.043.619-.129.186-.087.345-.221.477-.402.136-.186.24-.422.313-.708.073-.286.109-.627.109-1.022 0-.39-.032-.721-.095-.993a1.902 1.902 0 00-.259-.66.95.95 0 00-.402-.362 1.201 1.201 0 00-.531-.115c-.331 0-.61.065-.837.197a2.265 2.265 0 00-.634.565v3.077zm-.108-4.248c.14-.154.29-.295.449-.422.159-.132.329-.243.51-.334.182-.095.377-.168.586-.218.209-.054.436-.081.681-.081a2.274 2.274 0 011.852.946c.227.304.404.679.531 1.123.127.445.19.954.19 1.525a4.74 4.74 0 01-.217 1.464 3.525 3.525 0 01-.606 1.158 2.842 2.842 0 01-.954.769 2.735 2.735 0 01-1.232.272c-.381 0-.706-.056-.973-.17a2.44 2.44 0 01-.709-.463v2.799h-1.879v-9.287h1.158c.236 0 .392.109.47.327l.143.592zm7.942-.92v7.02h-1.879v-7.02h1.879zm.225-1.994c0 .159-.032.306-.096.442a1.184 1.184 0 01-.258.361 1.118 1.118 0 01-.375.245c-.14.06-.293.089-.456.089a1.129 1.129 0 01-.803-.334 1.237 1.237 0 01-.252-.36 1.101 1.101 0 01-.089-.443c0-.159.03-.306.089-.443a1.21 1.21 0 01.252-.367 1.127 1.127 0 01.803-.334c.163 0 .316.03.456.089.146.059.27.14.375.245.109.104.195.227.258.367.064.137.096.284.096.443zm5.716 3.82a1.49 1.49 0 00-.579-.43 1.743 1.743 0 00-.654-.122c-.227 0-.433.043-.619.13a1.258 1.258 0 00-.484.408 2.063 2.063 0 00-.306.701 4.171 4.171 0 00-.109 1.021c0 .391.03.722.089.994.059.273.143.493.251.661.114.168.25.29.409.368.159.072.336.108.531.108.331 0 .608-.065.831-.197.227-.132.44-.318.64-.558v-3.085zm1.879-4.957v10.151h-1.158c-.24 0-.395-.109-.463-.326l-.156-.613a3.97 3.97 0 01-.45.422 2.989 2.989 0 01-.503.334 2.772 2.772 0 01-1.267.285c-.376 0-.721-.079-1.035-.238a2.38 2.38 0 01-.817-.694 3.533 3.533 0 01-.531-1.13 5.572 5.572 0 01-.19-1.526c0-.522.07-1.007.211-1.457.145-.449.349-.837.612-1.164.264-.327.581-.583.954-.77a2.73 2.73 0 011.239-.278c.381 0 .701.056.96.17.263.113.501.268.715.463v-3.63h1.879zm8.389 5.188c.64 0 1.108-.154 1.403-.463.299-.309.449-.73.449-1.266 0-.245-.039-.468-.116-.668a1.255 1.255 0 00-.34-.517 1.482 1.482 0 00-.572-.334 2.615 2.615 0 00-.824-.115h-1.294v3.363h1.294zm0-4.916c.676 0 1.26.08 1.75.239.495.158.901.38 1.219.667.317.281.551.617.701 1.007.154.39.231.815.231 1.274 0 .485-.079.93-.238 1.334a2.722 2.722 0 01-.722 1.042c-.322.29-.728.517-1.218.68-.491.16-1.065.239-1.723.239h-1.294v3.397h-2.042v-9.879h3.336zm6.613 4.017c.222-.4.479-.715.769-.946a1.591 1.591 0 011.021-.347c.318 0 .577.075.776.224l-.122 1.39c-.023.09-.059.154-.109.19a.328.328 0 01-.191.048 2.63 2.63 0 01-.313-.028 2.322 2.322 0 00-.381-.034c-.173 0-.327.025-.463.075-.132.05-.25.12-.354.211-.105.091-.2.202-.286.334a3.456 3.456 0 00-.232.45v4.295h-1.879v-7.02h1.11c.191 0 .322.035.395.103.073.068.125.186.157.354l.102.701zm6.376-1.266c.526 0 1.005.084 1.436.252.431.168.801.408 1.11.722.309.308.547.685.715 1.13.168.445.252.946.252 1.504 0 .559-.084 1.062-.252 1.512a3.205 3.205 0 01-.715 1.137 3.142 3.142 0 01-1.11.722c-.431.167-.91.251-1.436.251a4.028 4.028 0 01-1.451-.251 3.13 3.13 0 01-1.109-.722 3.277 3.277 0 01-.722-1.137 4.292 4.292 0 01-.252-1.512c0-.558.084-1.06.252-1.504a3.21 3.21 0 01.722-1.13 3.126 3.126 0 011.109-.722 4.01 4.01 0 011.451-.252zm0 5.821c.535 0 .932-.184 1.191-.551.259-.373.388-.924.388-1.655 0-.726-.129-1.273-.388-1.64-.259-.373-.656-.559-1.191-.559-.55 0-.954.186-1.212.558-.259.368-.388.915-.388 1.641 0 .731.129 1.282.388 1.655.258.367.662.551 1.212.551zm7.241-2.465c.385 0 .669-.097.851-.292.186-.195.279-.447.279-.756 0-.322-.093-.574-.279-.756-.182-.186-.466-.279-.851-.279-.386 0-.67.093-.851.28-.182.18-.273.433-.273.755 0 .304.091.556.273.756.186.195.469.293.851.293zm1.777 4.058a.405.405 0 00-.116-.299.807.807 0 00-.313-.184 1.98 1.98 0 00-.457-.095 6.74 6.74 0 00-.565-.048 22.234 22.234 0 00-.619-.034 9.002 9.002 0 01-.627-.048c-.158.096-.29.209-.394.341a.684.684 0 00-.15.435c0 .114.025.218.075.314a.668.668 0 00.265.245c.123.068.284.12.484.156.199.041.449.062.748.062.309 0 .57-.021.783-.062.214-.041.386-.1.518-.177a.653.653 0 00.279-.265.683.683 0 00.089-.341zm1.865-7.074v.688a.352.352 0 01-.095.259c-.059.063-.159.11-.3.143l-.572.115c.077.223.116.461.116.715 0 .35-.073.665-.218.947a2.177 2.177 0 01-.585.715c-.25.195-.545.347-.885.456a3.765 3.765 0 01-1.103.156 3.8 3.8 0 01-.702-.061c-.19.118-.286.247-.286.388 0 .132.064.227.191.286.132.059.302.102.511.129.213.023.454.039.721.048.273.005.547.018.824.041.282.023.556.064.824.123.272.054.513.147.722.279.213.127.383.297.51.51.132.214.198.488.198.824 0 .313-.077.617-.232.912a2.441 2.441 0 01-.674.79c-.29.232-.649.418-1.076.559a4.66 4.66 0 01-1.457.211c-.54 0-1.009-.053-1.409-.157a3.233 3.233 0 01-.987-.409 1.725 1.725 0 01-.579-.585 1.38 1.38 0 01-.19-.695c0-.313.095-.578.285-.796.191-.218.454-.393.79-.524-.177-.1-.32-.23-.429-.388-.104-.164-.156-.375-.156-.634 0-.208.075-.429.224-.66.155-.232.391-.424.708-.579a2.272 2.272 0 01-.851-.762 2.026 2.026 0 01-.313-1.124c0-.35.071-.665.211-.946.146-.281.345-.52.599-.715.255-.2.554-.352.899-.456.345-.105.72-.157 1.124-.157.599 0 1.127.118 1.586.354h2.056zm2.74.926c.223-.4.479-.715.77-.946a1.59 1.59 0 011.021-.347c.318 0 .577.075.776.224l-.122 1.39c-.023.09-.059.154-.109.19a.33.33 0 01-.191.048 2.63 2.63 0 01-.313-.028 2.322 2.322 0 00-.381-.034c-.173 0-.327.025-.463.075-.132.05-.25.12-.354.211-.105.091-.2.202-.286.334a3.456 3.456 0 00-.232.45v4.295h-1.879v-7.02h1.11c.191 0 .322.035.395.103.072.068.125.186.156.354l.102.701zm7.663 1.525a1.87 1.87 0 00-.082-.558 1.238 1.238 0 00-.245-.47 1.163 1.163 0 00-.429-.32 1.434 1.434 0 00-.619-.122c-.449 0-.801.127-1.055.381-.255.254-.42.617-.497 1.09h2.927zm-2.955 1.117c.059.658.245 1.139.559 1.443.317.304.73.457 1.239.457.258 0 .481-.03.667-.089.191-.064.356-.132.497-.204l.388-.205a.736.736 0 01.347-.095c.146 0 .259.055.341.164l.544.68a2.992 2.992 0 01-.66.579c-.241.15-.49.27-.749.361a4.02 4.02 0 01-.783.177 5.62 5.62 0 01-.762.054c-.491 0-.949-.079-1.376-.238a3.22 3.22 0 01-1.11-.715 3.41 3.41 0 01-.742-1.178c-.181-.467-.272-1.009-.272-1.627 0-.476.077-.926.231-1.348a3.27 3.27 0 01.681-1.103 3.19 3.19 0 011.076-.742c.422-.186.899-.28 1.43-.28.449 0 .862.074 1.239.219.381.14.708.347.98.62.277.272.491.608.64 1.007.155.395.232.847.232 1.355 0 .14-.007.256-.021.347a.6.6 0 01-.068.218.268.268 0 01-.129.116.685.685 0 01-.211.027h-4.208zm10.167-2.356a.582.582 0 01-.156.17.396.396 0 01-.212.048.65.65 0 01-.279-.068 7.881 7.881 0 00-.32-.143 3.002 3.002 0 00-.408-.15 1.816 1.816 0 00-.524-.068c-.305 0-.541.064-.709.19a.579.579 0 00-.251.491c0 .14.047.259.143.354.095.095.22.18.374.252.159.068.338.134.538.197.2.06.404.125.613.198.213.073.419.156.619.252.2.095.377.215.531.36.159.141.286.314.382.518.095.2.143.443.143.729 0 .34-.064.655-.191.946a2.035 2.035 0 01-.545.742c-.24.209-.54.372-.899.49a3.958 3.958 0 01-1.239.177c-.24 0-.479-.022-.715-.068-.236-.041-.46-.1-.674-.177a4.648 4.648 0 01-.599-.279 2.678 2.678 0 01-.483-.34l.436-.702a.575.575 0 01.183-.19.567.567 0 01.293-.068.58.58 0 01.313.088l.32.184a3.4 3.4 0 00.416.184c.163.054.365.081.606.081.181 0 .338-.02.469-.061a.915.915 0 00.32-.163.664.664 0 00.177-.238.674.674 0 00.062-.28.493.493 0 00-.15-.374 1.22 1.22 0 00-.381-.259 3.76 3.76 0 00-.538-.197 13.937 13.937 0 01-.627-.198 5.67 5.67 0 01-.619-.258c-.2-.1-.379-.225-.538-.375a1.883 1.883 0 01-.381-.565 2.042 2.042 0 01-.143-.81c0-.29.056-.565.17-.824.113-.263.284-.495.511-.695.227-.2.508-.358.844-.476a3.59 3.59 0 011.178-.177c.499 0 .953.082 1.361.245.409.163.745.377 1.008.64l-.429.667zm6.024 0a.57.57 0 01-.157.17.392.392 0 01-.211.048.65.65 0 01-.279-.068 7.881 7.881 0 00-.32-.143 3.002 3.002 0 00-.408-.15 1.818 1.818 0 00-.525-.068c-.304 0-.54.064-.708.19a.577.577 0 00-.252.491c0 .14.048.259.143.354.096.095.221.18.375.252.159.068.338.134.538.197.199.06.404.125.613.198.213.073.419.156.619.252.2.095.377.215.531.36.159.141.286.314.381.518.096.2.143.443.143.729 0 .34-.063.655-.19.946a2.035 2.035 0 01-.545.742c-.24.209-.54.372-.899.49a3.958 3.958 0 01-1.239.177c-.24 0-.479-.022-.715-.068-.236-.041-.46-.1-.674-.177a4.648 4.648 0 01-.599-.279 2.678 2.678 0 01-.483-.34l.436-.702a.566.566 0 01.183-.19.567.567 0 01.293-.068.58.58 0 01.313.088l.32.184a3.4 3.4 0 00.416.184c.163.054.365.081.606.081.181 0 .338-.02.469-.061a.915.915 0 00.32-.163.664.664 0 00.177-.238.674.674 0 00.062-.28.493.493 0 00-.15-.374 1.232 1.232 0 00-.381-.259 3.76 3.76 0 00-.538-.197 13.543 13.543 0 01-.627-.198 5.67 5.67 0 01-.619-.258c-.2-.1-.379-.225-.538-.375a1.865 1.865 0 01-.381-.565 2.042 2.042 0 01-.143-.81c0-.29.056-.565.17-.824.113-.263.284-.495.51-.695.227-.2.509-.358.845-.476a3.59 3.59 0 011.178-.177c.499 0 .953.082 1.361.245.409.163.745.377 1.008.64l-.429.667zm3.593-1.443v7.019h-1.879v-7.02h1.879zm.225-1.995c0 .159-.032.306-.095.442a1.19 1.19 0 01-.259.361 1.108 1.108 0 01-.375.245c-.14.06-.292.089-.456.089a1.129 1.129 0 01-.803-.334 1.256 1.256 0 01-.252-.36 1.101 1.101 0 01-.089-.443 1.106 1.106 0 01.341-.81 1.127 1.127 0 01.803-.334c.164 0 .316.03.456.089a1.1 1.1 0 01.375.245c.109.104.195.227.259.367.063.137.095.284.095.443zm4.545 1.886c.526 0 1.005.084 1.436.252a3.13 3.13 0 011.11.722c.309.308.547.685.715 1.13.168.445.252.946.252 1.504 0 .559-.084 1.062-.252 1.512a3.205 3.205 0 01-.715 1.137 3.133 3.133 0 01-1.11.722c-.431.167-.91.251-1.436.251a4.02 4.02 0 01-1.45-.251 3.125 3.125 0 01-1.11-.722 3.292 3.292 0 01-.722-1.137 4.292 4.292 0 01-.252-1.512c0-.558.084-1.06.252-1.504.173-.445.413-.822.722-1.13a3.121 3.121 0 011.11-.722 4 4 0 011.45-.252zm0 5.821c.535 0 .933-.184 1.191-.551.259-.373.388-.924.388-1.655 0-.726-.129-1.273-.388-1.64-.258-.373-.656-.559-1.191-.559-.549 0-.953.186-1.212.558-.259.368-.388.915-.388 1.641 0 .731.129 1.282.388 1.655.259.367.663.551 1.212.551zm6.436-4.895c.14-.136.286-.261.436-.375a2.717 2.717 0 011.681-.552c.381 0 .72.067 1.015.198.295.132.542.316.742.552a2.3 2.3 0 01.456.844c.104.327.157.685.157 1.076v4.459h-1.873v-4.46c0-.39-.091-.691-.272-.905-.182-.218-.449-.327-.804-.327-.263 0-.51.057-.742.17a2.568 2.568 0 00-.66.477v5.045h-1.879v-7.02h1.157c.236 0 .393.11.47.328l.116.49zm-116.214 86.409H660.5v-12.966h2.699v12.966zm4.52-8.14c.185-.179.376-.343.572-.492a3.534 3.534 0 012.208-.724c.5 0 .944.087 1.331.259.387.173.712.414.974.724.268.31.468.679.599 1.108.137.429.205.9.205 1.412v5.853h-2.457v-5.853c0-.512-.119-.908-.358-1.188-.238-.286-.589-.429-1.054-.429-.346 0-.67.074-.974.223a3.36 3.36 0 00-.867.626v6.621h-2.466v-9.213h1.519c.31 0 .515.143.616.429l.152.644zm10.912 8.283c-.417 0-.786-.059-1.108-.178a2.245 2.245 0 01-.813-.528 2.21 2.21 0 01-.5-.822 3.248 3.248 0 01-.17-1.09v-4.968h-.867a.503.503 0 01-.34-.125c-.089-.084-.134-.209-.134-.376v-.965l1.475-.268.5-2.386c.066-.268.247-.402.545-.402h1.287v2.806h2.377v1.716h-2.377v4.807c0 .256.06.459.179.608.125.149.301.223.527.223.119 0 .22-.012.304-.035.083-.03.155-.06.214-.09.06-.036.114-.065.161-.089a.327.327 0 01.161-.045c.072 0 .131.018.179.054.047.03.095.083.143.161l.741 1.179a3.612 3.612 0 01-1.152.608 4.351 4.351 0 01-1.332.205zm9.33-5.835c0-.256-.035-.5-.107-.733a1.638 1.638 0 00-.322-.616 1.527 1.527 0 00-.563-.42 1.886 1.886 0 00-.813-.161c-.59 0-1.051.167-1.385.5-.333.334-.551.811-.652 1.43h3.842zm-3.878 1.466c.077.863.322 1.495.733 1.894.417.399.959.599 1.626.599.34 0 .632-.039.876-.116.25-.084.468-.173.652-.268.191-.102.361-.191.51-.269a.956.956 0 01.455-.125c.191 0 .34.072.447.215l.715.893a3.992 3.992 0 01-.867.76 4.99 4.99 0 01-.983.474c-.339.113-.682.19-1.027.232-.346.048-.68.071-1.001.071a5.14 5.14 0 01-1.805-.312 4.236 4.236 0 01-1.457-.939 4.47 4.47 0 01-.974-1.546c-.238-.613-.357-1.325-.357-2.135 0-.626.101-1.216.303-1.77a4.298 4.298 0 01.894-1.447 4.178 4.178 0 011.412-.974c.554-.245 1.18-.367 1.877-.367.589 0 1.131.096 1.626.286.5.185.929.456 1.287.813.363.358.643.799.84 1.323.202.518.304 1.111.304 1.778 0 .185-.009.337-.027.456a.81.81 0 01-.09.286.35.35 0 01-.169.152.89.89 0 01-.277.036h-5.523zm9.93-3.468c.292-.524.629-.938 1.01-1.242a2.085 2.085 0 011.341-.455c.417 0 .756.098 1.018.294l-.161 1.823c-.029.12-.077.203-.143.251a.433.433 0 01-.25.062c-.095 0-.232-.012-.411-.036a3.135 3.135 0 00-.5-.044 1.77 1.77 0 00-.608.098 1.539 1.539 0 00-.465.277 2.085 2.085 0 00-.375.438 4.62 4.62 0 00-.304.59v5.638h-2.466v-9.213h1.457c.25 0 .423.045.518.134.095.09.164.245.205.465l.134.92zm4.423 7.694v-9.213h1.519c.31 0 .515.143.617.429l.143.599c.16-.167.324-.322.491-.465.173-.143.358-.265.554-.366a2.8 2.8 0 011.385-.34c.566 0 1.034.152 1.403.456.37.298.65.697.84 1.197.149-.291.331-.542.545-.75a2.95 2.95 0 01.715-.518 3.3 3.3 0 01.822-.286c.292-.066.584-.099.876-.099.518 0 .977.078 1.376.233.399.155.733.384 1.001.688.274.298.483.664.626 1.099.143.435.214.929.214 1.483v5.853h-2.466v-5.853c0-1.078-.462-1.617-1.385-1.617-.209 0-.403.036-.581.107a1.315 1.315 0 00-.465.304 1.516 1.516 0 00-.313.509 2.104 2.104 0 00-.107.697v5.853h-2.466v-5.853c0-.584-.116-.998-.349-1.242-.226-.25-.563-.375-1.01-.375-.286 0-.557.068-.813.205-.25.131-.485.316-.706.554v6.711h-2.466zm20.924-5.692a2.5 2.5 0 00-.107-.733 1.652 1.652 0 00-.322-.616 1.535 1.535 0 00-.563-.42 1.892 1.892 0 00-.813-.161c-.59 0-1.052.167-1.385.5-.334.334-.551.811-.653 1.43h3.843zm-3.878 1.466c.077.863.321 1.495.732 1.894.417.399.959.599 1.627.599.339 0 .631-.039.875-.116.251-.084.468-.173.653-.268.19-.102.36-.191.509-.269a.963.963 0 01.456-.125.53.53 0 01.447.215l.714.893a4.01 4.01 0 01-.866.76 5.018 5.018 0 01-.983.474c-.34.113-.682.19-1.028.232a7.263 7.263 0 01-1.001.071 5.144 5.144 0 01-1.805-.312 4.232 4.232 0 01-1.456-.939 4.456 4.456 0 01-.974-1.546c-.239-.613-.358-1.325-.358-2.135 0-.626.101-1.216.304-1.77a4.266 4.266 0 01.894-1.447 4.173 4.173 0 011.411-.974c.554-.245 1.18-.367 1.877-.367.59 0 1.132.096 1.626.286a3.515 3.515 0 012.127 2.136c.203.518.304 1.111.304 1.778 0 .185-.009.337-.027.456a.81.81 0 01-.089.286.352.352 0 01-.17.152.886.886 0 01-.277.036h-5.522zm13.308-2.592a1.963 1.963 0 00-.76-.563 2.293 2.293 0 00-.858-.161c-.298 0-.569.057-.813.17a1.636 1.636 0 00-.634.536c-.173.239-.307.545-.402.921a5.463 5.463 0 00-.143 1.34c0 .512.038.947.116 1.305.077.357.187.646.33.867.149.22.328.381.536.482.209.095.441.143.698.143.434 0 .798-.086 1.09-.259a3.17 3.17 0 00.84-.733v-4.048zm2.466-6.505v13.323h-1.519c-.316 0-.518-.143-.608-.429l-.205-.804a5.208 5.208 0 01-.59.554 3.867 3.867 0 01-.661.438 3.565 3.565 0 01-.769.277 3.812 3.812 0 01-.893.098c-.495 0-.948-.104-1.359-.312a3.124 3.124 0 01-1.072-.912c-.298-.405-.53-.899-.697-1.483-.167-.584-.25-1.251-.25-2.002 0-.685.092-1.322.277-1.912a4.7 4.7 0 01.804-1.528 3.74 3.74 0 011.251-1.01 3.59 3.59 0 011.626-.366c.501 0 .921.074 1.26.223.346.149.659.351.939.608v-4.763h2.466zm4.589 4.11v9.213h-2.466v-9.213h2.466zm.295-2.618c0 .209-.041.402-.125.581a1.555 1.555 0 01-.339.473 1.46 1.46 0 01-.492.322 1.523 1.523 0 01-.599.116 1.472 1.472 0 01-1.054-.438 1.658 1.658 0 01-.331-.473 1.453 1.453 0 01-.116-.581 1.453 1.453 0 01.447-1.063 1.472 1.472 0 011.054-.438c.215 0 .414.038.599.116.191.077.355.185.492.322.143.137.256.297.339.482.084.179.125.372.125.581zm6.627 7.98c-.602.03-1.102.083-1.502.161-.399.071-.717.167-.956.286-.232.119-.399.256-.5.411a.896.896 0 00-.143.491c0 .358.098.611.295.76.202.149.482.223.84.223.411 0 .765-.071 1.063-.214.304-.149.605-.379.903-.688v-1.43zm-5.022-4.084a5.442 5.442 0 011.796-1.09 6.046 6.046 0 012.127-.366c.548 0 1.036.089 1.465.268.435.178.801.429 1.099.75.304.316.536.694.697 1.135.161.441.242.924.242 1.448v5.79h-1.126c-.233 0-.411-.032-.537-.098-.119-.065-.217-.202-.294-.411l-.197-.59a8.036 8.036 0 01-.679.536 4.108 4.108 0 01-.67.394 3.737 3.737 0 01-.751.232c-.262.054-.557.08-.885.08-.405 0-.774-.053-1.108-.16a2.527 2.527 0 01-.867-.474 2.186 2.186 0 01-.554-.795 2.831 2.831 0 01-.196-1.091c0-.339.086-.679.259-1.018.173-.34.468-.647.885-.921.423-.28.983-.509 1.68-.688.703-.185 1.581-.289 2.636-.313v-.473c0-.578-.122-1.001-.367-1.269-.244-.274-.595-.411-1.054-.411-.34 0-.623.042-.849.125a3.778 3.778 0 00-.599.259 28.64 28.64 0 00-.473.259 1.103 1.103 0 01-.519.116.744.744 0 01-.438-.125 1.28 1.28 0 01-.285-.312l-.438-.787zm12.392 8.078c-.417 0-.786-.059-1.108-.178a2.254 2.254 0 01-.813-.528 2.21 2.21 0 01-.5-.822 3.248 3.248 0 01-.17-1.09v-4.968h-.867a.503.503 0 01-.34-.125c-.089-.084-.134-.209-.134-.376v-.965l1.475-.268.5-2.386c.066-.268.248-.402.545-.402h1.287v2.806h2.377v1.716h-2.377v4.807c0 .256.06.459.179.608.125.149.301.223.527.223.119 0 .221-.012.304-.035.083-.03.155-.06.214-.09.06-.036.114-.065.161-.089a.33.33 0 01.161-.045c.072 0 .131.018.179.054.048.03.095.083.143.161l.742 1.179c-.34.268-.724.471-1.153.608a4.351 4.351 0 01-1.332.205zm9.33-5.835c0-.256-.035-.5-.107-.733a1.638 1.638 0 00-.322-.616 1.523 1.523 0 00-.562-.42 1.894 1.894 0 00-.814-.161c-.589 0-1.051.167-1.385.5-.333.334-.551.811-.652 1.43h3.842zm-3.878 1.466c.078.863.322 1.495.733 1.894.417.399.959.599 1.626.599.34 0 .632-.039.876-.116.25-.084.468-.173.652-.268.191-.102.361-.191.51-.269a.962.962 0 01.455-.125c.191 0 .34.072.447.215l.715.893a3.992 3.992 0 01-.867.76 4.964 4.964 0 01-.983.474c-.339.113-.682.19-1.027.232a7.274 7.274 0 01-1.001.071 5.14 5.14 0 01-1.805-.312 4.236 4.236 0 01-1.457-.939 4.47 4.47 0 01-.974-1.546c-.238-.613-.357-1.325-.357-2.135 0-.626.101-1.216.304-1.77a4.28 4.28 0 01.893-1.447 4.178 4.178 0 011.412-.974c.554-.245 1.18-.367 1.877-.367.589 0 1.132.096 1.626.286.5.185.929.456 1.287.813.363.358.643.799.84 1.323.202.518.304 1.111.304 1.778 0 .185-.009.337-.027.456a.81.81 0 01-.09.286.35.35 0 01-.169.152.89.89 0 01-.277.036h-5.523zm16.254-2.601c.435 0 .81-.053 1.126-.161.315-.113.575-.265.777-.455.203-.197.352-.426.447-.688.095-.263.143-.549.143-.858 0-.614-.206-1.091-.617-1.43-.405-.34-1.024-.509-1.858-.509h-1.394v4.101h1.376zm6.282 6.827h-2.422c-.453 0-.78-.172-.983-.518l-2.466-3.976a1.02 1.02 0 00-.34-.34c-.119-.072-.298-.107-.536-.107h-.911v4.941h-2.681v-12.966h4.075c.905 0 1.68.095 2.323.286.643.185 1.171.444 1.582.778.411.333.712.732.902 1.197.191.459.286.965.286 1.519 0 .429-.062.837-.187 1.224-.12.382-.295.73-.528 1.046a3.807 3.807 0 01-.858.84 4.432 4.432 0 01-1.161.59c.173.095.333.211.482.348.149.131.283.289.402.474l3.021 4.664zm3.343-9.213v9.213h-2.466v-9.213h2.466zm.295-2.618c0 .209-.041.402-.125.581a1.555 1.555 0 01-.339.473 1.46 1.46 0 01-.492.322 1.523 1.523 0 01-.599.116 1.472 1.472 0 01-1.054-.438 1.658 1.658 0 01-.331-.473 1.453 1.453 0 01-.116-.581 1.453 1.453 0 01.447-1.063 1.472 1.472 0 011.054-.438c.215 0 .414.038.599.116.191.077.355.185.492.322.143.137.256.297.339.482.084.179.125.372.125.581zm7.538 4.513a.761.761 0 01-.205.223.514.514 0 01-.277.063.843.843 0 01-.367-.09 10.46 10.46 0 00-.42-.187 3.901 3.901 0 00-.536-.197 2.369 2.369 0 00-.688-.089c-.399 0-.709.083-.929.25a.756.756 0 00-.331.643c0 .185.062.34.188.465.125.125.289.235.491.331a8.2 8.2 0 00.706.259c.262.077.53.164.804.259.28.095.551.205.813.331.263.125.495.283.697.473.209.185.376.411.501.679.125.262.188.581.188.956 0 .447-.084.861-.251 1.243-.161.375-.399.7-.715.974a3.382 3.382 0 01-1.179.643c-.471.155-1.013.232-1.626.232a4.93 4.93 0 01-.939-.089 5.255 5.255 0 01-.884-.232 6.063 6.063 0 01-.787-.367 3.485 3.485 0 01-.634-.447l.572-.92a.742.742 0 01.241-.25.742.742 0 01.384-.09c.149 0 .286.039.411.117l.42.241c.155.083.337.164.545.241.215.072.48.107.796.107.238 0 .443-.026.616-.08.173-.054.313-.125.42-.214a.892.892 0 00.233-.313.893.893 0 00.08-.367.649.649 0 00-.197-.491 1.62 1.62 0 00-.5-.34 4.908 4.908 0 00-.706-.259 18.255 18.255 0 01-.822-.259 7.108 7.108 0 01-.813-.34 2.915 2.915 0 01-.706-.491 2.46 2.46 0 01-.501-.742c-.125-.292-.187-.646-.187-1.063 0-.381.074-.742.223-1.081.149-.346.372-.65.67-.912.298-.262.668-.47 1.108-.625.447-.155.962-.233 1.546-.233.656 0 1.251.108 1.788.322.536.214.977.494 1.322.84l-.563.876zm4.645-6.005v7.56h.411a.872.872 0 00.366-.063.853.853 0 00.268-.25l2.038-2.717c.101-.137.214-.241.339-.312.131-.072.295-.108.492-.108h2.252l-2.645 3.36a2.46 2.46 0 01-.724.662c.137.095.256.205.357.33.101.125.2.265.295.42l2.851 4.441h-2.216c-.191 0-.355-.029-.492-.089a.777.777 0 01-.339-.34l-2.074-3.386c-.083-.143-.169-.236-.259-.277-.089-.042-.223-.063-.402-.063h-.518v4.155h-2.467v-13.323h2.467zm-130.862 22.195c.527 0 1.006.084 1.437.252.431.168.801.408 1.11.722.308.308.547.685.714 1.13.168.445.252.946.252 1.504a4.29 4.29 0 01-.252 1.512 3.203 3.203 0 01-.714 1.137 3.142 3.142 0 01-1.11.722c-.431.168-.91.252-1.437.252a4.002 4.002 0 01-1.45-.252 3.142 3.142 0 01-1.11-.722 3.29 3.29 0 01-.721-1.137 4.29 4.29 0 01-.252-1.512c0-.558.084-1.059.252-1.504.172-.445.413-.822.721-1.13a3.129 3.129 0 011.11-.722 4.002 4.002 0 011.45-.252zm0 5.821c.536 0 .933-.184 1.192-.551.258-.373.388-.924.388-1.655 0-.726-.13-1.273-.388-1.641-.259-.372-.656-.558-1.192-.558-.549 0-.953.186-1.212.558-.258.368-.388.915-.388 1.641 0 .731.13 1.282.388 1.655.259.367.663.551 1.212.551zm5.018 1.307v-5.671l-.545-.095a.8.8 0 01-.347-.15.388.388 0 01-.13-.313v-.749h1.022v-.463c0-.4.061-.761.184-1.083.127-.327.306-.601.537-.824a2.36 2.36 0 01.851-.524 3.317 3.317 0 011.138-.184c.163 0 .317.012.462.034.15.019.3.048.45.089l-.041.926c-.009.141-.07.234-.184.279a1.035 1.035 0 01-.367.061c-.191 0-.364.021-.518.062a.86.86 0 00-.381.211.896.896 0 00-.239.394 1.983 1.983 0 00-.081.613v.409h1.743v1.307h-1.682v5.671h-1.872zm10.738-5.201c.331 0 .617-.041.858-.123.24-.086.438-.202.592-.347a1.38 1.38 0 00.34-.524c.073-.2.109-.418.109-.654 0-.467-.156-.831-.47-1.089-.308-.259-.78-.388-1.416-.388h-1.062v3.125h1.049zm4.786 5.201h-1.845c-.345 0-.595-.131-.749-.395l-1.879-3.029a.77.77 0 00-.259-.259c-.091-.054-.227-.082-.408-.082h-.695v3.765h-2.042v-9.879h3.104c.69 0 1.28.073 1.771.218.49.141.891.338 1.205.593.313.254.542.558.687.912.146.349.218.735.218 1.157 0 .327-.048.638-.143.933a2.67 2.67 0 01-.402.797c-.177.24-.394.454-.653.64a3.377 3.377 0 01-.885.449c.131.073.254.161.367.266.114.099.216.22.307.36l2.301 3.554zm4.257-2.934c-.458.023-.84.063-1.144.122a2.779 2.779 0 00-.728.218.982.982 0 00-.382.314.683.683 0 00-.108.374c0 .272.074.465.224.579.155.113.368.17.64.17.313 0 .583-.055.81-.163.232-.114.461-.289.688-.525v-1.089zm-3.826-3.112a4.143 4.143 0 011.368-.83 4.608 4.608 0 011.621-.279c.417 0 .789.068 1.116.204a2.44 2.44 0 011.369 1.437c.122.335.184.703.184 1.103v4.411h-.858a.898.898 0 01-.409-.075c-.091-.049-.166-.154-.225-.313l-.149-.449c-.177.154-.35.29-.518.408a3.068 3.068 0 01-.51.3 2.827 2.827 0 01-.572.177c-.2.041-.425.061-.674.061-.309 0-.59-.041-.845-.122a1.9 1.9 0 01-.66-.361 1.645 1.645 0 01-.422-.606 2.15 2.15 0 01-.15-.831c0-.258.066-.517.198-.776.131-.259.356-.492.674-.701.322-.213.748-.388 1.28-.524.535-.141 1.205-.22 2.008-.239v-.36c0-.441-.093-.763-.279-.967-.186-.209-.454-.313-.804-.313-.258 0-.474.031-.646.095a2.875 2.875 0 00-.456.197c-.128.068-.248.134-.361.198a.845.845 0 01-.395.088.572.572 0 01-.334-.095 1.005 1.005 0 01-.218-.238l-.333-.6zm9.003 4.194c.177.205.368.348.572.429.209.082.432.123.668.123.227 0 .433-.043.619-.129.186-.087.345-.221.477-.402.136-.186.24-.422.313-.708.073-.286.109-.627.109-1.021 0-.391-.032-.722-.095-.994a1.9 1.9 0 00-.259-.661.953.953 0 00-.402-.361 1.202 1.202 0 00-.531-.115c-.331 0-.61.065-.837.197a2.257 2.257 0 00-.634.565v3.077zm-.108-4.248c.14-.154.29-.295.449-.422.159-.132.329-.243.51-.334.182-.095.377-.168.586-.218.209-.054.436-.081.681-.081a2.272 2.272 0 011.852.946c.227.304.404.679.531 1.123.127.445.19.954.19 1.526 0 .526-.072 1.014-.217 1.463a3.525 3.525 0 01-.606 1.158 2.842 2.842 0 01-.954.769 2.736 2.736 0 01-1.232.273c-.381 0-.706-.057-.973-.171a2.44 2.44 0 01-.709-.463v2.799h-1.879v-9.287h1.158c.236 0 .392.109.47.327l.143.592zm7.942-.919v7.019h-1.879v-7.019h1.879zm.225-1.995c0 .159-.032.306-.096.443a1.178 1.178 0 01-.258.36 1.109 1.109 0 01-.375.245c-.14.06-.293.089-.456.089a1.112 1.112 0 01-.803-.334 1.23 1.23 0 01-.252-.36 1.106 1.106 0 01-.089-.443 1.106 1.106 0 01.341-.81 1.132 1.132 0 01.803-.334c.163 0 .316.03.456.089.146.059.27.14.375.245.109.104.195.227.258.367.064.137.096.284.096.443zm5.716 3.82a1.477 1.477 0 00-.579-.429 1.737 1.737 0 00-.654-.123c-.227 0-.433.043-.619.129a1.267 1.267 0 00-.484.409 2.057 2.057 0 00-.306.701 4.175 4.175 0 00-.109 1.021c0 .391.03.722.089.994.059.273.143.493.251.661.114.168.25.29.409.368.159.072.336.108.531.108.331 0 .608-.065.831-.197.227-.132.44-.318.64-.558v-3.084zm1.879-4.957v10.151h-1.158c-.24 0-.395-.109-.463-.326l-.156-.613a3.97 3.97 0 01-.45.422 2.989 2.989 0 01-.503.334 2.772 2.772 0 01-1.267.286c-.376 0-.721-.08-1.035-.239a2.38 2.38 0 01-.817-.694 3.533 3.533 0 01-.531-1.13 5.573 5.573 0 01-.19-1.526c0-.522.07-1.007.211-1.457.145-.449.349-.837.612-1.164.264-.327.581-.583.954-.769a2.731 2.731 0 011.239-.279c.381 0 .701.056.96.17.263.113.501.268.715.463v-3.629h1.879zm8.389 5.188c.64 0 1.108-.154 1.403-.463.299-.309.449-.731.449-1.266 0-.245-.039-.468-.116-.668a1.257 1.257 0 00-.34-.517 1.498 1.498 0 00-.572-.334 2.622 2.622 0 00-.824-.115h-1.294v3.363h1.294zm0-4.916c.676 0 1.26.08 1.75.239.495.158.901.381 1.219.667.317.281.551.617.701 1.007.154.391.231.815.231 1.274 0 .485-.079.93-.238 1.334a2.727 2.727 0 01-.722 1.042c-.322.29-.728.517-1.218.681-.491.159-1.065.238-1.723.238h-1.294v3.397h-2.042v-9.879h3.336zm6.613 4.017c.222-.399.479-.715.769-.946a1.588 1.588 0 011.021-.347c.318 0 .577.075.776.224l-.122 1.389c-.023.091-.059.155-.109.191a.327.327 0 01-.191.048c-.072 0-.177-.009-.313-.028a2.401 2.401 0 00-.381-.034c-.173 0-.327.025-.463.075-.132.05-.25.12-.354.211-.105.091-.2.202-.286.334a3.47 3.47 0 00-.232.449v4.296h-1.879v-7.019h1.11c.191 0 .322.034.395.102.073.068.125.186.157.354l.102.701zm6.376-1.266c.526 0 1.005.084 1.436.252.431.168.801.408 1.11.722.309.308.547.685.715 1.13.168.445.252.946.252 1.504a4.29 4.29 0 01-.252 1.512 3.205 3.205 0 01-.715 1.137 3.142 3.142 0 01-1.11.722c-.431.168-.91.252-1.436.252a4.007 4.007 0 01-1.451-.252 3.13 3.13 0 01-1.109-.722 3.277 3.277 0 01-.722-1.137 4.29 4.29 0 01-.252-1.512c0-.558.084-1.059.252-1.504.172-.445.413-.822.722-1.13a3.116 3.116 0 011.109-.722c.436-.168.92-.252 1.451-.252zm0 5.821c.535 0 .932-.184 1.191-.551.259-.373.388-.924.388-1.655 0-.726-.129-1.273-.388-1.641-.259-.372-.656-.558-1.191-.558-.55 0-.954.186-1.212.558-.259.368-.388.915-.388 1.641 0 .731.129 1.282.388 1.655.258.367.662.551 1.212.551zm7.241-2.465c.385 0 .669-.097.851-.292.186-.195.279-.447.279-.756 0-.322-.093-.574-.279-.756-.182-.186-.466-.279-.851-.279-.386 0-.67.093-.851.279-.182.182-.273.434-.273.756 0 .304.091.556.273.756.186.195.469.292.851.292zm1.777 4.058a.405.405 0 00-.116-.299.807.807 0 00-.313-.184 1.98 1.98 0 00-.457-.095 6.74 6.74 0 00-.565-.048 22.234 22.234 0 00-.619-.034 9.002 9.002 0 01-.627-.048c-.158.096-.29.209-.394.341a.684.684 0 00-.15.435c0 .114.025.218.075.314a.668.668 0 00.265.245c.123.068.284.12.484.156.199.041.449.062.748.062.309 0 .57-.021.783-.062.214-.041.386-.1.518-.177a.653.653 0 00.279-.265.683.683 0 00.089-.341zm1.865-7.074v.688a.353.353 0 01-.095.259c-.059.063-.159.111-.3.143l-.572.115c.077.223.116.461.116.715 0 .35-.073.665-.218.947a2.174 2.174 0 01-.585.715c-.25.195-.545.347-.885.456a3.765 3.765 0 01-1.103.156 3.8 3.8 0 01-.702-.061c-.19.118-.286.247-.286.388 0 .132.064.227.191.286.132.059.302.102.511.129.213.023.454.039.721.048.273.005.547.018.824.041.282.023.556.064.824.123.272.054.513.147.722.279.213.127.383.297.51.51.132.214.198.488.198.824 0 .313-.077.617-.232.912a2.431 2.431 0 01-.674.79c-.29.232-.649.418-1.076.559a4.66 4.66 0 01-1.457.211c-.54 0-1.009-.053-1.409-.157a3.258 3.258 0 01-.987-.408 1.736 1.736 0 01-.579-.586 1.38 1.38 0 01-.19-.694c0-.314.095-.579.285-.797.191-.218.454-.393.79-.524-.177-.1-.32-.23-.429-.388-.104-.164-.156-.375-.156-.634 0-.208.075-.429.224-.66.155-.231.391-.424.708-.579a2.278 2.278 0 01-.851-.762 2.03 2.03 0 01-.313-1.124c0-.349.071-.665.211-.946.146-.281.345-.52.599-.715.255-.2.554-.352.899-.456a3.88 3.88 0 011.124-.157c.599 0 1.127.118 1.586.354h2.056zm2.74.926c.223-.399.479-.715.77-.946.29-.232.631-.347 1.021-.347.318 0 .577.075.776.224l-.122 1.389c-.023.091-.059.155-.109.191a.329.329 0 01-.191.048c-.072 0-.177-.009-.313-.028a2.401 2.401 0 00-.381-.034c-.173 0-.327.025-.463.075-.132.05-.25.12-.354.211-.105.091-.2.202-.286.334a3.47 3.47 0 00-.232.449v4.296h-1.879v-7.019h1.11c.191 0 .322.034.395.102.072.068.125.186.156.354l.102.701zm7.663 1.525a1.87 1.87 0 00-.082-.558 1.237 1.237 0 00-.245-.47 1.163 1.163 0 00-.429-.32 1.445 1.445 0 00-.619-.122c-.449 0-.801.127-1.055.381-.255.254-.42.617-.497 1.089h2.927zm-2.955 1.117c.059.658.245 1.139.559 1.443.317.304.73.457 1.239.457.258 0 .481-.03.667-.089.191-.064.356-.132.497-.204l.388-.204a.726.726 0 01.347-.096c.146 0 .259.055.341.164l.544.68a2.992 2.992 0 01-.66.579c-.241.15-.49.27-.749.361a4.02 4.02 0 01-.783.177 5.625 5.625 0 01-.762.055 3.91 3.91 0 01-1.376-.239 3.205 3.205 0 01-1.11-.715 3.41 3.41 0 01-.742-1.178c-.181-.467-.272-1.009-.272-1.627 0-.476.077-.926.231-1.348a3.27 3.27 0 01.681-1.103c.295-.313.654-.56 1.076-.742a3.512 3.512 0 011.43-.279c.449 0 .862.073 1.239.218a2.682 2.682 0 011.62 1.627c.155.395.232.847.232 1.355 0 .141-.007.256-.021.347a.596.596 0 01-.068.218.268.268 0 01-.129.116.685.685 0 01-.211.027h-4.208zm10.167-2.356a.58.58 0 01-.156.17.394.394 0 01-.212.048.657.657 0 01-.279-.068 8.478 8.478 0 00-.32-.143 3.155 3.155 0 00-.408-.15 1.83 1.83 0 00-.524-.068c-.305 0-.541.064-.709.191a.578.578 0 00-.251.49c0 .141.047.259.143.354.095.095.22.179.374.252.159.068.338.134.538.197.2.059.404.125.613.198.213.073.419.156.619.252.2.095.377.215.531.361.159.14.286.313.382.517.095.2.143.443.143.729 0 .34-.064.655-.191.946a2.035 2.035 0 01-.545.742c-.24.209-.54.372-.899.49a3.958 3.958 0 01-1.239.177c-.24 0-.479-.022-.715-.068-.236-.041-.46-.1-.674-.177a4.518 4.518 0 01-.599-.279 2.678 2.678 0 01-.483-.34l.436-.702a.575.575 0 01.183-.19.567.567 0 01.293-.068.58.58 0 01.313.088l.32.184c.118.064.257.125.416.184.163.054.365.082.606.082.181 0 .338-.021.469-.062a.915.915 0 00.32-.163.664.664 0 00.177-.238.674.674 0 00.062-.28.493.493 0 00-.15-.374 1.22 1.22 0 00-.381-.259 3.76 3.76 0 00-.538-.197 13.937 13.937 0 01-.627-.198 5.67 5.67 0 01-.619-.258c-.2-.1-.379-.225-.538-.375a1.884 1.884 0 01-.381-.565 2.038 2.038 0 01-.143-.81c0-.291.056-.565.17-.824.113-.263.284-.495.511-.694.227-.2.508-.359.844-.477a3.59 3.59 0 011.178-.177c.499 0 .953.082 1.361.245.409.163.745.377 1.008.64l-.429.667zm6.024 0a.569.569 0 01-.157.17.39.39 0 01-.211.048.657.657 0 01-.279-.068 8.478 8.478 0 00-.32-.143 3.155 3.155 0 00-.408-.15 1.833 1.833 0 00-.525-.068c-.304 0-.54.064-.708.191a.576.576 0 00-.252.49c0 .141.048.259.143.354.096.095.221.179.375.252.159.068.338.134.538.197.199.059.404.125.613.198.213.073.419.156.619.252.2.095.377.215.531.361.159.14.286.313.381.517.096.2.143.443.143.729 0 .34-.063.655-.19.946a2.035 2.035 0 01-.545.742c-.24.209-.54.372-.899.49a3.958 3.958 0 01-1.239.177c-.24 0-.479-.022-.715-.068-.236-.041-.46-.1-.674-.177a4.518 4.518 0 01-.599-.279 2.678 2.678 0 01-.483-.34l.436-.702a.566.566 0 01.183-.19.567.567 0 01.293-.068.58.58 0 01.313.088l.32.184c.118.064.257.125.416.184.163.054.365.082.606.082.181 0 .338-.021.469-.062a.915.915 0 00.32-.163.664.664 0 00.177-.238.674.674 0 00.062-.28.493.493 0 00-.15-.374 1.232 1.232 0 00-.381-.259 3.76 3.76 0 00-.538-.197 13.543 13.543 0 01-.627-.198 5.67 5.67 0 01-.619-.258c-.2-.1-.379-.225-.538-.375a1.865 1.865 0 01-.381-.565 2.038 2.038 0 01-.143-.81c0-.291.056-.565.17-.824.113-.263.284-.495.51-.694.227-.2.509-.359.845-.477a3.59 3.59 0 011.178-.177c.499 0 .953.082 1.361.245.409.163.745.377 1.008.64l-.429.667zm3.593-1.443v7.019h-1.879v-7.019h1.879zm.225-1.995c0 .159-.032.306-.095.443-.064.136-.15.256-.259.36a1.1 1.1 0 01-.375.245c-.14.06-.292.089-.456.089a1.112 1.112 0 01-.803-.334 1.249 1.249 0 01-.252-.36 1.106 1.106 0 01-.089-.443 1.106 1.106 0 01.341-.81 1.13 1.13 0 01.803-.334c.164 0 .316.03.456.089a1.1 1.1 0 01.375.245c.109.104.195.227.259.367.063.137.095.284.095.443zm4.545 1.886c.526 0 1.005.084 1.436.252a3.12 3.12 0 011.825 1.852c.168.445.252.946.252 1.504a4.29 4.29 0 01-.252 1.512 3.205 3.205 0 01-.715 1.137 3.133 3.133 0 01-1.11.722c-.431.168-.91.252-1.436.252a3.998 3.998 0 01-1.45-.252 3.125 3.125 0 01-1.11-.722 3.292 3.292 0 01-.722-1.137 4.29 4.29 0 01-.252-1.512c0-.558.084-1.059.252-1.504.173-.445.413-.822.722-1.13a3.111 3.111 0 011.11-.722 3.998 3.998 0 011.45-.252zm0 5.821c.535 0 .933-.184 1.191-.551.259-.373.388-.924.388-1.655 0-.726-.129-1.273-.388-1.641-.258-.372-.656-.558-1.191-.558-.549 0-.953.186-1.212.558-.259.368-.388.915-.388 1.641 0 .731.129 1.282.388 1.655.259.367.663.551 1.212.551zm6.436-4.895c.14-.136.286-.261.436-.375.154-.113.315-.211.483-.292a2.675 2.675 0 011.198-.259c.381 0 .72.066 1.015.197.295.132.542.316.742.552a2.3 2.3 0 01.456.844c.104.327.157.685.157 1.076v4.459h-1.873v-4.459c0-.391-.091-.692-.272-.906-.182-.218-.449-.326-.804-.326-.263 0-.51.056-.742.17a2.56 2.56 0 00-.66.476v5.045h-1.879v-7.019h1.157c.236 0 .393.109.47.327l.116.49zm-111.219 58.545v2.181H660.5v-12.966h2.681v10.785h5.013zm5.076-7.175c.691 0 1.319.11 1.885.33a4.122 4.122 0 011.457.948c.405.405.718.899.938 1.483.22.584.331 1.242.331 1.975 0 .733-.111 1.394-.331 1.984a4.217 4.217 0 01-.938 1.492 4.106 4.106 0 01-1.457.947 5.142 5.142 0 01-1.885.331c-.697 0-1.332-.11-1.904-.331a4.102 4.102 0 01-1.456-.947 4.34 4.34 0 01-.948-1.492c-.22-.59-.33-1.251-.33-1.984 0-.733.11-1.391.33-1.975a4.235 4.235 0 01.948-1.483c.405-.411.89-.727 1.456-.948a5.266 5.266 0 011.904-.33zm0 7.64c.703 0 1.224-.241 1.563-.724.34-.488.51-1.212.51-2.171 0-.953-.17-1.671-.51-2.154-.339-.488-.86-.733-1.563-.733-.721 0-1.251.245-1.591.733-.34.483-.509 1.201-.509 2.154 0 .959.169 1.683.509 2.171.34.483.87.724 1.591.724zm19.344-7.497l-2.896 9.213h-1.992a.438.438 0 01-.277-.098c-.078-.066-.137-.176-.179-.331l-1.501-4.986a11.89 11.89 0 01-.161-.563 17.046 17.046 0 01-.116-.572c-.042.19-.087.384-.134.581-.042.19-.093.381-.152.571l-1.519 4.969c-.084.286-.262.429-.537.429h-1.894l-2.895-9.213h1.966c.178 0 .327.041.446.125.126.083.209.19.251.322l1.135 4.557c.071.292.134.575.187.849.054.274.104.545.152.813.072-.268.146-.539.224-.813l.259-.849 1.349-4.575a.616.616 0 01.241-.313.709.709 0 01.42-.125h1.091c.172 0 .318.041.437.125a.606.606 0 01.251.313l1.304 4.575c.084.286.164.569.242.849.077.274.148.551.214.831.048-.274.098-.548.152-.822.059-.28.128-.566.205-.858l1.189-4.557a.61.61 0 01.241-.322.709.709 0 01.42-.125h1.877zm9.416 2.386c.435 0 .81-.054 1.126-.161.315-.113.574-.265.777-.456.203-.197.351-.426.447-.688a2.5 2.5 0 00.143-.858c0-.613-.206-1.09-.617-1.43-.405-.339-1.024-.509-1.858-.509h-1.395v4.102h1.377zm6.282 6.827h-2.422c-.453 0-.78-.173-.983-.518l-2.466-3.977a1.038 1.038 0 00-.34-.34c-.119-.071-.298-.107-.536-.107h-.912v4.942h-2.68v-12.966h4.075c.905 0 1.679.095 2.323.286.643.184 1.171.443 1.582.777.411.334.711.733.902 1.197.191.459.286.965.286 1.52 0 .428-.062.837-.188 1.224-.119.381-.294.73-.527 1.045a3.807 3.807 0 01-.858.84 4.402 4.402 0 01-1.161.59c.172.095.333.212.482.349.149.131.283.288.402.473l3.021 4.665zm3.343-9.213v9.213h-2.466v-9.213h2.466zm.295-2.619c0 .209-.042.403-.125.581a1.563 1.563 0 01-.34.474 1.541 1.541 0 01-1.09.438c-.202 0-.396-.039-.581-.116a1.533 1.533 0 01-.473-.322 1.663 1.663 0 01-.331-.474 1.449 1.449 0 01-.116-.581c0-.208.039-.402.116-.58.084-.185.194-.346.331-.483s.295-.244.473-.322c.185-.077.379-.116.581-.116a1.541 1.541 0 011.09.438c.143.137.257.298.34.483.083.178.125.372.125.58zm7.538 4.513a.768.768 0 01-.206.224.52.52 0 01-.277.062.855.855 0 01-.366-.089c-.125-.06-.265-.122-.42-.188a3.955 3.955 0 00-.536-.196 2.367 2.367 0 00-.688-.09c-.399 0-.709.084-.93.25a.76.76 0 00-.33.644.63.63 0 00.187.464c.126.126.289.236.492.331.208.089.444.176.706.259.262.078.53.164.804.259.28.096.551.206.813.331.262.125.495.283.697.474.209.184.376.411.501.679.125.262.187.581.187.956 0 .447-.083.861-.25 1.242-.161.375-.399.7-.715.974a3.375 3.375 0 01-1.179.643c-.471.155-1.013.233-1.627.233-.315 0-.628-.03-.938-.09a5.172 5.172 0 01-.885-.232 5.917 5.917 0 01-.786-.366 3.485 3.485 0 01-.634-.447l.571-.921a.754.754 0 01.242-.25.752.752 0 01.384-.089.77.77 0 01.411.116l.42.241c.155.084.337.164.545.242.215.071.48.107.795.107.239 0 .444-.027.617-.081a1.2 1.2 0 00.42-.214.868.868 0 00.232-.313.877.877 0 00.081-.366.65.65 0 00-.197-.492 1.601 1.601 0 00-.5-.339 4.68 4.68 0 00-.706-.259 18.293 18.293 0 01-.822-.26 7.284 7.284 0 01-.813-.339 2.9 2.9 0 01-.706-.492 2.442 2.442 0 01-.501-.741c-.125-.292-.187-.647-.187-1.064 0-.381.074-.741.223-1.081a2.55 2.55 0 01.67-.911 3.31 3.31 0 011.108-.626c.447-.155.962-.232 1.546-.232.655 0 1.251.107 1.787.321.537.215.977.495 1.323.84l-.563.876zm4.645-6.005v7.56h.411a.872.872 0 00.366-.063.852.852 0 00.268-.25l2.038-2.716c.101-.137.214-.242.339-.313.131-.072.295-.107.492-.107h2.252l-2.646 3.36c-.208.28-.449.5-.723.661.137.095.256.205.357.331.101.125.2.265.295.42l2.851 4.441h-2.217c-.19 0-.354-.03-.491-.09a.776.776 0 01-.34-.339l-2.073-3.387c-.083-.143-.17-.235-.259-.277-.089-.042-.223-.062-.402-.062h-.518v4.155h-2.467v-13.324h2.467zm-61.049 22.195c.527 0 1.006.084 1.437.252.431.168.801.409 1.11.722.308.309.547.685.714 1.13.168.445.252.947.252 1.505 0 .558-.084 1.062-.252 1.511a3.203 3.203 0 01-.714 1.137 3.129 3.129 0 01-1.11.722c-.431.168-.91.252-1.437.252a4.002 4.002 0 01-1.45-.252 3.129 3.129 0 01-1.11-.722 3.29 3.29 0 01-.721-1.137 4.287 4.287 0 01-.252-1.511c0-.558.084-1.06.252-1.505a3.142 3.142 0 011.831-1.852 4.002 4.002 0 011.45-.252zm0 5.822c.536 0 .933-.184 1.192-.552.258-.372.388-.924.388-1.654 0-.727-.13-1.274-.388-1.641-.259-.372-.656-.558-1.192-.558-.549 0-.953.186-1.212.558-.258.367-.388.914-.388 1.641 0 .73.13 1.282.388 1.654.259.368.663.552 1.212.552zm5.018 1.307v-5.672l-.545-.095a.777.777 0 01-.347-.15.387.387 0 01-.13-.313v-.749h1.022v-.463c0-.399.061-.76.184-1.082a2.258 2.258 0 011.388-1.348 3.293 3.293 0 011.138-.184c.163 0 .317.011.462.034.15.018.3.047.45.088l-.041.926c-.009.141-.07.234-.184.279a1.035 1.035 0 01-.367.062c-.191 0-.364.02-.518.061a.87.87 0 00-.62.606 1.979 1.979 0 00-.081.613v.408h1.743v1.307h-1.682v5.672h-1.872zm10.738-5.202c.331 0 .617-.041.858-.122.24-.087.438-.202.592-.348.154-.149.268-.324.34-.524.073-.2.109-.417.109-.653 0-.468-.156-.831-.47-1.09-.308-.259-.78-.388-1.416-.388h-1.062v3.125h1.049zm4.786 5.202h-1.845c-.345 0-.595-.132-.749-.395l-1.879-3.03a.78.78 0 00-.259-.259c-.091-.054-.227-.081-.408-.081h-.695v3.765h-2.042v-9.879h3.104c.69 0 1.28.072 1.771.218.49.14.891.338 1.205.592.313.254.542.558.687.912.146.35.218.736.218 1.158 0 .327-.048.637-.143.932a2.658 2.658 0 01-.402.797 2.9 2.9 0 01-.653.64 3.377 3.377 0 01-.885.449 1.927 1.927 0 01.674.627l2.301 3.554zm4.257-2.935c-.458.023-.84.064-1.144.123a2.705 2.705 0 00-.728.218.98.98 0 00-.382.313.683.683 0 00-.108.374c0 .273.074.466.224.579.155.114.368.17.64.17.313 0 .583-.054.81-.163.232-.113.461-.288.688-.524v-1.09zm-3.826-3.111a4.163 4.163 0 011.368-.831 4.608 4.608 0 011.621-.279c.417 0 .789.068 1.116.204.332.137.611.327.838.572.231.241.408.529.531.865.122.336.184.704.184 1.103v4.412h-.858a.898.898 0 01-.409-.075c-.091-.05-.166-.154-.225-.313l-.149-.45c-.177.155-.35.291-.518.409a2.994 2.994 0 01-.51.299 2.706 2.706 0 01-.572.177 3.37 3.37 0 01-.674.062c-.309 0-.59-.041-.845-.123a1.9 1.9 0 01-.66-.361 1.645 1.645 0 01-.422-.606c-.1-.24-.15-.517-.15-.83 0-.259.066-.518.198-.776.131-.259.356-.493.674-.702.322-.213.748-.388 1.28-.524.535-.141 1.205-.22 2.008-.238v-.361c0-.44-.093-.763-.279-.967-.186-.209-.454-.313-.804-.313-.258 0-.474.032-.646.095a2.785 2.785 0 00-.456.198c-.128.068-.248.134-.361.197a.846.846 0 01-.395.089.565.565 0 01-.334-.096.986.986 0 01-.218-.238l-.333-.599zm9.003 4.194c.177.204.368.347.572.429.209.082.432.122.668.122.227 0 .433-.043.619-.129.186-.086.345-.22.477-.402.136-.186.24-.422.313-.708a4.17 4.17 0 00.109-1.021c0-.39-.032-.722-.095-.994a1.895 1.895 0 00-.259-.66.947.947 0 00-.402-.361 1.202 1.202 0 00-.531-.116c-.331 0-.61.066-.837.197a2.273 2.273 0 00-.634.565v3.078zm-.108-4.249c.14-.154.29-.295.449-.422.159-.131.329-.243.51-.333a2.49 2.49 0 01.586-.218 2.67 2.67 0 01.681-.082 2.275 2.275 0 011.852.947c.227.304.404.678.531 1.123.127.445.19.953.19 1.525 0 .527-.072 1.014-.217 1.464a3.52 3.52 0 01-.606 1.157 2.845 2.845 0 01-.954.77 2.749 2.749 0 01-1.232.272c-.381 0-.706-.057-.973-.17a2.46 2.46 0 01-.709-.463v2.798h-1.879v-9.287h1.158c.236 0 .392.109.47.327l.143.592zm7.942-.919v7.02h-1.879v-7.02h1.879zm.225-1.995c0 .159-.032.307-.096.443a1.194 1.194 0 01-.633.606c-.14.059-.293.088-.456.088a1.129 1.129 0 01-.803-.333 1.248 1.248 0 01-.252-.361 1.102 1.102 0 01-.089-.443c0-.158.03-.306.089-.442.063-.141.147-.263.252-.368a1.129 1.129 0 01.803-.333c.163 0 .316.029.456.088.146.059.27.141.375.245.109.105.195.227.258.368.064.136.096.284.096.442zm5.716 3.82a1.497 1.497 0 00-.579-.429 1.737 1.737 0 00-.654-.123c-.227 0-.433.044-.619.13a1.255 1.255 0 00-.484.408 2.071 2.071 0 00-.306.702 4.17 4.17 0 00-.109 1.021c0 .39.03.722.089.994s.143.492.251.66c.114.168.25.291.409.368.159.073.336.109.531.109.331 0 .608-.066.831-.198.227-.131.44-.317.64-.558v-3.084zm1.879-4.957v10.152h-1.158c-.24 0-.395-.109-.463-.327l-.156-.613a3.881 3.881 0 01-.45.422 2.93 2.93 0 01-.503.334 2.718 2.718 0 01-.586.211c-.209.05-.436.075-.681.075-.376 0-.721-.079-1.035-.238a2.383 2.383 0 01-.817-.695 3.512 3.512 0 01-.531-1.13 5.565 5.565 0 01-.19-1.525c0-.522.07-1.008.211-1.457.145-.449.349-.838.612-1.164.264-.327.581-.584.954-.77a2.731 2.731 0 011.239-.279c.381 0 .701.057.96.17.263.114.501.268.715.463v-3.629h1.879zm8.389 5.188c.64 0 1.108-.154 1.403-.463.299-.308.449-.73.449-1.266 0-.245-.039-.467-.116-.667a1.26 1.26 0 00-.34-.518 1.484 1.484 0 00-.572-.333 2.62 2.62 0 00-.824-.116h-1.294v3.363h1.294zm0-4.915c.676 0 1.26.079 1.75.238.495.159.901.381 1.219.667.317.282.551.618.701 1.008.154.39.231.815.231 1.273 0 .486-.079.931-.238 1.335a2.716 2.716 0 01-.722 1.041c-.322.291-.728.518-1.218.681-.491.159-1.065.238-1.723.238h-1.294v3.398h-2.042v-9.879h3.336zm6.613 4.017c.222-.4.479-.715.769-.947a1.594 1.594 0 011.021-.347c.318 0 .577.075.776.225l-.122 1.389c-.023.091-.059.154-.109.19a.327.327 0 01-.191.048c-.072 0-.177-.009-.313-.027a2.29 2.29 0 00-.381-.034c-.173 0-.327.025-.463.075-.132.05-.25.12-.354.211-.105.09-.2.202-.286.333a3.487 3.487 0 00-.232.45v4.296h-1.879v-7.02h1.11c.191 0 .322.034.395.102.073.069.125.187.157.354l.102.702zm6.376-1.267c.526 0 1.005.084 1.436.252.431.168.801.409 1.11.722.309.309.547.685.715 1.13.168.445.252.947.252 1.505 0 .558-.084 1.062-.252 1.511a3.205 3.205 0 01-.715 1.137 3.129 3.129 0 01-1.11.722c-.431.168-.91.252-1.436.252a4.007 4.007 0 01-1.451-.252 3.116 3.116 0 01-1.109-.722 3.277 3.277 0 01-.722-1.137 4.287 4.287 0 01-.252-1.511c0-.558.084-1.06.252-1.505a3.21 3.21 0 01.722-1.13 3.13 3.13 0 011.109-.722c.436-.168.92-.252 1.451-.252zm0 5.822c.535 0 .932-.184 1.191-.552.259-.372.388-.924.388-1.654 0-.727-.129-1.274-.388-1.641-.259-.372-.656-.558-1.191-.558-.55 0-.954.186-1.212.558-.259.367-.388.914-.388 1.641 0 .73.129 1.282.388 1.654.258.368.662.552 1.212.552zm7.241-2.465c.385 0 .669-.098.851-.293.186-.195.279-.447.279-.756 0-.322-.093-.574-.279-.755-.182-.186-.466-.279-.851-.279-.386 0-.67.093-.851.279-.182.181-.273.433-.273.755 0 .305.091.556.273.756.186.195.469.293.851.293zm1.777 4.058a.406.406 0 00-.116-.3.82.82 0 00-.313-.184 1.98 1.98 0 00-.457-.095 6.74 6.74 0 00-.565-.048 26.896 26.896 0 00-.619-.034 9.665 9.665 0 01-.627-.047c-.158.095-.29.208-.394.34a.685.685 0 00-.15.436c0 .113.025.218.075.313a.668.668 0 00.265.245c.123.068.284.12.484.157.199.041.449.061.748.061.309 0 .57-.02.783-.061.214-.041.386-.1.518-.177a.68.68 0 00.368-.606zm1.865-7.074v.687a.351.351 0 01-.095.259c-.059.064-.159.111-.3.143l-.572.116c.077.222.116.461.116.715 0 .349-.073.665-.218.946a2.174 2.174 0 01-.585.715c-.25.195-.545.347-.885.456a3.732 3.732 0 01-1.103.157c-.25 0-.484-.021-.702-.061-.19.118-.286.247-.286.388 0 .131.064.227.191.286.132.059.302.102.511.129.213.023.454.038.721.048.273.004.547.018.824.04.282.023.556.064.824.123.272.054.513.147.722.279.213.127.383.297.51.511.132.213.198.488.198.824 0 .313-.077.617-.232.912a2.452 2.452 0 01-.674.79c-.29.231-.649.417-1.076.558a4.632 4.632 0 01-1.457.211c-.54 0-1.009-.052-1.409-.157a3.233 3.233 0 01-.987-.408 1.727 1.727 0 01-.579-.586 1.377 1.377 0 01-.19-.694c0-.313.095-.579.285-.797.191-.218.454-.392.79-.524-.177-.1-.32-.229-.429-.388-.104-.163-.156-.374-.156-.633 0-.209.075-.429.224-.661.155-.231.391-.424.708-.578a2.28 2.28 0 01-.851-.763 2.026 2.026 0 01-.313-1.123c0-.35.071-.665.211-.947.146-.281.345-.519.599-.714.255-.2.554-.352.899-.457a3.88 3.88 0 011.124-.156c.599 0 1.127.118 1.586.354h2.056zm2.74.926c.223-.4.479-.715.77-.947.29-.231.631-.347 1.021-.347.318 0 .577.075.776.225l-.122 1.389c-.023.091-.059.154-.109.19a.329.329 0 01-.191.048c-.072 0-.177-.009-.313-.027a2.29 2.29 0 00-.381-.034c-.173 0-.327.025-.463.075-.132.05-.25.12-.354.211-.105.09-.2.202-.286.333a3.487 3.487 0 00-.232.45v4.296h-1.879v-7.02h1.11c.191 0 .322.034.395.102.072.069.125.187.156.354l.102.702zm7.663 1.525a1.87 1.87 0 00-.082-.558 1.237 1.237 0 00-.245-.47 1.163 1.163 0 00-.429-.32 1.43 1.43 0 00-.619-.123c-.449 0-.801.127-1.055.381-.255.255-.42.618-.497 1.09h2.927zm-2.955 1.116c.059.659.245 1.14.559 1.444.317.304.73.456 1.239.456.258 0 .481-.03.667-.089a3.4 3.4 0 00.497-.204l.388-.204a.724.724 0 01.347-.095c.146 0 .259.054.341.163l.544.681a3.044 3.044 0 01-.66.579c-.241.149-.49.27-.749.36a3.88 3.88 0 01-.783.177 5.468 5.468 0 01-.762.055c-.491 0-.949-.079-1.376-.238a3.234 3.234 0 01-1.11-.715 3.428 3.428 0 01-.742-1.178c-.181-.468-.272-1.01-.272-1.627a3.9 3.9 0 01.231-1.348 3.17 3.17 0 011.757-1.845c.422-.187.899-.28 1.43-.28.449 0 .862.073 1.239.218.381.141.708.347.98.62.277.272.491.608.64 1.007.155.395.232.847.232 1.355 0 .141-.007.257-.021.348a.597.597 0 01-.068.217.263.263 0 01-.129.116.685.685 0 01-.211.027h-4.208zm10.167-2.355a.58.58 0 01-.156.17.394.394 0 01-.212.048.644.644 0 01-.279-.069 7.186 7.186 0 00-.32-.142 2.884 2.884 0 00-.408-.15 1.796 1.796 0 00-.524-.068c-.305 0-.541.063-.709.19a.58.58 0 00-.251.49c0 .141.047.259.143.355.095.095.22.179.374.251a5.8 5.8 0 00.538.198c.2.059.404.125.613.197.213.073.419.157.619.252.2.096.377.216.531.361.159.141.286.313.382.518.095.199.143.442.143.728 0 .34-.064.656-.191.946a2.038 2.038 0 01-.545.743 2.59 2.59 0 01-.899.49 3.958 3.958 0 01-1.239.177c-.24 0-.479-.023-.715-.068-.236-.041-.46-.1-.674-.177a4.52 4.52 0 01-.599-.28 2.629 2.629 0 01-.483-.34l.436-.701a.579.579 0 01.183-.191.577.577 0 01.293-.068c.114 0 .218.03.313.089l.32.183c.118.064.257.125.416.184.163.055.365.082.606.082.181 0 .338-.02.469-.061a.916.916 0 00.32-.164.655.655 0 00.177-.238.673.673 0 00.062-.279.496.496 0 00-.15-.375 1.218 1.218 0 00-.381-.258 3.64 3.64 0 00-.538-.198 15.307 15.307 0 01-.627-.197 5.678 5.678 0 01-.619-.259 2.26 2.26 0 01-.538-.374 1.889 1.889 0 01-.381-.566 2.038 2.038 0 01-.143-.81c0-.29.056-.565.17-.824a1.94 1.94 0 01.511-.694c.227-.2.508-.359.844-.477a3.59 3.59 0 011.178-.177c.499 0 .953.082 1.361.245.409.164.745.377 1.008.64l-.429.668zm6.024 0a.569.569 0 01-.157.17.39.39 0 01-.211.048.644.644 0 01-.279-.069 7.186 7.186 0 00-.32-.142 2.884 2.884 0 00-.408-.15 1.798 1.798 0 00-.525-.068c-.304 0-.54.063-.708.19a.578.578 0 00-.252.49c0 .141.048.259.143.355.096.095.221.179.375.251a5.8 5.8 0 00.538.198c.199.059.404.125.613.197.213.073.419.157.619.252.2.096.377.216.531.361.159.141.286.313.381.518.096.199.143.442.143.728 0 .34-.063.656-.19.946a2.038 2.038 0 01-.545.743 2.59 2.59 0 01-.899.49 3.958 3.958 0 01-1.239.177c-.24 0-.479-.023-.715-.068-.236-.041-.46-.1-.674-.177a4.52 4.52 0 01-.599-.28 2.629 2.629 0 01-.483-.34l.436-.701a.57.57 0 01.183-.191.577.577 0 01.293-.068c.114 0 .218.03.313.089l.32.183c.118.064.257.125.416.184.163.055.365.082.606.082.181 0 .338-.02.469-.061a.916.916 0 00.32-.164.655.655 0 00.177-.238.673.673 0 00.062-.279.496.496 0 00-.15-.375 1.23 1.23 0 00-.381-.258 3.64 3.64 0 00-.538-.198 14.835 14.835 0 01-.627-.197 5.678 5.678 0 01-.619-.259 2.26 2.26 0 01-.538-.374 1.87 1.87 0 01-.381-.566 2.038 2.038 0 01-.143-.81c0-.29.056-.565.17-.824a1.95 1.95 0 01.51-.694c.227-.2.509-.359.845-.477a3.59 3.59 0 011.178-.177c.499 0 .953.082 1.361.245.409.164.745.377 1.008.64l-.429.668zm3.593-1.444v7.02h-1.879v-7.02h1.879zm.225-1.995c0 .159-.032.307-.095.443a1.215 1.215 0 01-.634.606c-.14.059-.292.088-.456.088a1.129 1.129 0 01-.803-.333 1.267 1.267 0 01-.252-.361 1.102 1.102 0 01-.089-.443c0-.158.03-.306.089-.442.064-.141.147-.263.252-.368a1.129 1.129 0 01.803-.333c.164 0 .316.029.456.088a1.184 1.184 0 01.634.613c.063.136.095.284.095.442zm4.545 1.886c.526 0 1.005.084 1.436.252.432.168.801.409 1.11.722.309.309.547.685.715 1.13.168.445.252.947.252 1.505 0 .558-.084 1.062-.252 1.511a3.205 3.205 0 01-.715 1.137 3.12 3.12 0 01-1.11.722c-.431.168-.91.252-1.436.252a3.998 3.998 0 01-1.45-.252 3.111 3.111 0 01-1.11-.722 3.292 3.292 0 01-.722-1.137 4.287 4.287 0 01-.252-1.511c0-.558.084-1.06.252-1.505.173-.445.413-.821.722-1.13a3.125 3.125 0 011.11-.722 3.998 3.998 0 011.45-.252zm0 5.822c.535 0 .933-.184 1.191-.552.259-.372.388-.924.388-1.654 0-.727-.129-1.274-.388-1.641-.258-.372-.656-.558-1.191-.558-.549 0-.953.186-1.212.558-.259.367-.388.914-.388 1.641 0 .73.129 1.282.388 1.654.259.368.663.552 1.212.552zm6.436-4.896c.14-.136.286-.261.436-.374a2.736 2.736 0 011.034-.484c.2-.045.416-.068.647-.068.381 0 .72.066 1.015.198.295.131.542.315.742.551.204.236.356.518.456.845.104.326.157.685.157 1.075v4.46h-1.873v-4.46c0-.39-.091-.692-.272-.905-.182-.218-.449-.327-.804-.327-.263 0-.51.057-.742.17a2.589 2.589 0 00-.66.477v5.045h-1.879v-7.02h1.157c.236 0 .393.109.47.327l.116.49z" fill="#000"/></g><defs><clipPath id="clip0_5_51569"><path fill="#fff" d="M0 0h880v355.538H0z"/></clipPath></defs></svg>