<svg width="163" height="163" viewBox="0 0 163 163" fill="none" xmlns="http://www.w3.org/2000/svg">
<g clip-path="url(#clip0_2_4416)">
<path d="M81.08 162.16C125.859 162.16 162.16 125.859 162.16 81.08C162.16 36.3008 125.859 0 81.08 0C36.3008 0 0 36.3008 0 81.08C0 125.859 36.3008 162.16 81.08 162.16Z" fill="#FAEFD2"/>
<path d="M108.22 25.7305H57.7002V109.04H108.22V25.7305Z" fill="#FAEFD2"/>
<path d="M108.22 111.54H57.7002C56.3202 111.54 55.2002 110.42 55.2002 109.04V25.7305C55.2002 24.3505 56.3202 23.2305 57.7002 23.2305H108.22C109.6 23.2305 110.72 24.3505 110.72 25.7305V109.04C110.72 110.42 109.6 111.54 108.22 111.54ZM60.2002 106.54H105.72V28.2305H60.2002V106.54Z" fill="#FEC52E"/>
<path d="M137.91 93.4199H88.1504V119.03H137.91V93.4199Z" fill="#FAEFD2"/>
<path d="M137.91 121.53H88.1504C86.7704 121.53 85.6504 120.41 85.6504 119.03V93.4199C85.6504 92.0399 86.7704 90.9199 88.1504 90.9199H137.91C139.29 90.9199 140.41 92.0399 140.41 93.4199V119.03C140.41 120.41 139.29 121.53 137.91 121.53ZM90.6504 116.53H135.41V95.9199H90.6504V116.53Z" fill="#FEC52E"/>
<path d="M66.6796 50.6406H46.6396V60.6606H66.6796V50.6406Z" fill="#FAEFD2"/>
<path d="M66.6796 63.1606H46.6396C45.2596 63.1606 44.1396 62.0406 44.1396 60.6606V50.6406C44.1396 49.2606 45.2596 48.1406 46.6396 48.1406H66.6796C68.0596 48.1406 69.1796 49.2606 69.1796 50.6406V60.6606C69.1796 62.0406 68.0596 63.1606 66.6796 63.1606ZM49.1396 58.1606H64.1796V53.1406H49.1396V58.1606Z" fill="#FEC52E"/>
<path d="M65.1197 61.5508H46.1997C42.4607 61.5508 39.4297 64.5818 39.4297 68.3208V128.361C39.4297 132.1 42.4607 135.131 46.1997 135.131H65.1197C68.8587 135.131 71.8897 132.1 71.8897 128.361V68.3208C71.8897 64.5818 68.8587 61.5508 65.1197 61.5508Z" fill="#FAEFD2"/>
<path d="M65.1197 137.631H46.1997C41.0897 137.631 36.9297 133.471 36.9297 128.361V68.3208C36.9297 63.2108 41.0897 59.0508 46.1997 59.0508H65.1197C70.2297 59.0508 74.3897 63.2108 74.3897 68.3208V128.361C74.3897 133.471 70.2297 137.631 65.1197 137.631ZM46.1997 64.0508C43.8497 64.0508 41.9297 65.9708 41.9297 68.3208V128.361C41.9297 130.711 43.8497 132.631 46.1997 132.631H65.1197C67.4697 132.631 69.3897 130.711 69.3897 128.361V68.3208C69.3897 65.9708 67.4697 64.0508 65.1197 64.0508H46.1997Z" fill="#FEC52E"/>
<path d="M56.23 96.1105C58.6822 96.1105 60.67 94.1226 60.67 91.6705C60.67 89.2183 58.6822 87.2305 56.23 87.2305C53.7779 87.2305 51.79 89.2183 51.79 91.6705C51.79 94.1226 53.7779 96.1105 56.23 96.1105Z" fill="#FEC52E"/>
<path d="M56.1996 79.4199C56.1996 79.4199 51.1696 90.7799 51.8996 91.4899C52.6296 92.1999 60.7096 91.2199 60.7096 91.2199C60.7096 91.2199 58.7996 84.0099 56.1996 79.4199Z" fill="#FEC52E"/>
</g>
<defs>
<clipPath id="clip0_2_4416">
<rect width="162.15" height="162.15" fill="white"/>
</clipPath>
</defs>
</svg>
